<svg width="24" height="25" viewBox="0 0 24 25" fill="none" xmlns="http://www.w3.org/2000/svg">
<path d="M12 0.680664C5.3726 0.680664 0 6.09953 0 12.7841C0 19.4687 5.3726 24.8876 12 24.8876C18.6274 24.8876 24 19.4687 24 12.7841C24 6.09958 18.6275 0.680664 12 0.680664ZM19.3539 20.2014C17.5304 22.0351 15.0953 23.1183 12.5232 23.24C9.95106 23.3617 7.42614 22.5132 5.44041 20.8598C3.45468 19.2064 2.15038 16.8665 1.78168 14.2961C1.41297 11.7258 2.00626 9.10898 3.44594 6.9557C4.88563 4.80242 7.06857 3.2669 9.56942 2.64832C12.0703 2.02974 14.7099 2.37243 16.9739 3.60961C19.2379 4.84679 20.9642 6.88984 21.8163 9.34065C22.6684 11.7915 22.5854 14.4745 21.5833 16.8669C21.0611 18.1134 20.304 19.2459 19.3539 20.2014Z" fill="black"/>
<path d="M11.1693 8.19286L14.9219 11.9779H5.59428V13.5917H14.9219L11.1693 17.3768L12.3006 18.5179L17.9847 12.7848L12.3006 7.05176L11.1693 8.19286Z" fill="black"/>
</svg>
