<svg width="461" height="455" viewBox="0 0 461 455" fill="none" xmlns="http://www.w3.org/2000/svg">
<path d="M140.165 164.07C140.165 164.07 199.769 136.579 253.534 130.345C253.534 130.345 262.308 137.772 266.013 152.027C266.013 152.027 271.787 171.073 273.48 177.404C273.48 177.404 275.908 192.773 276.111 194.927C276.111 194.927 280.792 217.899 285.012 224.496C285.012 224.496 298.555 251.008 300.326 253.433C300.326 253.433 317.292 290.377 317.503 294.216C317.503 294.216 319.025 301.803 306.159 305.841C306.159 305.841 263.231 324.281 230.91 326.942C230.91 326.942 222.276 327.986 218.156 316.776C218.156 316.776 199.935 280.91 199.053 277.269C199.053 277.269 187.182 248.05 180.22 238.397C180.22 238.397 153.937 196.834 152.33 193.892C152.33 193.892 139.215 167.482 140.163 164.068L140.165 164.07Z" stroke="white" stroke-opacity="0.69" stroke-width="2" stroke-miterlimit="10"/>
<path d="M145.589 167.11C145.589 167.11 211.718 138.923 249.067 136.287C249.067 136.287 251.141 136.389 252.369 139.207C252.369 139.207 271.843 182.034 271.905 190.068L173.977 218.767C173.977 218.767 145.679 180.745 145.589 167.11Z" stroke="white" stroke-opacity="0.69" stroke-width="2" stroke-miterlimit="10"/>
<path d="M262.936 185.595C263.391 186.723 262.581 188.02 261.033 188.459L181.448 211.794C179.881 212.232 178.231 211.696 177.729 210.554L162.622 175.483C162.149 174.361 163.013 173.089 164.519 172.65L244.149 149.322C245.695 148.841 247.286 149.381 247.797 150.543L262.936 185.595Z" stroke="white" stroke-opacity="0.69" stroke-width="2" stroke-miterlimit="10"/>
<path fill-rule="evenodd" clip-rule="evenodd" d="M245.211 158.542C244.977 159.697 243.901 160.551 243.381 161.609C241.668 162.339 238.817 162.908 237.447 163.511C236.125 163.122 234.787 162.739 233.551 162.141C234.067 161.423 235.376 160.994 236.827 160.527C239.726 159.625 243.184 158.234 245.212 158.54L245.211 158.542Z" fill="white" fill-opacity="0.25" stroke="white" stroke-opacity="0.69" stroke-width="2" stroke-miterlimit="10"/>
<path fill-rule="evenodd" clip-rule="evenodd" d="M224.704 164.919C224.273 165.993 223.381 166.946 222.748 168.018C220.652 168.526 218.793 169.684 216.807 169.859C215.324 169.995 214.108 168.788 212.953 168.54C214.493 167.254 218.789 165.853 221.903 165.069C223.003 164.84 223.908 164.845 224.706 164.919L224.704 164.919Z" fill="white" fill-opacity="0.25" stroke="white" stroke-opacity="0.69" stroke-width="2" stroke-miterlimit="10"/>
<path fill-rule="evenodd" clip-rule="evenodd" d="M204.01 171.362C203.756 172.473 202.686 173.382 202.162 174.434C200.197 175.184 198.119 175.686 196.275 176.35C194.906 176.034 193.729 175.523 192.431 175.14C193.541 173.532 197.994 172.558 200.965 171.684C202.02 171.404 203.261 171.086 204.008 171.361L204.01 171.362Z" fill="white" fill-opacity="0.25" stroke="white" stroke-opacity="0.69" stroke-width="2" stroke-miterlimit="10"/>
<path fill-rule="evenodd" clip-rule="evenodd" d="M228.887 178.236C228.404 178.101 226.941 178.059 226.454 177.479C226.263 177.283 226.276 176.741 226.089 176.373C225.757 175.341 225.141 173.816 224.637 172.32C224.147 170.982 223.333 169.376 223.336 168.419C223.322 167.686 225.263 165.74 225.377 165.201C225.944 165.431 226.795 165.801 227.082 166.385C228.386 169.017 229.059 173.343 230.378 176.232C229.948 176.916 229.253 177.546 228.885 178.234L228.887 178.236Z" fill="white" fill-opacity="0.25" stroke="white" stroke-opacity="0.69" stroke-width="2" stroke-miterlimit="10"/>
<path fill-rule="evenodd" clip-rule="evenodd" d="M217.724 181.697C216.991 181.631 216.455 181.293 215.762 181.18C215.36 179.639 214.636 177.749 213.992 175.816C213.202 173.472 212.025 171.029 212.505 169.267C214.02 169.377 215.255 170.019 216.578 170.499C217.142 171.777 217.543 173.312 218.086 174.896C218.576 176.362 219.657 178.07 219.524 179.23C219.451 180.166 218.137 180.937 217.723 181.701L217.724 181.697Z" fill="white" fill-opacity="0.25" stroke="white" stroke-opacity="0.69" stroke-width="2" stroke-miterlimit="10"/>
<path fill-rule="evenodd" clip-rule="evenodd" d="M208.155 184.689C207.659 184.529 206.205 184.507 205.765 183.941C205.357 183.485 205.315 182.52 204.986 181.622C204.486 180.047 203.933 178.659 203.429 177.028C203.192 176.243 202.711 175.413 202.712 174.804C202.788 173.611 204.59 172.502 204.815 171.681C204.886 171.66 205.006 171.658 205.048 171.617C206.79 172.486 207.204 175.057 208.036 177.586C208.668 179.495 209.717 181.349 209.654 182.572C209.595 183.454 208.348 184.106 208.153 184.689L208.155 184.689Z" fill="white" fill-opacity="0.25" stroke="white" stroke-opacity="0.69" stroke-width="2" stroke-miterlimit="10"/>
<path fill-rule="evenodd" clip-rule="evenodd" d="M197.209 188.101C196.391 188.154 195.822 187.79 195.178 187.568C194.269 183.69 191.592 179.198 191.863 175.665C193.46 175.735 194.605 176.524 195.985 176.866C197.09 179.856 197.838 182.673 198.943 185.621C198.552 186.52 197.764 187.256 197.207 188.1L197.209 188.101Z" fill="white" fill-opacity="0.25" stroke="white" stroke-opacity="0.69" stroke-width="2" stroke-miterlimit="10"/>
<path fill-rule="evenodd" clip-rule="evenodd" d="M247.723 174.224C245.408 174.911 243.077 175.606 240.729 176.266C240.061 176.167 239.426 176.007 238.964 175.567C239.502 174.942 239.969 173.595 241.565 173.049C243.051 172.523 245.589 171.576 246.57 171.488C247.082 171.423 249.164 172.026 249.246 172.205C249.505 172.728 247.872 173.59 247.719 174.223L247.723 174.224Z" fill="white" fill-opacity="0.25" stroke="white" stroke-opacity="0.69" stroke-width="2" stroke-miterlimit="10"/>
<path fill-rule="evenodd" clip-rule="evenodd" d="M228.674 178.692C228.209 179.344 227.705 179.994 227.155 180.637C225.556 181.134 223.454 181.629 221.719 182.047C220.206 182.425 219.335 182.714 218.346 182.003C218.403 181.071 219.512 180.512 219.896 179.686C221.863 179.247 224.113 178.026 226.082 177.854C227.191 177.777 227.76 178.672 228.673 178.69L228.674 178.692Z" fill="white" fill-opacity="0.25" stroke="white" stroke-opacity="0.69" stroke-width="2" stroke-miterlimit="10"/>
<path fill-rule="evenodd" clip-rule="evenodd" d="M207.993 185.219C207.574 185.878 206.963 186.519 206.455 187.164C204.877 187.661 202.791 188.109 201.003 188.584C199.51 188.963 198.613 189.239 197.687 188.531C197.989 188.007 198.284 186.676 199.515 186.03C200.324 185.605 201.882 185.37 203.204 185.056C203.898 184.864 204.944 184.431 205.454 184.403C206.552 184.349 207.161 185.197 207.993 185.219Z" fill="white" fill-opacity="0.25" stroke="white" stroke-opacity="0.69" stroke-width="2" stroke-miterlimit="10"/>
<path fill-rule="evenodd" clip-rule="evenodd" d="M242.192 188.907C241.276 188.53 240.829 187.504 240.421 186.263C239.362 183.421 238.626 180.58 237.471 177.612C237.902 177.147 238.216 176.605 238.66 176.129C239.723 176.214 240.573 176.627 241.482 176.901C242.287 178.97 243.164 181.328 243.834 183.496C244.058 184.249 244.625 185.095 244.659 185.695C244.662 186.622 242.868 188.143 242.194 188.908L242.192 188.907Z" fill="white" fill-opacity="0.25" stroke="white" stroke-opacity="0.69" stroke-width="2" stroke-miterlimit="10"/>
<path fill-rule="evenodd" clip-rule="evenodd" d="M234.749 191.766C233.336 191.618 232.222 191.11 230.976 190.712C229.797 187.475 228.732 184.219 227.736 181.032C227.865 180.264 228.549 179.693 229.108 179.032C229.619 179.357 231.059 179.305 231.598 179.913C231.873 180.211 231.817 180.703 232.016 181.179C232.525 182.688 233.166 184.75 233.825 186.589C234.544 188.599 235.583 190.476 234.746 191.767L234.749 191.766Z" fill="white" fill-opacity="0.25" stroke="white" stroke-opacity="0.69" stroke-width="2" stroke-miterlimit="10"/>
<path fill-rule="evenodd" clip-rule="evenodd" d="M213.995 198.213C212.586 198.071 211.482 197.546 210.242 197.159C208.945 193.838 208.155 190.75 206.838 187.429C207.217 186.766 207.868 186.17 208.275 185.524C209.306 185.627 210.113 186.029 210.983 186.31C211.42 188.011 212.157 189.845 212.765 191.657C213.568 194.032 214.8 196.459 213.995 198.213Z" fill="white" fill-opacity="0.25" stroke="white" stroke-opacity="0.69" stroke-width="2" stroke-miterlimit="10"/>
<path fill-rule="evenodd" clip-rule="evenodd" d="M200.351 189.83C200.835 191.856 201.776 194.132 202.57 196.439C202.795 197.149 203.215 198.027 203.213 198.592C203.19 199.86 201.325 200.743 200.934 201.861C199.264 201.106 198.707 198.35 197.935 195.825C197.338 193.862 196.198 191.938 196.219 190.622C196.257 189.916 197.234 189.418 197.346 188.916C198.392 189.141 199.402 189.419 200.353 189.829L200.351 189.83Z" fill="white" fill-opacity="0.25" stroke="white" stroke-opacity="0.69" stroke-width="2" stroke-miterlimit="10"/>
<path fill-rule="evenodd" clip-rule="evenodd" d="M234.231 192.478C232.65 193.628 228.806 194.792 226.01 195.527C224.667 195.881 223.379 195.964 222.431 195.731C222.814 194.679 223.737 193.758 224.481 192.793C226.39 192.23 228.538 191.658 229.948 191.098C231.413 191.535 232.958 191.798 234.232 192.477L234.231 192.478Z" fill="white" fill-opacity="0.25" stroke="white" stroke-opacity="0.69" stroke-width="2" stroke-miterlimit="10"/>
<path fill-rule="evenodd" clip-rule="evenodd" d="M213.464 198.766C212.675 200.07 209.548 200.561 207.182 201.356C205.074 202.016 202.999 202.658 201.691 202.166C202.143 201.617 202.857 199.754 203.864 199.234C204.55 198.846 205.809 198.617 206.86 198.238C207.549 198.033 208.643 197.614 209.242 197.565C210.828 197.391 212.081 198.771 213.464 198.765L213.464 198.766Z" fill="white" fill-opacity="0.25" stroke="white" stroke-opacity="0.69" stroke-width="2" stroke-miterlimit="10"/>
<path fill-rule="evenodd" clip-rule="evenodd" d="M249.247 171.93C248.786 171.49 247.519 171.617 247.04 171.055C246.379 170.266 246.324 168.696 245.919 167.504C245.194 165.524 244.464 163.53 243.895 161.89C244.527 160.861 245.36 159.87 246.024 158.865C246.095 158.843 246.169 158.827 246.273 158.795C248.079 159.715 248.462 162.267 249.375 164.877C249.672 165.657 249.917 166.546 250.203 167.344C250.514 168.24 251.034 169.206 250.994 169.729C250.94 170.623 249.655 171.365 249.25 171.929L249.247 171.93Z" fill="white" fill-opacity="0.25" stroke="white" stroke-opacity="0.69" stroke-width="2" stroke-miterlimit="10"/>
<path fill-rule="evenodd" clip-rule="evenodd" d="M254.861 186.066C253.297 187.034 248.156 188.828 245.557 189.334C244.708 189.495 243.794 189.386 243.233 189.168C243.678 188.211 244.525 187.385 245.093 186.475C247.133 186.021 248.833 184.911 250.68 184.736C252.233 184.621 253.588 185.829 254.862 186.068L254.861 186.066Z" fill="white" fill-opacity="0.25" stroke="white" stroke-opacity="0.69" stroke-width="2" stroke-miterlimit="10"/>
<path d="M170.997 222.908C170.997 222.908 230.304 202.626 275.92 192.131" stroke="white" stroke-opacity="0.69" stroke-width="2" stroke-miterlimit="10"/>
<path d="M267.102 203.709C268.272 206.487 266.085 209.608 262.219 210.764C258.321 211.894 254.233 210.589 253.033 207.833C251.85 205.115 254.04 201.959 257.944 200.841C261.805 199.673 265.941 200.991 267.102 203.709Z" stroke="white" stroke-opacity="0.69" stroke-width="2" stroke-miterlimit="10"/>
<path d="M202.388 224.057C202.67 224.722 202.164 225.499 201.235 225.749L186.707 230.057C185.744 230.322 184.751 229.99 184.47 229.332L182.132 223.908C181.831 223.25 182.343 222.483 183.303 222.211L197.873 217.953C198.771 217.679 199.8 218 200.036 218.644L202.39 224.056L202.388 224.057Z" stroke="white" stroke-opacity="0.69" stroke-width="2" stroke-miterlimit="10"/>
<path d="M230.441 215.62C230.747 216.292 230.193 217.057 229.264 217.305L214.688 221.593C213.76 221.848 212.797 221.542 212.515 220.878L210.147 215.476C209.878 214.801 210.385 214.022 211.318 213.779L225.893 209.486C226.83 209.213 227.818 209.526 228.081 210.191L230.443 215.621L230.441 215.62Z" stroke="white" stroke-opacity="0.69" stroke-width="2" stroke-miterlimit="10"/>
<path d="M229.105 204.71L233.379 214.676C233.379 214.676 235.111 217.85 230.123 219.321L178.319 234.502" stroke="white" stroke-opacity="0.69" stroke-width="2" stroke-miterlimit="10"/>
<path d="M211.636 256.632C218.322 253.918 225.51 252.432 232.525 250.695C233.754 250.446 234.926 250.152 236.115 249.858C241.017 248.774 245.961 247.6 250.565 245.949C257.507 243.483 264.364 240.441 271.893 239.346C271.893 239.346 274.776 240.078 274.983 241.366C274.983 241.366 278.045 246.264 275.947 247.997C275.947 247.997 274.589 248.363 272.703 248.89C262.57 251.838 252.195 253.685 242.318 257.497C241.14 257.907 239.978 258.349 238.769 258.775C237.988 259.085 237.19 259.358 236.436 259.645C235.622 259.93 234.81 260.214 234.037 260.501C227.201 262.799 217.011 268.477 212.694 261.839C212.115 260.968 212.064 259.935 211.742 259.057C211.742 259.057 211.182 257.656 211.636 256.632V256.632Z" stroke="white" stroke-opacity="0.69" stroke-width="2" stroke-miterlimit="10"/>
<path d="M236.84 310.006C238.002 312.681 235.883 315.774 232.056 316.883C228.274 318.006 224.233 316.716 223.076 314.054C221.937 311.343 224.068 308.276 227.876 307.166C231.678 306.044 235.717 307.328 236.842 310.008L236.84 310.006Z" stroke="white" stroke-opacity="0.69" stroke-width="2" stroke-miterlimit="10"/>
<path d="M258.834 303.374C259.962 305.975 257.857 309.008 254.114 310.083C250.379 311.177 246.498 309.929 245.366 307.323C244.181 304.683 246.31 301.659 250.034 300.587C253.757 299.468 257.672 300.741 258.834 303.374V303.374Z" stroke="white" stroke-opacity="0.69" stroke-width="2" stroke-miterlimit="10"/>
<path d="M280.905 296.56C282.083 299.181 279.964 302.188 276.257 303.295C272.519 304.383 268.596 303.135 267.475 300.503C266.33 297.867 268.414 294.875 272.169 293.782C275.875 292.668 279.791 293.948 280.905 296.56Z" stroke="white" stroke-opacity="0.69" stroke-width="2" stroke-miterlimit="10"/>
<path d="M310.401 287.764C311.554 290.506 309.408 293.671 305.494 294.812C301.614 295.937 297.528 294.639 296.31 291.889C295.135 289.146 297.334 286.007 301.205 284.857C305.115 283.709 309.203 285.014 310.401 287.764V287.764Z" stroke="white" stroke-opacity="0.69" stroke-width="2" stroke-miterlimit="10"/>
<path d="M278.872 243.287L279.068 242.972L279.696 242.235L278.902 240.898L277.826 241.002C277.531 240.448 277.19 239.915 276.886 239.428L276.954 239.272L277.466 238.5L276.379 237.261L275.4 237.447C275.023 237.017 274.661 236.619 274.238 236.223L274.309 236.074L274.702 235.268L273.452 234.112L272.33 234.421C271.906 234.064 271.497 233.742 271.076 233.438L271.077 233.176L271.25 232.323L269.695 231.424L268.675 231.828C268.144 231.544 267.59 231.212 267.016 230.921L266.934 230.655L266.876 229.823L265.067 229.202L264.319 229.672C263.746 229.429 263.194 229.23 262.63 229.007L262.477 228.671L262.275 227.877L260.349 227.44L259.552 228.067C258.826 227.878 258.129 227.718 257.384 227.541L257.304 227.367L256.924 226.577L254.902 226.325L254.227 226.998C253.381 226.903 252.505 226.789 251.665 226.75L251.508 226.586L251.026 225.883L248.962 225.8L248.359 226.587C247.746 226.605 247.124 226.605 246.532 226.629L246.238 226.423L245.554 225.803L243.496 226.043L243.079 226.844C242.376 226.932 241.653 227.018 240.924 227.136L240.55 226.974L239.689 226.452L237.692 227.001L237.54 227.721C236.954 227.886 236.358 228.033 235.689 228.196L235.18 228.005L234.241 227.619L232.318 228.328L232.341 229.213C231.617 229.429 230.921 229.705 230.215 229.963L229.834 229.875L228.826 229.561L227.036 230.428L227.15 231.293C226.233 231.744 225.371 232.185 224.526 232.663L224.193 232.638L223.122 232.449L221.513 233.493L221.784 234.352C221.349 234.67 220.893 234.993 220.465 235.33L220.021 235.325L218.867 235.303L217.498 236.565L218.054 237.301C217.538 237.707 217.09 238.178 216.605 238.61L216.23 238.711L215.095 238.86L214.063 240.246L214.678 240.758C214.313 241.189 213.966 241.613 213.646 242.058L213.198 242.216L212.076 242.482L211.298 243.938L212.068 244.44C211.75 244.976 211.446 245.537 211.161 246.099L210.942 246.187L209.897 246.535L209.37 248.056L210.218 248.463C209.959 249.124 209.762 249.793 209.572 250.474L209.467 250.507L208.45 250.96L208.187 252.492L209.132 252.804C209.084 253.314 208.999 253.786 209.01 254.292L208.846 254.42L207.909 255.005L208.116 256.513L209.04 256.69C209.1 257.259 209.157 257.823 209.25 258.425L209.146 258.548L208.391 259.225L208.956 260.632L209.813 260.666C209.926 261.135 210.127 261.661 210.312 262.157L210.164 262.358L209.54 263.101L210.376 264.447L211.341 264.363C211.659 264.925 212.001 265.457 212.343 265.983L212.27 266.041L211.816 266.845L212.901 268.078L213.795 267.926C214.202 268.375 214.534 268.797 215 269.199L214.938 269.282L214.594 270.067L215.797 271.207L216.867 270.958C217.293 271.316 217.761 271.639 218.178 271.981L218.203 272.164L218.03 273.017L219.556 273.896L220.504 273.507C221.128 273.861 221.665 274.206 222.304 274.506L222.353 274.703L222.398 275.504L224.204 276.162L224.919 275.709C225.504 275.934 226.075 276.177 226.655 276.389L226.759 276.662L227.008 277.47L228.931 277.902L229.683 277.309C230.412 277.498 231.139 277.685 231.909 277.831L231.995 277.974L232.374 278.758L234.33 279.044L235.025 278.37C235.872 278.466 236.762 278.567 237.65 278.621L237.73 278.752L238.228 279.449L240.279 279.543L240.878 278.786C241.514 278.775 242.138 278.732 242.805 278.742L243.025 278.916L243.751 279.536L245.773 279.307L246.174 278.518C246.894 278.425 247.634 278.333 248.414 278.235L248.721 278.382L249.597 278.894L251.592 278.34L251.703 277.618C252.34 277.473 252.961 277.297 253.568 277.175L254.067 277.299L255.043 277.722L256.965 277.006L256.976 276.153C257.689 275.912 258.371 275.648 259.028 275.375L259.425 275.453L260.405 275.755L262.242 274.901L262.134 274.049C262.996 273.608 263.913 273.157 264.736 272.672L265.046 272.691L266.133 272.874L267.763 271.829L267.456 270.982C267.928 270.653 268.353 270.353 268.782 270.016L269.253 269.993L270.389 270.02L271.769 268.776L271.208 268.034C271.74 267.616 272.159 267.169 272.625 266.743L273.043 266.65L274.183 266.506L275.202 265.09L274.571 264.545C274.93 264.145 275.272 263.707 275.582 263.287L276.093 263.131L277.193 262.858L277.983 261.425L277.169 260.917C277.48 260.367 277.774 259.825 278.018 259.261L278.308 259.151L279.412 258.798L279.924 257.282L279.032 256.869C279.241 256.231 279.476 255.556 279.652 254.93L279.785 254.826L280.822 254.373L281.097 252.865L280.064 252.494C280.155 252.035 280.173 251.589 280.211 251.104L280.491 250.926L281.349 250.345L281.182 248.838L280.185 248.676C280.129 248.112 280.101 247.568 279.96 246.997L280.144 246.785L280.879 246.106L280.317 244.7L279.384 244.682C279.265 244.2 279.079 243.748 278.888 243.29L278.872 243.287Z" stroke="white" stroke-opacity="0.69" stroke-width="2" stroke-miterlimit="10"/>
<path d="M129.118 160.487C129.118 160.487 131.711 157.773 134.895 157.011C134.895 157.011 186.814 133.036 250.352 122.364C250.352 122.364 259.511 118.029 264.279 126.357C264.279 126.357 268.883 131.646 272.179 140.871C272.179 140.871 279.434 160.427 280.804 169.095C280.804 169.095 288.151 202.994 288.656 205.941C288.656 205.941 293.686 227.262 300.037 235.452L306.826 246.397C306.826 246.397 308.104 248.401 309.912 251.395C318.097 265.829 326.982 280.53 330.593 296.331C330.474 298.356 329.781 301.097 327.515 304.087C325.204 307.068 321.315 310.326 314.758 313.327C314.758 313.327 312.331 314.339 307.976 316.006C282.832 324.706 257.104 334.194 230.196 337.102C225.576 337.313 221.285 336.927 217.513 335.611C213.654 334.327 210.372 332.153 207.8 328.763C205.991 325.817 204.381 322.821 202.859 319.794C198.341 310.703 195.01 301.397 191.492 292.078C190.327 288.695 188.882 284.392 187.666 280.679C186.498 277.027 185.532 273.995 185.411 273.111C185.411 273.111 184.837 271.593 183.844 269.158C182.805 266.713 181.381 263.374 179.633 259.724C175.874 252.51 172.406 245.583 166.772 239.009C160.951 232.116 156.84 225.231 152.071 218.397C151.02 216.757 149.944 215.146 148.937 213.471C140.293 198.85 132.006 183.973 127.244 168.15C127.244 168.15 126.922 166.832 126.982 165.206C127.064 163.586 127.503 161.647 129.12 160.485L129.118 160.487Z" stroke="white" stroke-opacity="0.69" stroke-width="2" stroke-miterlimit="10"/>
</svg>
