<svg width="12" height="12" viewBox="0 0 12 12" fill="none" xmlns="http://www.w3.org/2000/svg">
<path d="M10.3317 3.54695C10.247 3.39895 10.1257 3.27562 9.97969 3.18899C9.83367 3.10235 9.66788 3.05537 9.49849 3.05262H3.22515L2.94089 1.93543C2.91217 1.82759 2.84809 1.73273 2.7591 1.6663C2.6701 1.59988 2.56143 1.5658 2.45078 1.56963H1.47057C1.34059 1.56963 1.21593 1.62171 1.12402 1.71441C1.0321 1.80712 0.980469 1.93285 0.980469 2.06396C0.980469 2.19506 1.0321 2.32079 1.12402 2.4135C1.21593 2.5062 1.34059 2.55829 1.47057 2.55829H2.0783L3.43099 7.63011C3.45971 7.73795 3.52379 7.83281 3.61278 7.89924C3.70178 7.96566 3.81045 7.99974 3.9211 7.99591H8.33204C8.42255 7.99564 8.51121 7.97009 8.5882 7.9221C8.66519 7.87411 8.72751 7.80555 8.76823 7.72403L10.3758 4.48123C10.4455 4.33393 10.4779 4.17152 10.4702 4.00849C10.4625 3.84547 10.4149 3.6869 10.3317 3.54695V3.54695Z" fill="white"/>
<path d="M3.67656 10.4683C4.08258 10.4683 4.41172 10.1364 4.41172 9.72685C4.41172 9.31733 4.08258 8.98535 3.67656 8.98535C3.27055 8.98535 2.94141 9.31733 2.94141 9.72685C2.94141 10.1364 3.27055 10.4683 3.67656 10.4683Z" fill="white"/>
<path d="M8.57695 10.4683C8.98297 10.4683 9.31211 10.1364 9.31211 9.72685C9.31211 9.31733 8.98297 8.98535 8.57695 8.98535C8.17094 8.98535 7.8418 9.31733 7.8418 9.72685C7.8418 10.1364 8.17094 10.4683 8.57695 10.4683Z" fill="white"/>
</svg>
