<svg xmlns="http://www.w3.org/2000/svg" viewBox="0 0 512 512"><defs><style>.cls-1{fill:#009adc;}</style></defs><g id="正面訊息"><path class="cls-1" d="M202.37,372.08h82c.6,0,1.19,0,1.79,0a6.6,6.6,0,0,0,1.18-12.92,11.12,11.12,0,0,0-2.79-.29q-24.85,0-49.68,0H224.48q-10.81,0-21.62,0h0c-2.88,0-4.92,1-6.24,3a6.62,6.62,0,0,0,5.78,10.33Z"/><path class="cls-1" d="M285,381.45c-8.92,0-72.33,0-82.57,0-4,0-6.81,2.58-6.91,6.39s2.67,6.73,6.73,6.85c2.78.07,5.32.06,7.76,0,.84-.05,1.08.14,1.33,1a26.69,26.69,0,0,0,8,12.49,34.78,34.78,0,0,0,23.74,9.19,41.1,41.1,0,0,0,5.47-.37c14.22-1.89,23.61-9.15,27.92-21.56.23-.68.38-.72.95-.74l1,0c2.4,0,4.88.08,7.32,0a6.75,6.75,0,0,0,5.24-2.76,6.65,6.65,0,0,0,.95-5.76C291.11,383.17,288.56,381.45,285,381.45ZM262.18,395a19.65,19.65,0,0,1-13.47,8.51c-9.21,1.62-16.44-.67-22.08-7-.13-.15-.28-.31-.43-.46-.45-.47-1.13-1.18-1-1.49a.71.71,0,0,1,.34-.05,8.72,8.72,0,0,1,.93.08,8.17,8.17,0,0,0,1.06.08q6.11,0,12.22,0l9.07,0c4.38,0,8.77,0,13.16,0h.4Z"/><path class="cls-1" d="M364.77,199.16c-.07-6.15-2.6-8.82-8.41-9-5-.16-10.07-.21-15.09,0a4.44,4.44,0,0,1-4.51-3.33,80.44,80.44,0,0,0-7.48-18.25,4.78,4.78,0,0,1,.85-5.92c3.53-3.32,7-6.77,10.3-10.3,3.76-4,3.93-8,.19-11.8q-10.68-11-21.71-21.6a8.89,8.89,0,0,0-12.12-.2c-3.62,3.35-7.14,6.84-10.52,10.45a4.84,4.84,0,0,1-5.87.94,86.66,86.66,0,0,0-18.34-7.65,4.55,4.55,0,0,1-3.43-4.54c.15-4.84.14-9.68,0-14.52-.15-6.16-4-9.51-10.32-8.62-9.38,1.32-18.9.25-28.38-.13-5.69-.23-8.84,2.84-9,8.68-.14,4.35.08,8.71,0,13.07,0,.4,0,3,.05,5.79-20.68,4.68-38.25,16-52.4,33.81-20.9,26.36-26.53,55.77-16.7,87.4,4,12.85,11.12,25.35,22.43,39.32A88.25,88.25,0,0,1,194.34,342a7.24,7.24,0,0,0,1.81,5.39,7.1,7.1,0,0,0,5.23,1.93h84.23c2.67,0,4.59-.63,5.86-1.93s1.88-3.25,1.83-5.95a88.67,88.67,0,0,1,7.62-38.47c1.94,1.95,3.88,3.91,5.91,5.75a9,9,0,0,0,12.13-.35q10.92-10.48,21.55-21.31a8.5,8.5,0,0,0,.1-11.7A143,143,0,0,0,330.3,265c-1.75-1.57-2.23-3-1.77-4.76,1.62-3,3.06-6,4.35-9.06a65.52,65.52,0,0,0,4-10.9c.6-2.31,1.82-3,4-2.95,5,.11,10.07.11,15.09,0,6.11-.16,8.77-2.88,8.83-9.14Q364.94,213.68,364.77,199.16Zm-99.28,13.28-15.66-.11L250,183l-6.93,0c-6.44-.11-11.65-4.52-11.65-10s5.31-9.95,11.84-10h6.5V133.22c38.58,2.22,71.32,32.64,76.58,71.63.35,2.57.54,5.12.64,7.66H309c-2.56-10.44-11.36-18.16-21.78-18.16S268.08,202,265.49,212.44Zm-20.44-105,0,0h0Zm-1.68.47h0ZM172.53,173.5c15.19-24.81,36.92-38.29,64.69-40.23v17.89c-10.52,2.51-18.33,11.31-18.33,21.79s7.89,19.38,18.49,21.84l-.11,17.46H209.68v6.28c0,6.55-4.47,11.87-10,11.87s-10-5.32-10-11.87v-6.28H160.36C160.78,199,164.83,186.07,172.53,173.5Zm36.58,162.57c-1.26,0-1.48-.11-1.55-1.47-1.12-22.33-8.51-42.15-22-58.92-9.42-11.75-15.39-21.46-19.35-31.47a84.27,84.27,0,0,1-5.18-19.4h16.86c2.56,10.44,11.36,18.16,21.78,18.16s19.22-7.72,21.79-18.16h15.64v.27h.08v27.27h6.29c6.54,0,11.87,4.48,11.87,10s-5.33,10-11.87,10h-6.29V336H234.8Q222,336,209.11,336.07Zm71.21-5.32-.1,1a19.76,19.76,0,0,0-.16,3.18c0,.65-.07.87-.14.94s-.46.25-1.19.21q-13.35-.06-26.7,0h-2.24V284.11c10.44-2.57,18.16-11.36,18.16-21.79s-7.72-19.21-18.16-21.78V225.07h27.5v-6.28c0-6.55,4.47-11.87,10-11.87s10,5.32,10,11.87v6.28h29.21c-1.51,11.61-5.74,23-12.8,34.37a166.24,166.24,0,0,1-11.72,16.42C289.43,291.45,282.16,309.92,280.32,330.75Zm42.87-61.57.11-.18.11.1Z"/></g></svg>