<?xml version="1.0" encoding="UTF-8"?><svg id="_圖層_1" xmlns="http://www.w3.org/2000/svg" viewBox="0 0 30 30"><defs><style>.cls-1{fill:#009adc;}</style></defs><g id="_正面訊息"><path class="cls-1" d="M11.05,25.34h7.46c.32-.03,.56-.32,.53-.64-.02-.24-.19-.44-.42-.51-.08-.02-.16-.03-.25-.03h-7.28c-.26,0-.44,.09-.56,.27-.18,.27-.11,.64,.16,.82,.11,.07,.23,.11,.36,.1h0Z"/><path class="cls-1" d="M18.41,26.17h-7.35c-.36,0-.61,.23-.62,.57s.24,.6,.6,.61c.25,0,.47,0,.69,0,.07,0,.1,.01,.12,.09,.13,.43,.37,.82,.71,1.11,.58,.53,1.33,.82,2.11,.82,.16,0,.33-.01,.49-.03,1.27-.17,2.1-.81,2.49-1.92,.02-.06,.03-.06,.08-.07h.09c.21,0,.43,0,.65,0,.19,0,.36-.1,.47-.25,.11-.15,.14-.34,.08-.51-.07-.27-.3-.42-.62-.42Zm-2.03,1.21c-.27,.41-.71,.69-1.2,.76-.82,.14-1.46-.06-1.97-.62-.01-.01-.02-.03-.04-.04-.04-.04-.1-.11-.09-.13,0,0,.02,0,.03,0,.03,0,.06,0,.08,0,.03,0,.06,0,.09,0h3.1l-.02,.03Z"/><path class="cls-1" d="M25.52,9.94c0-.55-.23-.79-.75-.8-.45-.01-.9-.02-1.34,0-.19,0-.36-.12-.4-.3-.15-.57-.38-1.11-.67-1.63-.1-.17-.07-.39,.08-.53,.31-.3,.62-.6,.92-.92,.33-.36,.35-.71,.02-1.05-.63-.65-1.28-1.29-1.93-1.92-.3-.29-.77-.3-1.08-.02-.32,.3-.64,.61-.94,.93-.13,.14-.35,.18-.52,.08-.52-.29-1.06-.52-1.63-.68-.18-.05-.31-.21-.31-.4,.01-.43,.01-.86,0-1.29-.01-.55-.36-.85-.92-.77-.84,.12-1.68,.02-2.53-.01-.51-.02-.79,.25-.8,.77-.01,.39,0,.78,0,1.16,0,.04,0,.27,0,.52-1.84,.42-3.41,1.43-4.67,3.01-1.86,2.35-2.36,4.97-1.49,7.78,.36,1.14,.99,2.26,2,3.5,1.22,1.48,1.85,3.36,1.78,5.28-.01,.18,.04,.35,.16,.48,.13,.12,.29,.18,.47,.17h7.5c.24,0,.41-.06,.52-.17s.17-.29,.16-.53c-.03-1.18,.2-2.35,.68-3.43,.17,.17,.35,.35,.53,.51,.31,.27,.78,.26,1.08-.03,.65-.62,1.29-1.25,1.92-1.9,.28-.29,.28-.75,0-1.04-.29-.32-.6-.63-.92-.92-.16-.14-.2-.27-.16-.42,.14-.27,.27-.53,.39-.81,.15-.31,.27-.64,.36-.97,.05-.21,.16-.27,.36-.26,.45,0,.9,0,1.34,0,.54-.01,.78-.26,.79-.81,0-.86,0-1.72,0-2.59Zm-8.84,1.18h-1.39s.02-2.62,.02-2.62h-.62c-.57,0-1.04-.4-1.04-.89s.47-.89,1.05-.89h.58v-2.65c3.44,.2,6.35,2.91,6.82,6.38,.03,.23,.05,.46,.06,.68h-1.6c-.23-.93-1.01-1.62-1.94-1.62s-1.7,.68-1.94,1.61ZM14.86,1.77h0Zm-.15,.04h0Zm-6.31,5.84c1.35-2.21,3.29-3.41,5.76-3.58v1.59c-.94,.22-1.63,1.01-1.63,1.94s.7,1.73,1.65,1.95v1.56h-2.47v.56c0,.58-.4,1.06-.89,1.06s-.89-.47-.89-1.06v-.56h-2.61c.04-1.18,.4-2.33,1.08-3.45Zm3.26,14.48c-.11,0-.13,0-.14-.13-.1-1.99-.76-3.75-1.96-5.25-.84-1.05-1.37-1.91-1.72-2.8-.22-.56-.38-1.14-.46-1.73h1.5c.23,.93,1.01,1.62,1.94,1.62s1.71-.69,1.94-1.62h1.39v.02h0v2.43h.56c.58,0,1.06,.4,1.06,.89s-.47,.89-1.06,.89h-.56v5.67h-.21c-.76,0-1.52,0-2.29,0Zm6.34-.47v.09c-.02,.09-.03,.19-.02,.28,0,.06,0,.08-.01,.08s-.04,.02-.11,.02c-.79,0-1.59,0-2.38,0h-.2v-4.63c.93-.23,1.62-1.01,1.62-1.94s-.69-1.71-1.62-1.94v-1.38h2.45v-.56c0-.58,.4-1.06,.89-1.06s.89,.47,.89,1.06v.56h2.6c-.13,1.03-.51,2.05-1.14,3.06-.32,.51-.67,1-1.04,1.46-1.12,1.39-1.77,3.03-1.93,4.89Zm3.82-5.48v-.02s.02,0,.02,0h-.02Z"/></g></svg>