<svg id="Layer_1" data-name="Layer 1" xmlns="http://www.w3.org/2000/svg" viewBox="0 0 50 50"><defs><style>.cls-1,.cls-2,.cls-3,.cls-4{fill:none;stroke:#005752;}.cls-1,.cls-3,.cls-4{stroke-miterlimit:10;}.cls-1,.cls-2{stroke-width:0.4px;}.cls-2{stroke-linecap:round;stroke-linejoin:round;}.cls-3{stroke-width:1.4px;}.cls-4{stroke-width:0.66px;}</style></defs><path class="cls-1" d="M4.38,12.37l7.12.8,12.36,1.27,3.25.34s1,.07,1.06.92.43,6.1.47,7.08.08,3.1.11,3.89,0,3.93,0,4.49-.23,4.39-.25,4.66"/><path class="cls-1" d="M2.91,13.33a6.25,6.25,0,0,1,1.16,0A8.18,8.18,0,0,0,4,14.48c0,.62-.17,8.13.54,9.74a8.31,8.31,0,0,0,2.29,3.11,5.79,5.79,0,0,1,2.13,3.76,16.38,16.38,0,0,1,.4,4.38"/><path class="cls-1" d="M4.22,13.4,24.7,15.84h1.71s.78,0,.88,1.19.44,5.92.46,7.89.26,5.59.14,7.33a40.52,40.52,0,0,1-.4,5.24"/><path class="cls-1" d="M24.7,15.84S24.31,24,23.32,26.3a5.51,5.51,0,0,1-2.57,2.8c-1.77.75-2.71,1.53-3.07,2.6a36.66,36.66,0,0,0-1.29,5.35"/><path class="cls-1" d="M25.38,15.84s-.47,5.69-.81,7.43-1,4.09-2.05,5.13a9.66,9.66,0,0,1-2,1.16A3.87,3.87,0,0,0,18.11,32,41,41,0,0,0,17,36.92"/><path class="cls-1" d="M7.1,16.18l14.07,1.57a.42.42,0,0,1,.45.51c-.06.55-.55,9.42-.55,9.42s0,.35-.3.35S6.53,25.76,6.53,25.76a.47.47,0,0,1-.27-.37c0-.27.38-9,.38-9A.41.41,0,0,1,7.1,16.18Z"/><path class="cls-1" d="M20.92,18.6,8.06,17s-.93-.1-1,.32-.39,7.51-.39,7.51a.52.52,0,0,0,.37.3l13.19,2.1s.3,0,.3-.24.26-6,.26-6Z"/><path class="cls-1" d="M7.93,16.94a.38.38,0,0,0-.17.31c0,.2-.22,4.53-.22,4.53l-.09,3.1"/><path class="cls-1" d="M20.57,26.94l-11-1.69c-1.81-.29-2.45-.37-2.45-.37s-.45-.18-.21-.49a.27.27,0,0,0,.1-.18c0-.15.29-5.77.29-5.77l0-1.44"/><path class="cls-1" d="M.6,33l.16-.18c.66.22,1.47-.63,1.47-.63a1.24,1.24,0,0,0,1,0,.2.2,0,0,1,.12,0c.07.05.22,0,.22,0s1-.8,1.12-.9A2.54,2.54,0,0,0,4.83,31s-.06-1-.09-1.13a5.6,5.6,0,0,0-.21-.63l-.76-.56a6.07,6.07,0,0,0-.62-.33.74.74,0,0,0-.32,0l-.55.37-.43.4c-.77.33-.71.86-.71.86l-.85.37a1.57,1.57,0,0,1,.9.05A1.52,1.52,0,0,1,2,31.54a1.05,1.05,0,0,1-.57,1.14c-.46.23-.5.13-.5.13"/><path class="cls-1" d="M2.14,28.81a2.6,2.6,0,0,1,1,0,2,2,0,0,1,1.15,1.05,2.22,2.22,0,0,1-.08,1.62,5,5,0,0,1-.74.55c-.24.11-.25.17-.25.17"/><path class="cls-1" d="M1.14,29.94l.51-.15a2,2,0,0,1,.67,0,1.31,1.31,0,0,1,.74.74,1.14,1.14,0,0,1-.24,1.13A3.88,3.88,0,0,1,2.4,32c-.16.1-.17.13-.17.13"/><path class="cls-1" d="M2,31.19,2.31,31a.63.63,0,0,1,.12.39L2,31.6"/><path class="cls-1" d="M.76,32.8l.09-.06h0a1.62,1.62,0,0,0,.45-.34h0a1.09,1.09,0,0,0,.17-1,1.53,1.53,0,0,0-.83-.66,1,1,0,0,1-.38-.14l-.06,0"/><path class="cls-1" d="M1.32,32.39v-.74l-.19-.38s0-.23-.07-.29a.3.3,0,0,0-.24,0l-.28-.21h0l-.32,0"/><polyline class="cls-1" points="0.53 30.77 0.32 31.02 0.3 31.12 0.16 31.25"/><path class="cls-1" d="M.83,31s-.17.16-.15.27a1.14,1.14,0,0,0,.15.3s.1.05.16,0a1.12,1.12,0,0,0,.15-.28"/><path class="cls-1" d="M.36,32.84s.28.08.34,0"/><path class="cls-1" d="M.68,31.25.32,31H.19"/><polyline class="cls-1" points="0.98 31.57 1.04 31.8 1.08 32.56 0.85 32.74"/><line class="cls-1" x1="1.33" y1="31.65" x2="1.04" y2="31.8"/><path class="cls-2" d="M16.45,31.17A3.62,3.62,0,0,1,13,34.9a3.74,3.74,0,0,1,0-7.47A3.62,3.62,0,0,1,16.45,31.17Z"/><path class="cls-2" d="M16.08,31.25a3.39,3.39,0,0,1-3.27,3.48,3.49,3.49,0,0,1,0-7A3.39,3.39,0,0,1,16.08,31.25Z"/><path class="cls-2" d="M14.36,31.16a1.44,1.44,0,1,1-1.44-1.53A1.5,1.5,0,0,1,14.36,31.16Z"/><path class="cls-2" d="M14.2,31.2a1.34,1.34,0,1,1-1.34-1.43A1.39,1.39,0,0,1,14.2,31.2Z"/><path class="cls-2" d="M12.9,30.54a.76.76,0,0,1,.48.39.67.67,0,0,1-.22.93.68.68,0,0,1-.9-.34.77.77,0,0,1,0-.66"/><line class="cls-2" x1="13.12" y1="27.97" x2="13.13" y2="28.37"/><line class="cls-2" x1="13.84" y1="28.22" x2="13.76" y2="28.62"/><line class="cls-2" x1="14.55" y1="28.67" x2="14.36" y2="28.98"/><line class="cls-2" x1="15.12" y1="29.24" x2="14.86" y2="29.51"/><line class="cls-2" x1="15.54" y1="29.96" x2="15.24" y2="30.12"/><line class="cls-2" x1="15.49" y1="30.79" x2="15.81" y2="30.76"/><line class="cls-2" x1="15.59" y1="31.5" x2="15.91" y2="31.59"/><line class="cls-2" x1="15.53" y1="32.18" x2="15.82" y2="32.32"/><line class="cls-2" x1="15.26" y1="32.73" x2="15.5" y2="33.02"/><line class="cls-2" x1="14.89" y1="33.27" x2="15.04" y2="33.57"/><line class="cls-2" x1="14.46" y1="33.72" x2="14.57" y2="34.05"/><line class="cls-2" x1="13.83" y1="33.95" x2="13.89" y2="34.39"/><line class="cls-2" x1="13.23" y1="34.05" x2="13.23" y2="34.51"/><line class="cls-2" x1="12.59" y1="34" x2="12.49" y2="34.47"/><line class="cls-2" x1="11.99" y1="33.74" x2="11.74" y2="34.17"/><line class="cls-2" x1="11.4" y1="33.39" x2="11.1" y2="33.74"/><line class="cls-2" x1="10.94" y1="32.89" x2="10.56" y2="33.19"/><line class="cls-2" x1="10.56" y1="32.31" x2="10.09" y2="32.56"/><line class="cls-2" x1="9.83" y1="31.75" x2="10.29" y2="31.63"/><line class="cls-2" x1="9.78" y1="30.95" x2="10.17" y2="30.97"/><line class="cls-2" x1="9.88" y1="30.15" x2="10.29" y2="30.26"/><line class="cls-2" x1="10.12" y1="29.48" x2="10.49" y2="29.67"/><line class="cls-2" x1="10.55" y1="28.91" x2="10.88" y2="29.17"/><line class="cls-2" x1="11.06" y1="28.42" x2="11.29" y2="28.74"/><line class="cls-2" x1="11.67" y1="28.1" x2="11.85" y2="28.45"/><line class="cls-2" x1="12.37" y1="27.95" x2="12.45" y2="28.34"/><path class="cls-2" d="M6.91,29.57l.76.16a.19.19,0,0,1,.09.19c0,.14-.07,2.27-.07,2.27s0,.19-.13.19-.86-.18-.86-.18l.09-2.5S6.83,29.56,6.91,29.57Z"/><path class="cls-2" d="M6.91,29.57,6.79,32s0,.07.09.07l.8.17"/><line class="cls-2" x1="6.9" y1="29.65" x2="7.74" y2="29.82"/><polyline class="cls-2" points="7.55 29.82 7.42 29.89 7.37 31.93 7.55 31.96 7.68 31.88"/><polyline class="cls-2" points="7.44 29.92 7.63 29.94 7.55 31.96"/><path class="cls-2" d="M26.31,34a2.43,2.43,0,1,1-2.43-2.42A2.43,2.43,0,0,1,26.31,34Z"/><path class="cls-2" d="M25.6,34a1.84,1.84,0,1,1-1.84-1.83A1.84,1.84,0,0,1,25.6,34Z"/><path class="cls-2" d="M22.55,35.11c-.44-.5-.77-1.43-.1-1.89a1.33,1.33,0,0,1,1-.19,2,2,0,0,1,1.71,1.27.93.93,0,0,1-.17.82,1.47,1.47,0,0,1-1.23.56,1.39,1.39,0,0,1-.4-.06,2.2,2.2,0,0,1-.54-.25A1.37,1.37,0,0,1,22.55,35.11Z"/><path class="cls-2" d="M22.13,33.63a1.83,1.83,0,0,1,1.15-1.29,2.16,2.16,0,0,1,1.31.22,2,2,0,0,1,.9,1.64c0,.39-.16.63-.6,1"/><line class="cls-2" x1="23.57" y1="33.41" x2="23.57" y2="33.93"/><path class="cls-2" d="M23.88,34.83a.31.31,0,1,1-.31-.31A.31.31,0,0,1,23.88,34.83Z"/><path class="cls-1" d="M35.47,12.6s.06.61.1,1"/><line class="cls-1" x1="34.04" y1="7.52" x2="27.63" y2="14.61"/><line class="cls-1" x1="34.52" y1="8.14" x2="28.32" y2="15.21"/><path class="cls-1" d="M7.35,12c0,.14-.33.24-.73.24s-.74-.1-.74-.24.33-.24.74-.24S7.35,11.9,7.35,12Z"/><path class="cls-1" d="M27.21,14.05c0,.15-.36.27-.81.27s-.8-.12-.8-.27.36-.26.8-.26S27.21,13.91,27.21,14.05Z"/><path class="cls-1" d="M33.22,7.52c0,.12-.29.22-.64.22s-.64-.1-.64-.22.28-.21.64-.21S33.22,7.41,33.22,7.52Z"/><path class="cls-1" d="M16.4,6.18c0,.11-.29.21-.64.21s-.64-.1-.64-.21S15.4,6,15.76,6,16.4,6.06,16.4,6.18Z"/><path class="cls-1" d="M48.2,19.52a1.3,1.3,0,0,1,1.14,0"/><path class="cls-1" d="M46.45,22.84a1.44,1.44,0,0,1,1.48-.23,1.14,1.14,0,0,1,.83,1.18"/><path class="cls-1" d="M46,23.5a1.28,1.28,0,0,1,1.61-.57,1.42,1.42,0,0,1,.94,1.36"/><path class="cls-1" d="M46,23.53a1.43,1.43,0,0,1,1.5-.26,1.31,1.31,0,0,1,.84,1.34"/><path class="cls-1" d="M41.42,29.81a2.27,2.27,0,0,1,1.49.23,1.65,1.65,0,0,1,.85,1.2"/><path class="cls-1" d="M38.76,33a2.53,2.53,0,0,1,1.86.48,2.15,2.15,0,0,1,1,1.57"/><path class="cls-1" d="M37.13,34.12a2.59,2.59,0,0,1,4.29,2.35"/><path class="cls-1" d="M36.7,35.37l.6-1s.34-.5,1.8-.34a2.87,2.87,0,0,1,1.68,1.4,2,2,0,0,1-.31,2"/><path class="cls-1" d="M37,34.93a1.8,1.8,0,0,1,2-.35,2.36,2.36,0,0,1,1.61,1.76,1.63,1.63,0,0,1-.45,1.29"/><path class="cls-1" d="M36.11,38.36l.41-.55a.67.67,0,0,1,.88-.15,1,1,0,0,1,.51,1l-.46.66"/><path class="cls-1" d="M36,37.63a1.06,1.06,0,0,1,1-.54l.61.23a1.89,1.89,0,0,1,.7,1,1.4,1.4,0,0,1-.25.79"/><polyline class="cls-1" points="37.76 37.4 37.99 37.37 37.99 37.53 38.14 37.51 38.12 37.67 38.27 37.65 38.23 37.78 38.35 37.81 38.32 37.95 38.4 38 38.38 38.12 38.48 38.12 38.42 38.26 38.52 38.3 38.45 38.39 38.52 38.44 38.44 38.54 38.52 38.59 38.42 38.68 38.51 38.74"/><polyline class="cls-1" points="37.11 37.1 37.01 36.93 36.89 37.04 36.8 36.97 36.75 37.05 36.66 36.99 36.62 37.09 36.55 37.02 36.47 37.13 36.41 37.07 36.33 37.2 36.22 37.17"/><line class="cls-1" x1="37.01" y1="36.93" x2="37.53" y2="36.24"/><line class="cls-1" x1="36.8" y1="36.97" x2="37.34" y2="36.28"/><line class="cls-1" x1="36.66" y1="36.99" x2="37.17" y2="36.33"/><line class="cls-1" x1="36.98" y1="36.44" x2="36.55" y2="37.02"/><line class="cls-1" x1="36.41" y1="37.07" x2="36.86" y2="36.47"/><path class="cls-1" d="M36.8,36.42l.06.06.12,0h0l.15-.11,0,0,.14-.09,0,0,.15-.08a.81.81,0,0,1,.26,0,2.72,2.72,0,0,1,.73.31v.06l-.53.78"/><line class="cls-1" x1="38.61" y1="36.67" x2="37.99" y2="37.53"/><line class="cls-1" x1="38.14" y1="37.51" x2="38.7" y2="36.77"/><line class="cls-1" x1="38.27" y1="37.65" x2="38.83" y2="36.93"/><line class="cls-1" x1="38.74" y1="36.89" x2="38.12" y2="37.67"/><line class="cls-1" x1="38.23" y1="37.79" x2="38.84" y2="37.07"/><line class="cls-1" x1="38.35" y1="37.81" x2="38.92" y2="37.13"/><polyline class="cls-1" points="38.32 37.94 38.45 37.88 38.94 37.24"/><polyline class="cls-1" points="38.4 38 38.49 37.97 39.01 37.29"/><polyline class="cls-1" points="38.4 38.09 38.55 37.98 39 37.41"/><line class="cls-1" x1="38.48" y1="38.12" x2="39.01" y2="37.49"/><polyline class="cls-1" points="38.43 38.24 38.54 38.21 39.01 37.59"/><polyline class="cls-1" points="38.52 38.3 38.59 38.28 39.05 37.65"/><polyline class="cls-1" points="38.52 38.44 38.59 38.42 39.04 37.81"/><polyline class="cls-1" points="38.52 38.59 38.57 38.59 39.05 37.92"/><polyline class="cls-1" points="38.52 36.54 38.61 36.68 38.69 36.77 38.74 36.89 38.83 36.93 38.83 37.07 38.92 37.13 38.93 37.24 39.01 37.29 38.99 37.42 39.01 37.49 39.01 37.6 39.05 37.65 39.03 37.82 39.06 37.92"/><path class="cls-1" d="M37.2,36.33a.52.52,0,0,1,.33-.55.94.94,0,0,1,.55-.06,2.05,2.05,0,0,1,.53.13,1.18,1.18,0,0,1,.66.62,1,1,0,0,1,.08.24,1.2,1.2,0,0,1,0,.38.62.62,0,0,1-.19.4l-.15.13"/><path class="cls-1" d="M37.34,36.28a.58.58,0,0,1,.59-.36,1.83,1.83,0,0,1,1,.45s.42.37.29.68a1.11,1.11,0,0,1-.18.34"/><path class="cls-1" d="M36.77,36.34a1.16,1.16,0,0,1,1.35-1.05,2,2,0,0,1,1.75,1.37c.08.25.2.74-.59,1.28"/><path class="cls-3" d="M.44,33.14l.09-.09S.57,33,.6,33s0,0,0,0a1.9,1.9,0,0,0,.59.79,4,4,0,0,0,.9.29l.4.09,5.11,1,1.69.31a.7.7,0,0,0,.39.35l4.2.8L16,37l.36,0,.17,0,.39-.11,3.05.57,4.41.81,1,.17a2.14,2.14,0,0,0,1.43-.28,7.15,7.15,0,0,0,.64-.7h0c.05-.07.1-.14.14-.21l1.45-2.52,1.65-3L33,27.58s1.54-2.79,1.57-2.82l1.31-2.4a.44.44,0,0,0,.06-.19c0-.1,0-.45,0-.45l0-.07V19l-.1-2.32s-.19-2.69-.24-3.11v0s2.15.24,3.27.46,3.79.9,4.48,1.12a13.49,13.49,0,0,1,2.92,1.35,5.34,5.34,0,0,1,1.76,2,4,4,0,0,1,.21,1,1.12,1.12,0,0,0-.32.49c-.1.3-.75,1.78-.93,2.09s-.42.64-.49.72v0a1.43,1.43,0,0,0-.43.63h0s0,.05,0,.08l-1.92,2.57-2.65,3.68a1.64,1.64,0,0,0-.57.43c-.34.35-2,2.58-2.09,2.73h0a2,2,0,0,0-1.39.8,4.14,4.14,0,0,0-.23.35h0a2.38,2.38,0,0,0-.42,1.18.17.17,0,0,0,0,.07,2,2,0,0,0,.06,1l0,.08-.58.75L36,37.4s0,.09,0,.23h0a1.38,1.38,0,0,0,0,.22,1.19,1.19,0,0,0,.13.5l0,0L33.5,42.05l-.33.46a.65.65,0,0,0,0,.6l-.51,1-.26.87.82-.67.67-.64s.4,0,.57-.17,3-4.23,3-4.23a.93.93,0,0,0,.65-.14l.06-.05a1.86,1.86,0,0,0,.35-.34,5.48,5.48,0,0,0,.43-.56l.13-.19v-.06h.24a1.33,1.33,0,0,0,.35-.08,3.13,3.13,0,0,0,.44-.19h0a2.05,2.05,0,0,0,.34-.17,1.77,1.77,0,0,0,.24-.17,3.13,3.13,0,0,0,.71-.87c.07-.14.15-.29.22-.46a2.69,2.69,0,0,0,0-.95l1.88-2.91a1.76,1.76,0,0,0,.22-.87l2.84-4.12,1.6-2.29.14-.22a2.21,2.21,0,0,0,.21-.32,2.56,2.56,0,0,0,.17-.37.93.93,0,0,1,0-.13h0c.17-.48.55-1.45.72-2.13a7.86,7.86,0,0,0,.2-1.64c0-.16-.34-.5-.34-.5a4,4,0,0,0-1-2.65c-1.15-1.46-4.14-2.53-4.39-2.63s-5.76-1.68-8.47-1.64c0,0-.47-3-.54-3.55s-.16-1.52-.64-1.71a10.91,10.91,0,0,0-2.14-.23l-8.42-.65L17.55,6l-1.79-.14a1.7,1.7,0,0,0-.82.07L4.39,12.37h0l0,0a.66.66,0,0,0-.26.1l-1.18.84s-.33.07-.47.65-.95,4.94-.95,4.94S1,22.5.71,25.23c-.06.57-.12,1.11-.16,1.56l-.05.53c0,.16,0,.3,0,.43-.11,2-.19,2.56-.19,2.56l0,0"/><polyline class="cls-4" points="0.16 31.25 0.17 31.26 0.15 31.48"/><path class="cls-1" d="M33.18,43.11s.76-.1.75.54"/><path class="cls-4" d="M.36,29.65c0,.26-.11.63-.15,1.07a3.78,3.78,0,0,0,.15,2.12,2.17,2.17,0,0,0,.61.75"/></svg>