<svg width="49" height="39" viewBox="0 0 49 39" fill="none" xmlns="http://www.w3.org/2000/svg">
<path d="M44.3749 2.04167C41.9237 1.26875 39.2295 0.9375 36.6458 0.9375C32.3395 0.9375 27.702 1.82083 24.4999 4.25C21.2978 1.82083 16.6603 0.9375 12.3541 0.9375C8.04783 0.9375 3.41034 1.82083 0.208252 4.25V36.6021C0.208252 37.1542 0.760335 37.7063 1.31242 37.7063C1.53325 37.7063 1.64367 37.5958 1.8645 37.5958C4.84575 36.1604 9.152 35.1667 12.3541 35.1667C16.6603 35.1667 21.2978 36.05 24.4999 38.4792C27.4812 36.6021 32.8916 35.1667 36.6458 35.1667C40.2895 35.1667 44.0437 35.8292 47.1353 37.4854C47.3562 37.5958 47.4666 37.5958 47.6874 37.5958C48.2395 37.5958 48.7916 37.0438 48.7916 36.4917V4.25C47.4666 3.25625 46.0312 2.59375 44.3749 2.04167ZM44.3749 31.8542C41.9458 31.0813 39.2957 30.75 36.6458 30.75C32.8916 30.75 27.4812 32.1854 24.4999 34.0625V8.66667C27.4812 6.78958 32.8916 5.35417 36.6458 5.35417C39.2957 5.35417 41.9458 5.68542 44.3749 6.45833V31.8542Z" fill="#009ADC"/>
</svg>
