<?xml version="1.0" encoding="UTF-8"?><svg id="_圖層_1" xmlns="http://www.w3.org/2000/svg" viewBox="0 0 30 30"><defs><style>.cls-1{fill:#009adc;}</style></defs><g id="_正面訊息"><path class="cls-1" d="M18.69,9.66c-.72,.39-1.46,.78-1.87,1.01-.05,.05-.04,.1-.01,.18,.04,.11,.11,.93,.16,1.15s.7,1.72,1.24,2.72,2.79,4.33,3.84,6.9c.73,1.8,.87,4.85,.95,6.58h.04c.7-.19,.85-.98,.77-2.04s-.41-2.38-.65-3.59c-.48-2.47-2.3-5.31-3.46-7.02-1.01-1.48-1.21-2.38-.93-3.43,.16-.63,.54-1.19,1.07-1.57-.39-.23-.58-.62-.68-.76-.11-.16-.27-.19-.46-.12Z"/><path class="cls-1" d="M15.85,7.73s0-.02,0-.04c.04-.1,.06-.2,.06-.3,0-.08-.02-.16-.05-.24,0-.03-.01-.06-.02-.09h0c-.1-.21-.27-.38-.48-.48h0s-.03,0-.05,0c-.09-.03-.18-.05-.28-.05-.09,0-.18,.02-.27,.05-.02,0-.04,0-.06,.01h0c-.22,.09-.39,.26-.48,.48h0s0,.06-.02,.09c-.03,.08-.04,.16-.05,.24,0,.09,.02,.17,.05,.25,0,.03,0,.06,.02,.08h0c.05,.11,.11,.2,.19,.29,.08,.08,.18,.14,.28,.19h0s.05,0,.07,.01c.08,.03,.17,.05,.26,.05,.09,0,.18-.02,.26-.05,.02,0,.05,0,.07-.01h0c.11-.04,.2-.11,.28-.19,.08-.08,.15-.18,.19-.29h0Z"/><path class="cls-1" d="M20.3,15.73c1.16,1.7,2.98,4.55,3.46,7.03,.24,1.22,.56,2.54,.65,3.6s-.06,1.88-.79,2.07h-.05c.03,.73,.05,1.21,.11,1.26,.18,.18,.8,.17,1.14,.06,.77-.24,.94-1.06,.96-1.3s.07-4.06-.88-7.35-2.86-6.09-3.18-6.54c-.29-.4-.42-1.21-.33-1.81s.56-1.07,.74-1.29,.08-.39-.03-.5c-.08-.1-.22-.13-.33-.07-.1,.06-.13,.07-.86,0-.16-.02-.31-.06-.45-.14-.53,.38-.91,.93-1.07,1.56-.28,1.03-.08,1.93,.92,3.4Z"/><path class="cls-1" d="M11.31,9.66c.72,.39,1.46,.78,1.87,1.01,.05,.05,.04,.1,.01,.18-.04,.11-.11,.93-.16,1.15s-.7,1.72-1.24,2.72-2.79,4.33-3.84,6.9c-.73,1.8-.87,4.85-.95,6.58h-.04c-.7-.19-.85-.98-.77-2.04s.41-2.38,.65-3.59c.48-2.47,2.3-5.31,3.46-7.02,1.01-1.48,1.21-2.38,.93-3.43-.16-.63-.54-1.19-1.07-1.57,.39-.23,.58-.62,.68-.76,.12-.16,.27-.19,.47-.12Z"/><path class="cls-1" d="M9.7,15.73c-1.16,1.7-2.98,4.55-3.46,7.03-.24,1.22-.56,2.54-.65,3.6s.06,1.88,.79,2.07h.05c-.03,.73-.05,1.21-.11,1.26-.18,.18-.8,.17-1.14,.06-.77-.24-.94-1.06-.96-1.3s-.07-4.06,.88-7.35,2.86-6.09,3.18-6.54c.29-.4,.42-1.21,.33-1.81s-.56-1.07-.74-1.29-.08-.39,.03-.5c.08-.1,.22-.13,.33-.07,.1,.06,.13,.07,.86,0,.16-.02,.32-.06,.46-.14,.53,.38,.91,.93,1.07,1.56,.27,1.03,.08,1.93-.93,3.4Z"/><path class="cls-1" d="M18.9,1.84c-.13-1.03-.59-1.51-.81-1.67h0l-2.05,4.95c-.32-.12-.67-.17-1.01-.15-.34-.02-.69,.04-1.01,.15L11.98,.17c-.21,.17-.67,.64-.81,1.67-.18,1.36,.19,2.41,.51,3.3,.11,.32,.42,1.14,.77,2.07-.31,.7-.87,1.63-1.01,1.94l1.85,.92,.24-.48c.27,.22,.58,.38,.92,.48,.15,.05,.31,.08,.46,.09h.23c.16-.01,.31-.04,.46-.09,.34-.1,.65-.26,.92-.48l.24,.48,1.81-.92c-.14-.31-.65-1.24-.96-1.94,.35-.93,.66-1.76,.77-2.07,.32-.89,.69-1.94,.51-3.3Zm-2.57,5.71s0,.06,0,.09c-.02,.08-.04,.17-.07,.24-.06,.16-.16,.31-.29,.43h-.02c-.06,.07-.12,.12-.19,.16-.07,.05-.14,.08-.22,.12-.02,0-.04,.01-.06,.02-.06,.02-.12,.04-.18,.05-.04,0-.08,.01-.12,.01-.09,.02-.18,.02-.27,0-.04,0-.08,0-.12-.01-.06-.01-.12-.03-.18-.05-.02,0-.04-.01-.07-.02-.08-.03-.16-.07-.23-.12-.03-.02-.06-.05-.09-.08-.03-.03-.07-.05-.1-.08-.12-.12-.22-.27-.28-.43,0,0,0-.02,0-.03-.03-.07-.05-.14-.06-.22,0-.04,0-.07-.01-.11s-.01-.09-.01-.14,0-.09,.01-.14,0-.08,.01-.11c.01-.06,.03-.13,.06-.19,0-.02,0-.04,.02-.06,.03-.08,.07-.16,.12-.23,.03-.04,.07-.09,.1-.13,.02-.02,.04-.05,.06-.07,.12-.12,.27-.22,.43-.28h.04c.07-.04,.14-.06,.21-.07,.04,0,.07,0,.11-.01,.05,0,.09-.01,.14-.01,.05,0,.1,0,.14,.01,.04,0,.07,0,.11,.01,.07,.02,.14,.04,.21,.06,.01,0,.03,0,.04,.01,.16,.07,.3,.16,.42,.28,.02,.02,.03,.04,.05,.06,.04,.04,.08,.09,.11,.14,.05,.07,.09,.15,.12,.23,0,.02,.01,.04,.02,.06,.02,.06,.04,.12,.06,.18,0,.04,0,.08,.01,.12,0,.04,.01,.09,.01,.13,0,.06,0,.11-.01,.16Z"/></g></svg>