<svg xmlns="http://www.w3.org/2000/svg" viewBox="0 0 512 512"><defs><style>.cls-1{fill:#009adc;}</style></defs><g id="正面訊息"><path class="cls-1" d="M296.7,197.15c-7.93,4.26-16.13,8.65-20.65,11.1-.52.55-.46,1.11-.14,2,.43,1.2,1.23,10.2,1.75,12.68s7.72,19,13.65,30,30.79,47.75,42.33,76c8.09,19.79,9.6,53.45,10.48,72.48l.46-.11c7.74-2,9.42-10.71,8.45-22.42s-4.5-26.19-7.11-39.58c-5.25-27.2-25.33-58.55-38.1-77.34-11.1-16.27-13.29-26.21-10.29-37.82a30.35,30.35,0,0,1,11.8-17.33c-4.32-2.48-6.43-6.83-7.51-8.35C300.56,196.74,298.81,196.37,296.7,197.15Z"/><path class="cls-1" d="M265.38,175.84a1.78,1.78,0,0,0,.07-.39,9.45,9.45,0,0,0,.64-3.3,9.22,9.22,0,0,0-.51-2.64,10.35,10.35,0,0,0-.2-1s0,0,0,0a10.58,10.58,0,0,0-5.26-5.24h0c-.19-.08-.38,0-.57-.11a9.84,9.84,0,0,0-3.08-.59,9.68,9.68,0,0,0-3,.58c-.21.08-.44,0-.66.12h0a9.76,9.76,0,0,0-5.25,5.24l0,0c-.13.34-.08.66-.19,1a9.91,9.91,0,0,0-.5,2.69,9.5,9.5,0,0,0,.52,2.75c.1.31.05.62.17.93l0,0a9.94,9.94,0,0,0,2.12,3.15,10.09,10.09,0,0,0,3.14,2.09h0c.25.1.51.06.77.14a9.28,9.28,0,0,0,2.9.57,9.38,9.38,0,0,0,2.88-.56c.27-.09.53-.05.79-.15l0,0a9.62,9.62,0,0,0,3.14-2.08,9.72,9.72,0,0,0,2.11-3.17Z"/><path class="cls-1" d="M314.4,264.11c12.8,18.76,32.89,50.16,38.17,77.43,2.6,13.41,6.17,27.95,7.12,39.65S359,401.87,351,404l-.52.14c.33,7.91.6,13.22,1.18,13.8,2,2,8.77,1.84,12.59.68,8.45-2.6,10.37-11.67,10.53-14.28s.77-44.77-9.65-81-31.5-67.11-35.06-72.05c-3.18-4.44-4.65-13.38-3.68-19.9s6.14-11.81,8.14-14.21.85-4.31-.37-5.53a2.75,2.75,0,0,0-3.61-.73c-1.15.66-1.38.81-9.51,0a13.55,13.55,0,0,1-5-1.54,30.29,30.29,0,0,0-11.8,17.22C301.2,238,303.35,247.85,314.4,264.11Z"/><path class="cls-1" d="M215.3,197.15c7.93,4.26,16.13,8.65,20.65,11.1.52.55.45,1.11.14,2-.43,1.2-1.23,10.2-1.75,12.68s-7.72,19-13.65,30-30.79,47.75-42.33,76c-8.09,19.79-9.6,53.45-10.48,72.48l-.46-.11c-7.74-2-9.42-10.71-8.45-22.42s4.51-26.19,7.11-39.58c5.25-27.2,25.33-58.55,38.1-77.34,11.1-16.27,13.29-26.21,10.29-37.82a30.35,30.35,0,0,0-11.8-17.33c4.32-2.48,6.43-6.83,7.5-8.35C211.44,196.74,213.19,196.37,215.3,197.15Z"/><path class="cls-1" d="M197.59,264.11c-12.79,18.76-32.88,50.16-38.16,77.43-2.61,13.41-6.17,27.95-7.12,39.65S153,401.87,161,404l.52.14c-.33,7.91-.6,13.22-1.18,13.8-2,2-8.78,1.84-12.59.68-8.45-2.6-10.37-11.67-10.53-14.28s-.77-44.77,9.65-81,31.5-67.11,35.05-72.05c3.19-4.44,4.66-13.38,3.69-19.9s-6.14-11.81-8.14-14.21-.85-4.31.37-5.53a2.75,2.75,0,0,1,3.61-.73c1.15.66,1.38.81,9.51,0a13.55,13.55,0,0,0,5.05-1.54,30.29,30.29,0,0,1,11.8,17.22C210.8,238,208.65,247.85,197.59,264.11Z"/><path class="cls-1" d="M299,111c-1.47-11.37-6.53-16.59-8.89-18.44v0l-22.59,54.59a28.79,28.79,0,0,0-11.12-1.68,28.58,28.58,0,0,0-11.12,1.69l-22.59-54.6c-2.34,1.85-7.41,7.07-8.88,18.44-2,15,2.11,26.54,5.61,36.35,1.24,3.49,4.64,12.6,8.48,22.84-3.4,7.67-9.59,17.94-11.09,21.35l20.41,10.19,2.69-5.32a28.85,28.85,0,0,0,10.13,5.26,25.14,25.14,0,0,0,5.12,1c.42,0,2.07,0,2.48,0a25,25,0,0,0,5.12-1,28.74,28.74,0,0,0,10.16-5.26l2.66,5.32,19.91-10.19c-1.5-3.41-7.2-13.68-10.59-21.35,3.83-10.24,7.24-19.35,8.48-22.84C296.89,137.55,301,126,299,111ZM270.63,173.9c0,.35,0,.68-.1,1a13.87,13.87,0,0,1-.82,2.69,14.09,14.09,0,0,1-3.15,4.75l-.18.16a15.27,15.27,0,0,1-2.05,1.65,14.68,14.68,0,0,1-2.42,1.28,6.36,6.36,0,0,1-.71.21,12.66,12.66,0,0,1-2,.6,10.89,10.89,0,0,1-1.28.14,8.11,8.11,0,0,1-3,0,11.13,11.13,0,0,1-1.28-.14,12.25,12.25,0,0,1-2-.6,5.94,5.94,0,0,1-.72-.21,14.33,14.33,0,0,1-2.51-1.33c-.36-.24-.7-.58-1-.87a13.88,13.88,0,0,1-1.1-.9,14.24,14.24,0,0,1-3.14-4.72,2.81,2.81,0,0,0-.1-.31,15,15,0,0,1-.71-2.38c-.08-.4-.08-.8-.13-1.2s-.13-1-.13-1.58.08-1,.13-1.54.05-.83.14-1.23a15.17,15.17,0,0,1,.62-2.1c.08-.2.1-.41.19-.61a15.38,15.38,0,0,1,1.33-2.51,17.82,17.82,0,0,1,1.14-1.39c.21-.25.39-.52.62-.76a14.42,14.42,0,0,1,4.72-3.13l.43-.14a16.12,16.12,0,0,1,2.26-.67c.41-.07.81-.08,1.22-.13a13.67,13.67,0,0,1,1.56-.13,14,14,0,0,1,1.57.13c.4.05.81.06,1.2.13a15.65,15.65,0,0,1,2.28.68c.14.06.29.08.42.13A14.38,14.38,0,0,1,266.6,162c.2.2.36.45.55.66a16.91,16.91,0,0,1,1.22,1.49,13.94,13.94,0,0,1,1.32,2.51,5.6,5.6,0,0,1,.21.66,13.5,13.5,0,0,1,.61,2c.09.44.1.89.15,1.33a11.67,11.67,0,0,1,.13,1.44A12.94,12.94,0,0,1,270.63,173.9Z"/></g></svg>