<svg id="Layer_1" data-name="Layer 1" xmlns="http://www.w3.org/2000/svg" viewBox="0 0 50 50"><defs><style>.cls-1,.cls-2{fill:none;stroke:#005752;stroke-linecap:round;stroke-linejoin:round;}.cls-1{stroke-width:1.72px;}.cls-2{stroke-width:0.54px;}</style></defs><path class="cls-1" d="M47.89,17.29c.17-2.88-1.61-2.54-1.61-2.54a50.31,50.31,0,0,1-5.6,2.89c-3,1.27-2.63,3-3.22,5.08-.76,4.58-.76,4.41-1.1,5a3.53,3.53,0,0,1-3.31,1.18l-3.73-.59L29,30.1c-.51,1.19-1.78.93-2.55.34-1.69-1.61-.93-2.63-1.18-2.88a.93.93,0,0,1-.6-.68l-12.8-2.8c.17,3.14-1.44,2.71-1.44,2.71a2.09,2.09,0,0,1-2-1.35A17.75,17.75,0,0,0,8,23.23c-.68-.25-.51-.51-.51-.51L4.13,22c-3-.93-2.8-3.05-2.8-3.05s.09,1.1,0-.26.17-5.43.17-5.43C2,10.34,3.37,9.75,3.37,9.75l7-3A6.07,6.07,0,0,1,12.87,7l5.25,1.36.6-2.71a2.63,2.63,0,0,1,2.37-.85c1.61.17,7.3,1.87,7.3,1.87s1.69.84,1.69,2.12a8.89,8.89,0,0,0,.17,1.95l15.18,3s2.88-.68,2.37,4.92l-.5,20.1s.25,2.8-1.45,3.73c-6.44,4.24-7.29,4.75-7.29,4.75s-.76.34-2.71-.59c-8-2.29-30.36-8.4-30.36-8.4a1.62,1.62,0,0,1-2.12-.34c-.94-.42-1.61.51-1.45-2.2.09-11,0-15,0-15"/><path class="cls-2" d="M3.37,9.75s22.73,7.46,34.94,8"/><path class="cls-2" d="M45.43,13.73s-7.12,3.74-7.72,4.5a7.68,7.68,0,0,0-1.1,3.64c-.25,2.46.43,7.38-4.07,6.45l-3.65-.59V26.37l-4-1-.26,1.53"/><path class="cls-2" d="M11.85,24.08l-.26-1.7L8,21.37s-.51-.09-.42.84l.08.93"/><path class="cls-2" d="M38.05,46.64s-.68.08-.68-1.36c.09-14.08.6-24.34.6-24.34a2.85,2.85,0,0,1,1.69-2.71c6.45-3.14,7.64-3.82,7.64-3.82"/><path class="cls-2" d="M20.07,10l.43-2.88a6.41,6.41,0,0,0,1.86.59c1.7.43,3.56,1.11,5.26.77.34.51.6.59.51,1.35a18.14,18.14,0,0,0,.09,2.29S28,13.22,28,13.48l-8.81-2s.25-1.95,1.44-1.61A11.84,11.84,0,0,0,25.76,12L28,11.78"/><line class="cls-2" x1="20.41" y1="8.64" x2="28.13" y2="10.26"/><line class="cls-2" x1="17.87" y1="10.93" x2="18.12" y2="8.14"/><line class="cls-2" x1="30.25" y1="10.51" x2="30.34" y2="13.48"/></svg>