<svg xmlns="http://www.w3.org/2000/svg" viewBox="0 0 512 512"><defs><style>.cls-1{fill:#005752;}</style></defs><g id="正面訊息"><path class="cls-1" d="M202.37,381.82h82c.6,0,1.19,0,1.79,0a6.6,6.6,0,0,0,1.18-12.92,11.66,11.66,0,0,0-2.79-.3h-60.1c-7.21,0-14.41,0-21.62,0h0c-2.88,0-4.92,1-6.24,2.95a6.62,6.62,0,0,0,5.78,10.33Z"/><path class="cls-1" d="M285,391.2c-8.92,0-72.33,0-82.57,0-4,0-6.81,2.58-6.91,6.4s2.67,6.73,6.73,6.84c2.78.07,5.32.07,7.76,0,.84-.06,1.08.13,1.33,1a26.72,26.72,0,0,0,8,12.5,34.78,34.78,0,0,0,23.74,9.19,41.14,41.14,0,0,0,5.47-.38c14.22-1.89,23.61-9.14,27.92-21.56.23-.68.38-.72.95-.73h1c2.4,0,4.88.08,7.32,0a6.74,6.74,0,0,0,5.24-2.75,6.65,6.65,0,0,0,.95-5.76C291.11,392.91,288.56,391.2,285,391.2Zm-22.79,13.57a19.58,19.58,0,0,1-13.47,8.51c-9.21,1.62-16.44-.66-22.08-7-.13-.15-.28-.3-.43-.46-.45-.47-1.13-1.17-1-1.48a.68.68,0,0,1,.34-.06,8.72,8.72,0,0,1,.93.08,8.27,8.27,0,0,0,1.06.09q6.11,0,12.22,0l9.07,0c4.38,0,8.77,0,13.16,0h.4Q262.31,404.57,262.18,404.77Z"/><path class="cls-1" d="M364.77,208.91c-.07-6.16-2.6-8.83-8.41-9-5-.16-10.07-.21-15.09,0a4.47,4.47,0,0,1-4.51-3.33,80.52,80.52,0,0,0-7.48-18.26,4.78,4.78,0,0,1,.85-5.92c3.53-3.31,7-6.77,10.3-10.3,3.76-4,3.93-7.94.19-11.8q-10.68-11-21.71-21.59a8.87,8.87,0,0,0-12.12-.2c-3.62,3.35-7.14,6.84-10.52,10.45a4.82,4.82,0,0,1-5.87.93,87.19,87.19,0,0,0-18.34-7.65,4.54,4.54,0,0,1-3.43-4.54c.15-4.83.14-9.68,0-14.52-.15-6.15-4-9.5-10.32-8.61-9.38,1.32-18.9.25-28.38-.13-5.69-.23-8.84,2.83-9,8.68-.14,4.35.08,8.71,0,13.06,0,.4,0,3,.05,5.79-20.68,4.68-38.25,16-52.4,33.81-20.9,26.37-26.53,55.77-16.7,87.4,4,12.86,11.12,25.35,22.43,39.33a88.24,88.24,0,0,1,20.07,59.22,7.26,7.26,0,0,0,1.81,5.4,7.09,7.09,0,0,0,5.23,1.92q15.44,0,30.85,0h53.38c2.67,0,4.59-.63,5.86-1.94s1.88-3.25,1.83-6a88.62,88.62,0,0,1,7.62-38.46c1.94,1.95,3.88,3.91,5.91,5.75a9,9,0,0,0,12.13-.35q10.92-10.48,21.55-21.31a8.51,8.51,0,0,0,.1-11.71,140.82,140.82,0,0,0-10.31-10.28c-1.75-1.57-2.23-3-1.77-4.76,1.62-3,3.06-6,4.35-9.07a65.52,65.52,0,0,0,4-10.9c.6-2.3,1.82-3,4-2.94,5,.1,10.07.1,15.09,0,6.11-.17,8.77-2.88,8.83-9.15Q364.94,223.44,364.77,208.91Zm-99.28,13.27-15.66-.1.2-29.38-6.93,0c-6.44-.11-11.65-4.52-11.65-10s5.31-9.95,11.84-10h6.5V143c38.58,2.23,71.32,32.64,76.58,71.64.35,2.57.54,5.12.64,7.65H309c-2.56-10.44-11.36-18.15-21.78-18.15S268.08,211.78,265.49,222.18Zm-20.44-105,0,0h0Zm-1.68.48h0Zm-70.84,65.58c15.19-24.82,36.92-38.3,64.69-40.23V160.9c-10.52,2.51-18.33,11.32-18.33,21.8s7.89,19.38,18.49,21.83L237.27,222H209.68v6.29c0,6.54-4.47,11.87-10,11.87s-10-5.33-10-11.87V222H160.36C160.78,208.77,164.83,195.82,172.53,183.25Zm36.58,162.57c-1.26,0-1.48-.11-1.55-1.47-1.12-22.33-8.51-42.16-22-58.92C176.18,273.67,170.21,264,166.25,254a84.33,84.33,0,0,1-5.18-19.39h16.86c2.56,10.44,11.36,18.15,21.78,18.15s19.22-7.71,21.79-18.15h15.64v.27h.08V262.1h6.29c6.54,0,11.87,4.47,11.87,10s-5.33,10-11.87,10h-6.29v63.73H234.8C226.24,345.77,217.67,345.76,209.11,345.82Zm71.21-5.32-.1,1a19.64,19.64,0,0,0-.16,3.18c0,.65-.07.86-.14.94s-.46.25-1.19.21c-8.9-.05-17.8,0-26.7,0h-2.24V293.85c10.44-2.56,18.16-11.36,18.16-21.78s-7.72-19.22-18.16-21.78V234.82h27.5v-6.29c0-6.54,4.47-11.87,10-11.87s10,5.33,10,11.87v6.29h29.21c-1.51,11.6-5.74,23-12.8,34.36a165.07,165.07,0,0,1-11.72,16.42C289.43,301.2,282.16,319.67,280.32,340.5Zm42.87-61.58a1.42,1.42,0,0,0,.11-.18l.11.11C323.33,278.86,323.27,278.91,323.19,278.92Z"/></g></svg>