<?xml version="1.0" encoding="UTF-8"?><svg id="_圖層_1" xmlns="http://www.w3.org/2000/svg" viewBox="0 0 30 30"><defs><style>.cls-1{fill:#005752;}</style></defs><g id="_正面訊息"><path class="cls-1" d="M11.05,25.42h7.52c.33-.03,.56-.32,.53-.65-.02-.24-.19-.45-.43-.51-.08-.02-.17-.03-.25-.03h-7.33c-.26,0-.44,.09-.56,.26-.18,.27-.11,.64,.16,.83,.11,.07,.23,.11,.36,.1h0Z"/><path class="cls-1" d="M18.46,26.26h-7.41c-.36,0-.61,.23-.62,.57s.24,.6,.6,.61c.25,0,.48,0,.7,0,.08,0,.1,.01,.12,.09,.13,.43,.38,.82,.72,1.12,.58,.53,1.34,.83,2.13,.82,.16,0,.33-.01,.49-.03,1.28-.17,2.12-.82,2.51-1.93,.02-.06,.03-.06,.09-.07h.09c.22,0,.44,0,.66,0,.19,0,.36-.1,.47-.25,.11-.15,.14-.34,.09-.52-.07-.27-.3-.43-.62-.43Zm-2.05,1.22c-.28,.41-.72,.69-1.21,.76-.83,.15-1.48-.06-1.98-.63-.01-.01-.03-.03-.04-.04-.04-.04-.1-.1-.09-.13,0,0,.02,0,.03,0,.03,0,.06,0,.08,0,.03,0,.06,0,.1,0,.37,0,.73,0,1.1,0h2.03s-.01,.02-.02,.03h0Z"/><path class="cls-1" d="M25.62,9.9c0-.55-.23-.79-.75-.81-.45-.01-.9-.02-1.35,0-.19,0-.36-.12-.4-.3-.16-.57-.38-1.12-.67-1.64-.1-.17-.07-.39,.08-.53,.32-.3,.63-.61,.92-.92,.34-.36,.35-.71,.02-1.06-.64-.66-1.29-1.3-1.95-1.94-.3-.29-.78-.3-1.09-.02-.32,.3-.64,.61-.94,.94-.14,.15-.35,.18-.53,.08-.52-.29-1.07-.52-1.65-.69-.19-.05-.31-.22-.31-.41,.01-.43,.01-.87,0-1.3-.01-.55-.36-.85-.93-.77-.84,.12-1.7,.02-2.55-.01-.51-.02-.79,.25-.81,.78-.01,.39,0,.78,0,1.17,0,.04,0,.27,0,.52-1.86,.42-3.43,1.44-4.7,3.03-1.88,2.37-2.38,5-1.5,7.84,.36,1.15,1,2.27,2.01,3.53,1.23,1.49,1.87,3.38,1.8,5.31-.01,.18,.04,.35,.16,.48,.13,.12,.3,.18,.47,.17h7.56c.24,0,.41-.06,.53-.17s.17-.29,.16-.54c-.03-1.19,.2-2.37,.68-3.45,.17,.17,.35,.35,.53,.52,.32,.27,.79,.26,1.09-.03,.65-.63,1.3-1.26,1.93-1.91,.28-.29,.29-.75,0-1.05-.29-.32-.6-.63-.93-.92-.16-.14-.2-.27-.16-.43,.15-.27,.27-.54,.39-.81,.15-.31,.27-.64,.36-.98,.05-.21,.16-.27,.36-.26,.45,0,.9,0,1.35,0,.55-.02,.79-.26,.79-.82,0-.87,0-1.73,0-2.6Zm-8.91,1.19h-1.41s.02-2.65,.02-2.65h-.62c-.58,0-1.05-.41-1.05-.9s.48-.89,1.06-.9h.58V3.98c3.46,.2,6.4,2.93,6.87,6.43,.03,.23,.05,.46,.06,.69h-1.62c-.23-.94-1.02-1.63-1.95-1.63s-1.72,.69-1.95,1.62h0ZM14.88,1.67h0Zm-.15,.04h0Zm-6.36,5.89c1.36-2.23,3.31-3.44,5.81-3.61v1.61c-.94,.23-1.64,1.02-1.64,1.96s.71,1.74,1.66,1.96v1.57h-2.49v.56c0,.59-.4,1.07-.9,1.07s-.9-.48-.9-1.07v-.56h-2.63c.04-1.19,.4-2.35,1.09-3.48h0Zm3.28,14.59c-.11,0-.13,0-.14-.13-.1-2-.76-3.78-1.97-5.29-.84-1.05-1.38-1.92-1.73-2.82-.22-.56-.38-1.14-.46-1.74h1.51c.23,.94,1.02,1.63,1.95,1.63s1.72-.69,1.96-1.63h1.4v.02h0v2.44h.56c.59,0,1.07,.4,1.07,.9s-.48,.9-1.07,.9h-.56v5.72h-.22c-.77,0-1.54,0-2.31,0h0Zm6.39-.48v.09c-.02,.09-.03,.19-.02,.29,0,.06,0,.08-.01,.08s-.04,.02-.11,.02c-.8,0-1.6,0-2.4,0h-.2v-4.66c.94-.23,1.63-1.02,1.63-1.95s-.69-1.72-1.63-1.95v-1.39h2.47v-.56c0-.59,.4-1.07,.9-1.07s.9,.48,.9,1.07v.56h2.62c-.14,1.04-.52,2.06-1.15,3.08-.32,.51-.67,1-1.05,1.47-1.13,1.4-1.78,3.06-1.94,4.93h0Zm3.85-5.53s0-.01,0-.02h0s-.01,.02-.02,.02h0Z"/></g></svg>