<?xml version="1.0" encoding="utf-8"?>
<!-- Generator: Adobe Illustrator 26.2.1, SVG Export Plug-In . SVG Version: 6.00 Build 0)  -->
<svg version="1.1" id="圖層_1" xmlns="http://www.w3.org/2000/svg" xmlns:xlink="http://www.w3.org/1999/xlink" x="0px" y="0px"
	 viewBox="0 0 379.49 181.32" style="enable-background:new 0 0 379.49 181.32;" xml:space="preserve">
<style type="text/css">
	.st0{fill:#005856;}
	.st1{fill:#FFFFFF;}
</style>
<g>
	<g>
		<g>
			<g>
				<polygon class="st0" points="346.16,121.98 27.07,121.98 48.54,42.3 363.21,42.3 				"/>
				<polygon class="st0" points="344.95,129.03 25.61,129.03 26.63,126.52 345.62,126.52 				"/>
			</g>
			<g>
				<path class="st1" d="M319.83,78.48c4.32,0,7.83-3.28,7.83-7.33c0-4.03-3.51-7.33-7.83-7.33c-4.32,0-7.83,3.3-7.83,7.33
					C312,75.2,315.52,78.48,319.83,78.48z M313.04,71.15c0-3.47,3.04-6.31,6.79-6.31c3.74,0,6.79,2.84,6.79,6.31
					c0,3.49-3.05,6.31-6.79,6.31C316.08,77.46,313.04,74.64,313.04,71.15z"/>
				<g>
					<path class="st1" d="M317.93,68.37h2.68c0.54,0,1.44,0.1,1.44,1.25c0,1.11-0.83,1.29-1.61,1.29h-2.5V68.37z M317.93,71.76h2.61
						c1.3,0,1.43,0.71,1.43,1.31c0,0.3,0.03,1.42,0.19,1.87h1.32v-0.16c-0.33-0.18-0.39-0.33-0.4-0.74L323,72.68
						c-0.04-1.04-0.5-1.21-0.95-1.39c0.5-0.27,1.09-0.68,1.09-1.78c0-1.57-1.3-1.99-2.61-1.99h-3.68v7.43h1.08V71.76z"/>
				</g>
				<path class="st1" d="M314.85,72.3"/>
				<g>
					<path class="st1" d="M135.39,76.87c1.93,0.02,7.98-0.33,11.13-1.82l-1.17,5.34c2.71-3.33,6.49-5.38,8.25-5.77
						c2.19-0.5,3.56-0.48,4.88-0.18c0,0-0.86,2.76-1.52,5.17c-0.41,1.49-1.24,5.04-1.24,5.04s-0.73-0.63-1.8-1.06
						c-1.76-0.73-2.87-0.7-3.82-0.44c-2.24,0.61-4.94,2.03-7.05,11.08c-1.32,5.59-2.11,9.44-2.11,9.44l-8.11,0
						c2.56-11.24,4.46-19.31,4.46-21.31c0-1.55-0.62-2.31-2.75-1.98L135.39,76.87z"/>
					<path class="st1" d="M168.59,89.43c-1.25,5.2-2.88,9.94,1.46,10.75c4.05,0.76,4.52-3.43,5.85-9.27
						c1.52-6.69,2.47-9.71-1.23-10.6C170.79,79.41,169.98,83.67,168.59,89.43z M184.66,83.94c2.46,8.57-3.57,21.92-14.19,21.49
						c-4.82-0.2-9.41-3.99-10.44-10.83c-1.53-10.1,5.46-20.24,14.47-19.97C176.32,74.68,182.34,75.89,184.66,83.94z"/>
					<path class="st1" d="M96.33,94.88c-0.39,2.89-0.06,4.31,6.57,4.65l-0.64,4.19H74.51l1.07-3.58c2.54-0.01,7.99-1.6,8.83-5.6
						c1.49-7.08,5.63-27.18,5.63-27.18c0.11-0.53,0.3-2.41-0.05-3.34c-0.5-1.35-1.6-2.43-6.56-2.96l1.18-4.93h35.64
						c7.28,0,12.62,5.04,12.26,13.18c-0.43,9.86-10.49,15.32-17.09,15.96c-6.6,0.65-17.5,0.28-17.5,0.28S96.75,91.99,96.33,94.88z
						 M99.39,78.89c1.11,0.07,4.8,0.11,5.83,0.11c5.23,0,7.16-1.29,9.16-2.63c2.47-1.63,3.82-4.94,3.77-8.12
						c-0.03-1.38-1.21-5.26-7.92-5.62l-7.38,0.02L99.39,78.89z"/>
					<path class="st1" d="M189.47,71.7l0.59-11.83c0.11-2.16,2.23-3.95,4.13-3.95c1.6,0,2.61,1.07,2.65,2.27
						c0.04,0.96-0.47,1.82-0.93,2.85l-4.83,10.66H189.47z"/>
					<path class="st1" d="M259.96,96.93c1.6,2.7,3.57,3.43,5,3.56l-0.25,3.19h-21.53l0.3-2.83c1.86-0.04,4.68-0.17,5.06-1.72
						c0.47-1.9-0.2-2.77-0.72-3.76c-0.54-0.99-6.07-10.79-6.07-10.79l-6.7,4.75c0,0-1.29,6.11-1.39,6.69
						c-0.16,1.03-0.58,2.48-0.13,3.5c0.3,0.66,0.76,1.32,3.33,1.28l-0.29,2.89h-20.36l0.51-2.96c3.26-0.1,5.31-0.39,6.43-4.4
						l4.96-23.19c0.1-0.46,0.13-1,0.04-1.44c-0.38-1.74-2.7-2.56-4.88-2.43l0.44-2.88h21.63L245,69.39
						c-4.21,0.4-5.86,2.04-6.27,3.81c-0.44,1.77-2.58,11.77-2.58,11.77l12.91-9.58c0,0,2.96-2.21,3.65-2.84
						c0.72-0.66,1.22-3.05-2.78-3.05l0.38-3.22h20.3l-0.45,3.37c-4.52,0.31-7.09,1.09-10.41,3.39c-3.75,2.59-9.61,6.63-9.61,6.63
						S258.5,94.45,259.96,96.93z"/>
					<path class="st1" d="M304.85,80.04l-6.37,0.02c0,0-3.4,16.28-3.68,17.81c-0.29,1.55,0.35,2.42,1.77,2.57
						c1.6,0.16,4.09-2.63,4.3-2.92l1.86,1.93c-2.74,2.59-5.72,5.12-10.32,5.56c-2.58,0.24-6.66-1.52-5.69-6.14
						c0.97-4.6,3.75-19.11,3.75-19.11l-3.6-0.01l0.74-3.51c4.95-1.41,7.93-2.69,10.61-9.8l3.62,0.01l-1.96,9.27l6.03-0.02
						L304.85,80.04z"/>
					<path class="st1" d="M213.72,84.66l-1.24-0.12c-1.02-3.76-4.78-6.58-6.92-6.68c-3.07-0.17-4.62,1.6-4.66,3.42
						c-0.06,2.22,1.42,3.56,4.93,5.22c4.22,2,7.83,4.2,6.9,9.84c-1.01,6.02-6.92,8.7-12.64,8.63c-3.83-0.04-7.27-2.6-9.1-2.39
						c-0.83,0.1-2.46,0.85-2.9,1.9h-1.07l2.17-10.44l1.17,0.06c0.64,4.82,7.25,6.71,8.72,6.75c2.33,0.06,5.06-0.7,5.61-2.95
						c0.59-2.42-1.28-3.8-4.85-5.4c-4.4-1.97-7.35-3.87-7.33-8.89c0.01-5.58,5.86-8.97,11.82-8.57c3.94,0.26,4.94,1.32,7.43,1.37
						c1.56,0.03,2.19-0.26,3.04-1.32h1.26L213.72,84.66z"/>
					<path class="st1" d="M282.67,100.86c-0.04,0.06-3.98,3.97-8.96,4.06c-3.4,0.07-4.5-2.25-4.47-4.64
						c0.01-2.85,3.21-15.09,3.26-16.85c0.07-2.08-1.29-2.48-3.44-2.32l0.66-3.48c2.83-0.17,6.4,0.56,12.17-0.82
						c0,0-3.78,17.72-3.92,19.9c-0.04,0.74,0.04,1.53,1.13,1.9c1.6,0.55,2.79-0.51,2.79-0.51L282.67,100.86z"/>
					<path class="st1" d="M279.85,71.14c2.45-0.49,4.16-2.53,3.73-4.58c-0.44-2.06-2.81-3.25-5.25-2.74
						c-2.44,0.5-4.04,2.49-3.6,4.55C275.16,70.42,277.39,71.64,279.85,71.14z"/>
				</g>
				<g>
					<path class="st1" d="M175.56,82.63c-0.02-0.07-2.16-1.81-3.34,1.43c-0.36,0.99-2.44,9.24-2.81,10.93
						c-0.29,1.31-0.22,2.92,1.07,3.24c-0.26-0.63,0.28-3.61,1.43-7.77C173.7,83.93,174.06,82.24,175.56,82.63z"/>
					<g>
						<path class="st1" d="M190.67,75.08l-0.05-1.47l1.62,0.01c0,0,4.71-10.09,5.66-12.34c0.34-0.77,0.68-1.47,0.75-2.15
							c0.62,0.57,0.66,0.95,0.67,1.75c0.02,1.01-0.71,2.22-1.19,3.29l-4.99,10.86L190.67,75.08z"/>
						<g>
							<path class="st1" d="M148,87.11c0.81-1.08,2.09-1.95,3.4-2.07c1.3-0.12,2.91,0.31,5.65,2.8c0.58-3,2.44-10.09,2.95-11.42
								c0.55,0.11,0.67,0.18,1.26,0.32c0,0-1.07,3.4-1.66,5.97c-0.41,1.72-1.64,7.71-1.64,7.71s-1.11-1.27-2.41-2.23
								c-1.42-1.04-2.42-1.62-3.55-1.8c-1.98-0.33-4.29,1.75-6.29,10.4c-1.44,6.18-2.39,10.1-2.39,10.1l-9.25,0l0.33-1.33l7.93-0.01
								c0,0,1.56-6.55,2.23-9.51C145.42,92.4,146.65,88.88,148,87.11z"/>
							<path class="st1" d="M186.06,83.34c0.47,0.9,0.9,1.92,1.22,3.09c2.44,8.98-4.44,22.5-15.53,22.03
								c-2.9-0.12-5.39-0.86-7.48-3.34c2.84,2.52,8.56,2.56,11.35,1.43c5.01-2.02,6.6-4.46,8.55-7.68
								C185.4,96.81,188.02,90.41,186.06,83.34z"/>
							<path class="st1" d="M98.19,95c0.39-2.02,1.28-7.52,1.28-7.52s4.56,0,9.1,0c7.58,0,11.96-0.66,16.68-3.46
								c9.26-5.49,10.08-14.3,8.43-19.09c1.23,2.31,1.51,4.72,1.29,7.86c-0.48,6.9-8.28,14.92-19.27,15.72
								c-3.79,0.56-14.84,0.34-14.84,0.34l-1.54,8.24C99.32,97.09,97.84,96.87,98.19,95z M103.71,105.55l0.69-4.1h1.42l-0.78,5.49
								H75.52l0.32-1.39H103.71z"/>
							<path class="st1" d="M262.9,73.48c0.98-0.57,2.65-1.23,4.39-1.56c1.48-0.28,4.26-0.49,4.26-0.49L272,68.5h1.12l-0.44,3.9
								c-3.76,0.11-7.17,0.61-10.81,3.05c-3.63,2.44-8.59,5.89-8.59,5.89l-0.66-1.07C252.62,80.26,260.55,74.88,262.9,73.48z
								 M236.05,99.14c-1.22-0.09-1.08-0.69-0.69-2.44c0.46-2.1,1.3-6.04,1.3-6.04l4.51-3.21l0.63,1.03l-4.07,2.97L236.05,99.14z
								 M238.32,103.06c0.37,0,0.65,0.01,1.15,0.04l-0.35,3.79h-21.77l0.17-1.27h20.5L238.32,103.06z M266.38,102.63l1.1,0.16
								l-0.26,4.11h-23l0.17-1.27h21.76L266.38,102.63z M238.83,80.97c0,0,0.62-2.67,0.99-4.4c0.42-1.98,0.57-3.12,1.75-4.15
								c1.22-1.08,3.37-1.36,4.97-1.39l0.29-2.5h1.23l-0.43,3.61c-2.1-0.04-3.24,0.04-4.51,0.66c-0.85,0.42-1.57,1.42-1.8,2.73
								c-0.37,2.02-0.91,4.32-0.91,4.32L238.83,80.97z"/>
							<path class="st1" d="M303.21,68.69l1.24,0.01l-1.11,5.46l-1.27-0.01L303.21,68.69z M296.93,96.38c0.26-1.32,3-14.49,3-14.49
								h6.35l1.02-3.92l1.21,0.01l-1.14,5.21l-6.35-0.02l-3.12,14.78C297.9,97.96,296.3,99.52,296.93,96.38z M296.56,106.06
								c3.74-1.36,7.03-4.8,7.03-4.8l0.96,0.93c-0.58,0.74-5.46,5.88-11.08,5.88c-1.35,0-3.77,0-5.07-2.12
								C290.78,107.26,293.47,107.18,296.56,106.06z"/>
							<path class="st1" d="M213.42,86.54c0.22,0.61,0.36,0.71,0.45,1.33l2.14,0.12l2.6-10.69h-1.32l-2.22,9.32L213.42,86.54z
								 M212.86,101.01c-1.85,2.85-4.64,4.32-6.8,4.99c-2.81,0.88-5.45,0.93-7.92,0.54c-2.07-0.32-5.55-2.31-7.02-2.07
								c-1.45,0.22-2.25,1.85-2.25,1.85l-0.54,0.02l-0.29,1.69l2.12-0.01c0.47-1.09,1.32-2.19,2.64-2.1
								c1.32,0.08,4.33,1.85,8.16,2.1c6.07,0.38,13.03-3.12,13.93-8.66c0.43-2.63,0.29-3.52-0.5-5.92
								C214.62,95.78,214.33,98.73,212.86,101.01z"/>
							<path class="st1" d="M280.31,96.66c-0.39-0.09-0.38-0.76-0.22-1.59c0.25-1.14,3.21-16.1,3.21-16.1
								c0.54-0.1,0.88-0.18,1.45-0.31c0,0-2.54,12.31-3.55,17.88C281.21,96.53,280.83,96.78,280.31,96.66z M284.43,102.05l0.45,1.45
								c-0.03,0.07-4.47,4.54-9.68,4.39c-2.46-0.08-3.62-0.67-4.23-1.91c1.67,1.11,5.13,1.67,10.19-1.43
								C282.47,103.75,284.43,102.05,284.43,102.05z"/>
						</g>
						<path class="st1" d="M275.67,72.26c1.22,2.01,4.14,2.77,6.71,1.82c2.82-1.08,3.21-4.09,2.72-5.61
							c-0.24,2.04-1.47,3.78-3.66,4.45C278.86,73.69,276.97,72.99,275.67,72.26z"/>
						<path class="st1" d="M110.52,66.1c-0.54-0.02-4.85,0.03-4.85,0.03l-2.41,11.02h-1.52l2.7-12.61h4.89c0,0,5.73,0.21,6.99,3.01
							C115.06,66.56,112.82,66.19,110.52,66.1z"/>
						<path class="st1" d="M198.16,94.51c-1.21-0.75-2.32-1.64-3.05-2.65c0.88,0.71,2.08,1.31,3.28,1.87
							c2.32,1.08,4.7,2.03,4.98,3.4C202.02,96.34,200.17,95.75,198.16,94.51z"/>
						<path class="st1" d="M209.54,82.39c-1.63-1.76-3.38-3.6-5.83-2.37c-1.57,0.79-1.02,2.69,0.1,3.48
							C203.54,81.16,206.43,80.42,209.54,82.39z"/>
					</g>
				</g>
			</g>
		</g>
		<g>
			<path class="st0" d="M43.68,148.77v-11.09h3.56c1.35,0,2.23,0.06,2.64,0.17c0.63,0.17,1.15,0.53,1.58,1.08
				c0.42,0.56,0.64,1.28,0.64,2.16c0,0.68-0.12,1.26-0.37,1.72c-0.24,0.46-0.56,0.83-0.93,1.09c-0.38,0.27-0.76,0.44-1.15,0.53
				c-0.53,0.1-1.3,0.15-2.3,0.15H45.9v4.18H43.68z M45.9,139.55v3.15h1.21c0.87,0,1.46-0.06,1.75-0.18c0.29-0.12,0.53-0.3,0.69-0.55
				c0.17-0.24,0.25-0.53,0.25-0.86c0-0.4-0.12-0.74-0.35-1c-0.23-0.26-0.53-0.42-0.89-0.49c-0.27-0.05-0.8-0.07-1.59-0.07H45.9z"/>
			<path class="st0" d="M55.91,148.77h-2.1v-8.03h1.95v1.14c0.33-0.54,0.64-0.89,0.9-1.06c0.27-0.17,0.57-0.26,0.91-0.26
				c0.48,0,0.94,0.13,1.39,0.4l-0.65,1.86c-0.35-0.23-0.68-0.35-0.99-0.35c-0.29,0-0.54,0.08-0.75,0.25
				c-0.2,0.16-0.37,0.46-0.48,0.88c-0.12,0.43-0.18,1.33-0.18,2.7V148.77z"/>
			<path class="st0" d="M59.38,144.63c0-0.71,0.17-1.39,0.52-2.05c0.34-0.66,0.83-1.17,1.46-1.51c0.63-0.35,1.34-0.52,2.11-0.52
				c1.2,0,2.19,0.4,2.96,1.18c0.77,0.79,1.15,1.79,1.15,2.99c0,1.22-0.39,2.22-1.17,3.02c-0.77,0.8-1.75,1.2-2.93,1.2
				c-0.73,0-1.43-0.17-2.09-0.5c-0.66-0.33-1.16-0.82-1.51-1.46C59.55,146.34,59.38,145.56,59.38,144.63z M61.54,144.75
				c0,0.8,0.19,1.41,0.56,1.83c0.38,0.42,0.84,0.64,1.39,0.64c0.55,0,1.01-0.21,1.38-0.64c0.37-0.42,0.56-1.04,0.56-1.84
				c0-0.79-0.19-1.39-0.56-1.82c-0.37-0.42-0.83-0.63-1.38-0.63c-0.55,0-1.01,0.21-1.39,0.63
				C61.72,143.34,61.54,143.95,61.54,144.75z"/>
			<path class="st0" d="M68.31,140.73h1.17v-0.6c0-0.68,0.07-1.18,0.21-1.51c0.14-0.33,0.4-0.6,0.79-0.81
				c0.38-0.21,0.87-0.31,1.45-0.31c0.6,0,1.19,0.09,1.76,0.27l-0.28,1.48c-0.33-0.08-0.66-0.12-0.97-0.12
				c-0.31,0-0.52,0.07-0.66,0.22c-0.13,0.14-0.2,0.42-0.2,0.83v0.57h1.57v1.67h-1.57v6.36h-2.1v-6.36h-1.17V140.73z"/>
			<path class="st0" d="M78.95,146.21l2.1,0.35c-0.27,0.78-0.7,1.37-1.28,1.77c-0.58,0.41-1.31,0.61-2.18,0.61
				c-1.38,0-2.41-0.46-3.07-1.37c-0.52-0.73-0.79-1.66-0.79-2.77c0-1.33,0.34-2.37,1.03-3.13c0.69-0.75,1.56-1.13,2.61-1.13
				c1.18,0,2.12,0.4,2.8,1.18c0.68,0.79,1.01,2,0.98,3.63h-5.27c0.01,0.63,0.18,1.12,0.51,1.47c0.32,0.35,0.73,0.53,1.21,0.53
				c0.33,0,0.61-0.09,0.83-0.27C78.66,146.91,78.83,146.61,78.95,146.21z M79.07,144.06c-0.01-0.61-0.17-1.08-0.47-1.4
				c-0.3-0.32-0.66-0.48-1.09-0.48c-0.46,0-0.84,0.17-1.14,0.51c-0.3,0.34-0.45,0.8-0.44,1.37H79.07z"/>
			<path class="st0" d="M82.13,146.47l2.11-0.33c0.09,0.42,0.27,0.73,0.55,0.94c0.28,0.22,0.66,0.32,1.15,0.32
				c0.54,0,0.95-0.1,1.23-0.3c0.19-0.14,0.28-0.33,0.28-0.57c0-0.16-0.05-0.29-0.15-0.4c-0.11-0.1-0.34-0.2-0.71-0.28
				c-1.7-0.38-2.77-0.72-3.23-1.04c-0.63-0.44-0.94-1.04-0.94-1.81c0-0.69,0.27-1.28,0.82-1.75c0.54-0.47,1.39-0.71,2.53-0.71
				c1.09,0,1.9,0.18,2.43,0.53c0.53,0.36,0.9,0.89,1.1,1.59l-1.99,0.37c-0.08-0.31-0.24-0.55-0.48-0.72
				c-0.24-0.17-0.58-0.25-1.01-0.25c-0.55,0-0.95,0.08-1.19,0.24c-0.16,0.11-0.24,0.25-0.24,0.43c0,0.15,0.07,0.28,0.21,0.38
				c0.19,0.14,0.84,0.34,1.97,0.6c1.12,0.26,1.9,0.57,2.35,0.95c0.44,0.38,0.66,0.91,0.66,1.58c0,0.74-0.31,1.37-0.91,1.9
				c-0.61,0.53-1.51,0.8-2.7,0.8c-1.08,0-1.94-0.22-2.57-0.66C82.74,147.84,82.33,147.24,82.13,146.47z"/>
			<path class="st0" d="M90.66,146.47l2.11-0.33c0.09,0.42,0.27,0.73,0.55,0.94c0.28,0.22,0.66,0.32,1.15,0.32
				c0.54,0,0.95-0.1,1.23-0.3c0.19-0.14,0.28-0.33,0.28-0.57c0-0.16-0.05-0.29-0.15-0.4c-0.11-0.1-0.34-0.2-0.71-0.28
				c-1.7-0.38-2.77-0.72-3.23-1.04c-0.63-0.44-0.94-1.04-0.94-1.81c0-0.69,0.27-1.28,0.82-1.75s1.39-0.71,2.53-0.71
				c1.09,0,1.9,0.18,2.43,0.53c0.53,0.36,0.9,0.89,1.1,1.59l-1.99,0.37c-0.08-0.31-0.24-0.55-0.48-0.72
				c-0.24-0.17-0.58-0.25-1.01-0.25c-0.55,0-0.95,0.08-1.19,0.24c-0.16,0.11-0.24,0.25-0.24,0.43c0,0.15,0.07,0.28,0.21,0.38
				c0.19,0.14,0.84,0.34,1.97,0.6c1.12,0.26,1.9,0.57,2.35,0.95c0.44,0.38,0.66,0.91,0.66,1.58c0,0.74-0.31,1.37-0.91,1.9
				c-0.61,0.53-1.51,0.8-2.7,0.8c-1.08,0-1.94-0.22-2.57-0.66C91.27,147.84,90.86,147.24,90.66,146.47z"/>
			<path class="st0" d="M99.93,139.64v-1.97h2.1v1.97H99.93z M99.93,148.77v-8.03h2.1v8.03H99.93z"/>
			<path class="st0" d="M103.71,144.63c0-0.71,0.17-1.39,0.52-2.05c0.34-0.66,0.83-1.17,1.46-1.51c0.63-0.35,1.34-0.52,2.11-0.52
				c1.2,0,2.19,0.4,2.96,1.18c0.77,0.79,1.15,1.79,1.15,2.99c0,1.22-0.39,2.22-1.17,3.02c-0.77,0.8-1.75,1.2-2.93,1.2
				c-0.73,0-1.43-0.17-2.09-0.5c-0.66-0.33-1.16-0.82-1.51-1.46C103.88,146.34,103.71,145.56,103.71,144.63z M105.87,144.75
				c0,0.8,0.19,1.41,0.56,1.83c0.38,0.42,0.84,0.64,1.39,0.64c0.55,0,1.01-0.21,1.38-0.64c0.37-0.42,0.56-1.04,0.56-1.84
				c0-0.79-0.19-1.39-0.56-1.82c-0.37-0.42-0.83-0.63-1.38-0.63c-0.55,0-1.01,0.21-1.39,0.63
				C106.05,143.34,105.87,143.95,105.87,144.75z"/>
			<path class="st0" d="M120.8,148.77h-2.1v-4.1c0-0.87-0.04-1.43-0.13-1.68c-0.09-0.25-0.24-0.45-0.44-0.59
				c-0.2-0.14-0.45-0.21-0.73-0.21c-0.37,0-0.69,0.1-0.98,0.3c-0.29,0.2-0.49,0.47-0.6,0.8c-0.11,0.33-0.16,0.95-0.16,1.85v3.64
				h-2.1v-8.03h1.95v1.18c0.69-0.91,1.57-1.36,2.62-1.36c0.46,0,0.89,0.09,1.27,0.25c0.39,0.17,0.67,0.38,0.87,0.65
				c0.2,0.26,0.33,0.56,0.41,0.89c0.08,0.33,0.12,0.81,0.12,1.43V148.77z"/>
			<path class="st0" d="M124.51,143.18l-1.91-0.35c0.21-0.77,0.58-1.35,1.11-1.73c0.52-0.37,1.3-0.56,2.34-0.56
				c0.94,0,1.64,0.11,2.1,0.33c0.46,0.22,0.78,0.51,0.97,0.86c0.19,0.35,0.28,0.98,0.28,1.9l-0.02,2.48c0,0.71,0.03,1.23,0.1,1.56
				c0.07,0.33,0.19,0.69,0.38,1.08h-2.08c-0.06-0.14-0.12-0.35-0.2-0.63c-0.03-0.13-0.06-0.21-0.08-0.25
				c-0.36,0.35-0.74,0.62-1.15,0.8c-0.41,0.18-0.85,0.27-1.31,0.27c-0.82,0-1.46-0.22-1.94-0.67c-0.47-0.45-0.71-1.02-0.71-1.7
				c0-0.45,0.11-0.86,0.32-1.21c0.21-0.36,0.52-0.63,0.9-0.82c0.39-0.19,0.94-0.35,1.67-0.49c0.98-0.19,1.67-0.36,2.05-0.52v-0.21
				c0-0.41-0.1-0.7-0.3-0.87c-0.2-0.18-0.58-0.26-1.13-0.26c-0.38,0-0.67,0.07-0.88,0.22C124.81,142.55,124.64,142.81,124.51,143.18
				z M127.32,144.91c-0.27,0.09-0.7,0.2-1.28,0.33c-0.58,0.13-0.97,0.25-1.15,0.37c-0.28,0.2-0.41,0.44-0.41,0.75
				c0,0.3,0.11,0.55,0.33,0.77c0.22,0.22,0.5,0.32,0.84,0.32c0.38,0,0.74-0.12,1.09-0.38c0.25-0.19,0.42-0.43,0.5-0.71
				c0.06-0.18,0.08-0.53,0.08-1.04V144.91z"/>
			<path class="st0" d="M131.46,148.77v-11.09h2.1v11.09H131.46z"/>
			<path class="st0" d="M142.47,148.77v-9.21h-3.26v-1.88h8.72v1.88h-3.25v9.21H142.47z"/>
			<path class="st0" d="M147.73,144.63c0-0.71,0.17-1.39,0.52-2.05c0.34-0.66,0.83-1.17,1.46-1.51c0.63-0.35,1.34-0.52,2.11-0.52
				c1.2,0,2.19,0.4,2.96,1.18c0.77,0.79,1.15,1.79,1.15,2.99c0,1.22-0.39,2.22-1.17,3.02c-0.77,0.8-1.75,1.2-2.93,1.2
				c-0.73,0-1.43-0.17-2.09-0.5c-0.66-0.33-1.16-0.82-1.51-1.46C147.9,146.34,147.73,145.56,147.73,144.63z M149.89,144.75
				c0,0.8,0.19,1.41,0.56,1.83c0.38,0.42,0.84,0.64,1.39,0.64c0.55,0,1.01-0.21,1.38-0.64c0.37-0.42,0.56-1.04,0.56-1.84
				c0-0.79-0.19-1.39-0.56-1.82c-0.37-0.42-0.83-0.63-1.38-0.63c-0.55,0-1.01,0.21-1.39,0.63
				C150.07,143.34,149.89,143.95,149.89,144.75z"/>
			<path class="st0" d="M157.1,144.63c0-0.71,0.17-1.39,0.52-2.05c0.34-0.66,0.83-1.17,1.46-1.51c0.63-0.35,1.34-0.52,2.11-0.52
				c1.2,0,2.19,0.4,2.96,1.18c0.77,0.79,1.15,1.79,1.15,2.99c0,1.22-0.39,2.22-1.17,3.02c-0.77,0.8-1.75,1.2-2.93,1.2
				c-0.73,0-1.43-0.17-2.09-0.5c-0.66-0.33-1.16-0.82-1.51-1.46C157.27,146.34,157.1,145.56,157.1,144.63z M159.26,144.75
				c0,0.8,0.19,1.41,0.56,1.83c0.38,0.42,0.84,0.64,1.39,0.64c0.55,0,1.01-0.21,1.38-0.64c0.37-0.42,0.56-1.04,0.56-1.84
				c0-0.79-0.19-1.39-0.56-1.82c-0.37-0.42-0.83-0.63-1.38-0.63c-0.55,0-1.01,0.21-1.39,0.63
				C159.44,143.34,159.26,143.95,159.26,144.75z"/>
			<path class="st0" d="M166.96,148.77v-11.09h2.1v11.09H166.96z"/>
			<path class="st0" d="M174.93,145.16l2.16-0.21c0.13,0.73,0.39,1.27,0.79,1.61s0.93,0.51,1.61,0.51c0.71,0,1.25-0.15,1.61-0.46
				c0.36-0.31,0.54-0.66,0.54-1.07c0-0.26-0.08-0.49-0.23-0.67c-0.15-0.18-0.42-0.35-0.8-0.48c-0.26-0.09-0.85-0.25-1.77-0.49
				c-1.19-0.3-2.02-0.66-2.5-1.1c-0.67-0.61-1.01-1.35-1.01-2.23c0-0.56,0.16-1.09,0.48-1.58c0.32-0.49,0.77-0.87,1.37-1.13
				c0.6-0.26,1.32-0.38,2.16-0.38c1.38,0,2.42,0.3,3.11,0.91c0.7,0.61,1.06,1.42,1.1,2.44l-2.22,0.1c-0.09-0.57-0.3-0.98-0.61-1.23
				c-0.31-0.25-0.78-0.38-1.4-0.38c-0.64,0-1.15,0.13-1.51,0.4c-0.23,0.17-0.35,0.4-0.35,0.69c0,0.26,0.11,0.49,0.33,0.67
				c0.28,0.24,0.96,0.49,2.04,0.74c1.08,0.26,1.88,0.52,2.39,0.8c0.52,0.27,0.92,0.65,1.21,1.13s0.44,1.06,0.44,1.77
				c0,0.64-0.18,1.23-0.52,1.79c-0.35,0.55-0.84,0.97-1.48,1.24c-0.64,0.27-1.44,0.4-2.39,0.4c-1.39,0-2.46-0.32-3.2-0.97
				C175.52,147.34,175.08,146.4,174.93,145.16z"/>
			<path class="st0" d="M185.22,144.63c0-0.71,0.17-1.39,0.52-2.05c0.34-0.66,0.83-1.17,1.46-1.51c0.63-0.35,1.34-0.52,2.11-0.52
				c1.2,0,2.19,0.4,2.96,1.18c0.77,0.79,1.15,1.79,1.15,2.99c0,1.22-0.39,2.22-1.17,3.02c-0.77,0.8-1.75,1.2-2.93,1.2
				c-0.73,0-1.43-0.17-2.09-0.5c-0.66-0.33-1.16-0.82-1.51-1.46C185.4,146.34,185.22,145.56,185.22,144.63z M187.38,144.75
				c0,0.8,0.19,1.41,0.56,1.83c0.38,0.42,0.84,0.64,1.39,0.64c0.55,0,1.01-0.21,1.38-0.64c0.37-0.42,0.56-1.04,0.56-1.84
				c0-0.79-0.19-1.39-0.56-1.82c-0.37-0.42-0.83-0.63-1.38-0.63c-0.55,0-1.01,0.21-1.39,0.63
				C187.57,143.34,187.38,143.95,187.38,144.75z"/>
			<path class="st0" d="M195.08,148.77v-11.09h2.1v11.09H195.08z"/>
			<path class="st0" d="M204.57,148.77v-1.2c-0.29,0.43-0.67,0.77-1.14,1.02c-0.47,0.24-0.97,0.37-1.49,0.37
				c-0.53,0-1.01-0.12-1.44-0.35c-0.42-0.24-0.73-0.57-0.92-1c-0.19-0.43-0.28-1.02-0.28-1.78v-5.09h2.1v3.69
				c0,1.13,0.04,1.82,0.12,2.08c0.08,0.25,0.22,0.46,0.42,0.6c0.21,0.15,0.46,0.22,0.78,0.22c0.36,0,0.68-0.1,0.97-0.3
				c0.29-0.2,0.48-0.45,0.59-0.74c0.1-0.3,0.16-1.02,0.16-2.17v-3.39h2.1v8.03H204.57z"/>
			<path class="st0" d="M212.36,140.73v1.7h-1.44v3.24c0,0.65,0.01,1.04,0.04,1.15c0.03,0.11,0.09,0.2,0.19,0.27
				c0.1,0.07,0.22,0.11,0.36,0.11c0.19,0,0.48-0.07,0.85-0.21l0.18,1.65c-0.49,0.21-1.04,0.32-1.66,0.32c-0.38,0-0.72-0.07-1.03-0.2
				c-0.3-0.13-0.53-0.29-0.67-0.5c-0.14-0.2-0.24-0.48-0.3-0.83c-0.04-0.25-0.07-0.75-0.07-1.5v-3.5h-0.97v-1.7h0.97v-1.59
				l2.11-1.24v2.83H212.36z"/>
			<path class="st0" d="M213.82,139.64v-1.97h2.1v1.97H213.82z M213.82,148.77v-8.03h2.1v8.03H213.82z"/>
			<path class="st0" d="M217.59,144.63c0-0.71,0.17-1.39,0.52-2.05c0.34-0.66,0.83-1.17,1.46-1.51c0.63-0.35,1.34-0.52,2.11-0.52
				c1.2,0,2.19,0.4,2.96,1.18c0.77,0.79,1.15,1.79,1.15,2.99c0,1.22-0.39,2.22-1.17,3.02c-0.77,0.8-1.75,1.2-2.93,1.2
				c-0.73,0-1.43-0.17-2.09-0.5c-0.66-0.33-1.16-0.82-1.51-1.46C217.76,146.34,217.59,145.56,217.59,144.63z M219.75,144.75
				c0,0.8,0.19,1.41,0.56,1.83c0.38,0.42,0.84,0.64,1.39,0.64c0.55,0,1.01-0.21,1.38-0.64c0.37-0.42,0.56-1.04,0.56-1.84
				c0-0.79-0.19-1.39-0.56-1.82c-0.37-0.42-0.83-0.63-1.38-0.63c-0.55,0-1.01,0.21-1.39,0.63
				C219.93,143.34,219.75,143.95,219.75,144.75z"/>
			<path class="st0" d="M234.68,148.77h-2.1v-4.1c0-0.87-0.04-1.43-0.13-1.68c-0.09-0.25-0.24-0.45-0.44-0.59
				c-0.2-0.14-0.45-0.21-0.73-0.21c-0.37,0-0.69,0.1-0.98,0.3c-0.29,0.2-0.49,0.47-0.6,0.8c-0.11,0.33-0.16,0.95-0.16,1.85v3.64
				h-2.1v-8.03h1.95v1.18c0.69-0.91,1.57-1.36,2.62-1.36c0.46,0,0.89,0.09,1.27,0.25c0.39,0.17,0.67,0.38,0.87,0.65
				c0.2,0.26,0.33,0.56,0.41,0.89c0.08,0.33,0.12,0.81,0.12,1.43V148.77z"/>
			<path class="st0" d="M236.07,146.47l2.11-0.33c0.09,0.42,0.27,0.73,0.55,0.94c0.28,0.22,0.66,0.32,1.15,0.32
				c0.54,0,0.95-0.1,1.23-0.3c0.19-0.14,0.28-0.33,0.28-0.57c0-0.16-0.05-0.29-0.15-0.4c-0.11-0.1-0.34-0.2-0.71-0.28
				c-1.7-0.38-2.77-0.72-3.23-1.04c-0.63-0.44-0.94-1.04-0.94-1.81c0-0.69,0.27-1.28,0.82-1.75c0.54-0.47,1.39-0.71,2.53-0.71
				c1.09,0,1.9,0.18,2.43,0.53c0.53,0.36,0.9,0.89,1.1,1.59l-1.99,0.37c-0.08-0.31-0.24-0.55-0.48-0.72
				c-0.24-0.17-0.58-0.25-1.01-0.25c-0.55,0-0.95,0.08-1.19,0.24c-0.16,0.11-0.24,0.25-0.24,0.43c0,0.15,0.07,0.28,0.21,0.38
				c0.19,0.14,0.84,0.34,1.97,0.6c1.12,0.26,1.9,0.57,2.35,0.95c0.44,0.38,0.66,0.91,0.66,1.58c0,0.74-0.31,1.37-0.91,1.9
				c-0.61,0.53-1.51,0.8-2.7,0.8c-1.08,0-1.94-0.22-2.57-0.66C236.68,147.84,236.27,147.24,236.07,146.47z"/>
			<path class="st0" d="M249.06,145.16l2.16-0.21c0.13,0.73,0.39,1.27,0.79,1.61c0.4,0.34,0.93,0.51,1.61,0.51
				c0.71,0,1.25-0.15,1.61-0.46c0.36-0.31,0.54-0.66,0.54-1.07c0-0.26-0.08-0.49-0.23-0.67c-0.15-0.18-0.42-0.35-0.8-0.48
				c-0.26-0.09-0.85-0.25-1.77-0.49c-1.19-0.3-2.02-0.66-2.5-1.1c-0.67-0.61-1.01-1.35-1.01-2.23c0-0.56,0.16-1.09,0.48-1.58
				c0.32-0.49,0.77-0.87,1.37-1.13c0.6-0.26,1.32-0.38,2.16-0.38c1.38,0,2.42,0.3,3.11,0.91c0.7,0.61,1.06,1.42,1.1,2.44l-2.22,0.1
				c-0.09-0.57-0.3-0.98-0.61-1.23c-0.31-0.25-0.78-0.38-1.4-0.38c-0.64,0-1.15,0.13-1.51,0.4c-0.23,0.17-0.35,0.4-0.35,0.69
				c0,0.26,0.11,0.49,0.33,0.67c0.28,0.24,0.96,0.49,2.04,0.74c1.08,0.26,1.88,0.52,2.39,0.8c0.52,0.27,0.92,0.65,1.21,1.13
				s0.44,1.06,0.44,1.77c0,0.64-0.18,1.23-0.52,1.79c-0.35,0.55-0.84,0.97-1.48,1.24c-0.64,0.27-1.44,0.4-2.39,0.4
				c-1.39,0-2.46-0.32-3.2-0.97C249.65,147.34,249.21,146.4,249.06,145.16z"/>
			<path class="st0" d="M259.84,139.64v-1.97h2.1v1.97H259.84z M259.84,148.77v-8.03h2.1v8.03H259.84z"/>
			<path class="st0" d="M271.34,148.77h-2.1v-4.1c0-0.87-0.04-1.43-0.13-1.68c-0.09-0.25-0.24-0.45-0.44-0.59
				c-0.2-0.14-0.45-0.21-0.73-0.21c-0.37,0-0.69,0.1-0.98,0.3c-0.29,0.2-0.49,0.47-0.6,0.8c-0.11,0.33-0.16,0.95-0.16,1.85v3.64
				h-2.1v-8.03h1.95v1.18c0.69-0.91,1.57-1.36,2.62-1.36c0.46,0,0.89,0.09,1.27,0.25c0.39,0.17,0.67,0.38,0.87,0.65
				c0.2,0.26,0.33,0.56,0.41,0.89c0.08,0.33,0.12,0.81,0.12,1.43V148.77z"/>
			<path class="st0" d="M280.4,143.11l-2.07,0.38c-0.07-0.42-0.23-0.73-0.48-0.95c-0.25-0.21-0.57-0.32-0.96-0.32
				c-0.52,0-0.94,0.18-1.25,0.55c-0.31,0.37-0.47,0.98-0.47,1.84c0,0.95,0.16,1.63,0.48,2.02c0.32,0.4,0.74,0.59,1.28,0.59
				c0.4,0,0.73-0.11,0.98-0.34c0.25-0.23,0.43-0.62,0.54-1.19l2.07,0.35c-0.21,0.96-0.63,1.68-1.24,2.17
				c-0.61,0.49-1.43,0.73-2.45,0.73c-1.16,0-2.09-0.37-2.78-1.11c-0.69-0.74-1.04-1.77-1.04-3.08c0-1.33,0.35-2.36,1.04-3.1
				c0.69-0.74,1.63-1.11,2.82-1.11c0.97,0,1.74,0.21,2.31,0.63C279.74,141.6,280.15,142.24,280.4,143.11z"/>
			<path class="st0" d="M286.61,146.21l2.1,0.35c-0.27,0.78-0.7,1.37-1.28,1.77c-0.58,0.41-1.31,0.61-2.18,0.61
				c-1.38,0-2.41-0.46-3.07-1.37c-0.52-0.73-0.79-1.66-0.79-2.77c0-1.33,0.34-2.37,1.03-3.13c0.69-0.75,1.56-1.13,2.61-1.13
				c1.18,0,2.12,0.4,2.8,1.18c0.68,0.79,1.01,2,0.98,3.63h-5.27c0.01,0.63,0.18,1.12,0.51,1.47c0.32,0.35,0.73,0.53,1.21,0.53
				c0.33,0,0.61-0.09,0.83-0.27C286.32,146.91,286.49,146.61,286.61,146.21z M286.72,144.06c-0.01-0.61-0.17-1.08-0.47-1.4
				c-0.3-0.32-0.66-0.48-1.09-0.48c-0.46,0-0.84,0.17-1.14,0.51c-0.3,0.34-0.45,0.8-0.44,1.37H286.72z"/>
			<path class="st0" d="M299.73,148.77h-2.1v-8.01c-0.77,0.73-1.67,1.26-2.72,1.61v-1.93c0.55-0.18,1.15-0.53,1.79-1.03
				c0.64-0.51,1.08-1.1,1.33-1.77h1.71V148.77z"/>
			<path class="st0" d="M302.92,146.2l2.04-0.22c0.05,0.42,0.18,0.73,0.39,0.93c0.21,0.2,0.49,0.3,0.83,0.3c0.43,0,0.8-0.2,1.11-0.6
				c0.3-0.4,0.5-1.24,0.58-2.51c-0.53,0.62-1.19,0.93-1.98,0.93c-0.86,0-1.61-0.33-2.23-1.01c-0.63-0.67-0.94-1.55-0.94-2.63
				c0-1.13,0.33-2.03,0.99-2.72c0.66-0.69,1.5-1.03,2.53-1.03c1.11,0,2.03,0.43,2.74,1.31c0.71,0.87,1.07,2.3,1.07,4.29
				c0,2.03-0.37,3.49-1.12,4.39s-1.71,1.35-2.91,1.35c-0.86,0-1.55-0.23-2.08-0.69C303.41,147.81,303.07,147.12,302.92,146.2z
				 M307.68,141.56c0-0.69-0.15-1.22-0.47-1.59c-0.31-0.38-0.67-0.57-1.08-0.57c-0.39,0-0.71,0.15-0.97,0.46
				c-0.26,0.31-0.39,0.82-0.39,1.53c0,0.71,0.14,1.24,0.42,1.58c0.28,0.33,0.63,0.5,1.05,0.5c0.41,0,0.75-0.16,1.02-0.49
				C307.54,142.66,307.68,142.18,307.68,141.56z"/>
			<path class="st0" d="M311.45,146.2l2.04-0.22c0.05,0.42,0.18,0.73,0.39,0.93c0.21,0.2,0.49,0.3,0.83,0.3c0.43,0,0.8-0.2,1.11-0.6
				c0.3-0.4,0.5-1.24,0.58-2.51c-0.53,0.62-1.19,0.93-1.98,0.93c-0.86,0-1.61-0.33-2.23-1.01c-0.63-0.67-0.94-1.55-0.94-2.63
				c0-1.13,0.33-2.03,0.99-2.72c0.66-0.69,1.5-1.03,2.53-1.03c1.11,0,2.03,0.43,2.74,1.31c0.71,0.87,1.07,2.3,1.07,4.29
				c0,2.03-0.37,3.49-1.12,4.39s-1.71,1.35-2.91,1.35c-0.86,0-1.55-0.23-2.08-0.69C311.94,147.81,311.6,147.12,311.45,146.2z
				 M316.21,141.56c0-0.69-0.15-1.22-0.47-1.59c-0.31-0.38-0.67-0.57-1.08-0.57c-0.39,0-0.71,0.15-0.97,0.46
				c-0.26,0.31-0.39,0.82-0.39,1.53c0,0.71,0.14,1.24,0.42,1.58c0.28,0.33,0.63,0.5,1.05,0.5c0.41,0,0.75-0.16,1.02-0.49
				C316.07,142.66,316.21,142.18,316.21,141.56z"/>
			<path class="st0" d="M325.32,148.77h-2.1v-8.01c-0.77,0.73-1.67,1.26-2.72,1.61v-1.93c0.55-0.18,1.15-0.53,1.79-1.03
				c0.64-0.51,1.08-1.1,1.33-1.77h1.71V148.77z"/>
		</g>
	</g>
</g>
</svg>
