<?xml version="1.0" encoding="utf-8"?>
<!-- Generator: Adobe Illustrator 22.0.1, SVG Export Plug-In . SVG Version: 6.00 Build 0)  -->
<svg version="1.1" id="圖層_1" xmlns="http://www.w3.org/2000/svg" xmlns:xlink="http://www.w3.org/1999/xlink" x="0px" y="0px"
	 viewBox="0 0 337 106.5" style="enable-background:new 0 0 337 106.5;" xml:space="preserve">
<style type="text/css">
	.st0{fill:#005856;}
	.st1{fill:#FFFFFF;}
</style>
<g>
	<g>
		<g>
			<g>
				<polygon class="st0" points="320.8,79.7 1.7,79.7 23.2,0 337.9,0 				"/>
				<polygon class="st0" points="319.6,86.7 0.3,86.7 1.3,84.2 320.3,84.2 				"/>
			</g>
			<g>
				<path class="st1" d="M294.5,36.2c4.3,0,7.8-3.3,7.8-7.3c0-4-3.5-7.3-7.8-7.3c-4.3,0-7.8,3.3-7.8,7.3
					C286.7,32.9,290.2,36.2,294.5,36.2z M287.7,28.9c0-3.5,3-6.3,6.8-6.3c3.7,0,6.8,2.8,6.8,6.3c0,3.5-3,6.3-6.8,6.3
					C290.7,35.2,287.7,32.3,287.7,28.9z"/>
				<g>
					<path class="st1" d="M292.6,26.1h2.7c0.5,0,1.4,0.1,1.4,1.3c0,1.1-0.8,1.3-1.6,1.3h-2.5L292.6,26.1L292.6,26.1z M292.6,29.5
						h2.6c1.3,0,1.4,0.7,1.4,1.3c0,0.3,0,1.4,0.2,1.9h1.3v-0.2c-0.3-0.2-0.4-0.3-0.4-0.7l-0.1-1.4c0-1-0.5-1.2-1-1.4
						c0.5-0.3,1.1-0.7,1.1-1.8c0-1.6-1.3-2-2.6-2h-3.7v7.4h1.1V29.5z"/>
				</g>
				<path class="st1" d="M289.5,30"/>
				<g>
					<path class="st1" d="M110,34.6c1.9,0,8-0.3,11.1-1.8l-1.2,5.3c2.7-3.3,6.5-5.4,8.3-5.8c2.2-0.5,3.6-0.5,4.9-0.2
						c0,0-0.9,2.8-1.5,5.2c-0.4,1.5-1.2,5-1.2,5s-0.7-0.6-1.8-1.1c-1.8-0.7-2.9-0.7-3.8-0.4c-2.2,0.6-4.9,2-7.1,11.1
						c-1.3,5.6-2.1,9.4-2.1,9.4h-8.1c2.6-11.2,4.5-19.3,4.5-21.3c0-1.6-0.6-2.3-2.8-2L110,34.6z"/>
					<path class="st1" d="M143.2,47.1c-1.3,5.2-2.9,9.9,1.5,10.8c4.1,0.8,4.5-3.4,5.9-9.3c1.5-6.7,2.5-9.7-1.2-10.6
						C145.4,37.1,144.6,41.4,143.2,47.1z M159.3,41.6c2.5,8.6-3.6,21.9-14.2,21.5c-4.8-0.2-9.4-4-10.4-10.8
						c-1.5-10.1,5.5-20.2,14.5-20C151,32.4,157,33.6,159.3,41.6z"/>
					<path class="st1" d="M71,52.6c-0.4,2.9-0.1,4.3,6.6,4.7l-0.6,4.2H49.2l1.1-3.6c2.5,0,8-1.6,8.8-5.6c1.5-7.1,5.6-27.2,5.6-27.2
						c0.1-0.5,0.3-2.4-0.1-3.3c-0.5-1.3-1.6-2.4-6.6-3l1.2-4.9h35.6c7.3,0,12.6,5,12.3,13.2c-0.4,9.9-10.5,15.3-17.1,16
						c-6.6,0.7-17.5,0.3-17.5,0.3S71.4,49.7,71,52.6z M74,36.6c1.1,0.1,4.8,0.1,5.8,0.1c5.2,0,7.2-1.3,9.2-2.6
						c2.5-1.6,3.8-4.9,3.8-8.1c0-1.4-1.2-5.3-7.9-5.6l-7.4,0L74,36.6z"/>
					<path class="st1" d="M164.1,29.4l0.6-11.8c0.1-2.2,2.2-4,4.1-4c1.6,0,2.6,1.1,2.6,2.3c0,1-0.5,1.8-0.9,2.8l-4.8,10.7H164.1z"/>
					<path class="st1" d="M234.6,54.6c1.6,2.7,3.6,3.4,5,3.6l-0.3,3.2h-21.5l0.3-2.8c1.9,0,4.7-0.2,5.1-1.7c0.5-1.9-0.2-2.8-0.7-3.8
						c-0.5-1-6.1-10.8-6.1-10.8l-6.7,4.8c0,0-1.3,6.1-1.4,6.7c-0.2,1-0.6,2.5-0.1,3.5c0.3,0.7,0.8,1.3,3.3,1.3l-0.3,2.9h-20.4l0.5-3
						c3.3-0.1,5.3-0.4,6.4-4.4l5-23.2c0.1-0.5,0.1-1,0-1.4c-0.4-1.7-2.7-2.6-4.9-2.4l0.4-2.9H220l-0.3,3c-4.2,0.4-5.9,2-6.3,3.8
						c-0.4,1.8-2.6,11.8-2.6,11.8l12.9-9.6c0,0,3-2.2,3.6-2.8c0.7-0.7,1.2-3.1-2.8-3.1L225,24h20.3l-0.5,3.4
						c-4.5,0.3-7.1,1.1-10.4,3.4c-3.8,2.6-9.6,6.6-9.6,6.6S233.2,52.1,234.6,54.6z"/>
					<path class="st1" d="M279.5,37.7l-6.4,0c0,0-3.4,16.3-3.7,17.8c-0.3,1.6,0.4,2.4,1.8,2.6c1.6,0.2,4.1-2.6,4.3-2.9l1.9,1.9
						c-2.7,2.6-5.7,5.1-10.3,5.6c-2.6,0.2-6.7-1.5-5.7-6.1c1-4.6,3.8-19.1,3.8-19.1l-3.6,0l0.7-3.5c5-1.4,7.9-2.7,10.6-9.8l3.6,0
						l-2,9.3l6,0L279.5,37.7z"/>
					<path class="st1" d="M188.4,42.4l-1.2-0.1c-1-3.8-4.8-6.6-6.9-6.7c-3.1-0.2-4.6,1.6-4.7,3.4c-0.1,2.2,1.4,3.6,4.9,5.2
						c4.2,2,7.8,4.2,6.9,9.8c-1,6-6.9,8.7-12.6,8.6c-3.8,0-7.3-2.6-9.1-2.4c-0.8,0.1-2.5,0.8-2.9,1.9h-1.1l2.2-10.4l1.2,0.1
						c0.6,4.8,7.3,6.7,8.7,6.8c2.3,0.1,5.1-0.7,5.6-2.9c0.6-2.4-1.3-3.8-4.9-5.4c-4.4-2-7.4-3.9-7.3-8.9c0-5.6,5.9-9,11.8-8.6
						c3.9,0.3,4.9,1.3,7.4,1.4c1.6,0,2.2-0.3,3-1.3h1.3L188.4,42.4z"/>
					<path class="st1" d="M257.3,58.6c0,0.1-4,4-9,4.1c-3.4,0.1-4.5-2.3-4.5-4.6c0-2.8,3.2-15.1,3.3-16.8c0.1-2.1-1.3-2.5-3.4-2.3
						l0.7-3.5c2.8-0.2,6.4,0.6,12.2-0.8c0,0-3.8,17.7-3.9,19.9c0,0.7,0,1.5,1.1,1.9c1.6,0.6,2.8-0.5,2.8-0.5L257.3,58.6z"/>
					<path class="st1" d="M254.5,28.8c2.5-0.5,4.2-2.5,3.7-4.6c-0.4-2.1-2.8-3.3-5.3-2.7c-2.4,0.5-4,2.5-3.6,4.5
						C249.8,28.1,252,29.3,254.5,28.8z"/>
				</g>
				<g>
					<path class="st1" d="M150.2,40.3c0-0.1-2.2-1.8-3.3,1.4c-0.4,1-2.4,9.2-2.8,10.9c-0.3,1.3-0.2,2.9,1.1,3.2
						c-0.3-0.6,0.3-3.6,1.4-7.8C148.4,41.6,148.7,39.9,150.2,40.3z"/>
					<g>
						<path class="st1" d="M165.3,32.8l0-1.5l1.6,0c0,0,4.7-10.1,5.7-12.3c0.3-0.8,0.7-1.5,0.8-2.2c0.6,0.6,0.7,1,0.7,1.8
							c0,1-0.7,2.2-1.2,3.3l-5,10.9L165.3,32.8z"/>
						<g>
							<path class="st1" d="M122.7,44.8c0.8-1.1,2.1-1.9,3.4-2.1c1.3-0.1,2.9,0.3,5.7,2.8c0.6-3,2.4-10.1,2.9-11.4
								c0.6,0.1,0.7,0.2,1.3,0.3c0,0-1.1,3.4-1.7,6c-0.4,1.7-1.6,7.7-1.6,7.7s-1.1-1.3-2.4-2.2c-1.4-1-2.4-1.6-3.5-1.8
								c-2-0.3-4.3,1.8-6.3,10.4c-1.4,6.2-2.4,10.1-2.4,10.1h-9.3l0.3-1.3l7.9,0c0,0,1.6-6.6,2.2-9.5
								C120.1,50.1,121.3,46.6,122.7,44.8z"/>
							<path class="st1" d="M160.7,41c0.5,0.9,0.9,1.9,1.2,3.1c2.4,9-4.4,22.5-15.5,22c-2.9-0.1-5.4-0.9-7.5-3.3
								c2.8,2.5,8.6,2.6,11.4,1.4c5-2,6.6-4.5,8.6-7.7C160.1,54.5,162.7,48.1,160.7,41z"/>
							<path class="st1" d="M72.8,52.7c0.4-2,1.3-7.5,1.3-7.5s4.6,0,9.1,0c7.6,0,12-0.7,16.7-3.5c9.3-5.5,10.1-14.3,8.4-19.1
								c1.2,2.3,1.5,4.7,1.3,7.9c-0.5,6.9-8.3,14.9-19.3,15.7c-3.8,0.6-14.8,0.3-14.8,0.3L74,54.8C74,54.8,72.5,54.6,72.8,52.7z
								 M78.4,63.3l0.7-4.1h1.4l-0.8,5.5H50.2l0.3-1.4H78.4z"/>
							<path class="st1" d="M237.6,31.2c1-0.6,2.6-1.2,4.4-1.6c1.5-0.3,4.3-0.5,4.3-0.5l0.4-2.9h1.1l-0.4,3.9
								c-3.8,0.1-7.2,0.6-10.8,3.1c-3.6,2.4-8.6,5.9-8.6,5.9l-0.7-1.1C227.3,38,235.2,32.6,237.6,31.2z M210.7,56.8
								c-1.2-0.1-1.1-0.7-0.7-2.4c0.5-2.1,1.3-6,1.3-6l4.5-3.2l0.6,1l-4.1,3L210.7,56.8z M213,60.8c0.4,0,0.6,0,1.1,0l-0.4,3.8H192
								l0.2-1.3h20.5L213,60.8z M241,60.3l1.1,0.2l-0.3,4.1h-23l0.2-1.3h21.8L241,60.3z M213.5,38.7c0,0,0.6-2.7,1-4.4
								c0.4-2,0.6-3.1,1.8-4.2c1.2-1.1,3.4-1.4,5-1.4l0.3-2.5h1.2l-0.4,3.6c-2.1,0-3.2,0-4.5,0.7c-0.9,0.4-1.6,1.4-1.8,2.7
								c-0.4,2-0.9,4.3-0.9,4.3L213.5,38.7z"/>
							<path class="st1" d="M277.9,26.4l1.2,0l-1.1,5.5l-1.3,0L277.9,26.4z M271.6,54.1c0.3-1.3,3-14.5,3-14.5h6.4l1-3.9l1.2,0
								l-1.1,5.2l-6.4,0l-3.1,14.8C272.6,55.7,271,57.2,271.6,54.1z M271.2,63.8c3.7-1.4,7-4.8,7-4.8l1,0.9
								c-0.6,0.7-5.5,5.9-11.1,5.9c-1.4,0-3.8,0-5.1-2.1C265.4,65,268.1,64.9,271.2,63.8z"/>
							<path class="st1" d="M188.1,44.2c0.2,0.6,0.4,0.7,0.5,1.3l2.1,0.1l2.6-10.7h-1.3l-2.2,9.3L188.1,44.2z M187.5,58.7
								c-1.9,2.8-4.6,4.3-6.8,5c-2.8,0.9-5.5,0.9-7.9,0.5c-2.1-0.3-5.5-2.3-7-2.1c-1.5,0.2-2.3,1.9-2.3,1.9l-0.5,0l-0.3,1.7l2.1,0
								c0.5-1.1,1.3-2.2,2.6-2.1c1.3,0.1,4.3,1.9,8.2,2.1c6.1,0.4,13-3.1,13.9-8.7c0.4-2.6,0.3-3.5-0.5-5.9
								C189.3,53.5,189,56.4,187.5,58.7z"/>
							<path class="st1" d="M255,54.4c-0.4-0.1-0.4-0.8-0.2-1.6c0.3-1.1,3.2-16.1,3.2-16.1c0.5-0.1,0.9-0.2,1.5-0.3
								c0,0-2.5,12.3-3.5,17.9C255.9,54.2,255.5,54.5,255,54.4z M259.1,59.8l0.5,1.4c0,0.1-4.5,4.5-9.7,4.4
								c-2.5-0.1-3.6-0.7-4.2-1.9c1.7,1.1,5.1,1.7,10.2-1.4C257.1,61.5,259.1,59.8,259.1,59.8z"/>
						</g>
						<path class="st1" d="M250.3,30c1.2,2,4.1,2.8,6.7,1.8c2.8-1.1,3.2-4.1,2.7-5.6c-0.2,2-1.5,3.8-3.7,4.4
							C253.5,31.4,251.6,30.7,250.3,30z"/>
						<path class="st1" d="M85.2,23.8c-0.5,0-4.8,0-4.8,0l-2.4,11h-1.5l2.7-12.6H84c0,0,5.7,0.2,7,3C89.7,24.3,87.5,23.9,85.2,23.8z
							"/>
						<path class="st1" d="M172.8,52.2c-1.2-0.8-2.3-1.6-3.1-2.7c0.9,0.7,2.1,1.3,3.3,1.9c2.3,1.1,4.7,2,5,3.4
							C176.7,54,174.8,53.5,172.8,52.2z"/>
						<path class="st1" d="M184.2,40.1c-1.6-1.8-3.4-3.6-5.8-2.4c-1.6,0.8-1,2.7,0.1,3.5C178.2,38.9,181.1,38.1,184.2,40.1z"/>
					</g>
				</g>
			</g>
		</g>
		<g>
			<path class="st0" d="M18.3,106.5V95.4h3.6c1.3,0,2.2,0.1,2.6,0.2c0.6,0.2,1.2,0.5,1.6,1.1c0.4,0.6,0.6,1.3,0.6,2.2
				c0,0.7-0.1,1.3-0.4,1.7c-0.2,0.5-0.6,0.8-0.9,1.1c-0.4,0.3-0.8,0.4-1.2,0.5c-0.5,0.1-1.3,0.1-2.3,0.1h-1.5v4.2L18.3,106.5
				L18.3,106.5z M20.6,97.3v3.1h1.2c0.9,0,1.5-0.1,1.8-0.2s0.5-0.3,0.7-0.6c0.2-0.2,0.3-0.5,0.3-0.9c0-0.4-0.1-0.7-0.3-1
				s-0.5-0.4-0.9-0.5c-0.3-0.1-0.8-0.1-1.6-0.1L20.6,97.3L20.6,97.3z"/>
			<path class="st0" d="M30.6,106.5h-2.1v-8h2v1.1c0.3-0.5,0.6-0.9,0.9-1.1c0.3-0.2,0.6-0.3,0.9-0.3c0.5,0,0.9,0.1,1.4,0.4l-0.7,1.9
				c-0.3-0.2-0.7-0.4-1-0.4c-0.3,0-0.5,0.1-0.8,0.3c-0.2,0.2-0.4,0.5-0.5,0.9c-0.1,0.4-0.2,1.3-0.2,2.7V106.5z"/>
			<path class="st0" d="M34,102.3c0-0.7,0.2-1.4,0.5-2.1c0.3-0.7,0.8-1.2,1.5-1.5c0.6-0.4,1.3-0.5,2.1-0.5c1.2,0,2.2,0.4,3,1.2
				c0.8,0.8,1.2,1.8,1.2,3c0,1.2-0.4,2.2-1.2,3c-0.8,0.8-1.8,1.2-2.9,1.2c-0.7,0-1.4-0.2-2.1-0.5s-1.2-0.8-1.5-1.5
				C34.2,104,34,103.3,34,102.3z M36.2,102.4c0,0.8,0.2,1.4,0.6,1.8c0.4,0.4,0.8,0.6,1.4,0.6s1-0.2,1.4-0.6c0.4-0.4,0.6-1,0.6-1.8
				c0-0.8-0.2-1.4-0.6-1.8c-0.4-0.4-0.8-0.6-1.4-0.6s-1,0.2-1.4,0.6S36.2,101.6,36.2,102.4z"/>
			<path class="st0" d="M43,98.4h1.2v-0.6c0-0.7,0.1-1.2,0.2-1.5s0.4-0.6,0.8-0.8c0.4-0.2,0.9-0.3,1.4-0.3c0.6,0,1.2,0.1,1.8,0.3
				l-0.3,1.5c-0.3-0.1-0.7-0.1-1-0.1s-0.5,0.1-0.7,0.2c-0.1,0.1-0.2,0.4-0.2,0.8v0.6h1.6v1.7h-1.6v6.4h-2.1v-6.4H43V98.4z"/>
			<path class="st0" d="M53.6,103.9l2.1,0.4c-0.3,0.8-0.7,1.4-1.3,1.8c-0.6,0.4-1.3,0.6-2.2,0.6c-1.4,0-2.4-0.5-3.1-1.4
				c-0.5-0.7-0.8-1.7-0.8-2.8c0-1.3,0.3-2.4,1-3.1c0.7-0.8,1.6-1.1,2.6-1.1c1.2,0,2.1,0.4,2.8,1.2c0.7,0.8,1,2,1,3.6h-5.3
				c0,0.6,0.2,1.1,0.5,1.5c0.3,0.4,0.7,0.5,1.2,0.5c0.3,0,0.6-0.1,0.8-0.3C53.3,104.6,53.5,104.3,53.6,103.9z M53.7,101.8
				c0-0.6-0.2-1.1-0.5-1.4c-0.3-0.3-0.7-0.5-1.1-0.5c-0.5,0-0.8,0.2-1.1,0.5s-0.4,0.8-0.4,1.4H53.7z"/>
			<path class="st0" d="M56.8,104.2l2.1-0.3c0.1,0.4,0.3,0.7,0.6,0.9c0.3,0.2,0.7,0.3,1.2,0.3c0.5,0,0.9-0.1,1.2-0.3
				c0.2-0.1,0.3-0.3,0.3-0.6c0-0.2-0.1-0.3-0.2-0.4c-0.1-0.1-0.3-0.2-0.7-0.3c-1.7-0.4-2.8-0.7-3.2-1c-0.6-0.4-0.9-1-0.9-1.8
				c0-0.7,0.3-1.3,0.8-1.8c0.5-0.5,1.4-0.7,2.5-0.7c1.1,0,1.9,0.2,2.4,0.5c0.5,0.4,0.9,0.9,1.1,1.6l-2,0.4c-0.1-0.3-0.2-0.6-0.5-0.7
				c-0.2-0.2-0.6-0.3-1-0.3c-0.6,0-0.9,0.1-1.2,0.2c-0.2,0.1-0.2,0.3-0.2,0.4c0,0.1,0.1,0.3,0.2,0.4c0.2,0.1,0.8,0.3,2,0.6
				c1.1,0.3,1.9,0.6,2.3,0.9c0.4,0.4,0.7,0.9,0.7,1.6c0,0.7-0.3,1.4-0.9,1.9c-0.6,0.5-1.5,0.8-2.7,0.8c-1.1,0-1.9-0.2-2.6-0.7
				C57.4,105.5,57,104.9,56.8,104.2z"/>
			<path class="st0" d="M65.3,104.2l2.1-0.3c0.1,0.4,0.3,0.7,0.6,0.9c0.3,0.2,0.7,0.3,1.2,0.3c0.5,0,0.9-0.1,1.2-0.3
				c0.2-0.1,0.3-0.3,0.3-0.6c0-0.2-0.1-0.3-0.2-0.4c-0.1-0.1-0.3-0.2-0.7-0.3c-1.7-0.4-2.8-0.7-3.2-1c-0.6-0.4-0.9-1-0.9-1.8
				c0-0.7,0.3-1.3,0.8-1.8s1.4-0.7,2.5-0.7c1.1,0,1.9,0.2,2.4,0.5c0.5,0.4,0.9,0.9,1.1,1.6l-2,0.4c-0.1-0.3-0.2-0.6-0.5-0.7
				c-0.2-0.2-0.6-0.3-1-0.3c-0.6,0-0.9,0.1-1.2,0.2c-0.2,0.1-0.2,0.3-0.2,0.4c0,0.1,0.1,0.3,0.2,0.4c0.2,0.1,0.8,0.3,2,0.6
				c1.1,0.3,1.9,0.6,2.3,0.9c0.4,0.4,0.7,0.9,0.7,1.6c0,0.7-0.3,1.4-0.9,1.9c-0.6,0.5-1.5,0.8-2.7,0.8c-1.1,0-1.9-0.2-2.6-0.7
				C65.9,105.5,65.5,104.9,65.3,104.2z"/>
			<path class="st0" d="M74.6,97.3v-2h2.1v2H74.6z M74.6,106.5v-8h2.1v8H74.6z"/>
			<path class="st0" d="M78.4,102.3c0-0.7,0.2-1.4,0.5-2.1c0.3-0.7,0.8-1.2,1.5-1.5c0.6-0.4,1.3-0.5,2.1-0.5c1.2,0,2.2,0.4,3,1.2
				c0.8,0.8,1.2,1.8,1.2,3c0,1.2-0.4,2.2-1.2,3c-0.8,0.8-1.8,1.2-2.9,1.2c-0.7,0-1.4-0.2-2.1-0.5c-0.7-0.3-1.2-0.8-1.5-1.5
				C78.5,104,78.4,103.3,78.4,102.3z M80.5,102.4c0,0.8,0.2,1.4,0.6,1.8c0.4,0.4,0.8,0.6,1.4,0.6s1-0.2,1.4-0.6
				c0.4-0.4,0.6-1,0.6-1.8c0-0.8-0.2-1.4-0.6-1.8c-0.4-0.4-0.8-0.6-1.4-0.6c-0.6,0-1,0.2-1.4,0.6S80.5,101.6,80.5,102.4z"/>
			<path class="st0" d="M95.5,106.5h-2.1v-4.1c0-0.9,0-1.4-0.1-1.7s-0.2-0.4-0.4-0.6c-0.2-0.1-0.4-0.2-0.7-0.2c-0.4,0-0.7,0.1-1,0.3
				s-0.5,0.5-0.6,0.8s-0.2,0.9-0.2,1.9v3.6h-2.1v-8h1.9v1.2c0.7-0.9,1.6-1.4,2.6-1.4c0.5,0,0.9,0.1,1.3,0.3c0.4,0.2,0.7,0.4,0.9,0.6
				c0.2,0.3,0.3,0.6,0.4,0.9s0.1,0.8,0.1,1.4V106.5z"/>
			<path class="st0" d="M99.2,100.9l-1.9-0.4c0.2-0.8,0.6-1.4,1.1-1.7c0.5-0.4,1.3-0.6,2.3-0.6c0.9,0,1.6,0.1,2.1,0.3
				c0.5,0.2,0.8,0.5,1,0.9s0.3,1,0.3,1.9l0,2.5c0,0.7,0,1.2,0.1,1.6s0.2,0.7,0.4,1.1h-2.1c-0.1-0.1-0.1-0.4-0.2-0.6
				c0-0.1-0.1-0.2-0.1-0.3c-0.4,0.4-0.7,0.6-1.2,0.8c-0.4,0.2-0.8,0.3-1.3,0.3c-0.8,0-1.5-0.2-1.9-0.7c-0.5-0.4-0.7-1-0.7-1.7
				c0-0.4,0.1-0.9,0.3-1.2c0.2-0.4,0.5-0.6,0.9-0.8c0.4-0.2,0.9-0.4,1.7-0.5c1-0.2,1.7-0.4,2.1-0.5V101c0-0.4-0.1-0.7-0.3-0.9
				c-0.2-0.2-0.6-0.3-1.1-0.3c-0.4,0-0.7,0.1-0.9,0.2C99.5,100.3,99.3,100.5,99.2,100.9z M102,102.6c-0.3,0.1-0.7,0.2-1.3,0.3
				s-1,0.3-1.2,0.4c-0.3,0.2-0.4,0.4-0.4,0.8c0,0.3,0.1,0.6,0.3,0.8s0.5,0.3,0.8,0.3c0.4,0,0.7-0.1,1.1-0.4c0.3-0.2,0.4-0.4,0.5-0.7
				c0.1-0.2,0.1-0.5,0.1-1C102,103,102,102.6,102,102.6z"/>
			<path class="st0" d="M106.1,106.5V95.4h2.1v11.1H106.1z"/>
			<path class="st0" d="M117.1,106.5v-9.2h-3.3v-1.9h8.7v1.9h-3.3v9.2H117.1z"/>
			<path class="st0" d="M122.4,102.3c0-0.7,0.2-1.4,0.5-2.1c0.3-0.7,0.8-1.2,1.5-1.5c0.6-0.4,1.3-0.5,2.1-0.5c1.2,0,2.2,0.4,3,1.2
				c0.8,0.8,1.1,1.8,1.1,3c0,1.2-0.4,2.2-1.2,3c-0.8,0.8-1.8,1.2-2.9,1.2c-0.7,0-1.4-0.2-2.1-0.5s-1.2-0.8-1.5-1.5
				C122.6,104,122.4,103.3,122.4,102.3z M124.5,102.4c0,0.8,0.2,1.4,0.6,1.8c0.4,0.4,0.8,0.6,1.4,0.6s1-0.2,1.4-0.6
				c0.4-0.4,0.6-1,0.6-1.8c0-0.8-0.2-1.4-0.6-1.8c-0.4-0.4-0.8-0.6-1.4-0.6s-1,0.2-1.4,0.6C124.7,101,124.5,101.6,124.5,102.4z"/>
			<path class="st0" d="M131.8,102.3c0-0.7,0.2-1.4,0.5-2.1c0.3-0.7,0.8-1.2,1.5-1.5c0.6-0.4,1.3-0.5,2.1-0.5c1.2,0,2.2,0.4,3,1.2
				c0.8,0.8,1.1,1.8,1.1,3c0,1.2-0.4,2.2-1.2,3c-0.8,0.8-1.8,1.2-2.9,1.2c-0.7,0-1.4-0.2-2.1-0.5s-1.2-0.8-1.5-1.5
				C131.9,104,131.8,103.3,131.8,102.3z M133.9,102.4c0,0.8,0.2,1.4,0.6,1.8c0.4,0.4,0.8,0.6,1.4,0.6c0.5,0,1-0.2,1.4-0.6
				c0.4-0.4,0.6-1,0.6-1.8c0-0.8-0.2-1.4-0.6-1.8c-0.4-0.4-0.8-0.6-1.4-0.6c-0.6,0-1,0.2-1.4,0.6C134.1,101,133.9,101.6,133.9,102.4
				z"/>
			<path class="st0" d="M141.6,106.5V95.4h2.1v11.1H141.6z"/>
			<path class="st0" d="M149.6,102.9l2.2-0.2c0.1,0.7,0.4,1.3,0.8,1.6s0.9,0.5,1.6,0.5c0.7,0,1.3-0.1,1.6-0.5
				c0.4-0.3,0.5-0.7,0.5-1.1c0-0.3-0.1-0.5-0.2-0.7s-0.4-0.4-0.8-0.5c-0.3-0.1-0.9-0.3-1.8-0.5c-1.2-0.3-2-0.7-2.5-1.1
				c-0.7-0.6-1-1.4-1-2.2c0-0.6,0.2-1.1,0.5-1.6c0.3-0.5,0.8-0.9,1.4-1.1c0.6-0.3,1.3-0.4,2.2-0.4c1.4,0,2.4,0.3,3.1,0.9
				c0.7,0.6,1.1,1.4,1.1,2.4l-2.2,0.1c-0.1-0.6-0.3-1-0.6-1.2S154.6,97,154,97c-0.6,0-1.1,0.1-1.5,0.4c-0.2,0.2-0.4,0.4-0.4,0.7
				c0,0.3,0.1,0.5,0.3,0.7c0.3,0.2,1,0.5,2,0.7c1.1,0.3,1.9,0.5,2.4,0.8c0.5,0.3,0.9,0.6,1.2,1.1s0.4,1.1,0.4,1.8
				c0,0.6-0.2,1.2-0.5,1.8c-0.4,0.6-0.8,1-1.5,1.2c-0.6,0.3-1.4,0.4-2.4,0.4c-1.4,0-2.5-0.3-3.2-1
				C150.2,105,149.7,104.1,149.6,102.9z"/>
			<path class="st0" d="M159.9,102.3c0-0.7,0.2-1.4,0.5-2.1c0.3-0.7,0.8-1.2,1.5-1.5c0.6-0.4,1.3-0.5,2.1-0.5c1.2,0,2.2,0.4,3,1.2
				c0.8,0.8,1.1,1.8,1.1,3c0,1.2-0.4,2.2-1.2,3c-0.8,0.8-1.8,1.2-2.9,1.2c-0.7,0-1.4-0.2-2.1-0.5s-1.2-0.8-1.5-1.5
				C160.1,104,159.9,103.3,159.9,102.3z M162,102.4c0,0.8,0.2,1.4,0.6,1.8c0.4,0.4,0.8,0.6,1.4,0.6c0.6,0,1-0.2,1.4-0.6
				c0.4-0.4,0.6-1,0.6-1.8c0-0.8-0.2-1.4-0.6-1.8c-0.4-0.4-0.8-0.6-1.4-0.6c-0.5,0-1,0.2-1.4,0.6C162.2,101,162,101.6,162,102.4z"/>
			<path class="st0" d="M169.7,106.5V95.4h2.1v11.1H169.7z"/>
			<path class="st0" d="M179.2,106.5v-1.2c-0.3,0.4-0.7,0.8-1.1,1c-0.5,0.2-1,0.4-1.5,0.4c-0.5,0-1-0.1-1.4-0.4
				c-0.4-0.2-0.7-0.6-0.9-1s-0.3-1-0.3-1.8v-5.1h2.1v3.7c0,1.1,0,1.8,0.1,2.1c0.1,0.3,0.2,0.5,0.4,0.6c0.2,0.1,0.5,0.2,0.8,0.2
				c0.4,0,0.7-0.1,1-0.3c0.3-0.2,0.5-0.4,0.6-0.7c0.1-0.3,0.2-1,0.2-2.2v-3.4h2.1v8L179.2,106.5L179.2,106.5z"/>
			<path class="st0" d="M187,98.4v1.7h-1.4v3.2c0,0.6,0,1,0,1.1s0.1,0.2,0.2,0.3s0.2,0.1,0.4,0.1c0.2,0,0.5-0.1,0.9-0.2l0.2,1.6
				c-0.5,0.2-1,0.3-1.7,0.3c-0.4,0-0.7-0.1-1-0.2c-0.3-0.1-0.5-0.3-0.7-0.5c-0.1-0.2-0.2-0.5-0.3-0.8c0-0.3-0.1-0.8-0.1-1.5v-3.5h-1
				v-1.7h1v-1.6l2.1-1.2v2.8H187z"/>
			<path class="st0" d="M188.5,97.3v-2h2.1v2H188.5z M188.5,106.5v-8h2.1v8H188.5z"/>
			<path class="st0" d="M192.2,102.3c0-0.7,0.2-1.4,0.5-2.1c0.3-0.7,0.8-1.2,1.5-1.5c0.6-0.4,1.3-0.5,2.1-0.5c1.2,0,2.2,0.4,3,1.2
				c0.8,0.8,1.1,1.8,1.1,3c0,1.2-0.4,2.2-1.2,3c-0.8,0.8-1.8,1.2-2.9,1.2c-0.7,0-1.4-0.2-2.1-0.5s-1.2-0.8-1.5-1.5
				C192.4,104,192.2,103.3,192.2,102.3z M194.4,102.4c0,0.8,0.2,1.4,0.6,1.8c0.4,0.4,0.8,0.6,1.4,0.6c0.6,0,1-0.2,1.4-0.6
				c0.4-0.4,0.6-1,0.6-1.8c0-0.8-0.2-1.4-0.6-1.8c-0.4-0.4-0.8-0.6-1.4-0.6c-0.5,0-1,0.2-1.4,0.6S194.4,101.6,194.4,102.4z"/>
			<path class="st0" d="M209.3,106.5h-2.1v-4.1c0-0.9,0-1.4-0.1-1.7s-0.2-0.4-0.4-0.6c-0.2-0.1-0.5-0.2-0.7-0.2
				c-0.4,0-0.7,0.1-1,0.3c-0.3,0.2-0.5,0.5-0.6,0.8c-0.1,0.3-0.2,0.9-0.2,1.9v3.6h-2.1v-8h1.9v1.2c0.7-0.9,1.6-1.4,2.6-1.4
				c0.5,0,0.9,0.1,1.3,0.3c0.4,0.2,0.7,0.4,0.9,0.6c0.2,0.3,0.3,0.6,0.4,0.9c0.1,0.3,0.1,0.8,0.1,1.4L209.3,106.5L209.3,106.5z"/>
			<path class="st0" d="M210.7,104.2l2.1-0.3c0.1,0.4,0.3,0.7,0.6,0.9c0.3,0.2,0.7,0.3,1.1,0.3c0.5,0,0.9-0.1,1.2-0.3
				c0.2-0.1,0.3-0.3,0.3-0.6c0-0.2,0-0.3-0.1-0.4c-0.1-0.1-0.3-0.2-0.7-0.3c-1.7-0.4-2.8-0.7-3.2-1c-0.6-0.4-0.9-1-0.9-1.8
				c0-0.7,0.3-1.3,0.8-1.8c0.5-0.5,1.4-0.7,2.5-0.7c1.1,0,1.9,0.2,2.4,0.5c0.5,0.4,0.9,0.9,1.1,1.6l-2,0.4c-0.1-0.3-0.2-0.6-0.5-0.7
				s-0.6-0.3-1-0.3c-0.6,0-1,0.1-1.2,0.2c-0.2,0.1-0.2,0.3-0.2,0.4c0,0.1,0.1,0.3,0.2,0.4c0.2,0.1,0.8,0.3,2,0.6
				c1.1,0.3,1.9,0.6,2.4,0.9c0.4,0.4,0.7,0.9,0.7,1.6c0,0.7-0.3,1.4-0.9,1.9c-0.6,0.5-1.5,0.8-2.7,0.8c-1.1,0-1.9-0.2-2.6-0.7
				C211.3,105.5,210.9,104.9,210.7,104.2z"/>
			<path class="st0" d="M223.7,102.9l2.2-0.2c0.1,0.7,0.4,1.3,0.8,1.6s0.9,0.5,1.6,0.5c0.7,0,1.3-0.1,1.6-0.5
				c0.4-0.3,0.5-0.7,0.5-1.1c0-0.3-0.1-0.5-0.2-0.7s-0.4-0.4-0.8-0.5c-0.3-0.1-0.9-0.3-1.8-0.5c-1.2-0.3-2-0.7-2.5-1.1
				c-0.7-0.6-1-1.4-1-2.2c0-0.6,0.2-1.1,0.5-1.6c0.3-0.5,0.8-0.9,1.4-1.1c0.6-0.3,1.3-0.4,2.2-0.4c1.4,0,2.4,0.3,3.1,0.9
				c0.7,0.6,1.1,1.4,1.1,2.4l-2.2,0.1c-0.1-0.6-0.3-1-0.6-1.2s-0.8-0.4-1.4-0.4c-0.6,0-1.1,0.1-1.5,0.4c-0.2,0.2-0.4,0.4-0.4,0.7
				c0,0.3,0.1,0.5,0.3,0.7c0.3,0.2,1,0.5,2,0.7c1.1,0.3,1.9,0.5,2.4,0.8c0.5,0.3,0.9,0.6,1.2,1.1s0.4,1.1,0.4,1.8
				c0,0.6-0.2,1.2-0.5,1.8c-0.4,0.6-0.8,1-1.5,1.2s-1.4,0.4-2.4,0.4c-1.4,0-2.5-0.3-3.2-1C224.3,105,223.9,104.1,223.7,102.9z"/>
			<path class="st0" d="M234.5,97.3v-2h2.1v2H234.5z M234.5,106.5v-8h2.1v8H234.5z"/>
			<path class="st0" d="M246,106.5h-2.1v-4.1c0-0.9,0-1.4-0.1-1.7s-0.2-0.4-0.4-0.6s-0.5-0.2-0.7-0.2c-0.4,0-0.7,0.1-1,0.3
				s-0.5,0.5-0.6,0.8c-0.1,0.3-0.2,0.9-0.2,1.9v3.6h-2.1v-8h2v1.2c0.7-0.9,1.6-1.4,2.6-1.4c0.5,0,0.9,0.1,1.3,0.3
				c0.4,0.2,0.7,0.4,0.9,0.6c0.2,0.3,0.3,0.6,0.4,0.9c0.1,0.3,0.1,0.8,0.1,1.4L246,106.5L246,106.5z"/>
			<path class="st0" d="M255.1,100.8l-2.1,0.4c-0.1-0.4-0.2-0.7-0.5-0.9c-0.3-0.2-0.6-0.3-1-0.3c-0.5,0-0.9,0.2-1.3,0.6
				c-0.3,0.4-0.5,1-0.5,1.8c0,0.9,0.2,1.6,0.5,2c0.3,0.4,0.7,0.6,1.3,0.6c0.4,0,0.7-0.1,1-0.3s0.4-0.6,0.5-1.2l2.1,0.4
				c-0.2,1-0.6,1.7-1.2,2.2s-1.4,0.7-2.5,0.7c-1.2,0-2.1-0.4-2.8-1.1s-1-1.8-1-3.1c0-1.3,0.4-2.4,1-3.1s1.6-1.1,2.8-1.1
				c1,0,1.7,0.2,2.3,0.6C254.4,99.3,254.8,99.9,255.1,100.8z"/>
			<path class="st0" d="M261.3,103.9l2.1,0.4c-0.3,0.8-0.7,1.4-1.3,1.8c-0.6,0.4-1.3,0.6-2.2,0.6c-1.4,0-2.4-0.5-3.1-1.4
				c-0.5-0.7-0.8-1.7-0.8-2.8c0-1.3,0.3-2.4,1-3.1c0.7-0.8,1.6-1.1,2.6-1.1c1.2,0,2.1,0.4,2.8,1.2c0.7,0.8,1,2,1,3.6h-5.3
				c0,0.6,0.2,1.1,0.5,1.5c0.3,0.4,0.7,0.5,1.2,0.5c0.3,0,0.6-0.1,0.8-0.3C261,104.6,261.1,104.3,261.3,103.9z M261.4,101.8
				c0-0.6-0.2-1.1-0.5-1.4c-0.3-0.3-0.7-0.5-1.1-0.5c-0.5,0-0.8,0.2-1.1,0.5c-0.3,0.3-0.5,0.8-0.4,1.4H261.4z"/>
			<path class="st0" d="M274.4,106.5h-2.1v-8c-0.8,0.7-1.7,1.3-2.7,1.6v-1.9c0.5-0.2,1.1-0.5,1.8-1c0.6-0.5,1.1-1.1,1.3-1.8h1.7
				L274.4,106.5L274.4,106.5z"/>
			<path class="st0" d="M277.6,103.9l2-0.2c0,0.4,0.2,0.7,0.4,0.9c0.2,0.2,0.5,0.3,0.8,0.3c0.4,0,0.8-0.2,1.1-0.6
				c0.3-0.4,0.5-1.2,0.6-2.5c-0.5,0.6-1.2,0.9-2,0.9c-0.9,0-1.6-0.3-2.2-1c-0.6-0.7-0.9-1.6-0.9-2.6c0-1.1,0.3-2,1-2.7s1.5-1,2.5-1
				c1.1,0,2,0.4,2.7,1.3c0.7,0.9,1.1,2.3,1.1,4.3c0,2-0.4,3.5-1.1,4.4s-1.7,1.4-2.9,1.4c-0.9,0-1.5-0.2-2.1-0.7
				C278.1,105.5,277.7,104.8,277.6,103.9z M282.3,99.3c0-0.7-0.1-1.2-0.5-1.6c-0.3-0.4-0.7-0.6-1.1-0.6c-0.4,0-0.7,0.1-1,0.5
				c-0.3,0.3-0.4,0.8-0.4,1.5c0,0.7,0.1,1.2,0.4,1.6c0.3,0.3,0.6,0.5,1,0.5c0.4,0,0.8-0.2,1-0.5C282.2,100.4,282.3,99.9,282.3,99.3z
				"/>
			<path class="st0" d="M286.1,103.9l2-0.2c0,0.4,0.2,0.7,0.4,0.9c0.2,0.2,0.5,0.3,0.8,0.3c0.4,0,0.8-0.2,1.1-0.6
				c0.3-0.4,0.5-1.2,0.6-2.5c-0.5,0.6-1.2,0.9-2,0.9c-0.9,0-1.6-0.3-2.2-1c-0.6-0.7-0.9-1.6-0.9-2.6c0-1.1,0.3-2,1-2.7s1.5-1,2.5-1
				c1.1,0,2,0.4,2.7,1.3c0.7,0.9,1.1,2.3,1.1,4.3c0,2-0.4,3.5-1.1,4.4s-1.7,1.4-2.9,1.4c-0.9,0-1.5-0.2-2.1-0.7
				C286.6,105.5,286.3,104.8,286.1,103.9z M290.9,99.3c0-0.7-0.1-1.2-0.5-1.6c-0.3-0.4-0.7-0.6-1.1-0.6c-0.4,0-0.7,0.1-1,0.5
				c-0.3,0.3-0.4,0.8-0.4,1.5c0,0.7,0.1,1.2,0.4,1.6c0.3,0.3,0.6,0.5,1,0.5c0.4,0,0.8-0.2,1-0.5C290.7,100.4,290.9,99.9,290.9,99.3z
				"/>
			<path class="st0" d="M300,106.5h-2.1v-8c-0.8,0.7-1.7,1.3-2.7,1.6v-1.9c0.5-0.2,1.1-0.5,1.8-1c0.6-0.5,1.1-1.1,1.3-1.8h1.7
				L300,106.5L300,106.5z"/>
		</g>
	</g>
</g>
</svg>
