<?xml version="1.0" encoding="utf-8"?>
<!-- Generator: Adobe Illustrator 26.2.1, SVG Export Plug-In . SVG Version: 6.00 Build 0)  -->
<svg version="1.1" id="圖層_1" xmlns="http://www.w3.org/2000/svg" xmlns:xlink="http://www.w3.org/1999/xlink" x="0px" y="0px"
	 viewBox="0 0 265.67 99.19" style="enable-background:new 0 0 265.67 99.19;" xml:space="preserve">
<style type="text/css">
	.st0{fill:#0097DB;}
	.st1{fill:#FFE200;}
</style>
<rect class="st0" width="265.67" height="82.37"/>
<g>
	<g>
		<path class="st0" d="M7.48,99.03v-9.08h3.68c1.39,0,2.3,0.05,2.72,0.14c0.65,0.14,1.2,0.43,1.64,0.89
			c0.44,0.46,0.66,1.05,0.66,1.77c0,0.56-0.13,1.03-0.38,1.41c-0.25,0.38-0.57,0.68-0.96,0.9c-0.39,0.22-0.79,0.36-1.19,0.43
			c-0.55,0.09-1.34,0.13-2.38,0.13h-1.5v3.43H7.48z M9.78,91.48v2.58h1.25c0.9,0,1.51-0.05,1.81-0.14c0.31-0.1,0.54-0.24,0.72-0.45
			c0.17-0.2,0.26-0.44,0.26-0.7c0-0.33-0.12-0.6-0.36-0.82c-0.24-0.22-0.55-0.35-0.92-0.4c-0.27-0.04-0.82-0.06-1.65-0.06H9.78z"/>
		<path class="st0" d="M22.86,99.03h-2.18v-6.58h2.02v0.94c0.35-0.44,0.66-0.73,0.93-0.87c0.28-0.14,0.59-0.21,0.94-0.21
			c0.49,0,0.97,0.11,1.43,0.33l-0.67,1.52c-0.37-0.19-0.71-0.28-1.02-0.28c-0.3,0-0.56,0.07-0.77,0.2c-0.21,0.13-0.38,0.38-0.5,0.73
			c-0.12,0.35-0.18,1.09-0.18,2.21V99.03z"/>
		<path class="st0" d="M29.17,95.64c0-0.58,0.18-1.14,0.54-1.68c0.36-0.54,0.86-0.95,1.51-1.24c0.65-0.29,1.38-0.43,2.19-0.43
			c1.24,0,2.26,0.32,3.06,0.97c0.79,0.65,1.19,1.46,1.19,2.45c0,1-0.4,1.82-1.2,2.48c-0.8,0.65-1.81,0.98-3.03,0.98
			c-0.75,0-1.47-0.13-2.16-0.41c-0.68-0.27-1.2-0.67-1.56-1.2C29.35,97.04,29.17,96.4,29.17,95.64z M31.4,95.74
			c0,0.65,0.19,1.15,0.58,1.5c0.39,0.35,0.86,0.52,1.43,0.52c0.57,0,1.04-0.17,1.43-0.52c0.38-0.35,0.58-0.85,0.58-1.51
			c0-0.64-0.19-1.14-0.58-1.49c-0.38-0.35-0.86-0.52-1.43-0.52c-0.57,0-1.05,0.17-1.43,0.52C31.6,94.58,31.4,95.08,31.4,95.74z"/>
		<path class="st0" d="M41.14,92.44h1.21v-0.49c0-0.55,0.07-0.97,0.22-1.24c0.15-0.27,0.42-0.49,0.81-0.67
			c0.4-0.17,0.9-0.26,1.5-0.26c0.62,0,1.23,0.07,1.82,0.22l-0.29,1.21c-0.35-0.07-0.68-0.1-1-0.1c-0.32,0-0.54,0.06-0.68,0.18
			c-0.14,0.12-0.21,0.34-0.21,0.68v0.46h1.63v1.37h-1.63v5.21h-2.18v-5.21h-1.21V92.44z"/>
		<path class="st0" d="M54.87,96.93l2.17,0.29c-0.28,0.64-0.72,1.12-1.32,1.45c-0.6,0.33-1.35,0.5-2.26,0.5
			c-1.43,0-2.49-0.37-3.18-1.12c-0.54-0.6-0.81-1.35-0.81-2.27c0-1.09,0.36-1.94,1.07-2.56c0.71-0.62,1.61-0.93,2.7-0.93
			c1.22,0,2.19,0.32,2.9,0.97c0.71,0.65,1.05,1.64,1.01,2.97H51.7c0.01,0.52,0.19,0.92,0.53,1.2c0.34,0.29,0.75,0.43,1.25,0.43
			c0.34,0,0.63-0.07,0.86-0.22C54.57,97.5,54.75,97.26,54.87,96.93z M54.99,95.17c-0.01-0.5-0.18-0.89-0.49-1.15
			c-0.31-0.26-0.69-0.39-1.13-0.39c-0.47,0-0.87,0.14-1.18,0.42c-0.31,0.28-0.46,0.65-0.46,1.13H54.99z"/>
		<path class="st0" d="M60.89,97.15l2.18-0.27c0.09,0.34,0.28,0.59,0.57,0.77c0.28,0.18,0.68,0.26,1.19,0.26
			c0.56,0,0.99-0.08,1.27-0.25c0.19-0.11,0.29-0.27,0.29-0.46c0-0.13-0.05-0.24-0.15-0.33c-0.11-0.08-0.35-0.16-0.73-0.23
			c-1.76-0.31-2.87-0.59-3.34-0.85c-0.65-0.35-0.98-0.85-0.98-1.48c0-0.57,0.28-1.05,0.84-1.44c0.56-0.39,1.43-0.58,2.62-0.58
			c1.13,0,1.96,0.15,2.51,0.44c0.55,0.29,0.93,0.73,1.13,1.3l-2.05,0.3c-0.09-0.26-0.25-0.45-0.5-0.59
			c-0.25-0.14-0.6-0.21-1.05-0.21c-0.57,0-0.98,0.06-1.23,0.19c-0.17,0.09-0.25,0.21-0.25,0.35c0,0.12,0.07,0.23,0.22,0.32
			c0.2,0.12,0.87,0.28,2.03,0.49c1.16,0.21,1.97,0.47,2.43,0.77c0.46,0.31,0.68,0.74,0.68,1.3c0,0.6-0.32,1.12-0.94,1.56
			c-0.63,0.43-1.56,0.65-2.8,0.65c-1.12,0-2.01-0.18-2.66-0.54C61.52,98.27,61.09,97.77,60.89,97.15z"/>
		<path class="st0" d="M72.44,97.15l2.18-0.27c0.09,0.34,0.28,0.59,0.57,0.77c0.28,0.18,0.68,0.26,1.19,0.26
			c0.56,0,0.99-0.08,1.27-0.25c0.19-0.11,0.29-0.27,0.29-0.46c0-0.13-0.05-0.24-0.15-0.33c-0.11-0.08-0.35-0.16-0.73-0.23
			c-1.76-0.31-2.87-0.59-3.34-0.85c-0.65-0.35-0.98-0.85-0.98-1.48c0-0.57,0.28-1.05,0.84-1.44c0.56-0.39,1.43-0.58,2.62-0.58
			c1.13,0,1.96,0.15,2.51,0.44c0.55,0.29,0.93,0.73,1.13,1.3l-2.05,0.3c-0.09-0.26-0.25-0.45-0.5-0.59
			c-0.25-0.14-0.6-0.21-1.05-0.21c-0.57,0-0.98,0.06-1.23,0.19c-0.17,0.09-0.25,0.21-0.25,0.35c0,0.12,0.07,0.23,0.22,0.32
			c0.2,0.12,0.87,0.28,2.03,0.49c1.16,0.21,1.97,0.47,2.43,0.77c0.46,0.31,0.68,0.74,0.68,1.3c0,0.6-0.32,1.12-0.94,1.56
			c-0.63,0.43-1.56,0.65-2.8,0.65c-1.12,0-2.01-0.18-2.66-0.54C73.07,98.27,72.64,97.77,72.44,97.15z"/>
		<path class="st0" d="M84.76,91.55v-1.61h2.18v1.61H84.76z M84.76,99.03v-6.58h2.18v6.58H84.76z"/>
		<path class="st0" d="M91.39,95.64c0-0.58,0.18-1.14,0.54-1.68c0.36-0.54,0.86-0.95,1.51-1.24c0.65-0.29,1.38-0.43,2.19-0.43
			c1.24,0,2.26,0.32,3.06,0.97c0.79,0.65,1.19,1.46,1.19,2.45c0,1-0.4,1.82-1.2,2.48c-0.8,0.65-1.81,0.98-3.03,0.98
			c-0.75,0-1.47-0.13-2.16-0.41c-0.68-0.27-1.2-0.67-1.56-1.2C91.56,97.04,91.39,96.4,91.39,95.64z M93.62,95.74
			c0,0.65,0.19,1.15,0.58,1.5c0.39,0.35,0.86,0.52,1.43,0.52c0.57,0,1.04-0.17,1.43-0.52c0.38-0.35,0.58-0.85,0.58-1.51
			c0-0.64-0.19-1.14-0.58-1.49c-0.38-0.35-0.86-0.52-1.43-0.52c-0.57,0-1.05,0.17-1.43,0.52C93.81,94.58,93.62,95.08,93.62,95.74z"
			/>
		<path class="st0" d="M111.79,99.03h-2.18v-3.36c0-0.71-0.05-1.17-0.14-1.38c-0.09-0.21-0.24-0.37-0.45-0.49
			c-0.21-0.11-0.46-0.17-0.75-0.17c-0.38,0-0.71,0.08-1.02,0.25c-0.3,0.17-0.5,0.38-0.61,0.66c-0.11,0.27-0.17,0.78-0.17,1.51v2.98
			h-2.18v-6.58h2.02v0.97c0.72-0.74,1.62-1.11,2.71-1.11c0.48,0,0.92,0.07,1.32,0.21c0.4,0.14,0.7,0.32,0.9,0.53
			c0.2,0.22,0.35,0.46,0.43,0.73c0.08,0.27,0.12,0.66,0.12,1.17V99.03z"/>
		<path class="st0" d="M118.35,94.45l-1.97-0.29c0.22-0.64,0.6-1.11,1.15-1.41c0.54-0.31,1.35-0.46,2.42-0.46
			c0.97,0,1.69,0.09,2.17,0.28c0.47,0.18,0.81,0.42,1,0.7c0.19,0.28,0.29,0.8,0.29,1.56l-0.02,2.03c0,0.58,0.03,1.01,0.1,1.28
			c0.07,0.27,0.2,0.57,0.39,0.88h-2.15c-0.06-0.12-0.13-0.29-0.21-0.51c-0.04-0.1-0.06-0.17-0.08-0.2
			c-0.37,0.29-0.77,0.51-1.19,0.65c-0.42,0.14-0.87,0.22-1.35,0.22c-0.85,0-1.52-0.18-2-0.55c-0.49-0.37-0.73-0.83-0.73-1.39
			c0-0.37,0.11-0.7,0.33-0.99c0.22-0.29,0.53-0.51,0.93-0.67c0.4-0.15,0.98-0.29,1.73-0.4c1.02-0.15,1.72-0.3,2.11-0.43v-0.17
			c0-0.34-0.1-0.57-0.31-0.72c-0.21-0.14-0.6-0.21-1.17-0.21c-0.39,0-0.69,0.06-0.91,0.18C118.66,93.93,118.48,94.15,118.35,94.45z
			 M121.26,95.87c-0.28,0.08-0.72,0.16-1.32,0.27c-0.6,0.1-1,0.21-1.18,0.3c-0.28,0.16-0.43,0.37-0.43,0.61
			c0,0.24,0.11,0.46,0.34,0.63c0.23,0.18,0.52,0.27,0.87,0.27c0.39,0,0.77-0.1,1.12-0.31c0.26-0.16,0.44-0.35,0.52-0.58
			c0.06-0.15,0.09-0.43,0.09-0.85V95.87z"/>
		<path class="st0" d="M128.27,99.03v-9.08h2.18v9.08H128.27z"/>
		<path class="st0" d="M141.98,96.07l2.23-0.17c0.13,0.6,0.41,1.04,0.82,1.32c0.41,0.28,0.96,0.42,1.66,0.42
			c0.74,0,1.3-0.12,1.67-0.38c0.37-0.25,0.56-0.54,0.56-0.88c0-0.22-0.08-0.4-0.24-0.55c-0.16-0.15-0.43-0.28-0.82-0.39
			c-0.27-0.07-0.88-0.21-1.84-0.4c-1.23-0.24-2.09-0.54-2.59-0.9c-0.7-0.5-1.05-1.11-1.05-1.83c0-0.46,0.16-0.9,0.49-1.3
			c0.33-0.4,0.8-0.71,1.42-0.92c0.62-0.21,1.36-0.32,2.24-0.32c1.42,0,2.5,0.25,3.22,0.75c0.72,0.5,1.1,1.17,1.13,2l-2.29,0.08
			c-0.1-0.47-0.31-0.8-0.63-1.01c-0.32-0.2-0.81-0.31-1.45-0.31c-0.67,0-1.19,0.11-1.56,0.33c-0.24,0.14-0.36,0.33-0.36,0.56
			c0,0.22,0.11,0.4,0.34,0.55c0.29,0.19,0.99,0.4,2.11,0.61c1.12,0.21,1.94,0.43,2.48,0.65c0.53,0.23,0.95,0.53,1.25,0.92
			c0.3,0.39,0.45,0.87,0.45,1.45c0,0.52-0.18,1.01-0.54,1.46c-0.36,0.45-0.87,0.79-1.53,1.01c-0.66,0.22-1.48,0.33-2.47,0.33
			c-1.44,0-2.54-0.26-3.31-0.8C142.59,97.86,142.13,97.09,141.98,96.07z"/>
		<path class="st0" d="M163.02,94.39l-2.15,0.31c-0.07-0.34-0.24-0.6-0.49-0.78c-0.26-0.17-0.59-0.26-1-0.26
			c-0.54,0-0.97,0.15-1.3,0.45c-0.32,0.3-0.48,0.8-0.48,1.5c0,0.78,0.16,1.33,0.49,1.66c0.33,0.32,0.77,0.48,1.32,0.48
			c0.41,0,0.75-0.09,1.02-0.28c0.26-0.19,0.45-0.51,0.56-0.97l2.14,0.29c-0.22,0.78-0.65,1.38-1.28,1.78
			c-0.63,0.4-1.47,0.6-2.53,0.6c-1.2,0-2.16-0.3-2.88-0.91c-0.71-0.61-1.07-1.45-1.07-2.52c0-1.09,0.36-1.93,1.08-2.54
			c0.72-0.6,1.69-0.91,2.91-0.91c1,0,1.8,0.17,2.39,0.52C162.34,93.16,162.76,93.68,163.02,94.39z"/>
		<path class="st0" d="M167.4,91.55v-1.61h2.18v1.61H167.4z M167.4,99.03v-6.58h2.18v6.58H167.4z"/>
		<path class="st0" d="M179.3,96.93l2.17,0.29c-0.28,0.64-0.72,1.12-1.32,1.45c-0.6,0.33-1.35,0.5-2.26,0.5
			c-1.43,0-2.49-0.37-3.18-1.12c-0.54-0.6-0.81-1.35-0.81-2.27c0-1.09,0.36-1.94,1.07-2.56c0.71-0.62,1.61-0.93,2.7-0.93
			c1.22,0,2.19,0.32,2.9,0.97c0.71,0.65,1.05,1.64,1.01,2.97h-5.45c0.01,0.52,0.19,0.92,0.53,1.2c0.34,0.29,0.75,0.43,1.25,0.43
			c0.34,0,0.63-0.07,0.86-0.22C179,97.5,179.18,97.26,179.3,96.93z M179.42,95.17c-0.01-0.5-0.18-0.89-0.49-1.15
			c-0.31-0.26-0.69-0.39-1.13-0.39c-0.47,0-0.87,0.14-1.18,0.42c-0.31,0.28-0.46,0.65-0.46,1.13H179.42z"/>
		<path class="st0" d="M193.57,99.03h-2.18v-3.36c0-0.71-0.05-1.17-0.14-1.38c-0.09-0.21-0.24-0.37-0.45-0.49
			c-0.21-0.11-0.46-0.17-0.75-0.17c-0.38,0-0.71,0.08-1.02,0.25c-0.3,0.17-0.5,0.38-0.61,0.66c-0.11,0.27-0.17,0.78-0.17,1.51v2.98
			h-2.18v-6.58h2.02v0.97c0.72-0.74,1.62-1.11,2.71-1.11c0.48,0,0.92,0.07,1.32,0.21c0.4,0.14,0.7,0.32,0.9,0.53
			c0.2,0.22,0.35,0.46,0.43,0.73c0.08,0.27,0.12,0.66,0.12,1.17V99.03z"/>
		<path class="st0" d="M205.68,94.39l-2.15,0.31c-0.07-0.34-0.24-0.6-0.49-0.78c-0.26-0.17-0.59-0.26-1-0.26
			c-0.54,0-0.97,0.15-1.3,0.45c-0.32,0.3-0.48,0.8-0.48,1.5c0,0.78,0.16,1.33,0.49,1.66c0.33,0.32,0.77,0.48,1.32,0.48
			c0.41,0,0.75-0.09,1.02-0.28c0.26-0.19,0.45-0.51,0.56-0.97l2.14,0.29c-0.22,0.78-0.65,1.38-1.28,1.78s-1.47,0.6-2.53,0.6
			c-1.2,0-2.16-0.3-2.88-0.91c-0.71-0.61-1.07-1.45-1.07-2.52c0-1.09,0.36-1.93,1.08-2.54c0.72-0.6,1.69-0.91,2.91-0.91
			c1,0,1.8,0.17,2.39,0.52C204.99,93.16,205.42,93.68,205.68,94.39z"/>
		<path class="st0" d="M214.82,96.93l2.17,0.29c-0.28,0.64-0.72,1.12-1.32,1.45c-0.6,0.33-1.35,0.5-2.26,0.5
			c-1.43,0-2.49-0.37-3.18-1.12c-0.54-0.6-0.81-1.35-0.81-2.27c0-1.09,0.36-1.94,1.07-2.56c0.71-0.62,1.61-0.93,2.7-0.93
			c1.22,0,2.19,0.32,2.9,0.97c0.71,0.65,1.05,1.64,1.01,2.97h-5.45c0.01,0.52,0.19,0.92,0.53,1.2c0.34,0.29,0.75,0.43,1.25,0.43
			c0.34,0,0.63-0.07,0.86-0.22C214.52,97.5,214.7,97.26,214.82,96.93z M214.94,95.17c-0.01-0.5-0.18-0.89-0.49-1.15
			c-0.31-0.26-0.69-0.39-1.13-0.39c-0.47,0-0.87,0.14-1.18,0.42c-0.31,0.28-0.46,0.65-0.46,1.13H214.94z"/>
		<path class="st0" d="M228.78,99.03v-9.08h2.29v4.03l4.63-4.03h3.08l-4.28,3.54l4.51,5.55h-2.97l-3.12-4.26l-1.86,1.52v2.74H228.78
			z"/>
		<path class="st0" d="M242.92,91.55v-1.61h2.18v1.61H242.92z M242.92,99.03v-6.58h2.18v6.58H242.92z"/>
		<path class="st0" d="M253.83,92.44v1.39h-1.49v2.65c0,0.54,0.01,0.85,0.04,0.94c0.03,0.09,0.09,0.16,0.19,0.22
			c0.1,0.06,0.22,0.09,0.37,0.09c0.2,0,0.49-0.06,0.88-0.17l0.19,1.35c-0.51,0.17-1.08,0.26-1.72,0.26c-0.39,0-0.75-0.05-1.06-0.16
			c-0.31-0.11-0.55-0.24-0.69-0.41c-0.15-0.17-0.25-0.39-0.31-0.68c-0.05-0.2-0.07-0.61-0.07-1.23v-2.87h-1v-1.39h1v-1.31l2.18-1.02
			v2.32H253.83z"/>
		<path class="st0" d="M257.3,97.15l2.18-0.27c0.09,0.34,0.28,0.59,0.57,0.77c0.28,0.18,0.68,0.26,1.19,0.26
			c0.56,0,0.99-0.08,1.27-0.25c0.19-0.11,0.29-0.27,0.29-0.46c0-0.13-0.05-0.24-0.15-0.33c-0.11-0.08-0.35-0.16-0.73-0.23
			c-1.76-0.31-2.87-0.59-3.34-0.85c-0.65-0.35-0.98-0.85-0.98-1.48c0-0.57,0.28-1.05,0.84-1.44c0.56-0.39,1.43-0.58,2.62-0.58
			c1.13,0,1.96,0.15,2.51,0.44c0.55,0.29,0.93,0.73,1.13,1.3l-2.05,0.3c-0.09-0.26-0.25-0.45-0.5-0.59
			c-0.25-0.14-0.6-0.21-1.05-0.21c-0.57,0-0.98,0.06-1.23,0.19c-0.17,0.09-0.25,0.21-0.25,0.35c0,0.12,0.07,0.23,0.22,0.32
			c0.2,0.12,0.87,0.28,2.03,0.49c1.16,0.21,1.97,0.47,2.43,0.77c0.46,0.31,0.68,0.74,0.68,1.3c0,0.6-0.32,1.12-0.95,1.56
			c-0.63,0.43-1.56,0.65-2.8,0.65c-1.12,0-2.01-0.18-2.66-0.54C257.93,98.27,257.5,97.77,257.3,97.15z"/>
	</g>
</g>
<g>
	<path class="st1" d="M249.72,39.11c4.08,0,7.4-3.09,7.4-6.92c0-3.81-3.31-6.93-7.4-6.93c-4.08,0-7.4,3.11-7.4,6.93
		C242.32,36.01,245.64,39.11,249.72,39.11z M243.3,32.19c0-3.28,2.87-5.97,6.42-5.97c3.54,0,6.42,2.68,6.42,5.97
		c0,3.3-2.88,5.97-6.42,5.97C246.17,38.15,243.3,35.48,243.3,32.19z"/>
	<g>
		<path class="st1" d="M247.92,29.55h2.53c0.52,0,1.36,0.1,1.36,1.18c0,1.04-0.78,1.22-1.52,1.22h-2.37V29.55z M247.92,32.76h2.47
			c1.23,0,1.35,0.67,1.35,1.24c0,0.27,0.03,1.34,0.18,1.77h1.24v-0.15c-0.31-0.17-0.37-0.32-0.38-0.7l-0.06-1.28
			c-0.03-0.98-0.47-1.14-0.9-1.31c0.47-0.26,1.04-0.64,1.04-1.69c0-1.49-1.23-1.88-2.46-1.88h-3.49v7.02h1.02V32.76z"/>
	</g>
	<path class="st1" d="M245.01,33.27"/>
	<g>
		<path class="st1" d="M75.42,37.59c1.82,0.03,7.54-0.32,10.51-1.71l-1.11,5.04c2.56-3.14,6.13-5.09,7.8-5.46
			c2.07-0.47,3.37-0.45,4.62-0.17c0,0-0.82,2.61-1.44,4.89c-0.38,1.41-1.17,4.77-1.17,4.77s-0.69-0.6-1.7-1.01
			c-1.66-0.69-2.71-0.66-3.61-0.41c-2.12,0.57-4.67,1.92-6.66,10.47c-1.25,5.29-1.99,8.92-1.99,8.92l-7.67,0
			c2.42-10.62,4.22-18.25,4.22-20.14c0-1.47-0.59-2.18-2.6-1.87L75.42,37.59z"/>
		<path class="st1" d="M106.79,49.46c-1.19,4.91-2.72,9.39,1.38,10.16c3.82,0.72,4.27-3.24,5.52-8.76
			c1.43-6.32,2.33-9.18-1.16-10.02C108.87,39.98,108.11,44.01,106.79,49.46z M121.98,44.27c2.33,8.11-3.37,20.72-13.41,20.31
			c-4.56-0.2-8.9-3.77-9.87-10.24c-1.44-9.55,5.16-19.13,13.67-18.88C114.1,35.52,119.78,36.67,121.98,44.27z"/>
		<path class="st1" d="M38.51,54.61c-0.38,2.73-0.06,4.08,6.21,4.39l-0.6,3.96H17.88l1.02-3.39c2.4-0.01,7.55-1.52,8.34-5.3
			c1.41-6.68,5.33-25.68,5.33-25.68c0.1-0.5,0.29-2.28-0.04-3.16c-0.48-1.28-1.52-2.3-6.21-2.8l1.12-4.66h33.68
			c6.88,0,11.93,4.77,11.59,12.45c-0.41,9.32-9.91,14.48-16.15,15.09c-6.23,0.62-16.53,0.27-16.53,0.27S38.9,51.88,38.51,54.61z
			 M41.39,39.5c1.05,0.06,4.54,0.1,5.51,0.1c4.94,0,6.76-1.22,8.66-2.49c2.33-1.54,3.61-4.66,3.56-7.68
			c-0.02-1.3-1.14-4.97-7.48-5.31l-6.98,0.02L41.39,39.5z"/>
		<path class="st1" d="M126.53,32.7l0.56-11.18c0.1-2.03,2.11-3.73,3.9-3.73c1.51,0,2.47,1.01,2.5,2.14
			c0.04,0.91-0.44,1.73-0.88,2.7l-4.57,10.07H126.53z"/>
		<path class="st1" d="M193.14,56.55c1.51,2.55,3.37,3.25,4.72,3.37l-0.23,3.02h-20.34l0.28-2.68c1.75-0.03,4.42-0.15,4.78-1.62
			c0.44-1.79-0.18-2.62-0.68-3.55c-0.51-0.93-5.74-10.19-5.74-10.19l-6.34,4.49c0,0-1.22,5.77-1.31,6.32
			c-0.15,0.97-0.55,2.34-0.12,3.31c0.28,0.62,0.72,1.25,3.15,1.21l-0.27,2.73h-19.24l0.48-2.8c3.08-0.09,5.01-0.36,6.07-4.15
			l4.69-21.92c0.09-0.44,0.12-0.95,0.04-1.36c-0.36-1.64-2.55-2.42-4.61-2.3l0.42-2.71h20.44L179,30.52
			c-3.98,0.38-5.54,1.93-5.93,3.6c-0.41,1.67-2.44,11.12-2.44,11.12l12.2-9.06c0,0,2.8-2.09,3.45-2.69
			c0.68-0.62,1.16-2.88-2.63-2.88l0.36-3.04h19.19l-0.42,3.18c-4.27,0.29-6.7,1.03-9.85,3.2c-3.54,2.46-9.08,6.26-9.08,6.26
			S191.76,54.2,193.14,56.55z"/>
		<path class="st1" d="M235.56,40.59l-6.03,0.02c0,0-3.21,15.38-3.48,16.84c-0.27,1.46,0.33,2.29,1.67,2.43
			c1.51,0.15,3.87-2.49,4.06-2.76l1.76,1.83c-2.59,2.45-5.41,4.83-9.76,5.25c-2.44,0.23-6.29-1.44-5.38-5.8
			c0.91-4.35,3.55-18.06,3.55-18.06l-3.4-0.01l0.7-3.32c4.67-1.33,7.5-2.53,10.02-9.26l3.42,0.01l-1.85,8.76l5.7-0.02L235.56,40.59z
			"/>
		<path class="st1" d="M149.44,44.95l-1.17-0.12c-0.96-3.56-4.51-6.22-6.54-6.32c-2.9-0.15-4.37,1.52-4.41,3.23
			c-0.06,2.1,1.34,3.36,4.66,4.94c3.99,1.89,7.4,3.97,6.52,9.3c-0.95,5.69-6.54,8.22-11.95,8.16c-3.62-0.05-6.87-2.46-8.6-2.26
			c-0.79,0.09-2.33,0.81-2.74,1.8h-1.01l2.05-9.87l1.1,0.06c0.6,4.56,6.85,6.34,8.24,6.38c2.21,0.06,4.78-0.65,5.3-2.79
			c0.55-2.28-1.21-3.58-4.58-5.1c-4.16-1.86-6.95-3.66-6.93-8.41c0.02-5.27,5.54-8.47,11.18-8.1c3.72,0.25,4.67,1.25,7.02,1.3
			c1.48,0.03,2.07-0.24,2.87-1.24h1.2L149.44,44.95z"/>
		<path class="st1" d="M214.59,60.26c-0.04,0.06-3.76,3.75-8.47,3.84c-3.21,0.06-4.25-2.13-4.23-4.38
			c0.01-2.7,3.04-14.26,3.09-15.93c0.06-1.97-1.23-2.34-3.26-2.19l0.62-3.29c2.68-0.16,6.05,0.53,11.5-0.77c0,0-3.57,16.75-3.7,18.8
			c-0.04,0.7,0.03,1.45,1.07,1.79c1.52,0.52,2.63-0.48,2.63-0.48L214.59,60.26z"/>
		<path class="st1" d="M211.93,32.18c2.31-0.47,3.93-2.39,3.53-4.33c-0.42-1.95-2.65-3.07-4.97-2.59c-2.3,0.47-3.83,2.35-3.41,4.29
			C207.5,31.5,209.61,32.65,211.93,32.18z"/>
	</g>
	<g>
		<path class="st1" d="M113.37,43.03c-0.01-0.06-2.04-1.71-3.16,1.35c-0.34,0.94-2.3,8.73-2.65,10.33
			c-0.27,1.25-0.21,2.75,1.01,3.07c-0.25-0.6,0.27-3.41,1.35-7.35C111.62,44.26,111.97,42.66,113.37,43.03z"/>
		<g>
			<path class="st1" d="M127.65,35.9l-0.05-1.38l1.53,0.01c0,0,4.45-9.54,5.35-11.66c0.32-0.73,0.63-1.39,0.7-2.04
				c0.59,0.54,0.62,0.9,0.63,1.66c0.02,0.96-0.67,2.1-1.13,3.1l-4.71,10.27L127.65,35.9z"/>
			<g>
				<path class="st1" d="M87.34,47.27c0.77-1.02,1.97-1.84,3.21-1.96c1.23-0.12,2.75,0.3,5.34,2.65c0.55-2.83,2.31-9.54,2.79-10.79
					c0.53,0.11,0.63,0.17,1.19,0.3c0,0-1.01,3.21-1.57,5.64c-0.39,1.63-1.54,7.29-1.54,7.29s-1.05-1.2-2.27-2.12
					c-1.34-0.98-2.28-1.54-3.35-1.7c-1.87-0.31-4.05,1.66-5.94,9.83c-1.35,5.84-2.25,9.55-2.25,9.55l-8.74,0l0.32-1.26l7.5,0
					c0,0,1.47-6.19,2.1-8.99C84.89,52.26,86.06,48.94,87.34,47.27z"/>
				<path class="st1" d="M123.3,43.7c0.44,0.85,0.85,1.81,1.15,2.92c2.31,8.48-4.19,21.26-14.68,20.82
					c-2.74-0.12-5.09-0.81-7.07-3.15c2.68,2.38,8.09,2.42,10.72,1.35c4.73-1.91,6.24-4.22,8.08-7.26
					C122.68,56.43,125.15,50.39,123.3,43.7z"/>
				<path class="st1" d="M40.26,54.72c0.37-1.91,1.21-7.1,1.21-7.1s4.3,0,8.6,0c7.17,0,11.3-0.62,15.76-3.26
					c8.75-5.18,9.52-13.51,7.97-18.05c1.16,2.18,1.43,4.46,1.22,7.43c-0.46,6.52-7.83,14.1-18.22,14.86
					c-3.58,0.53-14.02,0.32-14.02,0.32l-1.45,7.78C41.33,56.7,39.93,56.49,40.26,54.72z M45.48,64.7l0.65-3.87h1.34L46.73,66h-27.9
					l0.3-1.31H45.48z"/>
				<path class="st1" d="M195.92,34.38c0.92-0.55,2.5-1.17,4.15-1.47c1.4-0.27,4.03-0.46,4.03-0.46l0.42-2.76h1.06l-0.42,3.68
					c-3.56,0.1-6.78,0.57-10.22,2.88c-3.43,2.31-8.12,5.56-8.12,5.56l-0.62-1.02C186.2,40.8,193.69,35.71,195.92,34.38z
					 M170.55,58.63c-1.15-0.09-1.02-0.65-0.65-2.3c0.43-1.98,1.22-5.71,1.22-5.71l4.27-3.03l0.59,0.98l-3.84,2.8L170.55,58.63z
					 M172.69,62.34c0.35,0,0.61,0.01,1.09,0.04l-0.33,3.58h-20.57l0.16-1.2h19.37L172.69,62.34z M199.21,61.93l1.04,0.15l-0.25,3.88
					h-21.73l0.16-1.2H199L199.21,61.93z M173.17,41.46c0,0,0.59-2.52,0.94-4.16c0.4-1.87,0.54-2.95,1.65-3.91
					c1.16-1.02,3.19-1.29,4.7-1.32l0.28-2.36h1.16l-0.41,3.41c-1.98-0.04-3.06,0.04-4.26,0.62c-0.81,0.39-1.48,1.35-1.7,2.58
					c-0.35,1.92-0.86,4.09-0.86,4.09L173.17,41.46z"/>
				<path class="st1" d="M234,29.86l1.17,0.01l-1.04,5.16l-1.2-0.01L234,29.86z M228.08,56.03c0.24-1.24,2.83-13.69,2.83-13.69h6
					l0.96-3.7l1.15,0.01l-1.08,4.93l-6.01-0.01l-2.95,13.97C228.99,57.52,227.47,58.99,228.08,56.03z M227.72,65.18
					c3.53-1.29,6.64-4.54,6.64-4.54l0.91,0.88c-0.54,0.7-5.16,5.56-10.47,5.56c-1.28,0-3.56,0-4.79-2.01
					C222.26,66.31,224.8,66.23,227.72,65.18z"/>
				<path class="st1" d="M149.16,46.73c0.21,0.58,0.35,0.68,0.43,1.26l2.02,0.12l2.46-10.1h-1.25l-2.1,8.82L149.16,46.73z
					 M148.62,60.41c-1.75,2.69-4.38,4.08-6.43,4.72c-2.66,0.83-5.15,0.88-7.48,0.51c-1.95-0.31-5.25-2.18-6.64-1.96
					c-1.37,0.21-2.13,1.75-2.13,1.75l-0.51,0.02l-0.27,1.59l2.01-0.01c0.45-1.03,1.24-2.07,2.49-1.99c1.25,0.08,4.1,1.75,7.71,1.99
					c5.74,0.36,12.31-2.95,13.16-8.19c0.4-2.48,0.27-3.32-0.47-5.59C150.29,55.46,150.02,58.25,148.62,60.41z"/>
				<path class="st1" d="M212.37,56.29c-0.37-0.09-0.36-0.72-0.2-1.51c0.24-1.08,3.03-15.21,3.03-15.21c0.51-0.1,0.83-0.17,1.37-0.3
					c0,0-2.4,11.63-3.35,16.9C213.22,56.18,212.86,56.4,212.37,56.29z M216.25,61.39l0.43,1.37c-0.03,0.07-4.23,4.3-9.15,4.15
					c-2.33-0.08-3.42-0.64-4-1.81c1.57,1.05,4.84,1.58,9.63-1.35C214.41,63,216.25,61.39,216.25,61.39z"/>
			</g>
			<path class="st1" d="M207.98,33.23c1.16,1.9,3.91,2.62,6.34,1.71c2.66-1.02,3.03-3.86,2.57-5.3c-0.23,1.93-1.39,3.58-3.46,4.21
				C211,34.59,209.21,33.92,207.98,33.23z"/>
			<path class="st1" d="M51.91,27.41c-0.51-0.02-4.58,0.03-4.58,0.03l-2.28,10.41h-1.43l2.55-11.92h4.62c0,0,5.41,0.2,6.6,2.84
				C56.2,27.85,54.09,27.49,51.91,27.41z"/>
			<path class="st1" d="M134.74,54.26c-1.15-0.71-2.2-1.54-2.88-2.5c0.83,0.67,1.96,1.24,3.1,1.77c2.2,1.02,4.44,1.92,4.71,3.21
				C138.38,55.99,136.63,55.44,134.74,54.26z"/>
			<path class="st1" d="M145.49,42.81c-1.54-1.67-3.19-3.4-5.51-2.25c-1.49,0.75-0.97,2.54,0.09,3.28
				C139.82,41.64,142.55,40.95,145.49,42.81z"/>
		</g>
	</g>
</g>
</svg>
