<svg width="22" height="20" viewBox="0 0 22 20" fill="currentColor" xmlns="http://www.w3.org/2000/svg">
<path d="M20.4475 15.4353L16.9022 12.1736L14.1752 11.1371C15.0832 9.9492 15.5696 8.53199 15.5679 7.07975C15.5679 3.17595 12.1157 0 7.87244 0C3.62915 0 0.177002 3.17595 0.177002 7.07975C0.177002 10.9836 3.62915 14.1595 7.87244 14.1595C9.46471 14.1612 11.0179 13.7059 12.3156 12.8571L13.4393 15.3592L16.9845 18.621C17.2119 18.8302 17.4818 18.9961 17.7789 19.1093C18.076 19.2226 18.3944 19.2808 18.7159 19.2808C19.0375 19.2809 19.3559 19.2226 19.653 19.1094C19.9501 18.9962 20.22 18.8303 20.4474 18.6211C20.6748 18.4119 20.8551 18.1636 20.9782 17.8903C21.1012 17.617 21.1646 17.3241 21.1646 17.0282C21.1646 16.7324 21.1013 16.4395 20.9782 16.1661C20.8552 15.8928 20.6748 15.6445 20.4475 15.4353ZM1.57617 7.07975C1.57617 3.88582 4.40075 1.28723 7.87244 1.28723C11.3441 1.28723 14.1687 3.88582 14.1687 7.07975C14.1687 10.2737 11.3441 12.8723 7.87244 12.8723C4.40075 12.8723 1.57617 10.2737 1.57617 7.07975ZM19.4581 17.7108C19.2611 17.8916 18.9942 17.9931 18.716 17.9931C18.4378 17.9931 18.1709 17.8916 17.974 17.7108L14.6259 14.6306L13.5812 12.3042L16.1101 13.2653L19.4581 16.3455C19.6546 16.5267 19.765 16.7722 19.7649 17.0282C19.7649 17.2841 19.6546 17.5296 19.4581 17.7108Z" fill="white"/>
</svg>
