<svg version="1.1" width="25" height="25" fill="currentColor"
            class="bi bi-person-circle loginSvg" 
						 xmlns="http://www.w3.org/2000/svg" 
						 xmlns:xlink="http://www.w3.org/1999/xlink" 
						 x="0px" y="0px"
	 viewBox="0 0 25 25" 
	 xml:space="preserve">
<path d="M17.2,9.4c0,2.6-2.1,4.7-4.7,4.7S7.8,12,7.8,9.4s2.1-4.7,4.7-4.7S17.2,6.8,17.2,9.4z"/>
<path d="M0,12.5C0,5.6,5.6,0,12.5,0S25,5.6,25,12.5S19.4,25,12.5,25S0,19.4,0,12.5z M12.5,1.6c-6,0-10.9,4.9-10.9,10.9
	c0,2.5,0.8,4.9,2.4,6.8c1.1-1.8,3.6-5.7,8.5-5.7s7.4,3.9,8.5,5.7c3.8-4.7,3-11.6-1.7-15.4C17.4,2.4,15,1.6,12.5,1.6z"/>
</svg>
