<svg version="1.1" width="25" height="25" fill="currentColor"
            class="bi bi-person-circle loginSvg" 
						 xmlns="http://www.w3.org/2000/svg" 
						 xmlns:xlink="http://www.w3.org/1999/xlink" 
						 x="0px" y="0px"
	 viewBox="0 0 25 25"  xml:space="preserve">
<path d="M12.5,0C5.6,0,0,5.7,0,12.6c0,7,5.6,12.6,12.5,12.6S25,19.6,25,12.6C25,5.7,19.4,0,12.5,0z M12.5,1C18.8,1,24,6.2,24,12.6
	c0,2.6-0.9,5.1-2.3,7c-0.5-1.6-2.3-5.5-6.8-6.4c1.2-0.8,2-2.1,2-3.7c0-2.4-1.9-4.3-4.3-4.3S8.2,7.1,8.2,9.5c0,1.6,0.8,2.9,2.1,3.7
	c-4.6,1-6.4,4.8-6.9,6.4c-1.5-1.9-2.3-4.4-2.3-7C1,6.2,6.2,1,12.5,1z M9.2,9.5c0-1.8,1.5-3.3,3.3-3.3c1.8,0,3.3,1.5,3.3,3.3
	s-1.5,3.3-3.3,3.3C10.7,12.9,9.2,11.4,9.2,9.5z M12.5,24.2c-3.3,0-6.3-1.5-8.5-3.8l0.1,0c0.1-0.3,1.4-6.4,8.3-6.5
	c6.9-0.2,8.4,6.3,8.5,6.5l0.1,0C18.8,22.8,15.8,24.2,12.5,24.2z"/>
</svg>
