<svg id="Layer_1" data-name="Layer 1" xmlns="http://www.w3.org/2000/svg" viewBox="0 0 50 50"><defs><style>.cls-1,.cls-2,.cls-3{fill:none;stroke:#005752;stroke-linecap:round;stroke-linejoin:round;}.cls-1{stroke-width:0.46px;}.cls-2{stroke-width:1.57px;}.cls-3{stroke-width:0.7px;}</style></defs><path class="cls-1" d="M33.2,52.62a40.47,40.47,0,0,1-1-7.11c-.08-1.06-.67-.74-.67-.74s-.83-5-1.18-6.22l6.41,4.27s0,.61.92,1.13c.32.18,1.49.85,3.11,1.9"/><path class="cls-2" d="M43,38.53a3.28,3.28,0,0,0-.87,0,24.12,24.12,0,0,1-5.22-4.81,27,27,0,0,1-3.14-5,17.5,17.5,0,0,0-1.25-2.56A13,13,0,0,0,31.57,25a.6.6,0,0,0-.63-.2c-.27.05-.79.21-.79.21a6.27,6.27,0,0,0-1-2.12C28.51,22,28,21.52,27.5,21.44l.75-.69s-4-5.71-4.34-6.28a16,16,0,0,0-1.56-2c-.85-1-8.43-9-8.87-9.46s-.58-.57-1-.36-.77.34-1,.45a5.33,5.33,0,0,0-1,.71c-.39.34-1.39,1.33-1.53,1.5a.49.49,0,0,0,0,.57c.1.22.39.92.39.92l.74.11-.26.72.72.09-.27.69.75.13-.29.67.73.11-.25.72.72.09-.27.7.71.07-.28.68.7.05-.28.67.64.36.36.75.35,0,4.1,7.83A2.07,2.07,0,0,1,16,20.3c-.93-1.13-2.48-3.2-2.74-3.59A1.48,1.48,0,0,1,13,15.45a9.25,9.25,0,0,1,.8-2.07l-.35,0-.36-.75-.64-.36.28-.67-.7-.05.28-.68-.71-.07.27-.7-.72-.09.19-.51h-.75l.21-.67h-.73l.19-.69H9.5l.18-.7-.76,0,.17-.72-.72,0L8.52,6s-.31-.35-.43-.52-.41-.17-.69.08S4.77,7.78,4.34,8.25,4,8.78,4.22,9.39s5,10.41,5.85,12.08,4.63,8,4.63,8l.91,0a7.49,7.49,0,0,0,2.44,3.9l-.39.63c-.11.2-.17.49.21,1.16s2.27,2.79,3.72,5a26,26,0,0,1,3.91,9.32s-.65.06-.43,1.15c.05.24.13.77.25,1.53"/><path class="cls-3" d="M5.13,7.61l1,1.22-.16.73.76,0-.18.7h.74L7.1,11l.72,0-.16.72.76,0-.18.7H9l-.2.69h.74l-.22.67.73,0,0,.52.8.71s-.11.15-.27.34-.1.36.1.6l6.45,7.73a5.6,5.6,0,0,1,6-.78,7.4,7.4,0,0,1,4.32,4.81l.78,0c.24,0,.38,0,.95.7A14.93,14.93,0,0,1,31,31.18a21,21,0,0,0,2.59,4.37,34.74,34.74,0,0,0,6.51,5.88"/><path class="cls-3" d="M42.11,38.5c.17.11.91.66.13,1.3s-3.3,2.46-3.82,2.8-1.09.8-1.65.22"/><path class="cls-3" d="M31.54,44.77a8,8,0,0,1-2.43,2.84,13.66,13.66,0,0,1-3.84,2"/><path class="cls-3" d="M30.36,38.55l-.63-.81-.6,0,.16-.55h-.61l.15-.57h-.62l.14-.58h-.63l.13-.6-.61,0,.12-.62h-.62l.14-.58h-.63l.12-.61h-.56a7.13,7.13,0,0,1-1.26.77l-.32.37.55.12-.24.57.61.13-.25.55.6.12-.23.58.59.09-.24.57.61.14-.25.54.61.12-.27.53.6.11-.27.51.59.1s1.54,5.7,1.55,8.3"/><path class="cls-3" d="M24.55,34.44c-.31.14-3.83,1.28-6.42-1.14"/><path class="cls-3" d="M19.78,30.56a2.71,2.71,0,0,0,3.8.23A2.7,2.7,0,0,0,23.26,27a2.7,2.7,0,0,0-3.8-.23A2.7,2.7,0,0,0,19.78,30.56Z"/><path class="cls-3" d="M8.91,5.68a5.31,5.31,0,0,1,.86-.38c.32-.09.46-.24.82.2.2.25,4.81,5.58,8.81,10.38,3.23,3.87,6,7.45,6,7.45"/><line class="cls-3" x1="27.5" y1="21.44" x2="24.93" y2="23.9"/><path class="cls-3" d="M13,2.59,10.39,5.2l11.22,8.67a1.5,1.5,0,0,1,.54.63l3.53,8.66"/><polyline class="cls-3" points="13.91 13.28 14.38 13.18 19.33 22.52"/><line class="cls-3" x1="18.01" y1="21.2" x2="18.82" y2="22.69"/><line class="cls-3" x1="30.15" y1="25.05" x2="27.43" y2="27.73"/><line class="cls-3" x1="31.27" y1="24.91" x2="28.5" y2="27.72"/><path class="cls-3" d="M26.15,22.7c.46.07,2,1.79,2.59,3.75"/><path class="cls-3" d="M30,29.46c.28.35,2.65,2.14,3.42,2.87s2.43,2.45,2.92,2.92A61.65,61.65,0,0,0,42,40"/><path class="cls-3" d="M19.33,36.9a34.25,34.25,0,0,1,4.52,6.16A30.53,30.53,0,0,1,26.2,49.2"/><path class="cls-3" d="M13.44,13.42,11,14.54a1.84,1.84,0,0,1,1.29.89c.62.88,5.76,7.62,5.76,7.62"/><line class="cls-3" x1="6.12" y1="8.73" x2="8.4" y2="6.61"/><line class="cls-3" x1="6.69" y1="9.59" x2="8.97" y2="7.47"/><line class="cls-3" x1="7.23" y1="10.3" x2="9.52" y2="8.17"/><line class="cls-3" x1="7.83" y1="11.02" x2="10.11" y2="8.89"/><line class="cls-3" x1="8.41" y1="11.77" x2="10.69" y2="9.64"/><line class="cls-3" x1="8.99" y1="12.46" x2="11.43" y2="10.2"/><line class="cls-3" x1="9.52" y1="13.14" x2="11.8" y2="11.02"/><line class="cls-3" x1="10.09" y1="13.81" x2="12.37" y2="11.69"/><path class="cls-3" d="M27.24,39.59c.36.63,3,3.95,3.77,2.11"/><path class="cls-3" d="M10.81,15c.29.14.68,0,1.62,1.21s5.32,7,5.32,7"/></svg>