<svg width="1266" height="363" viewBox="0 0 1266 363" fill="none" xmlns="http://www.w3.org/2000/svg">
<rect width="1266" height="363" fill="#FFF3E8"/>
<path d="M805.752 70.12V73.896H808.152V70.12H805.752ZM793.336 72.296V76.744H795.512V74.248H818.36V76.744H820.632V72.296H793.336ZM795.352 75.944V77.512H805.784V75.944H795.352ZM795.704 79.016V80.456H805.304V79.016H795.704ZM806.392 78.92V80.36H819.864V78.92H806.392ZM793.816 82.376L794.008 84.104C797.144 83.912 801.592 83.624 805.912 83.304L805.944 81.64C801.368 81.928 796.856 82.216 793.816 82.376ZM799.48 76.552V82.792L801.528 82.632V76.552H799.48ZM809.112 74.568C808.6 75.752 807.64 77.064 806.36 78.152C806.808 78.344 807.448 78.76 807.8 79.144C809.24 77.864 810.168 76.424 810.936 74.856L809.112 74.568ZM809.4 76.104L808.536 77.544H818.232V76.104H809.4ZM812.056 76.712V83.08H814.104V76.712H812.056ZM807.448 80.872V83.912H818.904V80.872H817.016V82.472H809.272V80.872H807.448ZM799.224 89.384H815.096V90.92H799.224V89.384ZM799.224 92.328H815.096V93.864H799.224V92.328ZM799.224 86.504H815.096V88.008H799.224V86.504ZM796.888 85.032V95.336H817.528V85.032H796.888ZM809.144 96.392C812.984 97.384 816.76 98.632 818.968 99.592L821.048 98.12C818.584 97.16 814.488 95.912 810.776 95.016L809.144 96.392ZM802.52 95.048C800.44 96.136 796.12 97.32 792.696 97.928C793.144 98.344 793.816 99.112 794.136 99.56C797.592 98.952 801.88 97.704 804.536 96.36L802.52 95.048ZM826.328 73.736V76.232H851.8V73.736H826.328ZM824.632 94.728V97.128H853.4V94.728H824.632ZM837.56 74.984V95.72H840.248V74.984H837.56ZM870.872 71.144V75.016C870.872 77.256 870.392 79.912 867.32 81.896C867.8 82.216 868.728 83.048 869.048 83.496C872.472 81.224 873.176 77.832 873.176 75.048V71.144H870.872ZM878.68 71.144V79.048C878.68 81.32 879.256 81.96 881.208 81.96C881.624 81.96 883.032 81.96 883.448 81.96C885.176 81.96 885.752 80.968 885.944 77.224C885.336 77.064 884.376 76.712 883.928 76.36C883.864 79.432 883.736 79.848 883.192 79.848C882.872 79.848 881.816 79.848 881.56 79.848C881.048 79.848 880.952 79.72 880.952 79.016V71.144H878.68ZM872.6 86.248L870.456 86.92C873.016 93.192 877.784 97.608 884.44 99.56C884.76 98.952 885.464 97.992 886.008 97.48C879.576 95.848 874.808 91.752 872.6 86.248ZM881.56 84.008V84.392C879.64 91.496 873.848 95.816 867.384 97.448C867.832 97.96 868.44 98.984 868.696 99.56C875.704 97.512 881.72 92.904 883.992 84.52L882.456 83.912L882.04 84.008H881.56ZM868.792 84.008V86.184H882.488V84.008H868.792ZM871.832 71.144V73.288H879.832V71.144H871.832ZM857.72 79.816V81.736H867.256V79.816H857.72ZM857.88 71.272V73.192H867.192V71.272H857.88ZM857.72 84.104V86.024H867.256V84.104H857.72ZM856.216 75.464V77.448H868.376V75.464H856.216ZM858.872 88.424V90.408H865.144V95.752H858.872V97.768H867.256V88.424H858.872ZM857.688 88.424V99.24H859.768V88.424H857.688ZM900.888 81.096V83.464H918.072V81.096H900.888ZM908.408 70.216V99.56H910.84V70.216H908.408ZM889.72 79.816V81.736H899.704V79.816H889.72ZM889.912 71.272V73.192H899.736V71.272H889.912ZM889.72 84.104V86.024H899.704V84.104H889.72ZM888.216 75.464V77.448H900.952V75.464H888.216ZM890.84 88.424V90.408H897.464V95.752H890.84V97.768H899.608V88.424H890.84ZM889.688 88.424V99.24H891.832V88.424H889.688ZM932.152 70.504V85.736H934.456V70.504H932.152ZM927.704 76.36V78.568H938.648V76.36H927.704ZM928.568 84.68V98.12H930.68V84.68H928.568ZM929.816 84.68V86.76H935.864V93.928H929.816V96.04H938.008V84.68H929.816ZM941.272 70.152C940.536 75.304 939.224 80.36 937.08 83.656C937.496 84.104 938.296 85.064 938.552 85.512C940.984 81.864 942.52 76.264 943.448 70.504L941.272 70.152ZM941.144 76.36L940.536 78.44H949.72V76.36H941.144ZM946.2 77.192C945.304 87.336 942.936 94.088 936.248 97.96C936.696 98.344 937.496 99.208 937.784 99.624C944.632 95.24 947.256 88.232 948.344 77.352L946.2 77.192ZM941.336 77.8L939.64 78.856C940.344 85.928 942.072 94.984 948.568 99.56C948.888 98.984 949.624 98.12 950.04 97.672C943.704 93.64 942.04 84.84 941.336 77.8ZM926.424 70.312C924.888 75.208 922.36 80.104 919.544 83.304C919.96 83.912 920.6 85.192 920.824 85.736C923.992 82.024 926.84 76.424 928.664 70.92L926.424 70.312ZM923.864 78.152V99.56H926.072V76.04L926.008 75.976L923.864 78.152ZM962.584 76.424H971.256V78.536H962.584V76.424ZM960.6 74.984V79.976H973.336V74.984H960.6ZM961.464 85.832H972.376V92.968H961.464V85.832ZM959.544 84.328V94.504H974.392V84.328H959.544ZM965.016 88.456H968.76V90.344H965.016V88.456ZM963.512 87.208V91.624H970.328V87.208H963.512ZM957.368 81.448V82.952H976.664V81.448H957.368ZM965.816 79.016V82.12H967.928V79.016H965.816ZM953.624 71.432V99.528H955.896V73.48H978.072V99.528H980.44V71.432H953.624ZM955.032 96.232V98.28H979.32V96.232H955.032ZM999 79.624C1000.28 79.624 1001.4 78.664 1001.4 77.224C1001.4 75.752 1000.28 74.792 999 74.792C997.688 74.792 996.568 75.752 996.568 77.224C996.568 78.664 997.688 79.624 999 79.624ZM999 95.272C1000.28 95.272 1001.4 94.344 1001.4 92.872C1001.4 91.4 1000.28 90.472 999 90.472C997.688 90.472 996.568 91.4 996.568 92.872C996.568 94.344 997.688 95.272 999 95.272ZM1026.07 73.7273V97H1022.55V77.25H1022.41L1016.84 80.8864V77.5227L1022.65 73.7273H1026.07ZM1032.36 97V94.4545L1040.24 86.2955C1041.08 85.4091 1041.77 84.6326 1042.32 83.9659C1042.87 83.2917 1043.28 82.6515 1043.56 82.0455C1043.83 81.4394 1043.97 80.7955 1043.97 80.1136C1043.97 79.3409 1043.78 78.6742 1043.42 78.1136C1043.06 77.5455 1042.56 77.1098 1041.93 76.8068C1041.3 76.4962 1040.59 76.3409 1039.81 76.3409C1038.97 76.3409 1038.25 76.5114 1037.62 76.8523C1037 77.1932 1036.53 77.6742 1036.19 78.2955C1035.86 78.9167 1035.69 79.6439 1035.69 80.4773H1032.34C1032.34 79.0606 1032.67 77.822 1033.32 76.7614C1033.97 75.7008 1034.86 74.8788 1036 74.2955C1037.14 73.7045 1038.43 73.4091 1039.88 73.4091C1041.34 73.4091 1042.63 73.7008 1043.74 74.2841C1044.86 74.8598 1045.73 75.6477 1046.36 76.6477C1046.99 77.6402 1047.31 78.7614 1047.31 80.0114C1047.31 80.875 1047.14 81.7197 1046.82 82.5455C1046.5 83.3712 1045.94 84.2917 1045.15 85.3068C1044.35 86.3144 1043.25 87.5379 1041.83 88.9773L1037.2 93.8182V93.9886H1047.68V97H1032.36ZM1060.11 97.3182C1059.08 97.303 1058.05 97.1136 1057.05 96.75C1056.05 96.3864 1055.14 95.7803 1054.32 94.9318C1053.5 94.0833 1052.84 92.9432 1052.35 91.5114C1051.87 90.0795 1051.62 88.2917 1051.62 86.1477C1051.62 84.1174 1051.83 82.3144 1052.23 80.7386C1052.64 79.1629 1053.22 77.8333 1053.99 76.75C1054.75 75.6591 1055.68 74.8295 1056.76 74.2614C1057.84 73.6932 1059.06 73.4091 1060.41 73.4091C1061.8 73.4091 1063.03 73.6818 1064.1 74.2273C1065.18 74.7727 1066.05 75.5265 1066.72 76.4886C1067.39 77.4508 1067.82 78.5455 1068 79.7727H1064.53C1064.3 78.803 1063.83 78.0114 1063.14 77.3977C1062.44 76.7841 1061.53 76.4773 1060.41 76.4773C1058.7 76.4773 1057.38 77.2197 1056.42 78.7045C1055.47 80.1894 1055 82.2538 1054.99 84.8977H1055.16C1055.56 84.2386 1056.05 83.678 1056.64 83.2159C1057.23 82.7462 1057.89 82.3864 1058.61 82.1364C1059.35 81.8788 1060.12 81.75 1060.93 81.75C1062.28 81.75 1063.5 82.0795 1064.59 82.7386C1065.69 83.3902 1066.56 84.2917 1067.22 85.4432C1067.87 86.5947 1068.19 87.9129 1068.19 89.3977C1068.19 90.8826 1067.86 92.2273 1067.18 93.4318C1066.52 94.6364 1065.58 95.5909 1064.36 96.2955C1063.15 96.9924 1061.73 97.3333 1060.11 97.3182ZM1060.1 94.3636C1061 94.3636 1061.8 94.1439 1062.5 93.7045C1063.2 93.2652 1063.76 92.6742 1064.17 91.9318C1064.58 91.1894 1064.78 90.3598 1064.78 89.4432C1064.78 88.5492 1064.58 87.7348 1064.18 87C1063.79 86.2652 1063.24 85.6818 1062.55 85.25C1061.86 84.8182 1061.07 84.6023 1060.18 84.6023C1059.51 84.6023 1058.88 84.7311 1058.31 84.9886C1057.74 85.2462 1057.24 85.6023 1056.81 86.0568C1056.38 86.5114 1056.03 87.0341 1055.78 87.625C1055.54 88.2083 1055.42 88.8258 1055.42 89.4773C1055.42 90.3485 1055.62 91.1553 1056.02 91.8977C1056.43 92.6402 1056.99 93.2386 1057.69 93.6932C1058.41 94.1402 1059.21 94.3636 1060.1 94.3636ZM1081.16 73.7273V97H1077.64V77.25H1077.5L1071.93 80.8864V77.5227L1077.74 73.7273H1081.16ZM1092.33 91.9091L1092.55 87.1136L1088.5 89.7159L1087.26 87.5568L1091.56 85.3636L1087.26 83.1705L1088.5 81.0114L1092.55 83.6136L1092.33 78.8182H1094.8L1094.58 83.6136L1098.63 81.0114L1099.87 83.1705L1095.57 85.3636L1099.87 87.5568L1098.63 89.7159L1094.58 87.1136L1094.8 91.9091H1092.33ZM1112.25 97.3182C1110.69 97.3182 1109.29 97.0492 1108.07 96.5114C1106.85 95.9735 1105.88 95.2273 1105.17 94.2727C1104.46 93.3106 1104.08 92.197 1104.03 90.9318H1107.6C1107.64 91.6212 1107.88 92.2197 1108.29 92.7273C1108.72 93.2273 1109.27 93.6136 1109.95 93.8864C1110.63 94.1591 1111.39 94.2955 1112.22 94.2955C1113.14 94.2955 1113.95 94.1364 1114.66 93.8182C1115.37 93.5 1115.93 93.0568 1116.33 92.4886C1116.73 91.9129 1116.93 91.25 1116.93 90.5C1116.93 89.7197 1116.73 89.0341 1116.33 88.4432C1115.93 87.8447 1115.35 87.375 1114.59 87.0341C1113.83 86.6932 1112.91 86.5227 1111.84 86.5227H1109.87V83.6591H1111.84C1112.7 83.6591 1113.46 83.5038 1114.11 83.1932C1114.77 82.8826 1115.29 82.4508 1115.66 81.8977C1116.03 81.3371 1116.21 80.6818 1116.21 79.9318C1116.21 79.2121 1116.05 78.5871 1115.72 78.0568C1115.41 77.5189 1114.95 77.0985 1114.36 76.7955C1113.78 76.4924 1113.09 76.3409 1112.29 76.3409C1111.54 76.3409 1110.83 76.4811 1110.17 76.7614C1109.52 77.0341 1108.99 77.428 1108.58 77.9432C1108.17 78.4508 1107.95 79.0606 1107.92 79.7727H1104.52C1104.56 78.5152 1104.93 77.4091 1105.63 76.4545C1106.35 75.5 1107.29 74.7538 1108.45 74.2159C1109.62 73.678 1110.91 73.4091 1112.34 73.4091C1113.83 73.4091 1115.12 73.7008 1116.2 74.2841C1117.29 74.8598 1118.13 75.6288 1118.72 76.5909C1119.32 77.553 1119.62 78.6061 1119.61 79.75C1119.62 81.053 1119.25 82.1591 1118.52 83.0682C1117.79 83.9773 1116.82 84.5871 1115.61 84.8977V85.0795C1117.16 85.3144 1118.35 85.928 1119.2 86.9205C1120.06 87.9129 1120.48 89.1439 1120.47 90.6136C1120.48 91.8939 1120.13 93.0417 1119.41 94.0568C1118.69 95.072 1117.72 95.8712 1116.49 96.4545C1115.25 97.0303 1113.84 97.3182 1112.25 97.3182ZM1132.89 97.3182C1131.86 97.303 1130.83 97.1136 1129.83 96.75C1128.83 96.3864 1127.92 95.7803 1127.1 94.9318C1126.28 94.0833 1125.63 92.9432 1125.13 91.5114C1124.65 90.0795 1124.41 88.2917 1124.41 86.1477C1124.41 84.1174 1124.61 82.3144 1125.01 80.7386C1125.42 79.1629 1126 77.8333 1126.77 76.75C1127.54 75.6591 1128.46 74.8295 1129.54 74.2614C1130.63 73.6932 1131.84 73.4091 1133.19 73.4091C1134.58 73.4091 1135.81 73.6818 1136.88 74.2273C1137.96 74.7727 1138.83 75.5265 1139.5 76.4886C1140.17 77.4508 1140.6 78.5455 1140.78 79.7727H1137.32C1137.08 78.803 1136.61 78.0114 1135.92 77.3977C1135.22 76.7841 1134.31 76.4773 1133.19 76.4773C1131.49 76.4773 1130.16 77.2197 1129.2 78.7045C1128.25 80.1894 1127.78 82.2538 1127.77 84.8977H1127.94C1128.34 84.2386 1128.83 83.678 1129.42 83.2159C1130.01 82.7462 1130.67 82.3864 1131.39 82.1364C1132.13 81.8788 1132.9 81.75 1133.71 81.75C1135.06 81.75 1136.28 82.0795 1137.37 82.7386C1138.47 83.3902 1139.35 84.2917 1140 85.4432C1140.65 86.5947 1140.97 87.9129 1140.97 89.3977C1140.97 90.8826 1140.64 92.2273 1139.96 93.4318C1139.3 94.6364 1138.36 95.5909 1137.14 96.2955C1135.93 96.9924 1134.52 97.3333 1132.89 97.3182ZM1132.88 94.3636C1133.78 94.3636 1134.58 94.1439 1135.28 93.7045C1135.99 93.2652 1136.54 92.6742 1136.95 91.9318C1137.36 91.1894 1137.57 90.3598 1137.57 89.4432C1137.57 88.5492 1137.36 87.7348 1136.96 87C1136.57 86.2652 1136.02 85.6818 1135.33 85.25C1134.64 84.8182 1133.85 84.6023 1132.96 84.6023C1132.29 84.6023 1131.66 84.7311 1131.09 84.9886C1130.52 85.2462 1130.02 85.6023 1129.59 86.0568C1129.16 86.5114 1128.82 87.0341 1128.57 87.625C1128.32 88.2083 1128.2 88.8258 1128.2 89.4773C1128.2 90.3485 1128.4 91.1553 1128.8 91.8977C1129.21 92.6402 1129.77 93.2386 1130.47 93.6932C1131.19 94.1402 1131.99 94.3636 1132.88 94.3636ZM1145.11 97V94.4545L1152.99 86.2955C1153.83 85.4091 1154.52 84.6326 1155.07 83.9659C1155.62 83.2917 1156.03 82.6515 1156.31 82.0455C1156.58 81.4394 1156.72 80.7955 1156.72 80.1136C1156.72 79.3409 1156.53 78.6742 1156.17 78.1136C1155.81 77.5455 1155.31 77.1098 1154.68 76.8068C1154.05 76.4962 1153.34 76.3409 1152.56 76.3409C1151.72 76.3409 1151 76.5114 1150.38 76.8523C1149.75 77.1932 1149.28 77.6742 1148.94 78.2955C1148.61 78.9167 1148.44 79.6439 1148.44 80.4773H1145.09C1145.09 79.0606 1145.42 77.822 1146.07 76.7614C1146.72 75.7008 1147.61 74.8788 1148.75 74.2955C1149.89 73.7045 1151.18 73.4091 1152.62 73.4091C1154.09 73.4091 1155.38 73.7008 1156.49 74.2841C1157.61 74.8598 1158.48 75.6477 1159.11 76.6477C1159.74 77.6402 1160.06 78.7614 1160.06 80.0114C1160.06 80.875 1159.89 81.7197 1159.57 82.5455C1159.25 83.3712 1158.69 84.2917 1157.9 85.3068C1157.1 86.3144 1156 87.5379 1154.58 88.9773L1149.95 93.8182V93.9886H1160.43V97H1145.11Z" fill="#FF0000"/>
<path d="M133.24 84.84C133.24 91.112 135.768 96.168 139.608 100.072L141.528 99.08C137.816 95.272 135.544 90.568 135.544 84.84C135.544 79.144 137.816 74.44 141.528 70.632L139.608 69.64C135.768 73.544 133.24 78.6 133.24 84.84ZM158.968 73.064V75.272H170.232V73.064H158.968ZM154.552 85.096V87.304H170.104V85.096H154.552ZM169.304 73.064V73.416C168.952 78.632 168.568 80.712 167.992 81.256C167.704 81.512 167.384 81.544 166.84 81.544C166.232 81.544 164.664 81.512 163.032 81.384C163.448 81.992 163.704 82.952 163.768 83.592C165.432 83.688 167.032 83.688 167.832 83.624C168.792 83.592 169.432 83.368 169.976 82.792C170.84 81.896 171.256 79.688 171.64 74.088C171.672 73.736 171.704 73.064 171.704 73.064H169.304ZM158.584 70.12C157.944 75.752 156.216 80.168 152.824 82.856C153.4 83.208 154.456 84.008 154.84 84.392C158.296 81.32 160.248 76.616 161.048 70.44L158.584 70.12ZM169.304 85.096V85.48C166.84 92.264 159.832 96.04 152.344 97.384C152.792 97.928 153.336 98.92 153.56 99.56C161.56 97.8 168.856 93.768 171.8 85.704L170.232 85L169.816 85.096H169.304ZM158.872 87.112L156.76 87.848C159.768 93.672 165.304 97.8 172.28 99.56C172.632 98.92 173.304 97.928 173.848 97.416C167.032 95.976 161.496 92.2 158.872 87.112ZM145.944 72.136C147.992 73.096 150.488 74.664 151.736 75.848L153.112 73.896C151.896 72.744 149.336 71.272 147.256 70.408L145.944 72.136ZM144.216 80.808C146.296 81.704 148.856 83.176 150.104 84.296L151.48 82.312C150.168 81.224 147.576 79.816 145.496 79.016L144.216 80.808ZM145.24 97.544L147.288 99.112C149.08 96.168 151.192 92.136 152.792 88.776L151 87.24C149.208 90.888 146.872 95.08 145.24 97.544ZM177.016 74.28V76.552H205.048V74.28H177.016ZM184.824 85.704V87.784H199.864V85.704H184.824ZM183.128 80.264V99.56H185.496V82.408H199.48V80.264H183.128ZM198.936 80.264V96.552C198.936 97.032 198.744 97.192 198.2 97.224C197.624 97.224 195.672 97.256 193.528 97.16C193.88 97.832 194.232 98.824 194.328 99.496C197.08 99.496 198.872 99.496 199.896 99.112C200.984 98.728 201.272 97.992 201.272 96.584V80.264H198.936ZM187.48 70.12C185.752 76.552 181.976 83.336 176.248 87.272C176.728 87.752 177.464 88.584 177.784 89.128C183.896 84.84 187.736 77.736 189.912 70.696L187.48 70.12ZM184.824 91.112V93.192H199.864V91.112H184.824ZM214.84 82.76H208.472V85H212.536V94.088H214.84V82.76ZM214.84 93.128H212.76C211.256 94.504 209.528 95.944 208.12 96.968L209.368 99.304C210.968 97.896 212.44 96.52 213.848 95.144C215.832 97.672 218.744 98.792 222.968 98.952C226.552 99.112 233.4 99.048 237.016 98.888C237.112 98.184 237.496 97.064 237.784 96.52C233.912 96.776 226.52 96.872 222.968 96.712C219.16 96.584 216.344 95.496 214.84 93.128ZM208.76 72.264C210.712 73.832 212.92 76.072 213.816 77.672L215.8 76.168C214.808 74.6 212.568 72.392 210.584 70.952L208.76 72.264ZM229.112 70.44C228.6 72.2 227.608 74.696 226.744 76.328L228.728 76.904C229.624 75.4 230.776 73.064 231.704 71.016L229.112 70.44ZM221.496 75.144H220.952L219.16 76.968V92.456H221.496V77.224H236.536V75.144H221.496ZM220.408 80.584V82.6H235.736V80.584H220.408ZM220.408 85.96V88.008H235.672V85.96H220.408ZM219.16 91.496V93.576H237.08V91.496H219.16ZM227.096 76.104V92.296H229.4V76.104H227.096ZM221.976 70.216C220.344 74.28 217.592 78.088 214.488 80.552C215.032 80.968 215.928 81.896 216.312 82.376C219.48 79.656 222.488 75.432 224.344 70.888L221.976 70.216ZM252.92 72.072V74.376H268.632V72.072H252.92ZM262.264 81.608V96.456C262.264 97 262.072 97.128 261.432 97.16C260.856 97.192 258.712 97.192 256.44 97.128C256.792 97.832 257.112 98.824 257.208 99.496C260.344 99.496 262.168 99.464 263.256 99.112C264.344 98.728 264.696 97.992 264.696 96.488V81.608H262.264ZM251.512 80.904V83.176H269.56V80.904H251.512ZM245.112 83.368V99.656H247.512V81.416L247.224 81.288L245.112 83.368ZM248.824 76.968C246.616 80.648 243.096 84.36 239.768 86.728C240.28 87.176 241.112 88.232 241.464 88.712C244.824 86.024 248.6 81.896 251.096 77.832L248.824 76.968ZM247.512 70.12C245.88 72.424 242.776 75.304 240.12 77.096C240.536 77.576 241.176 78.504 241.528 79.016C244.376 76.968 247.672 73.864 249.816 71.048L247.512 70.12ZM274.072 75.848V91.08H276.472V78.216H297.368V90.92H299.864V75.848H274.072ZM275.352 86.728V89.064H298.808V86.728H275.352ZM285.656 70.12V99.528H288.152V70.12H285.656ZM315.544 87.112V99.56H317.752V89.32H329.208V99.4H331.512V87.112H315.544ZM330.328 70.248C326.776 71.528 320.28 72.52 314.712 73.128C315 73.672 315.32 74.6 315.416 75.176C321.144 74.632 327.832 73.64 332.216 72.136L330.328 70.248ZM322.456 73.032V88.392H324.76V73.032H322.456ZM313.208 79.528V81.832H333.592V79.528H313.208ZM317.048 95.976V98.184H330.264V95.976H317.048ZM305.88 72.232C307.864 73.288 310.52 74.856 311.864 75.816L313.272 73.864C311.896 72.936 309.176 71.496 307.224 70.536L305.88 72.232ZM304.312 81.064C306.264 82.088 308.92 83.624 310.232 84.52L311.576 82.568C310.232 81.64 307.544 80.232 305.656 79.304L304.312 81.064ZM305.08 97.512L307.096 99.144C308.984 96.168 311.224 92.168 312.92 88.776L311.192 87.208C309.336 90.856 306.808 95.08 305.08 97.512ZM337.208 91.048V92.872H351.8V91.048H337.208ZM336.344 75.624V77.48H352.312V75.624H336.344ZM343.288 72.712V96.264H345.496V72.712H343.288ZM336.312 96.328L336.664 98.408C340.728 97.992 346.52 97.32 351.96 96.68L351.928 94.792C346.2 95.4 340.216 95.976 336.312 96.328ZM339.288 85.064H349.656V87.432H339.288V85.064ZM339.288 81.16H349.656V83.464H339.288V81.16ZM337.272 79.496V89.096H351.704V79.496H337.272ZM350.552 70.44C347.256 71.208 341.432 71.784 336.664 72.04C336.92 72.52 337.144 73.32 337.24 73.832C342.04 73.672 347.992 73.128 351.768 72.296L350.552 70.44ZM352.088 77.608V79.848H363.64V77.608H352.088ZM362.712 77.608V78.184C362.36 91.144 362.008 95.752 361.208 96.744C360.92 97.16 360.6 97.256 360.088 97.256C359.448 97.256 358.04 97.224 356.472 97.096C356.856 97.736 357.112 98.728 357.176 99.4C358.648 99.496 360.184 99.496 361.08 99.4C362.04 99.304 362.68 99.016 363.256 98.184C364.312 96.808 364.632 92.328 364.984 78.824C364.984 78.504 365.016 77.608 365.016 77.608H362.712ZM355.96 70.536C355.928 82.632 356.088 92.776 348.76 98.024C349.336 98.408 350.168 99.176 350.552 99.752C358.2 94.024 358.232 83.272 358.264 70.536H355.96ZM372.024 100.424C375.384 99.272 377.56 96.648 377.56 93.192C377.56 90.952 376.6 89.48 374.808 89.48C373.528 89.48 372.376 90.28 372.376 91.784C372.376 93.32 373.464 94.088 374.776 94.088C375.384 94.088 376.024 93.928 376.472 93.352L374.744 90.92L375.352 93.64C375.352 96.04 373.912 97.672 371.288 98.76L372.024 100.424ZM407.16 70.12V75.496H409.592V70.12H407.16ZM400.664 74.216V76.424H415.896V74.216H400.664ZM415.672 78.6V80.872H429.592V78.6H415.672ZM404.632 81H412.088V85.288H404.632V81ZM402.392 78.92V87.336H414.424V78.92H402.392ZM407.288 86.472V96.808C407.288 97.16 407.16 97.256 406.808 97.288C406.392 97.32 405.144 97.32 403.672 97.288C403.992 97.896 404.344 98.824 404.44 99.464C406.392 99.464 407.704 99.464 408.536 99.08C409.368 98.696 409.592 98.024 409.592 96.84V86.472H407.288ZM403 89.032C402.424 91.592 401.4 94.12 400.024 95.816C400.568 96.136 401.464 96.808 401.88 97.192C403.32 95.304 404.536 92.392 405.208 89.512L403 89.032ZM411.256 89.448C412.152 91.144 413.08 93.448 413.464 94.92L415.48 94.184C415.096 92.712 414.136 90.472 413.176 88.776L411.256 89.448ZM423.64 72.008C425.176 73.576 426.68 75.816 427.32 77.352L429.304 76.328C428.664 74.792 427.128 72.648 425.496 71.112L423.64 72.008ZM420.312 70.12V76.84C420.312 83.08 419.736 92.008 412.888 98.248C413.496 98.536 414.488 99.176 414.936 99.624C421.976 93.064 422.648 83.656 422.648 76.84V70.12H420.312ZM421.848 82.472V96.2C421.848 97.832 422.008 98.344 422.584 98.824C423.128 99.24 423.928 99.368 424.664 99.368C425.08 99.368 426.2 99.368 426.68 99.368C427.384 99.368 428.152 99.24 428.6 99.016C429.144 98.696 429.464 98.248 429.688 97.512C429.848 96.84 429.976 94.888 430.008 93.192C429.4 93 428.6 92.584 428.12 92.168C428.152 93.928 428.088 95.464 428.024 96.072C427.96 96.456 427.768 96.776 427.544 96.904C427.32 97.032 426.904 97.096 426.52 97.096C426.104 97.096 425.528 97.096 425.208 97.096C424.856 97.096 424.568 97.032 424.376 96.872C424.152 96.776 424.056 96.552 424.056 96.296V82.472H421.848ZM436.312 72.328V89.544H438.712V74.632H455.864V89.384H458.328V72.328H436.312ZM437.432 86.088V88.392H456.856V86.088H437.432ZM449.848 91.944C453.016 94.248 456.92 97.544 458.744 99.656L460.824 98.184C458.904 96.008 454.904 92.84 451.8 90.664L449.848 91.944ZM441.816 90.6C439.96 93.16 436.216 96.104 432.824 97.896C433.4 98.312 434.264 99.112 434.744 99.624C438.2 97.672 441.976 94.568 444.344 91.624L441.816 90.6ZM470.264 81.064H487.832V85.896H470.264V81.064ZM468.216 79.432V87.528H490.008V79.432H468.216ZM473.464 75.976V77.672H484.632V75.976H473.464ZM477.848 79.944V86.632H479.896V79.944H477.848ZM478.84 72.072C482.104 75.208 487.864 78.376 492.568 80.008C492.92 79.4 493.464 78.536 493.976 78.024C489.016 76.552 483.448 73.608 479.832 70.12H477.56C474.904 73.224 469.496 76.488 464.056 78.344C464.504 78.856 465.048 79.688 465.336 80.232C470.648 78.248 475.992 74.984 478.84 72.072ZM472.216 82.024C473.016 83.176 473.752 84.744 474.008 85.768L475.864 85.096C475.544 84.072 474.776 82.568 473.944 81.448L472.216 82.024ZM483.736 81.32C483.352 82.408 482.52 84.104 481.912 85.192L483.608 85.768C484.248 84.808 485.048 83.336 485.784 81.96L483.736 81.32ZM470.104 89.064V99.56H472.472V90.76H485.752V99.528H488.184V89.064H470.104ZM471.512 92.904V94.664H486.808V92.904H471.512ZM471.512 96.84V98.568H486.808V96.84H471.512ZM499.768 95.208V97.576H522.36V95.208H499.768ZM509.592 70.312V96.552H512.056V70.312H509.592ZM498.584 86.28V99.592H501.016V86.28H498.584ZM521.08 86.28V99.496H523.544V86.28H521.08ZM499.832 73.192V84.232H522.264V73.192H519.768V81.896H502.2V73.192H499.832ZM528.568 71.784V74.024H539.576V71.784H528.568ZM528.952 80.84V83.08H539.256V80.84H528.952ZM527.96 92.232L528.6 94.568C531.736 93.608 536.024 92.36 540.056 91.144L539.736 89C535.416 90.248 530.936 91.496 527.96 92.232ZM543.288 78.696H553.784V81.928H543.288V78.696ZM543.288 83.88H553.784V87.112H543.288V83.88ZM543.288 73.576H553.784V76.776H543.288V73.576ZM541.048 71.528V89.192H556.12V71.528H541.048ZM549.432 88.2V96.36C549.432 98.664 549.976 99.368 552.312 99.368C552.76 99.368 554.936 99.368 555.416 99.368C557.368 99.368 557.976 98.344 558.168 94.376C557.56 94.248 556.6 93.864 556.12 93.48C556.024 96.776 555.896 97.256 555.16 97.256C554.68 97.256 553.016 97.256 552.664 97.256C551.896 97.256 551.736 97.128 551.736 96.328V88.2H549.432ZM543.992 88.68C543.48 93.128 542.168 96.2 536.28 97.8C536.76 98.248 537.4 99.176 537.656 99.784C544.12 97.768 545.752 94.088 546.328 88.68H543.992ZM533.016 72.68V91.912L535.32 91.528V72.68H533.016ZM567.032 85.032H560.472V87.24H564.664V94.376H567.032V85.032ZM567.032 93.096H564.888C563.32 94.472 561.496 95.88 560.056 96.904L561.304 99.304C562.936 97.896 564.504 96.52 565.976 95.144C568.056 97.672 570.968 98.792 575.16 98.984C578.744 99.08 585.496 99.016 589.048 98.888C589.176 98.152 589.528 97.032 589.848 96.488C586.008 96.744 578.68 96.808 575.16 96.712C571.384 96.552 568.568 95.432 567.032 93.096ZM561.848 72.008C563.8 73.096 566.04 74.76 567.096 76.008L568.76 74.376C567.672 73.128 565.368 71.528 563.448 70.536L561.848 72.008ZM560.6 78.536C562.648 79.528 565.016 81.16 566.136 82.376L567.8 80.68C566.616 79.432 564.184 77.896 562.2 76.968L560.6 78.536ZM568.888 75.464V77.256H589.656V75.464H568.888ZM571.384 83.112V84.84H587.384V83.112H571.384ZM571.384 79.336V81.064H587.384V79.336H571.384ZM571.832 71.624V73.352H587.032V71.624H571.832ZM573.464 88.744H585.24V92.52H573.464V88.744ZM571.256 86.984V94.28H587.512V86.984H571.256ZM610.36 70.088C610.008 71.272 609.368 72.968 608.792 74.152L610.968 74.536C611.608 73.48 612.44 71.912 613.144 70.408L610.36 70.088ZM605.272 80.936H617.944V84.52H605.272V80.936ZM605.272 75.464H617.944V79.016H605.272V75.464ZM603 73.416V86.536H620.28V73.416H603ZM610.36 74.632V85.512H612.6V74.632H610.36ZM606.296 85.992C606.008 92.264 605.144 95.816 599 97.704C599.544 98.152 600.152 99.112 600.44 99.72C607.128 97.416 608.312 93.192 608.632 85.992H606.296ZM610.968 86.152V96.008C610.968 98.472 611.64 99.144 614.36 99.144C614.904 99.144 618.264 99.144 618.84 99.144C620.952 99.144 621.624 98.344 621.88 95.336C621.24 95.176 620.28 94.824 619.8 94.472C619.704 96.68 619.576 97 618.648 97C617.944 97 615.128 97 614.584 97C613.4 97 613.208 96.84 613.208 95.976V86.152H610.968ZM615.672 87.016C615.416 88.616 614.84 91.016 614.36 92.52L615.832 92.84C616.376 91.4 616.984 89.192 617.528 87.336L615.672 87.016ZM613.496 92.136L613.912 93.96C615.832 93.672 617.976 93.352 620.312 92.968L620.216 91.464C617.656 91.752 615.32 92.008 613.496 92.136ZM618.04 89.416C618.904 90.92 619.736 92.904 620.056 94.152L621.528 93.448C621.208 92.264 620.344 90.344 619.48 88.904L618.04 89.416ZM592.664 77.288V79.56H602.104V77.288H592.664ZM596.472 70.248V90.664H598.744V70.248H596.472ZM592.056 91.144L592.888 93.576C595.704 92.424 599.416 90.952 602.872 89.48L602.36 87.24C598.584 88.744 594.648 90.28 592.056 91.144ZM632.728 84.84C632.728 78.6 630.2 73.544 626.36 69.64L624.44 70.632C628.152 74.44 630.424 79.144 630.424 84.84C630.424 90.568 628.152 95.272 624.44 99.08L626.36 100.072C630.2 96.168 632.728 91.112 632.728 84.84Z" fill="#FF0000"/>
<path d="M144.528 176.56V178.832H160.464V176.56H144.528ZM152.112 177.584V192.048H154.48V177.584H152.112ZM143.248 169.296V176.72C143.248 180.72 142.832 185.776 139.344 189.584C139.92 189.904 140.784 190.704 141.072 191.248C145.008 187.024 145.616 181.04 145.616 176.784V170.416C146.064 170.32 146.256 170.192 146.288 169.968L143.248 169.296ZM156.656 167.248C153.776 168.304 148.624 169.264 144.144 169.872C144.432 170.384 144.784 171.248 144.912 171.792C149.584 171.248 154.992 170.32 158.704 169.072L156.656 167.248ZM138.352 179.76H131.536V182H136.016V191.088H138.352V179.76ZM138.352 190.032H136.176C134.544 191.408 132.656 192.816 131.12 193.84L132.4 196.304C134.128 194.896 135.76 193.52 137.296 192.144C139.344 194.672 142.224 195.792 146.384 195.952C149.936 196.08 156.56 196.016 160.08 195.888C160.176 195.152 160.592 194 160.848 193.424C157.072 193.68 149.872 193.776 146.384 193.648C142.704 193.488 139.856 192.4 138.352 190.032ZM131.888 169.36C133.968 170.768 136.368 172.944 137.392 174.48L139.28 172.912C138.16 171.344 135.76 169.264 133.648 167.92L131.888 169.36ZM180.784 168.72V170.928H189.68V168.72H180.784ZM180.784 176.08V178.224H189.68V176.08H180.784ZM180.752 183.536V185.712H189.744V183.536H180.752ZM188.592 168.72V193.488C188.592 193.968 188.432 194.128 187.952 194.128C187.472 194.16 185.872 194.16 184.176 194.128C184.496 194.736 184.848 195.792 184.912 196.464C187.28 196.464 188.784 196.4 189.68 196.016C190.608 195.632 190.928 194.896 190.928 193.52V168.72H188.592ZM179.792 168.72V180.336C179.792 184.976 179.568 191.056 176.88 195.344C177.424 195.568 178.384 196.272 178.8 196.72C181.68 192.176 182.064 185.264 182.064 180.336V168.72H179.792ZM162.896 171.408V173.52H178.224V171.408H162.896ZM166.672 176.368V178.32H174.768V176.368H166.672ZM166.672 181.456V183.376H174.8V181.456H166.672ZM162.48 186.608V188.752H178.224V186.608H162.48ZM165.616 167.504V187.472H167.824V167.504H165.616ZM173.648 167.504V187.472H175.856V167.504H173.648ZM166.928 189.456C165.968 191.6 164.304 193.744 162.512 195.184C163.088 195.504 164.016 196.208 164.464 196.592C166.192 194.992 168.048 192.528 169.232 190.096L166.928 189.456ZM171.536 190.448C172.784 191.952 174.224 194.064 174.832 195.344L176.784 194.192C176.144 192.88 174.64 190.896 173.392 189.456L171.536 190.448ZM200.688 167.12C199.184 170.352 196.56 173.488 193.84 175.504C194.416 175.888 195.376 176.656 195.824 177.104C198.512 174.864 201.264 171.408 203.024 167.792L200.688 167.12ZM199.568 170.8L198.768 172.976H221.616V170.8H199.568ZM194.224 178.384V180.56H222.832V178.384H194.224ZM194.736 186.032V188.208H222.384V186.032H194.736ZM204.432 171.536V187.088H206.512V171.536H204.432ZM198.704 171.536V187.184H200.88V171.536H198.704ZM210.224 171.536V187.184H212.272V171.536H210.224ZM216.08 171.536V187.184H218.288V171.536H216.08ZM203.568 190.384C203.952 192.304 204.208 194.8 204.208 196.304L206.576 195.952C206.544 194.48 206.192 192.048 205.776 190.16L203.568 190.384ZM210.096 190.384C210.928 192.304 211.728 194.8 212.016 196.336L214.384 195.824C214.064 194.32 213.2 191.824 212.336 190L210.096 190.384ZM216.624 190.192C218.224 192.176 220.048 194.928 220.816 196.624L223.216 195.76C222.352 194.032 220.464 191.344 218.864 189.424L216.624 190.192ZM197.968 189.552C197.168 191.888 195.664 194.32 194 195.664L196.272 196.624C197.968 195.088 199.44 192.528 200.272 190.128L197.968 189.552ZM231.632 179.76H225.264V182H229.328V191.088H231.632V179.76ZM231.632 190.128H229.552C228.048 191.504 226.32 192.944 224.912 193.968L226.16 196.304C227.76 194.896 229.232 193.52 230.64 192.144C232.624 194.672 235.536 195.792 239.76 195.952C243.344 196.112 250.192 196.048 253.808 195.888C253.904 195.184 254.288 194.064 254.576 193.52C250.704 193.776 243.312 193.872 239.76 193.712C235.952 193.584 233.136 192.496 231.632 190.128ZM225.552 169.264C227.504 170.832 229.712 173.072 230.608 174.672L232.592 173.168C231.6 171.6 229.36 169.392 227.376 167.952L225.552 169.264ZM245.904 167.44C245.392 169.2 244.4 171.696 243.536 173.328L245.52 173.904C246.416 172.4 247.568 170.064 248.496 168.016L245.904 167.44ZM238.288 172.144H237.744L235.952 173.968V189.456H238.288V174.224H253.328V172.144H238.288ZM237.2 177.584V179.6H252.528V177.584H237.2ZM237.2 182.96V185.008H252.464V182.96H237.2ZM235.952 188.496V190.576H253.872V188.496H235.952ZM243.888 173.104V189.296H246.192V173.104H243.888ZM238.768 167.216C237.136 171.28 234.384 175.088 231.28 177.552C231.824 177.968 232.72 178.896 233.104 179.376C236.272 176.656 239.28 172.432 241.136 167.888L238.768 167.216ZM268.976 169.072V171.376H284.688V169.072H268.976ZM278.32 178.608V193.456C278.32 194 278.128 194.128 277.488 194.16C276.912 194.192 274.768 194.192 272.496 194.128C272.848 194.832 273.168 195.824 273.264 196.496C276.4 196.496 278.224 196.464 279.312 196.112C280.4 195.728 280.752 194.992 280.752 193.488V178.608H278.32ZM267.568 177.904V180.176H285.616V177.904H267.568ZM261.168 180.368V196.656H263.568V178.416L263.28 178.288L261.168 180.368ZM264.88 173.968C262.672 177.648 259.152 181.36 255.824 183.728C256.336 184.176 257.168 185.232 257.52 185.712C260.88 183.024 264.656 178.896 267.152 174.832L264.88 173.968ZM263.568 167.12C261.936 169.424 258.832 172.304 256.176 174.096C256.592 174.576 257.232 175.504 257.584 176.016C260.432 173.968 263.728 170.864 265.872 168.048L263.568 167.12ZM289.392 172.848V188.08H291.792V175.216H312.688V187.92H315.184V172.848H289.392ZM290.672 183.728V186.064H314.128V183.728H290.672ZM300.976 167.12V196.528H303.472V167.12H300.976ZM330.128 184.112V196.56H332.336V186.32H343.792V196.4H346.096V184.112H330.128ZM344.912 167.248C341.36 168.528 334.864 169.52 329.296 170.128C329.584 170.672 329.904 171.6 330 172.176C335.728 171.632 342.416 170.64 346.8 169.136L344.912 167.248ZM337.04 170.032V185.392H339.344V170.032H337.04ZM327.792 176.528V178.832H348.176V176.528H327.792ZM331.632 192.976V195.184H344.848V192.976H331.632ZM320.464 169.232C322.448 170.288 325.104 171.856 326.448 172.816L327.856 170.864C326.48 169.936 323.76 168.496 321.808 167.536L320.464 169.232ZM318.896 178.064C320.848 179.088 323.504 180.624 324.816 181.52L326.16 179.568C324.816 178.64 322.128 177.232 320.24 176.304L318.896 178.064ZM319.664 194.512L321.68 196.144C323.568 193.168 325.808 189.168 327.504 185.776L325.776 184.208C323.92 187.856 321.392 192.08 319.664 194.512ZM351.056 188.048V189.872H365.648V188.048H351.056ZM350.192 172.624V174.48H366.16V172.624H350.192ZM357.136 169.712V193.264H359.344V169.712H357.136ZM350.16 193.328L350.512 195.408C354.576 194.992 360.368 194.32 365.808 193.68L365.776 191.792C360.048 192.4 354.064 192.976 350.16 193.328ZM353.136 182.064H363.504V184.432H353.136V182.064ZM353.136 178.16H363.504V180.464H353.136V178.16ZM351.12 176.496V186.096H365.552V176.496H351.12ZM364.4 167.44C361.104 168.208 355.28 168.784 350.512 169.04C350.768 169.52 350.992 170.32 351.088 170.832C355.888 170.672 361.84 170.128 365.616 169.296L364.4 167.44ZM365.936 174.608V176.848H377.488V174.608H365.936ZM376.56 174.608V175.184C376.208 188.144 375.856 192.752 375.056 193.744C374.768 194.16 374.448 194.256 373.936 194.256C373.296 194.256 371.888 194.224 370.32 194.096C370.704 194.736 370.96 195.728 371.024 196.4C372.496 196.496 374.032 196.496 374.928 196.4C375.888 196.304 376.528 196.016 377.104 195.184C378.16 193.808 378.48 189.328 378.832 175.824C378.832 175.504 378.864 174.608 378.864 174.608H376.56ZM369.808 167.536C369.776 179.632 369.936 189.776 362.608 195.024C363.184 195.408 364.016 196.176 364.4 196.752C372.048 191.024 372.08 180.272 372.112 167.536H369.808ZM385.136 197.424C388.496 196.272 390.672 193.648 390.672 190.192C390.672 187.952 389.712 186.48 387.92 186.48C386.64 186.48 385.488 187.28 385.488 188.784C385.488 190.32 386.576 191.088 387.888 191.088C388.496 191.088 389.136 190.928 389.584 190.352L387.856 187.92L388.464 190.64C388.464 193.04 387.024 194.672 384.4 195.76L385.136 197.424ZM416.4 186.064V187.664H427.152V186.064H416.4ZM416.4 189.552V191.152H427.152V189.552H416.4ZM416.368 193.04V194.832H428.016V193.04H416.368ZM412.72 169.328V171.184H428.752V169.328H412.72ZM420.944 183.728V193.968H422.992V183.728H420.944ZM416.528 167.152V173.136H418.672V167.152H416.528ZM422.736 167.152V173.136H424.88V167.152H422.736ZM415.44 175.376H418.16V178.16H415.44V175.376ZM413.712 173.776V179.76H419.952V173.776H413.712ZM423.056 175.376H426V178.16H423.056V175.376ZM421.328 173.776V179.76H427.792V173.776H421.328ZM417.232 182.448H417.04L415.152 184.464V196.496H417.232V184.176H427.984V182.448H417.232ZM421.936 179.888C421.648 180.88 421.072 182.32 420.56 183.312L422.256 183.824C422.768 182.96 423.44 181.68 424.08 180.464L421.936 179.888ZM416.528 179.728C415.6 182.64 414 185.488 412.144 187.44C412.528 187.856 413.232 188.816 413.52 189.264C415.568 187.024 417.424 183.632 418.576 180.272L416.528 179.728ZM430.832 172.912V175.12H440.336V172.912H430.832ZM434.704 173.84H433.552V179.536C433.584 182.096 432.752 190.32 426.608 194.64C426.992 195.088 427.696 196.048 427.952 196.56C432.752 193.136 434.384 187.152 434.704 184.528C434.96 187.088 436.432 193.264 440.784 196.56C441.136 195.984 441.808 195.024 442.256 194.512C436.656 190.352 435.824 182 435.856 179.536V173.84H434.704ZM431.12 167.088C430.512 172.112 429.392 177.04 427.344 180.176C427.92 180.496 428.944 181.2 429.36 181.552C431.44 178.128 432.72 172.912 433.488 167.44L431.12 167.088ZM439.536 172.912V173.36C439.344 175.76 438.928 178.832 438.448 180.72L440.208 181.584C440.912 179.472 441.488 176.144 441.84 173.328L440.272 172.752L439.92 172.912H439.536ZM450.288 179.76H444.08V182H448.016V191.088H450.288V179.76ZM450.288 190.128H448.24C446.768 191.536 445.072 192.976 443.696 194.032L444.944 196.304C446.48 194.864 447.92 193.488 449.296 192.112C451.312 194.64 454.224 195.792 458.48 195.952C462.128 196.08 469.104 196.016 472.752 195.856C472.848 195.184 473.232 194.096 473.52 193.584C469.584 193.84 462.064 193.936 458.448 193.776C454.64 193.616 451.792 192.528 450.288 190.128ZM444.24 169.072C446.096 170.672 448.176 172.976 449.008 174.576L451.024 173.232C450.128 171.6 447.984 169.392 446.096 167.888L444.24 169.072ZM462.416 169.52V192.496H464.656V171.6H471.024V169.52H462.416ZM453.808 169.552V187.216H456.048V170.192L453.808 169.552ZM469.776 169.52V186.032C469.776 186.416 469.648 186.544 469.296 186.544C468.88 186.576 467.664 186.576 466.224 186.544C466.544 187.088 466.864 188.016 466.96 188.592C468.912 188.592 470.192 188.592 470.992 188.208C471.792 187.856 472.048 187.216 472.048 186.064V169.52H469.776ZM460.304 167.056C458.96 168.112 456.528 169.36 454.448 170.224C454.736 170.704 455.056 171.472 455.184 171.952C457.488 171.152 460.112 170.032 462.096 168.816L460.304 167.056ZM451.696 186.864L452.336 189.04C454.896 188.272 458.256 187.312 461.424 186.384L461.136 184.272C457.648 185.296 454.096 186.256 451.696 186.864ZM493.264 191.408V193.744H501.968V191.408H493.264ZM475.6 173.2V175.536H487.888V173.2H475.6ZM492.176 171.12V196.08H494.512V173.424H500.688V195.856H503.12V171.12H492.176ZM487.248 173.2V173.776C487.024 187.472 486.736 192.208 486 193.2C485.712 193.616 485.424 193.712 484.944 193.68C484.336 193.68 482.96 193.68 481.456 193.552C481.872 194.224 482.128 195.28 482.16 195.984C483.6 196.08 485.072 196.08 485.968 195.952C486.928 195.856 487.504 195.568 488.08 194.736C489.104 193.328 489.328 188.656 489.584 174.416C489.584 174.096 489.584 173.2 489.584 173.2H487.248ZM480.144 167.568C480.112 178.768 480.144 189.328 474.8 194.96C475.408 195.312 476.24 196.048 476.656 196.592C482.288 190.48 482.448 179.376 482.48 167.568H480.144ZM512.432 169.072V171.504H521.488V169.072H512.432ZM520.272 169.072C520.272 175.088 521.328 188.72 534.128 196.464C534.576 195.888 535.536 194.864 536.08 194.448C523.44 186.96 522.736 174.8 522.736 169.072H520.272ZM519.376 175.344C517.424 184.4 513.424 190.864 506.32 194.576C506.96 195.024 508.048 196.016 508.496 196.528C515.568 192.368 519.792 185.616 522.096 175.856L519.376 175.344ZM543.696 178.064H561.264V182.896H543.696V178.064ZM541.648 176.432V184.528H563.44V176.432H541.648ZM546.896 172.976V174.672H558.064V172.976H546.896ZM551.28 176.944V183.632H553.328V176.944H551.28ZM552.272 169.072C555.536 172.208 561.296 175.376 566 177.008C566.352 176.4 566.896 175.536 567.408 175.024C562.448 173.552 556.88 170.608 553.264 167.12H550.992C548.336 170.224 542.928 173.488 537.488 175.344C537.936 175.856 538.48 176.688 538.768 177.232C544.08 175.248 549.424 171.984 552.272 169.072ZM545.648 179.024C546.448 180.176 547.184 181.744 547.44 182.768L549.296 182.096C548.976 181.072 548.208 179.568 547.376 178.448L545.648 179.024ZM557.168 178.32C556.784 179.408 555.952 181.104 555.344 182.192L557.04 182.768C557.68 181.808 558.48 180.336 559.216 178.96L557.168 178.32ZM543.536 186.064V196.56H545.904V187.76H559.184V196.528H561.616V186.064H543.536ZM544.944 189.904V191.664H560.24V189.904H544.944ZM544.944 193.84V195.568H560.24V193.84H544.944ZM576.144 170.32H591.344V173.616H576.144V170.32ZM573.744 168.368V175.6H593.872V168.368H573.744ZM574.768 183.184H592.688V185.456H574.768V183.184ZM574.768 187.152H592.688V189.456H574.768V187.152ZM574.768 179.248H592.688V181.488H574.768V179.248ZM572.368 177.456V191.216H595.152V177.456H572.368ZM578.48 191.184C576.464 192.496 572.272 194.032 568.912 194.832C569.488 195.312 570.288 196.08 570.704 196.592C574 195.76 578.16 194.224 580.72 192.656L578.48 191.184ZM586.288 192.848C589.68 193.84 594.032 195.504 596.4 196.624L598.48 194.896C595.984 193.84 591.696 192.272 588.368 191.28L586.288 192.848ZM616.592 167.216C616.752 182.384 619.568 196.592 625.936 196.592C628.368 196.592 629.296 195.024 629.712 189.488C629.04 189.264 628.144 188.688 627.6 188.144C627.408 192.4 627.056 194.096 626.128 194.096C622.224 194.096 619.088 181.84 619.152 167.216H616.592ZM621.072 168.72C623.056 169.648 625.392 171.152 626.544 172.24L628.016 170.544C626.832 169.488 624.464 168.08 622.48 167.248L621.072 168.72ZM625.264 176.912C622.736 184.976 618.128 191.12 611.472 194.704C611.984 195.152 612.944 196.112 613.296 196.592C620.016 192.56 624.848 186.128 627.632 177.488L625.264 176.912ZM601.104 172.24V174.608H628.912V172.24H601.104ZM600.944 191.92L601.392 194.384C605.136 193.584 610.384 192.432 615.28 191.344L615.088 189.04C609.872 190.16 604.432 191.248 600.944 191.92ZM605.168 179.536H611.696V185.136H605.168V179.536ZM602.96 177.456V187.184H614.064V177.456H602.96ZM631.824 169.232V171.408H648.24V169.232H631.824ZM632.784 184.464V186.64H647.312V184.464H632.784ZM638.896 180.656V193.552L641.264 193.2V180.656H638.896ZM631.472 193.2L631.856 195.6C636.112 195.024 642.416 194.128 648.368 193.296L648.304 191.056C642.128 191.888 635.632 192.752 631.472 193.2ZM631.76 177.936L631.952 180.208C635.76 179.984 641.232 179.696 646.48 179.376L646.544 177.264C641.04 177.552 635.408 177.808 631.76 177.936ZM641.968 174.032C643.888 176.304 646.032 179.408 646.96 181.36L648.88 180.208C647.952 178.288 645.712 175.28 643.76 173.04L641.968 174.032ZM637.36 170.384C636.656 172.912 635.28 176.656 634.16 178.928L636.272 179.44C637.456 177.232 638.832 173.712 639.952 170.896L637.36 170.384ZM649.648 170.992V188.72H651.952V170.992H649.648ZM657.2 168.048V193.36C657.2 193.936 657.04 194.096 656.464 194.128C655.824 194.128 653.84 194.16 651.696 194.064C652.048 194.8 652.4 195.92 652.528 196.592C655.12 196.592 657.072 196.528 658.128 196.112C659.184 195.728 659.568 194.992 659.568 193.328V168.048H657.2ZM664.045 194V170.727H678.477V173.75H667.556V180.841H677.443V183.852H667.556V194H664.045ZM682.059 194V170.727H690.582C692.233 170.727 693.6 171 694.684 171.545C695.767 172.083 696.578 172.814 697.116 173.739C697.654 174.655 697.922 175.689 697.922 176.841C697.922 177.811 697.744 178.629 697.388 179.295C697.032 179.955 696.555 180.485 695.957 180.886C695.366 181.28 694.714 181.568 694.002 181.75V181.977C694.775 182.015 695.529 182.265 696.263 182.727C697.006 183.182 697.619 183.83 698.104 184.67C698.589 185.511 698.832 186.534 698.832 187.739C698.832 188.928 698.551 189.996 697.991 190.943C697.438 191.883 696.582 192.629 695.422 193.182C694.263 193.727 692.782 194 690.979 194H682.059ZM685.57 190.989H690.638C692.32 190.989 693.525 190.663 694.252 190.011C694.979 189.36 695.343 188.545 695.343 187.568C695.343 186.833 695.157 186.159 694.786 185.545C694.415 184.932 693.885 184.443 693.195 184.08C692.513 183.716 691.703 183.534 690.763 183.534H685.57V190.989ZM685.57 180.795H690.275C691.063 180.795 691.771 180.644 692.4 180.341C693.036 180.038 693.54 179.614 693.911 179.068C694.29 178.515 694.479 177.864 694.479 177.114C694.479 176.152 694.142 175.345 693.468 174.693C692.794 174.042 691.76 173.716 690.366 173.716H685.57V180.795ZM708.439 195.792L710.615 193.936C708.599 191.6 705.719 188.72 703.415 186.864L701.335 188.688C703.607 190.544 706.359 193.264 708.439 195.792ZM737.036 170.727V194H733.524V170.727H737.036ZM757.163 178.08C756.944 177.39 756.648 176.773 756.277 176.227C755.913 175.674 755.478 175.205 754.97 174.818C754.463 174.424 753.883 174.125 753.232 173.92C752.588 173.716 751.879 173.614 751.107 173.614C749.796 173.614 748.614 173.951 747.561 174.625C746.508 175.299 745.675 176.288 745.061 177.591C744.455 178.886 744.152 180.473 744.152 182.352C744.152 184.239 744.459 185.833 745.072 187.136C745.686 188.439 746.527 189.428 747.595 190.102C748.663 190.777 749.879 191.114 751.243 191.114C752.508 191.114 753.61 190.856 754.55 190.341C755.497 189.826 756.228 189.098 756.743 188.159C757.266 187.212 757.527 186.098 757.527 184.818L758.436 184.989H751.777V182.091H760.925V184.739C760.925 186.693 760.508 188.39 759.675 189.83C758.849 191.261 757.705 192.367 756.243 193.148C754.788 193.928 753.122 194.318 751.243 194.318C749.137 194.318 747.288 193.833 745.697 192.864C744.114 191.894 742.879 190.519 741.993 188.739C741.107 186.951 740.663 184.83 740.663 182.375C740.663 180.519 740.921 178.852 741.436 177.375C741.951 175.898 742.675 174.644 743.607 173.614C744.546 172.576 745.648 171.784 746.913 171.239C748.186 170.686 749.576 170.409 751.084 170.409C752.341 170.409 753.512 170.595 754.595 170.966C755.686 171.337 756.656 171.864 757.504 172.545C758.36 173.227 759.069 174.038 759.629 174.977C760.19 175.909 760.569 176.943 760.766 178.08H757.163ZM780.233 167.888C779.433 172.656 777.737 176.528 774.697 178.96C775.113 179.504 775.625 180.752 775.753 181.296C779.433 178.384 781.449 173.84 782.505 168.24L780.233 167.888ZM776.809 179.856V182.096H788.873V179.856H776.809ZM787.849 179.856V180.336C787.465 189.552 786.985 192.912 786.281 193.712C785.993 194.064 785.705 194.128 785.193 194.128C784.649 194.128 783.401 194.096 782.057 193.968C782.409 194.576 782.633 195.536 782.665 196.208C784.073 196.272 785.481 196.304 786.281 196.208C787.177 196.112 787.753 195.888 788.297 195.184C789.257 194.032 789.705 190.608 790.153 180.976C790.185 180.624 790.185 179.856 790.185 179.856H787.849ZM780.777 180.976C780.233 187.6 778.505 192.176 774.089 194.768C774.601 195.152 775.433 196.08 775.721 196.496C780.393 193.392 782.409 188.528 783.081 181.104L780.777 180.976ZM787.209 167.664L785.033 168.08C786.217 173.968 787.913 177.68 791.369 181.008C791.689 180.304 792.425 179.536 793.065 179.056C789.929 176.24 788.297 173.008 787.209 167.664ZM768.393 167.152V196.56H770.633V167.152H768.393ZM763.529 178.16V180.432H774.857V178.16H763.529ZM768.297 179.088C767.305 182.768 765.097 187.408 763.081 189.84C763.497 190.448 764.073 191.472 764.361 192.176C766.569 189.36 768.745 183.952 769.865 179.696L768.297 179.088ZM770.409 181.648L769.225 182.736C770.249 183.952 772.873 187.472 773.705 188.976L775.177 187.056C774.505 186.192 771.305 182.48 770.409 181.648ZM763.753 169.808C764.393 171.984 765.097 174.832 765.353 176.72L767.241 176.24C766.953 174.384 766.249 171.568 765.545 169.392L763.753 169.808ZM773.417 169.136C772.937 171.28 772.009 174.384 771.241 176.272L772.905 176.784C773.737 174.992 774.761 172.08 775.561 169.712L773.417 169.136ZM794.825 187.44V189.424H823.881V187.44H794.825ZM795.753 169.616V171.536H822.569V169.616H795.753ZM813.897 185.36V193.936C813.897 194.352 813.737 194.48 813.225 194.512C812.681 194.544 810.889 194.544 808.969 194.48C809.289 195.088 809.609 195.952 809.705 196.56C812.297 196.56 813.929 196.56 814.953 196.24C815.945 195.888 816.201 195.248 816.201 194V185.36H813.897ZM808.105 167.184V184.336H810.473V167.184H808.105ZM799.945 190.768C801.865 191.952 804.105 193.712 805.193 194.992L806.953 193.392C805.833 192.144 803.465 190.448 801.577 189.36L799.945 190.768ZM800.489 178.48H818.281V180.464H800.489V178.48ZM800.489 174.96H818.281V176.912H800.489V174.96ZM798.217 173.36V182.096H820.617V173.36H798.217ZM814.089 182.768C816.617 183.632 819.657 185.296 821.225 186.576L822.665 185.2C821.065 184.016 818.025 182.416 815.465 181.552L814.089 182.768ZM796.105 183.952L796.201 185.84C802.249 185.744 811.337 185.552 819.881 185.328L820.009 183.696C811.241 183.856 801.929 183.952 796.105 183.952ZM829.641 197.424C833.001 196.272 835.177 193.648 835.177 190.192C835.177 187.952 834.217 186.48 832.425 186.48C831.145 186.48 829.993 187.28 829.993 188.784C829.993 190.32 831.081 191.088 832.393 191.088C833.001 191.088 833.641 190.928 834.089 190.352L832.361 187.92L832.969 190.64C832.969 193.04 831.529 194.672 828.905 195.76L829.641 197.424ZM867.849 183.376V185.552H886.505V183.376H867.849ZM875.337 169.616L874.249 171.408H883.497L884.009 169.616H875.337ZM880.137 179.216V193.744C880.137 194.192 879.977 194.288 879.497 194.32C878.953 194.352 877.257 194.352 875.337 194.288C875.657 194.96 875.977 195.952 876.073 196.592C878.665 196.592 880.233 196.56 881.161 196.176C882.153 195.792 882.441 195.088 882.441 193.744V179.216H880.137ZM876.617 167.184C874.729 170.032 871.113 172.944 867.145 174.672C867.625 175.024 868.329 175.728 868.681 176.144C872.713 174.192 876.585 171.152 878.921 167.856L876.617 167.184ZM870.057 187.824C871.561 189.264 873.161 191.312 873.833 192.656L875.817 191.408C875.081 190.064 873.417 188.112 871.913 186.704L870.057 187.824ZM873.417 172.656C875.401 173.808 877.673 175.6 878.729 176.848L880.105 175.536C879.017 174.288 876.681 172.592 874.697 171.504L873.417 172.656ZM869.673 175.088C871.561 176.368 873.705 178.256 874.697 179.6L876.201 178.384C875.177 177.04 873.001 175.216 871.081 174L869.673 175.088ZM857.161 183.216V185.328H865.577V183.216H857.161ZM864.553 167.152V196.56H866.793V167.152H864.553ZM858.921 184.016V186.032C858.921 188.528 858.633 192.528 856.873 195.472C857.449 195.696 858.313 196.24 858.729 196.624C860.713 193.424 861.033 188.88 861.033 186.096V184.016H858.921ZM883.145 169.616V170C880.745 175.888 874.249 179.696 867.945 181.2C868.361 181.616 868.905 182.416 869.129 182.96C875.913 181.136 882.633 177.2 885.481 170.256L884.009 169.52L883.593 169.616H883.145ZM858.537 168.56V178.48H865.897V176.304H860.681V168.56H858.537ZM902.537 174.256H913.129V176.88H902.537V174.256ZM902.537 169.936H913.129V172.528H902.537V169.936ZM900.233 168.112V178.704H915.529V168.112H900.233ZM898.249 180.912V182.928H917.065V180.912H898.249ZM897.513 185.68V187.792H917.641V185.68H897.513ZM910.441 182.672V193.872C910.441 194.288 910.313 194.416 909.801 194.448C909.321 194.48 907.721 194.48 905.897 194.416C906.217 195.056 906.601 195.952 906.697 196.592C909.097 196.592 910.633 196.592 911.593 196.208C912.553 195.856 912.841 195.216 912.841 193.936V182.672H910.441ZM900.297 189.424C901.737 190.832 903.465 192.816 904.233 194.096L906.057 192.752C905.225 191.504 903.465 189.616 901.993 188.272L900.297 189.424ZM895.753 174.256C893.833 177.584 890.729 180.88 887.817 182.992C888.233 183.536 888.905 184.816 889.097 185.296C892.265 182.8 895.689 178.928 897.865 175.12L895.753 174.256ZM895.145 167.216C893.769 169.488 890.889 172.144 888.329 173.808C888.745 174.288 889.353 175.216 889.609 175.76C892.457 173.872 895.529 170.864 897.449 168.112L895.145 167.216ZM892.873 179.92V196.56H895.209V177.712L895.113 177.648L892.873 179.92ZM920.009 169.232V171.408H936.425V169.232H920.009ZM920.969 184.464V186.64H935.497V184.464H920.969ZM927.081 180.656V193.552L929.449 193.2V180.656H927.081ZM919.657 193.2L920.041 195.6C924.297 195.024 930.601 194.128 936.553 193.296L936.489 191.056C930.313 191.888 923.817 192.752 919.657 193.2ZM919.945 177.936L920.137 180.208C923.945 179.984 929.417 179.696 934.665 179.376L934.729 177.264C929.225 177.552 923.593 177.808 919.945 177.936ZM930.153 174.032C932.073 176.304 934.217 179.408 935.145 181.36L937.065 180.208C936.137 178.288 933.897 175.28 931.945 173.04L930.153 174.032ZM925.545 170.384C924.841 172.912 923.465 176.656 922.345 178.928L924.457 179.44C925.641 177.232 927.017 173.712 928.137 170.896L925.545 170.384ZM937.833 170.992V188.72H940.137V170.992H937.833ZM945.385 168.048V193.36C945.385 193.936 945.225 194.096 944.649 194.128C944.009 194.128 942.025 194.16 939.881 194.064C940.233 194.8 940.585 195.92 940.713 196.592C943.305 196.592 945.257 196.528 946.313 196.112C947.369 195.728 947.753 194.992 947.753 193.328V168.048H945.385ZM956.553 181.168V183.216H977.193V175.92H953.769V177.936H974.825V181.168H956.553ZM955.337 181.168C954.857 183.696 954.025 186.928 953.353 188.976L955.721 189.328C956.361 187.216 957.161 183.888 957.737 181.168H955.337ZM955.689 186.16L955.049 188.24H977.257V186.16H955.689ZM976.649 186.16V186.48C976.297 190.64 975.913 192.304 975.337 192.816C975.081 193.072 974.761 193.104 974.217 193.104C973.641 193.104 972.105 193.104 970.569 192.912C970.921 193.552 971.177 194.448 971.241 195.152C972.873 195.216 974.441 195.216 975.273 195.152C976.169 195.12 976.745 194.928 977.321 194.384C978.121 193.584 978.569 191.6 978.985 187.152C979.049 186.8 979.081 186.16 979.081 186.16H976.649ZM964.457 176.432V196.56H966.825V176.432H964.457ZM963.817 186.8C961.129 189.936 955.753 192.816 951.049 194.128C951.561 194.608 952.233 195.472 952.585 196.048C957.321 194.512 962.729 191.28 965.705 187.664L963.817 186.8ZM954.889 169.904V171.856H965.225V169.904H954.889ZM967.241 169.904V171.856H980.169V169.904H967.241ZM955.561 166.992C954.505 169.84 952.713 172.656 950.697 174.544C951.273 174.832 952.265 175.504 952.681 175.824C954.633 173.84 956.585 170.704 957.801 167.568L955.561 166.992ZM968.169 166.992C967.113 169.872 965.161 172.56 962.889 174.288C963.497 174.608 964.457 175.28 964.905 175.696C967.081 173.744 969.225 170.768 970.441 167.568L968.169 166.992ZM956.681 171.408C957.417 172.752 958.121 174.512 958.377 175.632L960.489 174.8C960.201 173.712 959.401 171.952 958.697 170.672L956.681 171.408ZM970.057 171.376C971.177 172.72 972.329 174.512 972.777 175.728L974.857 174.864C974.345 173.68 973.161 171.92 972.073 170.64L970.057 171.376ZM982.345 180.208V182.832H1011.63V180.208H982.345ZM1037.71 167.184C1032.84 168.688 1023.5 169.552 1015.88 169.904C1016.11 170.448 1016.39 171.408 1016.46 172.016C1024.23 171.696 1033.71 170.832 1039.5 169.136L1037.71 167.184ZM1015.91 176.208V178.512H1040.87V176.208H1015.91ZM1013.77 183.728V186.064H1042.67V183.728H1013.77ZM1026.99 170.576V193.2C1026.99 193.872 1026.73 194.096 1025.99 194.096C1025.29 194.128 1022.73 194.16 1020.07 194.064C1020.46 194.704 1020.91 195.792 1021.07 196.464C1024.46 196.496 1026.54 196.432 1027.75 196.048C1028.97 195.664 1029.48 194.928 1029.48 193.232V170.576H1026.99ZM1046.54 169.488C1048.78 170.192 1051.75 171.344 1053.26 172.176L1054.31 170.32C1052.78 169.52 1049.8 168.432 1047.59 167.856L1046.54 169.488ZM1044.94 176.24L1045.87 178.352C1048.3 177.616 1051.31 176.624 1054.22 175.696L1053.96 173.808C1050.63 174.736 1047.24 175.696 1044.94 176.24ZM1058.67 169.488L1057.26 171.312H1071.53V169.488H1058.67ZM1070.89 169.488V169.84C1070.25 171.184 1069.16 172.784 1068.14 173.776L1070.06 174.448C1071.21 173.328 1072.39 171.536 1073.29 169.872L1071.69 169.392L1071.27 169.488H1070.89ZM1062.63 170.128C1062.09 173.776 1060.36 175.76 1054.44 176.752C1054.86 177.168 1055.37 177.968 1055.59 178.48C1062.12 177.168 1064.17 174.672 1064.84 170.128H1062.63ZM1064.75 170.704L1062.79 170.896C1063.63 174.256 1065.23 177.712 1072.81 179.024C1073.07 178.416 1073.61 177.552 1074.06 177.072C1066.95 176.048 1065.39 173.424 1064.75 170.704ZM1059.18 167.12C1058.35 169.04 1056.71 171.248 1054.31 172.88C1054.89 173.136 1055.72 173.648 1056.14 174.096C1058.63 172.176 1060.27 169.808 1061.35 167.472L1059.18 167.12ZM1051.56 183.856H1067.69V186.032H1051.56V183.856ZM1051.56 187.6H1067.69V189.84H1051.56V187.6ZM1051.56 180.112H1067.69V182.288H1051.56V180.112ZM1049.23 178.512V191.44H1070.09V178.512H1049.23ZM1062.12 193.072C1065.61 194.224 1069.1 195.6 1071.11 196.656L1073.77 195.44C1071.47 194.352 1067.59 192.944 1064.07 191.856L1062.12 193.072ZM1054.6 191.792C1052.3 193.04 1048.46 194.16 1045.16 194.864C1045.71 195.28 1046.54 196.208 1046.92 196.688C1050.12 195.792 1054.19 194.32 1056.78 192.784L1054.6 191.792ZM1088.27 168.752V171.056H1100.97V168.752H1088.27ZM1087.95 179.664V181.936H1098.67V179.664H1087.95ZM1092.3 170.064V177.808C1092.3 183.44 1091.82 189.904 1086.7 194.992C1087.27 195.344 1088.11 196.144 1088.49 196.656C1094.03 191.152 1094.6 184.08 1094.6 177.808V170.064H1092.3ZM1099.75 168.752C1099.79 183.536 1099.47 195.248 1103.24 196.432C1104.87 197.072 1105.93 195.952 1106.31 190.64C1105.93 190.32 1105.26 189.52 1104.81 188.944C1104.71 191.632 1104.46 194 1104.2 193.936C1101.96 193.424 1102.06 182.384 1102.22 168.752H1099.75ZM1077.45 176.816V178.736H1086.83V176.816H1077.45ZM1077.55 168.272V170.192H1086.7V168.272H1077.55ZM1077.45 181.104V183.024H1086.83V181.104H1077.45ZM1075.95 172.464V174.448H1087.88V172.464H1075.95ZM1078.51 185.424V187.408H1084.71V192.752H1078.51V194.768H1086.83V185.424H1078.51ZM1077.42 185.424V196.24H1079.5V185.424H1077.42ZM1120.94 186.288H1123.02L1123.66 173.872L1123.75 170.064H1120.2L1120.3 173.872L1120.94 186.288ZM1121.99 194.16C1123.11 194.16 1124.04 193.36 1124.04 192.08C1124.04 190.8 1123.11 189.936 1121.99 189.936C1120.84 189.936 1119.91 190.8 1119.91 192.08C1119.91 193.36 1120.84 194.16 1121.99 194.16Z" fill="black"/>
</svg>
