<svg xmlns="http://www.w3.org/2000/svg" xmlns:xlink="http://www.w3.org/1999/xlink" viewBox="0 0 512 512"><defs><style>.cls-1{fill:none;}.cls-2,.cls-4{fill:#005752;}.cls-3{clip-path:url(#clip-path);}.cls-4{stroke:#005752;stroke-miterlimit:10;stroke-width:2px;}</style><clipPath id="clip-path"><path class="cls-1" d="M256,106.12A149.88,149.88,0,1,0,405.88,256,149.88,149.88,0,0,0,256,106.12ZM256,378A122,122,0,1,1,378,256,122,122,0,0,1,256,378Z"/></clipPath></defs><g id="正面訊息"><path class="cls-2" d="M207.54,179.6h6.64a.37.37,0,0,1,.37.37v51.47a.38.38,0,0,1-.37.38h-6.64a.37.37,0,0,1-.37-.37V180A.38.38,0,0,1,207.54,179.6Z"/><path class="cls-2" d="M214.18,180v51.47h-6.64V180h6.64m0-.75h-6.64a.75.75,0,0,0-.75.75v51.47a.76.76,0,0,0,.75.75h6.64a.75.75,0,0,0,.75-.75V180a.74.74,0,0,0-.75-.75Z"/><path class="cls-2" d="M236.34,232.58c-4.83,0-10.44-1.4-13.35-3.34a.37.37,0,0,1-.15-.42l1.68-5.57a.39.39,0,0,1,.23-.24.31.31,0,0,1,.13,0,.36.36,0,0,1,.2.06,23.27,23.27,0,0,0,11.71,3.3c6.41,0,10.4-3.22,10.4-8.41,0-4.55-2.57-7.23-9.46-9.88-9.44-3.35-13.83-8.1-13.83-14.94,0-8.44,7-14.34,17-14.34,6.12,0,9.87,1.61,11.56,2.57a.36.36,0,0,1,.17.44l-1.83,5.42a.39.39,0,0,1-.22.23.35.35,0,0,1-.14,0,.41.41,0,0,1-.18-.05,20,20,0,0,0-9.59-2.4c-6.44,0-9.32,3.69-9.32,7.34,0,4.32,2.43,6.65,10,9.58,9.5,3.67,13.37,8.15,13.37,15.47C254.73,224.4,249.91,232.58,236.34,232.58Z"/><path class="cls-2" d="M240.92,179.14a23.4,23.4,0,0,1,11.38,2.52l-1.84,5.42a20.44,20.44,0,0,0-9.77-2.44c-7,0-9.7,4.2-9.7,7.71,0,4.82,3.13,7.17,10.23,9.93,8.71,3.36,13.14,7.55,13.14,15.12,0,7.94-5.88,14.81-18,14.81-5,0-10.39-1.45-13.14-3.28l1.68-5.57a23.57,23.57,0,0,0,11.91,3.36c6.8,0,10.77-3.59,10.77-8.79,0-4.81-2.75-7.56-9.7-10.23-8.4-3-13.59-7.33-13.59-14.59,0-8,6.64-14,16.65-14m0-.75c-10.25,0-17.4,6.06-17.4,14.72,0,7,4.48,11.89,14.09,15.3,6.79,2.61,9.2,5.1,9.2,9.52,0,5-3.84,8-10,8a23,23,0,0,1-11.52-3.25.68.68,0,0,0-.39-.11.65.65,0,0,0-.27,0,.77.77,0,0,0-.45.48l-1.68,5.57a.76.76,0,0,0,.3.84c3,2,8.59,3.41,13.56,3.41,13.85,0,18.77-8.38,18.77-15.56,0-7.4-4.07-12.13-13.62-15.82-7.38-2.86-9.75-5.11-9.75-9.23,0-3.47,2.77-7,8.95-7a19.61,19.61,0,0,1,9.41,2.35.77.77,0,0,0,.36.09.62.62,0,0,0,.27-.05.74.74,0,0,0,.44-.46L253,181.9a.76.76,0,0,0-.34-.89c-1.73-1-5.54-2.62-11.75-2.62Z"/><path class="cls-2" d="M283.54,232.66c-13.85,0-23.51-10.89-23.51-26.48,0-16.14,10-27.41,24.27-27.41,14.07,0,23.51,10.61,23.51,26.41,0,8.47-2.46,15.54-7.12,20.45A23.29,23.29,0,0,1,283.54,232.66Zm.45-47.72c-11.13,0-16.12,10.59-16.12,21.08,0,10.17,5.52,20.47,16.05,20.47,8,0,16.12-6.5,16.12-21C300,191.37,291.72,184.94,284,184.94Z"/><path class="cls-2" d="M284.3,179.14c14.05,0,23.14,10.77,23.14,26,0,17.71-10.77,27.11-23.9,27.11-13.6,0-23.14-10.54-23.14-26.11,0-16.35,10.16-27,23.9-27m-.38,47.73c10.54,0,16.5-9.7,16.5-21.39,0-10.23-5.35-20.91-16.43-20.91S267.5,194.72,267.5,206c0,11,6,20.85,16.42,20.85m.38-48.48c-14.51,0-24.65,11.43-24.65,27.79,0,15.81,9.82,26.86,23.89,26.86A23.67,23.67,0,0,0,301,225.89c4.73-5,7.23-12.14,7.23-20.71,0-16-9.6-26.79-23.89-26.79Zm-.38,47.73c-7.55,0-15.67-6.29-15.67-20.1,0-10.31,4.87-20.7,15.74-20.7,7.55,0,15.68,6.31,15.68,20.16,0,14.26-7.91,20.64-15.75,20.64Z"/><path class="cls-2" d="M202.27,281.54h-.9a.38.38,0,0,1-.36-.38v-4.23a.36.36,0,0,1,.12-.27.35.35,0,0,1,.25-.1h0c.3,0,.61,0,.94,0,.9,0,2-.1,3.16-.22a14,14,0,0,0,7.77-3.6,16,16,0,0,0,4.75-8.9,11.63,11.63,0,0,1-8.61,3.49c-6.75,0-11.65-5.07-11.65-12.06,0-8,5.77-13.94,13.41-13.94,7.9,0,13,6.46,13,16.47,0,9.68-3.64,15.23-6.7,18.18a19.52,19.52,0,0,1-11.32,5.22A25.19,25.19,0,0,1,202.27,281.54Zm8.51-35.5c-4.2,0-7.14,3.66-7.14,8.91,0,4.62,2.8,7.73,7,7.73a8.15,8.15,0,0,0,7.19-3.81,3,3,0,0,0,.42-1.69C218.22,253.83,217.5,246,210.78,246Z"/><path class="cls-2" d="M211.19,241.73c7.82,0,12.63,6.35,12.63,16.1,0,8.4-2.82,14.27-6.58,17.91a19,19,0,0,1-11.1,5.11,25.19,25.19,0,0,1-3.87.32l-.89,0v-4.23c.31,0,.64.05,1,.05.89,0,1.92-.1,3.19-.23a14.41,14.41,0,0,0,8-3.7,16.81,16.81,0,0,0,5-10.16h-.18a11.23,11.23,0,0,1-9,4.11c-6.87,0-11.28-5.17-11.28-11.69,0-7.22,5.23-13.57,13-13.57m-.58,21.33a8.53,8.53,0,0,0,7.51-4,3.36,3.36,0,0,0,.48-1.88c0-6.52-2.41-11.52-7.82-11.52-4.4,0-7.52,3.89-7.52,9.29,0,4.76,2.88,8.11,7.35,8.11m.58-22.08c-7.73,0-13.79,6.29-13.79,14.32,0,7.21,5.06,12.44,12,12.44a12.11,12.11,0,0,0,8-2.76,15,15,0,0,1-4.35,7.5,13.58,13.58,0,0,1-7.59,3.52c-1.16.12-2.21.22-3.09.22a8.4,8.4,0,0,1-.9,0h-.08a.74.74,0,0,0-.5.2.73.73,0,0,0-.25.55v4.23a.76.76,0,0,0,.72.75l.92,0a25.25,25.25,0,0,0,4-.33,19.83,19.83,0,0,0,11.51-5.32c3.1-3,6.8-8.63,6.8-18.44,0-10.23-5.25-16.85-13.38-16.85Zm-.58,21.33c-4,0-6.6-3-6.6-7.36,0-5,2.79-8.54,6.77-8.54,6.38,0,7.07,7.53,7.07,10.77a2.68,2.68,0,0,1-.36,1.48,7.79,7.79,0,0,1-6.88,3.65Z"/><path class="cls-2" d="M240.62,281.58c-7.91,0-12.89-7.66-13-20s5.23-20.23,13.65-20.23c8.26,0,13,7.18,13,19.69C254.27,274.1,249.3,281.58,240.62,281.58Zm.35-35.47c-4.58,0-7.43,5.95-7.43,15.54,0,9.36,2.82,15.18,7.38,15.18,4.79,0,7.43-5.52,7.43-15.54C248.35,255.62,247.4,246.11,241,246.11Z"/><path class="cls-2" d="M241.27,241.73c8,0,12.63,7.17,12.63,19.32,0,13-4.82,20.16-13.28,20.16-7.46,0-12.51-7-12.63-19.62,0-12.81,5.53-19.86,13.28-19.86m-.35,35.48c5.28,0,7.81-6.17,7.81-15.92,0-9.4-2.41-15.56-7.76-15.56-4.52,0-7.81,5.52-7.81,15.92,0,9.92,3.06,15.56,7.76,15.56m.35-36.23c-8.65,0-14,7.9-14,20.61S232.49,282,240.62,282c8.91,0,14-7.62,14-20.91,0-12.75-4.88-20.07-13.38-20.07Zm-.35,35.48c-4.32,0-7-5.68-7-14.81,0-9.36,2.71-15.17,7.06-15.17,6.1,0,7,9.28,7,14.81s-.92,15.17-7.06,15.17Z"/><path class="cls-2" d="M270.75,281.58c-7.9,0-12.89-7.66-13-20s5.23-20.23,13.65-20.23c8.26,0,13,7.18,13,19.69C284.4,274.1,279.43,281.58,270.75,281.58Zm.35-35.47c-4.58,0-7.43,5.95-7.43,15.54,0,9.36,2.83,15.18,7.38,15.18,4.8,0,7.44-5.52,7.44-15.54C278.49,255.62,277.53,246.11,271.1,246.11Z"/><path class="cls-2" d="M271.4,241.73c8.05,0,12.63,7.17,12.63,19.32,0,13-4.82,20.16-13.28,20.16-7.46,0-12.51-7-12.63-19.62,0-12.81,5.53-19.86,13.28-19.86m-.35,35.48c5.28,0,7.81-6.17,7.81-15.92,0-9.4-2.41-15.56-7.76-15.56-4.52,0-7.81,5.52-7.81,15.92,0,9.92,3.06,15.56,7.76,15.56M271.4,241c-8.65,0-14,7.9-14,20.61S262.62,282,270.75,282c8.92,0,14-7.62,14-20.91,0-12.75-4.88-20.07-13.38-20.07Zm-.35,35.48c-4.32,0-7-5.68-7-14.81,0-9.36,2.71-15.17,7.06-15.17,6.1,0,7,9.28,7,14.81s-.92,15.17-7.06,15.17Z"/><path class="cls-2" d="M300,280.93a.38.38,0,0,1-.38-.37V247.75l-6.2,3.36a.39.39,0,0,1-.18,0l-.15,0a.37.37,0,0,1-.21-.25l-1-3.93a.36.36,0,0,1,.18-.42l8.35-4.47a.33.33,0,0,1,.17,0H305a.38.38,0,0,1,.37.37v38.18a.38.38,0,0,1-.37.37Z"/><path class="cls-2" d="M305,242.38v38.18h-5V247.19h-.12l-6.64,3.59-1-3.93,8.34-4.47H305m0-.75h-4.41a.73.73,0,0,0-.35.09l-8.35,4.47a.75.75,0,0,0-.37.84l1,3.93a.78.78,0,0,0,.43.51.8.8,0,0,0,.3.06.77.77,0,0,0,.36-.09l5.65-3.06v32.18a.75.75,0,0,0,.75.75h5a.76.76,0,0,0,.75-.75V242.38a.76.76,0,0,0-.75-.75Z"/><path class="cls-2" d="M212.92,316.93c-5.19,0-8.55-3.43-8.55-8.75a8.65,8.65,0,0,1,9-9.07,9,9,0,0,1,4.11.78.38.38,0,0,1,.18.44l-.51,1.74a.39.39,0,0,1-.21.24l-.15,0a.35.35,0,0,1-.17,0,7.28,7.28,0,0,0-3.17-.65c-3.81,0-6.09,2.42-6.09,6.45s2.24,6.28,6,6.28a8.25,8.25,0,0,0,3.32-.64.32.32,0,0,1,.16,0,.41.41,0,0,1,.16,0,.4.4,0,0,1,.21.25l.44,1.7a.38.38,0,0,1-.19.43A11.06,11.06,0,0,1,212.92,316.93Z"/><path class="cls-2" d="M213.39,299.48a8.78,8.78,0,0,1,3.93.74l-.51,1.74a7.74,7.74,0,0,0-3.34-.68c-3.88,0-6.46,2.47-6.46,6.82,0,4.06,2.33,6.66,6.36,6.66a8.48,8.48,0,0,0,3.48-.69l.45,1.7a10.68,10.68,0,0,1-4.38.79c-4.66,0-8.18-2.95-8.18-8.38,0-5.18,3.52-8.7,8.65-8.7m0-.75a9,9,0,0,0-9.4,9.45c0,5.55,3.51,9.13,8.93,9.13a11.38,11.38,0,0,0,4.71-.87.74.74,0,0,0,.39-.86l-.44-1.7a.8.8,0,0,0-.41-.49.88.88,0,0,0-.32-.07.8.8,0,0,0-.33.08,7.78,7.78,0,0,1-3.15.61c-3.52,0-5.61-2.21-5.61-5.91s2.13-6.07,5.71-6.07a7,7,0,0,1,3,.61.75.75,0,0,0,.33.07.8.8,0,0,0,.3-.06.75.75,0,0,0,.42-.48l.51-1.74a.74.74,0,0,0-.37-.87,9.28,9.28,0,0,0-4.28-.83Z"/><path class="cls-2" d="M220,316.68a.38.38,0,0,1-.38-.37V299.75a.38.38,0,0,1,.38-.37h8.94a.38.38,0,0,1,.38.37v1.79a.38.38,0,0,1-.38.38h-6.43v4.49h6.06a.37.37,0,0,1,.38.37v1.77a.38.38,0,0,1-.38.37h-6.06v5.22h6.8a.38.38,0,0,1,.37.38v1.79a.38.38,0,0,1-.37.37Z"/><path class="cls-2" d="M228.94,299.75v1.79h-6.8v5.24h6.43v1.77h-6.43v6h7.17v1.79H220V299.75h8.94m0-.75H220a.75.75,0,0,0-.75.75v16.56a.75.75,0,0,0,.75.75h9.31a.76.76,0,0,0,.75-.75v-1.79a.75.75,0,0,0-.75-.75h-6.42V309.3h5.68a.75.75,0,0,0,.75-.75v-1.77a.75.75,0,0,0-.75-.75h-5.68v-3.74h6.05a.74.74,0,0,0,.75-.75v-1.79a.75.75,0,0,0-.75-.75Z"/><path class="cls-2" d="M240.68,316.68a.37.37,0,0,1-.32-.18,19.55,19.55,0,0,1-1.15-4.06c-.46-2.13-1.21-2.86-3-2.92h-1.63v6.79a.38.38,0,0,1-.38.37h-2.13a.38.38,0,0,1-.38-.37V300a.38.38,0,0,1,.31-.37,22.8,22.8,0,0,1,4.17-.35c2.38,0,3.93.45,5,1.45a4.52,4.52,0,0,1,1.42,3.43,4.62,4.62,0,0,1-2.65,4.28,5,5,0,0,1,2,3.27,27.11,27.11,0,0,0,1.24,4.45.38.38,0,0,1,0,.37.37.37,0,0,1-.32.18Zm-4.25-9.54c2.07,0,3.36-1.07,3.36-2.77,0-2.22-1.87-2.7-3.43-2.72a10.88,10.88,0,0,0-1.74.12v5.37Z"/><path class="cls-2" d="M236.21,299.63c2.28,0,3.76.42,4.79,1.35a4.1,4.1,0,0,1,1.3,3.15,4.33,4.33,0,0,1-3.12,4.22v.07c1.28.45,2,1.62,2.44,3.34a27.05,27.05,0,0,0,1.27,4.55h-2.21a21.34,21.34,0,0,1-1.1-4c-.5-2.28-1.38-3.14-3.32-3.21h-2v7.17h-2.13V300a22.3,22.3,0,0,1,4.1-.34m-2,7.88h2.19c2.29,0,3.73-1.25,3.73-3.14,0-2.13-1.54-3.07-3.8-3.09a8.93,8.93,0,0,0-2.12.19v6m2-8.63a23.82,23.82,0,0,0-4.25.35.75.75,0,0,0-.6.74v16.34a.75.75,0,0,0,.75.75h2.13a.75.75,0,0,0,.75-.75v-6.42h1.27c1.37.05,2.11.45,2.58,2.62a19.17,19.17,0,0,0,1.19,4.17.78.78,0,0,0,.65.38h2.21a.76.76,0,0,0,.66-1.11,29.28,29.28,0,0,1-1.2-4.36,5.79,5.79,0,0,0-1.65-3.13,5,5,0,0,0,2.35-4.33,4.86,4.86,0,0,0-1.56-3.71c-1.17-1.06-2.8-1.54-5.28-1.54ZM235,302.1a11.56,11.56,0,0,1,1.37-.07c3,0,3,1.77,3,2.34,0,1.47-1.14,2.39-3,2.39H235V302.1Z"/><path class="cls-2" d="M248.71,316.68a.38.38,0,0,1-.38-.37V301.94h-4.66a.38.38,0,0,1-.37-.38v-1.81a.38.38,0,0,1,.37-.37h12.26a.38.38,0,0,1,.38.37v1.81a.38.38,0,0,1-.38.38h-4.69v14.37a.38.38,0,0,1-.37.37Z"/><path class="cls-2" d="M255.93,299.75v1.81h-5.06v14.75h-2.16V301.56h-5v-1.81h12.26m0-.75H243.67a.76.76,0,0,0-.75.75v1.81a.75.75,0,0,0,.75.75H248v14a.75.75,0,0,0,.75.75h2.16a.76.76,0,0,0,.75-.75v-14h4.31a.75.75,0,0,0,.75-.75v-1.81a.76.76,0,0,0-.75-.75Z"/><rect class="cls-2" x="257.42" y="299.38" width="2.89" height="17.3" rx="0.38"/><path class="cls-2" d="M259.93,299.75v16.56h-2.14V299.75h2.14m0-.75h-2.14a.76.76,0,0,0-.75.75v16.56a.76.76,0,0,0,.75.75h2.14a.76.76,0,0,0,.75-.75V299.75a.76.76,0,0,0-.75-.75Z"/><path class="cls-2" d="M263.68,316.68a.38.38,0,0,1-.38-.37V299.75a.38.38,0,0,1,.38-.37h8.91a.38.38,0,0,1,.38.37v1.79a.38.38,0,0,1-.38.38h-6.4v4.75h5.89a.37.37,0,0,1,.37.37v1.78a.37.37,0,0,1-.37.38h-5.89v7.11a.38.38,0,0,1-.38.37Z"/><path class="cls-2" d="M272.59,299.75v1.79h-6.78V307h6.27v1.78h-6.27v7.49h-2.13V299.75h8.91m0-.75h-8.91a.75.75,0,0,0-.75.75v16.56a.75.75,0,0,0,.75.75h2.13a.75.75,0,0,0,.75-.75v-6.74h5.52a.75.75,0,0,0,.75-.75V307a.76.76,0,0,0-.75-.75h-5.52v-4h6a.74.74,0,0,0,.75-.75v-1.79a.75.75,0,0,0-.75-.75Z"/><rect class="cls-2" x="275.28" y="299.38" width="2.89" height="17.3" rx="0.38"/><path class="cls-2" d="M277.79,299.75v16.56h-2.13V299.75h2.13m0-.75h-2.13a.75.75,0,0,0-.75.75v16.56a.75.75,0,0,0,.75.75h2.13a.75.75,0,0,0,.75-.75V299.75a.75.75,0,0,0-.75-.75Z"/><path class="cls-2" d="M281.54,316.68a.38.38,0,0,1-.38-.37V299.75a.38.38,0,0,1,.38-.37h8.94a.38.38,0,0,1,.38.37v1.79a.38.38,0,0,1-.38.38h-6.43v4.49h6.06a.37.37,0,0,1,.38.37v1.77a.38.38,0,0,1-.38.37h-6.06v5.22h6.8a.38.38,0,0,1,.37.38v1.79a.38.38,0,0,1-.37.37Z"/><path class="cls-2" d="M290.48,299.75v1.79h-6.8v5.24h6.43v1.77h-6.43v6h7.17v1.79h-9.31V299.75h8.94m0-.75h-8.94a.76.76,0,0,0-.75.75v16.56a.76.76,0,0,0,.75.75h9.31a.76.76,0,0,0,.75-.75v-1.79a.75.75,0,0,0-.75-.75h-6.42V309.3h5.68a.75.75,0,0,0,.75-.75v-1.77a.75.75,0,0,0-.75-.75h-5.68v-3.74h6.05a.74.74,0,0,0,.75-.75v-1.79a.75.75,0,0,0-.75-.75Z"/><path class="cls-2" d="M297.52,316.83a34.53,34.53,0,0,1-3.92-.2.37.37,0,0,1-.33-.37V300a.37.37,0,0,1,.32-.37,31.28,31.28,0,0,1,4.6-.35c3.11,0,5.39.71,7,2.16a8.08,8.08,0,0,1,2.45,6.23,9.12,9.12,0,0,1-2.5,6.7C303.48,316,300.86,316.83,297.52,316.83Zm-1.37-2.54a17.51,17.51,0,0,0,1.79.07c4.3,0,6.68-2.36,6.68-6.64a5.92,5.92,0,0,0-1.53-4.38,6.51,6.51,0,0,0-4.8-1.64,14.8,14.8,0,0,0-2.14.15Z"/><path class="cls-2" d="M298.19,299.63c3.07,0,5.25.72,6.7,2.06a7.63,7.63,0,0,1,2.34,5.95,8.73,8.73,0,0,1-2.39,6.43c-1.54,1.55-4.1,2.38-7.32,2.38a33,33,0,0,1-3.88-.19V300a31.56,31.56,0,0,1,4.55-.34m-.25,15.1c4.57,0,7.05-2.55,7.05-7,0-3.91-2.19-6.39-6.7-6.39a13.28,13.28,0,0,0-2.51.21v13.07a13.35,13.35,0,0,0,2.16.12m.25-15.85a32.09,32.09,0,0,0-4.66.35.75.75,0,0,0-.64.74v16.29a.76.76,0,0,0,.67.75,35.36,35.36,0,0,0,4,.19c3.44,0,6.16-.9,7.85-2.6a9.48,9.48,0,0,0,2.61-7,8.43,8.43,0,0,0-2.58-6.5c-1.64-1.52-4-2.26-7.21-2.26Zm-1.66,3.3a13.38,13.38,0,0,1,1.76-.1,6.19,6.19,0,0,1,4.54,1.52,5.56,5.56,0,0,1,1.41,4.11c0,4.11-2.18,6.27-6.3,6.27-.44,0-1,0-1.41,0V302.18Z"/><path class="cls-2" d="M188.7,286.86H323.3a.37.37,0,0,1,.37.37v3.33a.37.37,0,0,1-.37.37H188.7a.38.38,0,0,1-.37-.37v-3.33a.37.37,0,0,1,.37-.37Z"/><path class="cls-2" d="M323.3,287.24v3.32H188.7v-3.32H323.3m0-.75H188.7a.75.75,0,0,0-.75.75v3.32a.75.75,0,0,0,.75.75H323.3a.74.74,0,0,0,.75-.75v-3.32a.74.74,0,0,0-.75-.75Z"/><circle class="cls-2" cx="162.79" cy="256" r="10.06"/><circle class="cls-2" cx="349.21" cy="256" r="10.06"/><path class="cls-2" d="M256.81,340.85l2.14,4.33a.89.89,0,0,0,.68.49l4.78.7a.9.9,0,0,1,.5,1.54l-3.45,3.38a.85.85,0,0,0-.26.8l.81,4.76a.9.9,0,0,1-1.31.95l-4.28-2.24a.89.89,0,0,0-.84,0l-4.28,2.24a.9.9,0,0,1-1.31-.95l.81-4.76a.87.87,0,0,0-.26-.8l-3.46-3.38a.9.9,0,0,1,.51-1.54l4.78-.7a.89.89,0,0,0,.68-.49l2.14-4.33A.9.9,0,0,1,256.81,340.85Z"/><path class="cls-2" d="M278.51,338.1l3.1,3.7a.92.92,0,0,0,.78.32l4.81-.46a.9.9,0,0,1,.85,1.38l-2.56,4.1a.89.89,0,0,0-.06.84l1.92,4.43a.91.91,0,0,1-1.05,1.24l-4.69-1.17a.91.91,0,0,0-.82.2l-3.62,3.2a.91.91,0,0,1-1.5-.62l-.34-4.82a.89.89,0,0,0-.44-.72l-4.16-2.45a.91.91,0,0,1,.12-1.62l4.48-1.81a.91.91,0,0,0,.55-.64l1.05-4.72A.9.9,0,0,1,278.51,338.1Z"/><path class="cls-2" d="M298.93,330.28l3.89,2.86a.9.9,0,0,0,.84.12l4.56-1.58a.91.91,0,0,1,1.16,1.14l-1.52,4.59a.92.92,0,0,0,.14.83l2.92,3.85a.91.91,0,0,1-.73,1.45l-4.83,0a.92.92,0,0,0-.75.39l-2.76,4a.91.91,0,0,1-1.61-.24L298.78,343a.94.94,0,0,0-.61-.59l-4.62-1.4a.9.9,0,0,1-.26-1.6l3.92-2.82a.91.91,0,0,0,.38-.75l-.1-4.83A.9.9,0,0,1,298.93,330.28Z"/><path class="cls-2" d="M233.49,338.1l-3.1,3.7a.92.92,0,0,1-.78.32l-4.81-.46A.9.9,0,0,0,224,343l2.56,4.1a.92.92,0,0,1,.06.84l-1.92,4.43a.91.91,0,0,0,1,1.24l4.68-1.17a.9.9,0,0,1,.82.2l3.62,3.2a.91.91,0,0,0,1.51-.62l.33-4.82a.9.9,0,0,1,.45-.72l4.16-2.45a.91.91,0,0,0-.12-1.62l-4.48-1.81a.91.91,0,0,1-.55-.64l-1.05-4.72A.9.9,0,0,0,233.49,338.1Z"/><path class="cls-2" d="M213.07,330.28l-3.89,2.86a.9.9,0,0,1-.84.12l-4.56-1.58a.91.91,0,0,0-1.16,1.14l1.52,4.59a.92.92,0,0,1-.14.83l-2.92,3.85a.91.91,0,0,0,.73,1.45l4.83,0a.92.92,0,0,1,.75.39l2.76,4a.91.91,0,0,0,1.61-.24l1.46-4.61a.93.93,0,0,1,.6-.59l4.63-1.4a.9.9,0,0,0,.26-1.6l-3.92-2.82a.91.91,0,0,1-.38-.75l.1-4.83A.9.9,0,0,0,213.07,330.28Z"/><g class="cls-3"><rect class="cls-4" x="255.05" y="88.84" width="1.9" height="167.16"/><rect class="cls-4" x="179.52" y="171.77" width="167.16" height="1.9" transform="translate(68.56 420.13) rotate(-85.11)"/><rect class="cls-4" x="186.57" y="172.68" width="167.16" height="1.9" transform="translate(53.21 410.41) rotate(-80.23)"/><rect class="cls-4" x="193.52" y="174.18" width="167.16" height="1.9" transform="translate(37.74 399.09) rotate(-75.39)"/><rect class="cls-4" x="200.32" y="176.26" width="167.16" height="1.9" transform="translate(22.04 385.63) rotate(-70.49)"/><rect class="cls-4" x="206.91" y="178.92" width="167.16" height="1.9" transform="translate(6.84 370.35) rotate(-65.65)"/><rect class="cls-4" x="213.25" y="182.12" width="167.15" height="1.9" transform="translate(-7.89 352.7) rotate(-60.77)"/><rect class="cls-4" x="219.3" y="185.86" width="167.15" height="1.9" transform="translate(-21.7 332.68) rotate(-55.87)"/><rect class="cls-4" x="225.01" y="190.09" width="167.15" height="1.9" transform="translate(-34.06 310.69) rotate(-51.01)"/><rect class="cls-4" x="230.34" y="194.79" width="167.16" height="1.9" transform="translate(-44.81 286.16) rotate(-46.09)"/><rect class="cls-4" x="235.25" y="199.93" width="167.16" height="1.9" transform="translate(-53.33 260.06) rotate(-41.25)"/><rect class="cls-4" x="239.71" y="205.47" width="167.16" height="1.9" transform="translate(-59.43 231.95) rotate(-36.37)"/><rect class="cls-4" x="243.68" y="211.37" width="167.15" height="1.9" transform="translate(-62.71 202.39) rotate(-31.52)"/><rect class="cls-4" x="247.13" y="217.58" width="167.15" height="1.9" transform="translate(-62.91 171.76) rotate(-26.68)"/><rect class="cls-4" x="250.04" y="224.06" width="167.15" height="1.9" transform="translate(-59.59 139.45) rotate(-21.72)"/><rect class="cls-4" x="252.4" y="230.77" width="167.15" height="1.9" transform="translate(-52.9 107.82) rotate(-16.92)"/><rect class="cls-4" x="254.17" y="237.65" width="167.16" height="1.9" transform="translate(-42.29 75.59) rotate(-12.02)"/><rect class="cls-4" x="255.35" y="244.66" width="167.15" height="1.9" transform="translate(-27.81 43.87) rotate(-7.11)"/><rect class="cls-4" x="255.93" y="251.74" width="167.15" height="1.9" transform="translate(-9.7 13.59) rotate(-2.26)"/><rect class="cls-4" x="338.54" y="176.23" width="1.9" height="167.15" transform="translate(64.51 587.12) rotate(-87.39)"/><rect class="cls-4" x="337.91" y="183.31" width="1.9" height="167.16" transform="translate(30.13 568.11) rotate(-82.52)"/><rect class="cls-4" x="336.69" y="190.31" width="1.9" height="167.15" transform="translate(-2.15 545.1) rotate(-77.64)"/><rect class="cls-4" x="334.88" y="197.18" width="1.9" height="167.16" transform="translate(-31.81 518.35) rotate(-72.77)"/><rect class="cls-4" x="332.48" y="203.87" width="1.9" height="167.15" transform="translate(-58.36 488.21) rotate(-67.9)"/><rect class="cls-4" x="329.53" y="210.34" width="1.9" height="167.15" transform="translate(-81.37 455.1) rotate(-63.02)"/><rect class="cls-4" x="326.04" y="216.53" width="1.9" height="167.16" transform="translate(-100.49 419.48) rotate(-58.15)"/><rect class="cls-4" x="322.04" y="222.4" width="1.9" height="167.16" transform="translate(-115.4 381.88) rotate(-53.27)"/><rect class="cls-4" x="317.55" y="227.91" width="1.9" height="167.16" transform="translate(-125.89 342.85) rotate(-48.4)"/><rect class="cls-4" x="312.61" y="233.02" width="1.9" height="167.16" transform="translate(-131.83 302.98) rotate(-43.53)"/><rect class="cls-4" x="307.25" y="237.69" width="1.9" height="167.16" transform="translate(-133.15 262.86) rotate(-38.65)"/><rect class="cls-4" x="301.51" y="241.89" width="1.9" height="167.16" transform="translate(-129.89 223.09) rotate(-33.78)"/><rect class="cls-4" x="295.44" y="245.59" width="1.9" height="167.15" transform="translate(-122.18 184.25) rotate(-28.9)"/><rect class="cls-4" x="289.08" y="248.76" width="1.9" height="167.16" transform="translate(-110.19 146.9) rotate(-24.03)"/><rect class="cls-4" x="282.47" y="251.37" width="1.9" height="167.16" transform="matrix(0.94, -0.33, 0.33, 0.94, -94.21, 111.54)"/><rect class="cls-4" x="275.66" y="253.42" width="1.9" height="167.16" transform="translate(-74.58 78.65) rotate(-14.28)"/><rect class="cls-4" x="268.71" y="254.88" width="1.9" height="167.16" transform="translate(-51.69 48.62) rotate(-9.41)"/><rect class="cls-4" x="261.65" y="255.74" width="1.9" height="167.16" transform="translate(-25.99 21.81) rotate(-4.53)"/><rect class="cls-4" x="171.92" y="338.62" width="167.16" height="1.9" transform="translate(-85.69 592.92) rotate(-89.64)"/><rect class="cls-4" x="164.82" y="338.28" width="167.16" height="1.9" transform="translate(-111.97 555.82) rotate(-84.79)"/><rect class="cls-4" x="157.78" y="337.33" width="167.16" height="1.9" transform="translate(-133.99 516.63) rotate(-79.91)"/><rect class="cls-4" x="150.84" y="335.79" width="167.16" height="1.9" transform="matrix(0.26, -0.97, 0.97, 0.26, -151.42, 476.31)"/><rect class="cls-4" x="144.06" y="333.67" width="167.16" height="1.9" transform="translate(-164.37 435.21) rotate(-70.16)"/><rect class="cls-4" x="137.48" y="330.97" width="167.16" height="1.9" transform="translate(-172.85 394.2) rotate(-65.32)"/><rect class="cls-4" x="131.16" y="327.73" width="167.16" height="1.9" transform="translate(-177.12 353.01) rotate(-60.4)"/><rect class="cls-4" x="125.13" y="323.96" width="167.16" height="1.9" transform="translate(-177.28 313.14) rotate(-55.54)"/><rect class="cls-4" x="119.45" y="319.69" width="167.16" height="1.9" transform="translate(-173.68 274.56) rotate(-50.68)"/><rect class="cls-4" x="114.14" y="314.96" width="167.16" height="1.9" transform="translate(-166.6 237.4) rotate(-45.8)"/><rect class="cls-4" x="109.27" y="309.79" width="167.16" height="1.9" transform="translate(-156.48 202.48) rotate(-40.96)"/><rect class="cls-4" x="104.84" y="304.22" width="167.16" height="1.9" transform="translate(-143.6 169.54) rotate(-36.09)"/><rect class="cls-4" x="100.91" y="298.31" width="167.16" height="1.9" transform="translate(-128.19 138.57) rotate(-31.15)"/><rect class="cls-4" x="97.49" y="292.07" width="167.16" height="1.9" transform="translate(-111.2 110.73) rotate(-26.33)"/><rect class="cls-4" x="94.62" y="285.57" width="167.16" height="1.9" transform="translate(-92.26 84.78) rotate(-21.4)"/><rect class="cls-4" x="92.3" y="278.85" width="167.16" height="1.9" transform="translate(-72.58 61.88) rotate(-16.59)"/><rect class="cls-4" x="90.57" y="271.96" width="167.16" height="1.9" transform="matrix(0.98, -0.2, 0.2, 0.98, -51.78, 41.04)"/><rect class="cls-4" x="89.43" y="264.94" width="167.16" height="1.9" transform="translate(-30.29 22.38) rotate(-6.81)"/><rect class="cls-4" x="88.89" y="257.85" width="167.16" height="1.9" transform="translate(-8.73 6.03) rotate(-1.95)"/><rect class="cls-4" x="171.58" y="168.12" width="1.9" height="167.16" transform="translate(-87.71 411.05) rotate(-87.05)"/><rect class="cls-4" x="172.25" y="161.04" width="1.9" height="167.16" transform="translate(-92.72 382.91) rotate(-82.18)"/><rect class="cls-4" x="173.51" y="154.05" width="1.9" height="167.16" transform="translate(-95.7 355.59) rotate(-77.3)"/><rect class="cls-4" x="175.37" y="147.19" width="1.9" height="167.16" transform="translate(-96.91 329.19) rotate(-72.43)"/><rect class="cls-4" x="177.8" y="140.51" width="1.9" height="167.16" transform="translate(-96.61 303.74) rotate(-67.55)"/><rect class="cls-4" x="180.79" y="134.06" width="1.9" height="167.16" transform="translate(-95.03 279.23) rotate(-62.68)"/><rect class="cls-4" x="184.32" y="127.89" width="1.9" height="167.16" transform="translate(-92.4 255.59) rotate(-57.81)"/><rect class="cls-4" x="188.36" y="122.04" width="1.9" height="167.16" transform="translate(-88.87 232.73) rotate(-52.93)"/><rect class="cls-4" x="192.88" y="116.56" width="1.9" height="167.16" transform="translate(-84.59 210.55) rotate(-48.06)"/><rect class="cls-4" x="197.85" y="111.48" width="1.9" height="167.16" transform="translate(-79.64 188.88) rotate(-43.18)"/><rect class="cls-4" x="203.24" y="106.84" width="1.9" height="167.16" transform="translate(-74.07 167.58) rotate(-38.31)"/><rect class="cls-4" x="209" y="102.68" width="1.9" height="167.16" transform="translate(-67.88 146.5) rotate(-33.44)"/><rect class="cls-4" x="215.09" y="99.01" width="1.9" height="167.16" transform="translate(-61.01 125.51) rotate(-28.56)"/><rect class="cls-4" x="221.47" y="95.88" width="1.9" height="167.16" transform="translate(-53.36 104.48) rotate(-23.69)"/><rect class="cls-4" x="228.1" y="93.31" width="1.9" height="167.16" transform="matrix(0.95, -0.32, 0.32, 0.95, -44.81, 83.31)"/><rect class="cls-4" x="234.92" y="91.31" width="1.9" height="167.16" transform="translate(-35.18 61.97) rotate(-13.94)"/><rect class="cls-4" x="241.88" y="89.89" width="1.9" height="167.16" transform="translate(-24.3 40.42) rotate(-9.06)"/><rect class="cls-4" x="248.94" y="89.07" width="1.9" height="167.16" transform="translate(-11.95 18.72) rotate(-4.19)"/></g><path class="cls-4" d="M256,407.78c-83.69,0-151.78-68.09-151.78-151.78S172.31,104.22,256,104.22,407.78,172.31,407.78,256,339.69,407.78,256,407.78ZM256,108c-81.59,0-148,66.39-148,148s66.39,148,148,148,148-66.39,148-148S337.59,108,256,108ZM256,380A124,124,0,1,1,380,256,124.1,124.1,0,0,1,256,380Zm0-244.09A120.14,120.14,0,1,0,376.14,256,120.27,120.27,0,0,0,256,135.86Z"/></g></svg>