<?xml version="1.0" encoding="UTF-8"?><svg id="Layer_1" xmlns="http://www.w3.org/2000/svg" xmlns:xlink="http://www.w3.org/1999/xlink" viewBox="0 0 50 50"><defs><style>.cls-1{fill:none;}.cls-2{clip-path:url(#clippath);}.cls-3{fill:#005752;}</style><clipPath id="clippath"><path class="cls-1" d="M25.23,.86C11.87,.86,1.05,11.68,1.05,25.04s10.82,24.17,24.17,24.17,24.17-10.82,24.17-24.17h0C49.4,11.68,38.58,.86,25.23,.86Zm0,43.85c-10.87,0-19.68-8.81-19.68-19.68S14.36,5.36,25.23,5.36s19.68,8.81,19.68,19.68-8.81,19.68-19.68,19.68Z"/></clipPath></defs><g id="_正面訊息"><path class="cls-3" d="M17.41,12.71h1.07s.06,.03,.06,.06v8.3s-.03,.06-.06,.06h-1.07s-.06-.03-.06-.06V12.78s.02-.06,.06-.06c0,0,0,0,0,0h0Z"/><path class="cls-3" d="M18.48,12.78v8.3h-1.07V12.78h1.07m0-.12h-1.07c-.07,0-.12,.05-.12,.12v8.3c0,.07,.05,.12,.12,.12h1.07c.07,0,.12-.05,.12-.12V12.78c0-.07-.05-.12-.12-.12h0Z"/><path class="cls-3" d="M22.05,21.26c-.78,0-1.68-.23-2.15-.54-.02-.01-.03-.04-.02-.07l.27-.9s.02-.03,.04-.04h.02s.02,0,.03,0c.57,.34,1.22,.53,1.89,.53,1.03,0,1.68-.52,1.68-1.36,0-.73-.41-1.17-1.53-1.59-1.52-.54-2.23-1.31-2.23-2.41,0-1.36,1.13-2.31,2.74-2.31,.99,0,1.59,.26,1.86,.41,.03,.01,.04,.04,.03,.07l-.3,.87s-.02,.03-.04,.04h-.02s-.02,0-.03,0c-.48-.26-1.01-.39-1.55-.39-1.04,0-1.5,.6-1.5,1.18,0,.7,.39,1.07,1.61,1.55,1.53,.59,2.16,1.31,2.16,2.5,0,1.13-.78,2.45-2.96,2.45Z"/><path class="cls-3" d="M22.79,12.64c.64-.02,1.27,.12,1.84,.41l-.3,.87c-.48-.26-1.03-.4-1.58-.39-1.13,0-1.56,.68-1.56,1.24,0,.78,.5,1.16,1.65,1.6,1.4,.54,2.12,1.22,2.12,2.44,0,1.28-.95,2.39-2.9,2.39-.81,0-1.68-.23-2.12-.53l.27-.9c.58,.35,1.24,.54,1.92,.54,1.1,0,1.74-.58,1.74-1.42,0-.78-.44-1.22-1.56-1.65-1.35-.48-2.19-1.18-2.19-2.35,0-1.29,1.07-2.26,2.69-2.26m0-.12c-1.65,0-2.81,.98-2.81,2.37,0,1.13,.72,1.92,2.27,2.47,1.1,.42,1.48,.82,1.48,1.54,0,.81-.62,1.29-1.61,1.29-.65,0-1.3-.19-1.86-.52-.02-.01-.04-.02-.06-.02-.01,0-.03,0-.04,0-.03,.01-.06,.04-.07,.08l-.27,.9c-.01,.05,0,.11,.05,.14,.48,.32,1.39,.55,2.19,.55,2.23,0,3.03-1.35,3.03-2.51s-.66-1.96-2.2-2.55c-1.19-.46-1.57-.82-1.57-1.49,0-.56,.45-1.13,1.44-1.13,.53,0,1.05,.13,1.52,.38,.02,0,.04,.01,.06,.01,.01,0,.03,0,.04,0,.03-.01,.06-.04,.07-.07l.29-.86c.02-.05,0-.11-.05-.14-.28-.16-.89-.42-1.9-.42h0Z"/><path class="cls-3" d="M29.67,21.27c-2.23,0-3.79-1.76-3.79-4.27s1.61-4.42,3.91-4.42,3.79,1.71,3.79,4.26c0,1.37-.4,2.51-1.15,3.3-.73,.74-1.73,1.16-2.77,1.13Zm.07-7.7c-1.8,0-2.6,1.71-2.6,3.4s.89,3.3,2.59,3.3c1.29,0,2.6-1.05,2.6-3.39s-1.34-3.31-2.58-3.31h0Z"/><path class="cls-3" d="M29.79,12.64c2.27,0,3.73,1.74,3.73,4.19,0,2.86-1.74,4.37-3.85,4.37s-3.73-1.7-3.73-4.21c0-2.64,1.64-4.35,3.85-4.35m-.06,7.7c1.7,0,2.66-1.56,2.66-3.45,0-1.65-.86-3.37-2.65-3.37s-2.66,1.64-2.66,3.46,.97,3.36,2.65,3.36m.06-7.82c-2.34,0-3.98,1.84-3.98,4.48s1.58,4.33,3.85,4.33c1.06,.02,2.08-.39,2.82-1.15,.76-.81,1.17-1.96,1.17-3.34,0-2.58-1.55-4.32-3.85-4.32h0Zm-.06,7.7c-1.22,0-2.53-1.01-2.53-3.24,0-1.66,.79-3.34,2.54-3.34,1.22,0,2.53,1.02,2.53,3.25s-1.28,3.33-2.54,3.33h0Z"/><path class="cls-3" d="M16.56,29.15h-.15s-.06-.03-.06-.06v-.68s0-.03,.02-.04c.01-.01,.03-.02,.04-.02h.15c.15,0,.32-.02,.51-.04,.47-.06,.91-.26,1.25-.58,.4-.38,.67-.89,.77-1.44-.36,.37-.87,.58-1.39,.56-1.09,0-1.88-.82-1.88-1.95,0-1.29,.93-2.25,2.16-2.25s2.1,1.04,2.1,2.66-.59,2.46-1.08,2.93c-.5,.47-1.14,.77-1.83,.84-.21,.03-.41,.05-.62,.05Zm1.37-5.73c-.68,0-1.15,.59-1.15,1.44,0,.75,.45,1.25,1.13,1.25,.47,.02,.91-.22,1.16-.61,.05-.08,.07-.18,.07-.27,0-.54-.12-1.8-1.2-1.8h0Z"/><path class="cls-3" d="M18,22.73c1.26,0,2.04,1.02,2.04,2.6,0,1.35-.45,2.3-1.06,2.89-.49,.46-1.12,.75-1.79,.82-.21,.03-.42,.05-.62,.05h-.14v-.68c.05,0,.1,0,.16,0,.14,0,.31-.02,.51-.04,.48-.06,.93-.27,1.29-.6,.45-.44,.73-1.02,.81-1.64h-.03c-.36,.43-.89,.68-1.45,.66-1.11,0-1.82-.83-1.82-1.89,0-1.16,.84-2.19,2.1-2.19m-.09,3.44c.49,.02,.95-.23,1.21-.65,.05-.09,.08-.2,.08-.3,0-1.05-.39-1.86-1.26-1.86-.71,0-1.21,.63-1.21,1.5,0,.77,.46,1.31,1.19,1.31m.09-3.56c-1.25,0-2.22,1.01-2.22,2.31,0,1.16,.82,2.01,1.94,2.01,.47,.01,.93-.15,1.29-.45-.11,.46-.35,.88-.7,1.21-.34,.31-.77,.51-1.22,.57-.19,.02-.36,.04-.5,.04-.05,0-.1,0-.15,0h-.01s-.06,.01-.08,.03c-.03,.02-.04,.05-.04,.09v.68c0,.06,.05,.12,.12,.12h.15c.22,0,.43-.02,.65-.05,.7-.07,1.35-.38,1.86-.86,.5-.48,1.1-1.39,1.1-2.97s-.85-2.72-2.16-2.72h0Zm-.09,3.44c-.65,0-1.06-.48-1.06-1.19,0-.81,.45-1.38,1.09-1.38,1.03,0,1.14,1.21,1.14,1.74,0,.08-.02,.17-.06,.24-.24,.38-.66,.6-1.11,.59h0Z"/><path class="cls-3" d="M22.74,29.16c-1.28,0-2.08-1.24-2.1-3.23s.84-3.26,2.2-3.26,2.1,1.16,2.1,3.18c0,2.11-.8,3.31-2.2,3.31Zm.06-5.72c-.74,0-1.2,.96-1.2,2.51s.45,2.45,1.19,2.45c.77,0,1.2-.89,1.2-2.51,0-.91-.15-2.45-1.19-2.45h0Z"/><path class="cls-3" d="M22.85,22.73c1.29,0,2.04,1.16,2.04,3.12,0,2.1-.78,3.25-2.14,3.25-1.2,0-2.02-1.13-2.04-3.16,0-2.07,.89-3.2,2.14-3.2m-.06,5.72c.85,0,1.26-1,1.26-2.57s-.39-2.51-1.25-2.51c-.73,0-1.26,.89-1.26,2.57s.49,2.51,1.25,2.51m.06-5.84c-1.4,0-2.26,1.27-2.26,3.32s.84,3.29,2.15,3.29c1.44,0,2.26-1.23,2.26-3.37s-.79-3.24-2.16-3.24h0Zm-.06,5.72c-.7,0-1.13-.92-1.13-2.39s.44-2.45,1.14-2.45c.98,0,1.13,1.5,1.13,2.39s-.15,2.45-1.14,2.45h0Z"/><path class="cls-3" d="M27.6,29.16c-1.27,0-2.08-1.24-2.1-3.23s.84-3.26,2.2-3.26,2.1,1.16,2.1,3.18-.8,3.31-2.2,3.31Zm.06-5.72c-.74,0-1.2,.96-1.2,2.51s.46,2.45,1.19,2.45c.77,0,1.2-.89,1.2-2.51,0-.91-.16-2.45-1.19-2.45Z"/><path class="cls-3" d="M27.71,22.73c1.3,0,2.04,1.16,2.04,3.12,0,2.1-.78,3.25-2.14,3.25-1.2,0-2.02-1.13-2.04-3.16,0-2.07,.89-3.2,2.14-3.2m-.06,5.72c.85,0,1.26-1,1.26-2.57s-.39-2.51-1.25-2.51c-.73,0-1.26,.89-1.26,2.57s.49,2.51,1.25,2.51m.06-5.84c-1.4,0-2.26,1.27-2.26,3.32s.84,3.29,2.15,3.29c1.44,0,2.26-1.23,2.26-3.37s-.79-3.24-2.16-3.24h0Zm-.06,5.72c-.7,0-1.13-.92-1.13-2.39s.44-2.45,1.14-2.45c.98,0,1.13,1.5,1.13,2.39s-.15,2.45-1.14,2.45h0Z"/><path class="cls-3" d="M32.32,29.06s-.06-.03-.06-.06v-5.29l-1,.54h-.05s-.03-.02-.03-.04l-.16-.63s0-.05,.03-.07l1.35-.72h.74s.06,.03,.06,.06v6.16s-.03,.06-.06,.06h-.81Z"/><path class="cls-3" d="M33.13,22.84v6.16h-.81v-5.38h-.02l-1.07,.58-.16-.63,1.35-.72h.71m0-.12h-.71s-.04,0-.06,.01l-1.35,.72s-.07,.08-.06,.14l.16,.63s.04,.07,.07,.08c.02,0,.03,0,.05,0,.02,0,.04,0,.06-.01l.91-.49v5.19c0,.07,.05,.12,.12,.12h.81c.07,0,.12-.05,.12-.12v-6.16c0-.07-.05-.12-.12-.12h0Z"/><path class="cls-3" d="M18.28,34.86c-.84,0-1.38-.55-1.38-1.41-.04-.77,.55-1.42,1.32-1.46,0,0,0,0,0,0h.13c.23-.01,.45,.03,.66,.13,.03,.01,.04,.04,.03,.07l-.08,.28s-.02,.03-.03,.04h-.05c-.16-.07-.34-.11-.51-.1-.61,0-.98,.39-.98,1.04s.36,1.01,.97,1.01c.18,0,.37-.03,.54-.1h.05s.03,.02,.03,.04l.07,.27s0,.06-.03,.07c-.23,.09-.48,.14-.73,.13Z"/><path class="cls-3" d="M18.35,32.05c.22,0,.43,.03,.63,.12l-.08,.28c-.17-.08-.35-.11-.54-.11-.63,0-1.04,.4-1.04,1.1,0,.65,.38,1.07,1.03,1.07,.19,0,.38-.04,.56-.11l.07,.27c-.22,.09-.46,.14-.71,.13-.75,0-1.32-.48-1.32-1.35s.57-1.4,1.4-1.4m0-.12c-.8-.04-1.48,.58-1.52,1.38,0,.05,0,.09,0,.14,0,.9,.57,1.47,1.44,1.47,.26,0,.52-.04,.76-.14,.05-.03,.08-.08,.06-.14l-.07-.27s-.03-.06-.07-.08c-.02,0-.03-.01-.05-.01-.02,0-.04,0-.05,.01-.16,.07-.33,.1-.51,.1-.57,0-.9-.36-.9-.95s.34-.98,.92-.98c.17,0,.33,.03,.48,.1,.02,0,.03,.01,.05,.01,.02,0,.03,0,.05,0,.03-.01,.06-.04,.07-.08l.08-.28c.02-.06,0-.11-.06-.14-.22-.1-.45-.14-.69-.13h0Z"/><path class="cls-3" d="M19.42,34.82s-.06-.03-.06-.06v-2.67s.03-.06,.06-.06h1.44s.06,.03,.06,.06v.29s-.03,.06-.06,.06h-1.04v.72h.98s.06,.03,.06,.06h0v.29s-.03,.06-.06,.06h-.98v.84h1.1s.06,.03,.06,.06v.29s-.03,.06-.06,.06h-1.5Z"/><path class="cls-3" d="M20.86,32.09v.29h-1.1v.85h1.04v.29h-1.04v.97h1.16v.29h-1.5v-2.68h1.44m0-.12h-1.44c-.07,0-.12,.05-.12,.12v2.67c0,.07,.05,.12,.12,.12h1.5c.07,0,.12-.05,.12-.12v-.29c0-.07-.05-.12-.12-.12h-1.04v-.72h.92c.07,0,.12-.05,.12-.12v-.29c0-.07-.05-.12-.12-.12h-.92v-.6h.98c.07,0,.12-.05,.12-.12h0v-.29c0-.07-.05-.12-.12-.12Z"/><path class="cls-3" d="M22.75,34.82s-.04-.01-.05-.03c-.08-.21-.15-.43-.19-.65-.07-.34-.2-.46-.48-.47h-.26v1.1s-.03,.06-.06,.06h-.34s-.06-.03-.06-.06v-2.63s.02-.05,.05-.06c.22-.04,.45-.06,.67-.06,.38,0,.63,.07,.81,.23,.15,.14,.24,.34,.23,.55,0,.29-.16,.56-.43,.69,.17,.13,.29,.32,.32,.53,.05,.24,.11,.48,.2,.72,0,.02,0,.04,0,.06-.01,.02-.03,.03-.05,.03h-.35Zm-.69-1.54c.33,0,.54-.17,.54-.45,0-.36-.3-.44-.55-.44-.09,0-.19,0-.28,.02v.87h.29Z"/><path class="cls-3" d="M22.03,32.07c.37,0,.61,.07,.77,.22,.14,.13,.22,.32,.21,.51,0,.31-.2,.59-.5,.68h0c.21,.08,.32,.27,.39,.55,.05,.25,.12,.5,.2,.73h-.36c-.08-.21-.14-.42-.18-.65-.08-.37-.22-.51-.54-.52h-.32v1.16h-.34v-2.62c.22-.04,.44-.06,.66-.05m-.32,1.27h.35c.37,0,.6-.2,.6-.51,0-.34-.25-.5-.61-.5-.11,0-.23,0-.34,.03v.97m.32-1.39c-.23,0-.46,.02-.69,.06-.06,.01-.1,.06-.1,.12v2.64c0,.07,.05,.12,.12,.12h.34c.07,0,.12-.05,.12-.12v-1.04h.2c.22,0,.34,.07,.42,.42,.04,.23,.1,.46,.19,.67,.02,.04,.06,.06,.1,.06h.36c.07,0,.12-.06,.12-.12,0-.02,0-.04-.01-.05-.08-.23-.15-.46-.19-.7-.03-.19-.13-.37-.27-.5,.24-.15,.38-.42,.38-.7,0-.23-.09-.44-.25-.6-.19-.17-.45-.25-.85-.25h0Zm-.2,.52c.07,0,.15-.01,.22-.01,.48,0,.48,.29,.48,.38,0,.24-.18,.39-.48,.39h-.22v-.75Z"/><path class="cls-3" d="M24.05,34.82s-.06-.03-.06-.06v-2.32h-.75s-.06-.03-.06-.06v-.29s.03-.06,.06-.06h1.98s.06,.03,.06,.06v.29s-.03,.06-.06,.06h-.76v2.32s-.03,.06-.06,.06h-.35Z"/><path class="cls-3" d="M25.21,32.09v.29h-.82v2.38h-.35v-2.38h-.81v-.29h1.98m0-.12h-1.98c-.07,0-.12,.05-.12,.12v.29c0,.07,.05,.12,.12,.12h.69v2.26c0,.07,.05,.12,.12,.12h.35c.07,0,.12-.05,.12-.12v-2.26h.7c.07,0,.12-.05,.12-.12v-.29c0-.07-.05-.12-.12-.12Z"/><rect class="cls-3" x="25.45" y="32.03" width=".47" height="2.79" rx=".06" ry=".06"/><path class="cls-3" d="M25.86,32.09v2.67h-.35v-2.67h.35m0-.12h-.35c-.07,0-.12,.05-.12,.12v2.67c0,.07,.05,.12,.12,.12h.35c.07,0,.12-.05,.12-.12v-2.67c0-.07-.05-.12-.12-.12Z"/><path class="cls-3" d="M26.46,34.82s-.06-.03-.06-.06v-2.67s.03-.06,.06-.06h1.44s.06,.03,.06,.06v.29s-.03,.06-.06,.06h-1.03v.77h.95s.06,.03,.06,.06v.29s-.03,.06-.06,.06h-.95v1.15s-.03,.06-.06,.06h-.34Z"/><path class="cls-3" d="M27.9,32.09v.29h-1.09v.88h1.01v.29h-1.01v1.21h-.34v-2.66h1.44m0-.12h-1.44c-.07,0-.12,.05-.12,.12v2.67c0,.07,.05,.12,.12,.12h.34c.07,0,.12-.05,.12-.12v-1.09h.89c.07,0,.12-.05,.12-.12v-.29c0-.07-.05-.12-.12-.12h-.89v-.65h.97c.07,0,.12-.05,.12-.12h0v-.29c0-.07-.05-.12-.12-.12h0Z"/><rect class="cls-3" x="28.34" y="32.03" width=".47" height="2.79" rx=".06" ry=".06"/><path class="cls-3" d="M28.74,32.09v2.67h-.34v-2.67h.34m0-.12h-.34c-.07,0-.12,.05-.12,.12v2.67c0,.07,.05,.12,.12,.12h.34c.07,0,.12-.05,.12-.12v-2.67c0-.07-.05-.12-.12-.12Z"/><path class="cls-3" d="M29.34,34.82s-.06-.03-.06-.06v-2.67s.03-.06,.06-.06h1.44s.06,.03,.06,.06v.29s-.03,.06-.06,.06h-1.04v.72h.98s.06,.03,.06,.06h0v.29s-.03,.06-.06,.06h-.98v.84h1.1s.06,.03,.06,.06v.29s-.03,.06-.06,.06h-1.5Z"/><path class="cls-3" d="M30.79,32.09v.29h-1.1v.85h1.04v.29h-1.04v.97h1.16v.29h-1.5v-2.68h1.44m0-.12h-1.44c-.07,0-.12,.05-.12,.12v2.67c0,.07,.05,.12,.12,.12h1.5c.07,0,.12-.05,.12-.12v-.29c0-.07-.05-.12-.12-.12h-1.04v-.72h.92c.07,0,.12-.05,.12-.12v-.29c0-.07-.05-.12-.12-.12h-.92v-.6h.98c.07,0,.12-.05,.12-.12h0v-.29c0-.07-.05-.12-.12-.12h0Z"/><path class="cls-3" d="M31.92,34.85c-.21,0-.42,0-.63-.03-.03,0-.05-.03-.05-.06v-2.62s.02-.05,.05-.06c.25-.04,.49-.06,.74-.06,.5,0,.87,.11,1.13,.35,.27,.26,.41,.63,.4,1,.02,.4-.13,.79-.4,1.08-.27,.26-.69,.4-1.23,.4Zm-.22-.41c.1,0,.19,.01,.29,.01,.69,0,1.08-.38,1.08-1.07,.02-.26-.07-.51-.25-.71-.21-.19-.49-.28-.77-.26-.12,0-.23,0-.35,.02v2.01Z"/><path class="cls-3" d="M32.03,32.07c.5,0,.85,.12,1.08,.33,.26,.25,.4,.6,.38,.96,.02,.38-.12,.76-.39,1.04-.25,.25-.66,.38-1.18,.38-.21,0-.42,0-.63-.03v-2.62c.24-.04,.49-.05,.73-.05m-.04,2.44c.74,0,1.14-.41,1.14-1.13,0-.63-.35-1.03-1.08-1.03-.14,0-.27,0-.4,.03v2.11c.12,.02,.23,.02,.35,.02m.04-2.56c-.25,0-.5,.02-.75,.06-.06,0-.1,.06-.1,.12v2.63c0,.06,.05,.11,.11,.12,.21,.02,.43,.03,.65,.03,.55,0,.99-.15,1.27-.42,.29-.3,.44-.71,.42-1.13,.02-.39-.13-.78-.42-1.05-.26-.25-.65-.36-1.16-.36h0Zm-.27,.54c.09-.01,.19-.02,.28-.02,.27-.02,.53,.07,.73,.25,.16,.18,.25,.42,.23,.66,0,.66-.35,1.01-1.02,1.01h-.23v-1.9h0Z"/><path class="cls-3" d="M14.37,30.01h21.71s.06,.03,.06,.06v.54s-.03,.06-.06,.06H14.37s-.06-.03-.06-.06v-.54s.03-.06,.06-.06Z"/><path class="cls-3" d="M36.08,30.07v.54H14.37v-.54h21.71m0-.12H14.37c-.07,0-.12,.05-.12,.12v.54c0,.07,.05,.12,.12,.12h21.71c.07,0,.12-.05,.12-.12h0v-.54c0-.07-.05-.12-.12-.12h0Z"/><circle class="cls-3" cx="10.19" cy="25.04" r="1.62"/><circle class="cls-3" cx="40.26" cy="25.04" r="1.62"/><path class="cls-3" d="M25.36,38.72l.35,.7s.06,.07,.11,.08l.77,.11c.08,.01,.13,.08,.12,.16,0,.03-.02,.06-.04,.08l-.56,.55s-.05,.08-.04,.13l.13,.77c.01,.08-.04,.15-.12,.17-.03,0-.06,0-.09-.01l-.69-.36s-.09-.02-.14,0l-.69,.36c-.07,.04-.16,.01-.2-.06-.01-.03-.02-.06-.01-.09l.13-.77s0-.1-.04-.13l-.56-.55c-.06-.06-.06-.15,0-.2,0,0,0,0,0,0,.02-.02,.05-.04,.09-.04l.77-.11s.09-.04,.11-.08l.35-.7c.03-.07,.12-.1,.19-.07,.03,.02,.05,.04,.06,.07Z"/><path class="cls-3" d="M28.86,38.28l.5,.6s.08,.06,.13,.05l.78-.07c.08,0,.15,.05,.16,.13,0,.03,0,.07-.02,.09l-.41,.66s-.03,.09,0,.14l.31,.71c.03,.07,0,.16-.08,.19,0,0,0,0,0,0-.03,.01-.06,.01-.09,0l-.76-.19s-.1,0-.13,.03l-.58,.52c-.06,.05-.15,.05-.21-.02-.02-.02-.03-.05-.03-.08l-.05-.78s-.03-.09-.07-.12l-.67-.4c-.07-.04-.09-.13-.05-.2,0,0,0,0,0,0,.02-.03,.04-.05,.07-.06l.72-.29s.08-.06,.09-.1l.17-.76c.02-.08,.09-.13,.17-.11,.03,0,.06,.02,.08,.05h0Z"/><path class="cls-3" d="M32.15,37.02l.63,.46s.09,.04,.14,.02l.74-.25c.08-.03,.16,.01,.19,.09,.01,.03,.01,.06,0,.09l-.25,.74s0,.1,.02,.13l.47,.62c.05,.07,.03,.16-.03,.2-.03,.02-.06,.03-.09,.03h-.78s-.09,.02-.12,.06l-.45,.65c-.05,.07-.14,.08-.2,.04,0,0,0,0,0,0-.03-.02-.05-.04-.05-.07l-.24-.76s-.05-.08-.1-.1l-.75-.23c-.08-.02-.12-.1-.1-.18,0,0,0,0,0,0,0-.03,.03-.06,.06-.08l.63-.45s.06-.07,.06-.12l-.02-.78c0-.08,.06-.15,.14-.15h0s.06,0,.09,.03Z"/><path class="cls-3" d="M21.59,38.28l-.5,.6s-.08,.06-.13,.05l-.78-.07c-.08,0-.14,.06-.15,.14,0,0,0,0,0,0,0,.03,0,.05,.02,.07l.41,.66s.03,.09,0,.14l-.31,.71c-.03,.07,0,.16,.08,.19,0,0,0,0,0,0,.03,0,.05,.01,.08,0l.75-.19s.1,0,.13,.03l.58,.52c.06,.05,.15,.05,.2-.01,0,0,0,0,0,0,.02-.02,.04-.05,.04-.09l.05-.78s.03-.09,.07-.12l.67-.4c.07-.04,.09-.13,.05-.2,0,0,0,0,0,0-.02-.03-.04-.05-.07-.06l-.72-.29s-.08-.06-.09-.1l-.17-.76c-.02-.08-.1-.13-.18-.11-.03,0-.06,.03-.08,.05h0Z"/><path class="cls-3" d="M18.3,37.02l-.63,.46s-.09,.04-.14,.02l-.74-.25c-.08-.03-.16,.01-.19,.09-.01,.03-.01,.06,0,.09l.25,.74s0,.1-.02,.13l-.47,.62c-.05,.07-.03,.16,.03,.2,.03,.02,.06,.03,.09,.03h.78s.09,.02,.12,.06l.45,.65c.05,.07,.14,.08,.2,.04,0,0,0,0,0,0,.03-.02,.05-.04,.05-.07l.24-.74s.05-.08,.1-.1l.75-.23c.08-.02,.12-.1,.1-.18,0,0,0,0,0,0,0-.03-.03-.06-.06-.08l-.63-.45s-.06-.07-.06-.12l.02-.78c0-.08-.05-.15-.13-.16-.04,0-.07,0-.1,.03h0Z"/><g class="cls-2"><g><rect class="cls-3" x="25.07" y="-1.93" width=".31" height="26.96"/><rect class="cls-3" x="24.91" y="-2.09" width=".63" height="27.28"/><rect class="cls-3" x="12.89" y="11.45" width="26.96" height=".31" transform="translate(12.56 36.88) rotate(-85.11)"/><polygon class="cls-3" points="25.52 25.22 24.89 25.17 24.9 25.01 27.22 -2.02 27.84 -1.96 27.83 -1.8 25.52 25.22"/><rect class="cls-3" x="14.03" y="11.6" width="26.96" height=".31" transform="translate(11.26 36.87) rotate(-80.23)"/><rect class="cls-3" x="13.87" y="11.44" width="27.28" height=".63" transform="translate(11.26 36.87) rotate(-80.23)"/><rect class="cls-3" x="15.09" y="11.67" width="27.01" height=".31" transform="translate(10.01 36.56) rotate(-75.55)"/><polygon class="cls-3" points="25.49 25.27 24.88 25.11 24.92 24.96 31.77 -1.29 32.37 -1.13 32.33 -.97 25.49 25.27"/><rect class="cls-3" x="16.24" y="12.17" width="26.96" height=".31" transform="translate(8.18 36.23) rotate(-70.49)"/><rect class="cls-3" x="16.08" y="12.01" width="27.28" height=".63" transform="translate(8.18 36.23) rotate(-70.49)"/><rect class="cls-3" x="17.31" y="12.6" width="26.96" height=".31" transform="translate(6.47 35.54) rotate(-65.65)"/><rect class="cls-3" x="17.14" y="12.44" width="27.28" height=".63" transform="translate(6.47 35.54) rotate(-65.64)"/><rect class="cls-3" x="18.33" y="13.12" width="26.96" height=".31" transform="translate(4.69 34.55) rotate(-60.77)"/><rect class="cls-3" x="18.17" y="12.96" width="27.28" height=".63" transform="translate(4.69 34.55) rotate(-60.76)"/><rect class="cls-3" x="19.3" y="13.72" width="26.96" height=".31" transform="translate(2.91 33.23) rotate(-55.87)"/><polygon class="cls-3" points="25.39 25.34 24.87 24.99 40.18 2.4 40.7 2.76 40.61 2.89 25.39 25.34"/><rect class="cls-3" x="20.23" y="14.4" width="26.96" height=".31" transform="translate(1.18 31.6) rotate(-51.01)"/><rect class="cls-3" x="20.06" y="14.24" width="27.28" height=".63" transform="translate(1.19 31.6) rotate(-51.02)"/><rect class="cls-3" x="21.09" y="15.16" width="26.96" height=".31" transform="translate(-.44 29.6) rotate(-46.09)"/><polygon class="cls-3" points="25.33 25.36 24.88 24.93 24.99 24.81 43.8 5.27 44.25 5.71 25.33 25.36"/><rect class="cls-3" x="21.88" y="15.99" width="26.96" height=".31" transform="translate(-1.87 27.32) rotate(-41.25)"/><rect class="cls-3" x="21.72" y="15.83" width="27.28" height=".63" transform="translate(-1.87 27.32) rotate(-41.25)"/><rect class="cls-3" x="22.6" y="16.89" width="26.96" height=".31" transform="translate(-3.08 24.71) rotate(-36.37)"/><rect class="cls-3" x="22.44" y="16.73" width="27.28" height=".63" transform="translate(-3.08 24.71) rotate(-36.36)"/><rect class="cls-3" x="23.24" y="17.83" width="26.96" height=".31" transform="translate(-3.98 21.85) rotate(-31.52)"/><polygon class="cls-3" points="25.25 25.39 24.93 24.85 25.06 24.77 48.18 10.59 48.51 11.12 25.25 25.39"/><rect class="cls-3" x="23.79" y="18.84" width="26.96" height=".31" transform="translate(-4.56 18.76) rotate(-26.68)"/><rect class="cls-3" x="23.63" y="18.67" width="27.28" height=".63" transform="translate(-4.56 18.77) rotate(-26.69)"/><rect class="cls-3" x="24.26" y="19.89" width="26.96" height=".31" transform="translate(-4.74 15.39) rotate(-21.72)"/><rect class="cls-3" x="24.1" y="19.73" width="27.28" height=".63" transform="translate(-4.74 15.39) rotate(-21.72)"/><rect class="cls-3" x="24.75" y="21.15" width="27.04" height=".31" transform="translate(-4.52 11.98) rotate(-16.81)"/><rect class="cls-3" x="24.48" y="20.81" width="27.28" height=".63" transform="translate(-4.5 12.02) rotate(-16.93)"/><rect class="cls-3" x="24.93" y="22.08" width="26.96" height=".31" transform="translate(-3.79 8.49) rotate(-12.02)"/><polygon class="cls-3" points="25.13 25.38 25 24.77 51.69 19.08 51.82 19.7 51.66 19.73 25.13 25.38"/><rect class="cls-3" x="25.12" y="23.21" width="26.96" height=".31" transform="translate(-2.6 4.96) rotate(-7.11)"/><rect class="cls-3" x="24.96" y="23.05" width="27.28" height=".63" transform="translate(-2.59 4.95) rotate(-7.1)"/><rect class="cls-3" x="25.21" y="24.35" width="26.96" height=".31" transform="translate(-.94 1.54) rotate(-2.26)"/><polygon class="cls-3" points="25.08 25.35 25.05 24.73 25.21 24.72 52.31 23.65 52.34 24.28 52.18 24.29 25.08 25.35"/><rect class="cls-3" x="38.54" y="12.17" width=".31" height="26.96" transform="translate(11.31 63.14) rotate(-87.39)"/><polygon class="cls-3" points="52.31 26.59 52.15 26.58 25.05 25.34 25.08 24.71 52.34 25.96 52.31 26.59"/><rect class="cls-3" x="38.44" y="13.31" width=".31" height="26.96" transform="translate(7.01 61.56) rotate(-82.52)"/><polygon class="cls-3" points="52.08 28.88 51.92 28.86 25.02 25.33 25.1 24.7 25.27 24.72 52.16 28.25 52.08 28.88"/><rect class="cls-3" x="38.24" y="14.44" width=".31" height="26.96" transform="translate(2.9 59.45) rotate(-77.64)"/><polygon class="cls-3" points="51.65 31.15 51.5 31.12 25 25.31 25.14 24.7 51.79 30.54 51.65 31.15"/><rect class="cls-3" x="37.95" y="15.55" width=".31" height="26.96" transform="translate(-.91 56.82) rotate(-72.77)"/><rect class="cls-3" x="37.79" y="15.39" width=".63" height="27.28" transform="translate(-.91 56.82) rotate(-72.77)"/><rect class="cls-3" x="37.56" y="16.62" width=".31" height="26.96" transform="translate(-4.37 53.72) rotate(-67.9)"/><polygon class="cls-3" points="50.23 35.53 24.95 25.26 25.19 24.68 25.34 24.74 50.47 34.94 50.23 35.53"/><rect class="cls-3" x="37.09" y="17.67" width=".31" height="26.96" transform="translate(-7.42 50.21) rotate(-63.02)"/><polygon class="cls-3" points="49.25 37.62 49.11 37.55 24.94 25.24 25.23 24.68 49.54 37.06 49.25 37.62"/><rect class="cls-3" x="36.52" y="18.67" width=".31" height="26.96" transform="translate(-9.99 46.34) rotate(-58.15)"/><polygon class="cls-3" points="48.1 39.61 47.96 39.53 24.92 25.22 25.25 24.68 48.43 39.08 48.1 39.61"/><rect class="cls-3" x="35.88" y="19.62" width=".31" height="26.96" transform="translate(-12.05 42.18) rotate(-53.27)"/><polygon class="cls-3" points="46.78 41.51 24.91 25.19 25.29 24.69 25.41 24.79 47.15 41.01 46.78 41.51"/><rect class="cls-3" x="35.15" y="20.5" width=".31" height="26.96" transform="translate(-13.55 37.82) rotate(-48.4)"/><polygon class="cls-3" points="45.3 43.28 45.18 43.17 24.9 25.16 25.31 24.69 45.72 42.81 45.3 43.28"/><rect class="cls-3" x="34.36" y="21.32" width=".31" height="26.96" transform="translate(-14.48 33.34) rotate(-43.53)"/><polygon class="cls-3" points="43.68 44.91 43.57 44.79 24.89 25.13 25.34 24.7 25.45 24.81 44.13 44.48 43.68 44.91"/><rect class="cls-3" x="33.49" y="22.08" width=".31" height="26.96" transform="translate(-14.84 28.8) rotate(-38.65)"/><polygon class="cls-3" points="41.92 46.41 41.82 46.29 24.88 25.11 25.37 24.71 42.41 46.02 41.92 46.41"/><rect class="cls-3" x="32.57" y="22.75" width=".31" height="26.96" transform="translate(-14.62 24.31) rotate(-33.78)"/><rect class="cls-3" x="32.41" y="22.59" width=".63" height="27.28" transform="translate(-14.62 24.31) rotate(-33.78)"/><rect class="cls-3" x="31.59" y="23.36" width=".31" height="26.96" transform="translate(-13.85 19.93) rotate(-28.9)"/><rect class="cls-3" x="31.42" y="23.2" width=".63" height="27.28" transform="translate(-13.85 19.93) rotate(-28.9)"/><rect class="cls-3" x="30.56" y="23.87" width=".31" height="26.96" transform="translate(-12.55 15.74) rotate(-24.03)"/><rect class="cls-3" x="30.4" y="23.7" width=".63" height="27.28" transform="translate(-12.55 15.74) rotate(-24.03)"/><rect class="cls-3" x="29.38" y="24.01" width=".3" height="26.86" transform="translate(-10.73 11.89) rotate(-19.34)"/><rect class="cls-3" x="29.22" y="23.85" width=".63" height="27.18" transform="translate(-10.73 11.89) rotate(-19.34)"/><rect class="cls-3" x="28.4" y="24.62" width=".31" height="26.96" transform="translate(-8.52 8.22) rotate(-14.28)"/><polygon class="cls-3" points="31.61 51.4 31.57 51.24 24.88 24.96 25.49 24.8 25.53 24.96 32.22 51.24 31.61 51.4"/><rect class="cls-3" x="27.24" y="25.15" width=".31" height="27.04" transform="translate(-5.82 4.87) rotate(-9.18)"/><polygon class="cls-3" points="29.35 51.84 29.33 51.68 24.89 24.92 25.51 24.82 25.54 24.98 29.97 51.74 29.35 51.84"/><rect class="cls-3" x="26.14" y="24.99" width=".31" height="26.96" transform="translate(-2.96 2.2) rotate(-4.53)"/><rect class="cls-3" x="25.97" y="24.83" width=".63" height="27.28" transform="translate(-2.96 2.2) rotate(-4.53)"/><rect class="cls-3" x="11.66" y="38.36" width="26.96" height=".31" transform="translate(-13.53 63.41) rotate(-89.64)"/><polygon class="cls-3" points="25.37 52.16 24.74 52.15 24.91 24.87 25.54 24.87 25.54 25.03 25.37 52.16"/><rect class="cls-3" x="10.52" y="38.31" width="26.96" height=".31" transform="translate(-16.48 58.87) rotate(-84.79)"/><polygon class="cls-3" points="23.08 52.08 22.45 52.02 22.46 51.86 24.93 24.85 25.55 24.91 23.08 52.08"/><rect class="cls-3" x="9.38" y="38.15" width="26.96" height=".31" transform="translate(-18.86 54.1) rotate(-79.91)"/><polygon class="cls-3" points="20.78 51.79 20.16 51.68 24.94 24.82 25.56 24.93 25.53 25.09 20.78 51.79"/><rect class="cls-3" x="8.49" y="37.86" width="27.08" height=".31" transform="translate(-20.39 49.45) rotate(-75)"/><polygon class="cls-3" points="18.79 51.33 18.17 51.17 25.27 24.7 25.88 24.86 25.84 25.02 18.79 51.33"/><rect class="cls-3" x="7.17" y="37.57" width="26.96" height=".31" transform="translate(-21.84 44.35) rotate(-70.16)"/><polygon class="cls-3" points="16.32 50.66 15.73 50.45 24.99 24.78 25.58 24.99 25.52 25.15 16.32 50.66"/><rect class="cls-3" x="6.11" y="37.13" width="26.96" height=".31" transform="translate(-22.47 39.52) rotate(-65.32)"/><polygon class="cls-3" points="14.18 49.81 13.61 49.55 25 24.75 25.57 25.02 25.5 25.16 14.18 49.81"/><rect class="cls-3" x="5.09" y="36.6" width="26.96" height=".31" transform="translate(-22.56 34.74) rotate(-60.4)"/><polygon class="cls-3" points="12.1 48.77 11.56 48.46 11.64 48.32 25.04 24.74 25.58 25.04 12.1 48.77"/><rect class="cls-3" x="4.12" y="36" width="26.96" height=".31" transform="translate(-22.16 30.2) rotate(-55.54)"/><polygon class="cls-3" points="10.14 47.57 9.62 47.22 25.06 24.72 25.58 25.08 25.49 25.21 10.14 47.57"/><rect class="cls-3" x="3.2" y="35.31" width="26.96" height=".31" transform="translate(-21.33 25.9) rotate(-50.68)"/><polygon class="cls-3" points="8.28 46.22 7.79 45.82 25.08 24.71 25.57 25.11 25.47 25.24 8.28 46.22"/><rect class="cls-3" x="2.34" y="34.54" width="26.96" height=".31" transform="translate(-20.08 21.85) rotate(-45.8)"/><rect class="cls-3" x="2.18" y="34.38" width="27.28" height=".63" transform="translate(-20.08 21.86) rotate(-45.81)"/><rect class="cls-3" x="1.56" y="33.71" width="26.96" height=".31" transform="translate(-18.52 18.15) rotate(-40.96)"/><polygon class="cls-3" points="4.94 43.04 4.53 42.57 25.14 24.68 25.55 25.16 25.43 25.26 4.94 43.04"/><rect class="cls-3" x=".85" y="32.81" width="26.96" height=".31" transform="translate(-16.67 14.77) rotate(-36.09)"/><rect class="cls-3" x=".68" y="32.65" width="27.28" height=".63" transform="translate(-16.66 14.76) rotate(-36.08)"/><rect class="cls-3" x=".21" y="31.86" width="26.96" height=".31" transform="translate(-14.58 11.7) rotate(-31.15)"/><polygon class="cls-3" points="2.18 39.34 1.86 38.8 1.99 38.71 25.21 24.69 25.53 25.22 25.39 25.31 2.18 39.34"/><rect class="cls-3" x="-.34" y="30.86" width="26.96" height=".31" transform="translate(-12.39 9.04) rotate(-26.33)"/><polygon class="cls-3" points="1.05 37.34 .77 36.78 25.22 24.68 25.5 25.24 25.36 25.31 1.05 37.34"/><rect class="cls-3" x="-.8" y="29.81" width="26.96" height=".31" transform="translate(-10.06 6.69) rotate(-21.4)"/><polygon class="cls-3" points=".09 35.23 -.14 34.64 .01 34.59 25.26 24.69 25.49 25.27 25.34 25.33 .09 35.23"/><rect class="cls-3" x="-1.18" y="28.72" width="26.96" height=".31" transform="translate(-7.73 4.71) rotate(-16.59)"/><polygon class="cls-3" points="-.68 33.07 -.86 32.47 25.29 24.68 25.46 25.28 25.31 25.33 -.68 33.07"/><rect class="cls-3" x="-1.57" y="27.74" width="26.97" height=".31" transform="translate(-5.34 2.95) rotate(-11.53)"/><rect class="cls-3" x="-1.73" y="27.57" width="27.29" height=".63" transform="translate(-5.34 2.95) rotate(-11.54)"/><rect class="cls-3" x="-1.64" y="26.47" width="26.96" height=".31" transform="translate(-3.07 1.59) rotate(-6.81)"/><polygon class="cls-3" points="-1.67 28.56 -1.74 27.93 -1.58 27.91 25.35 24.7 25.43 25.32 25.27 25.34 -1.67 28.56"/><rect class="cls-3" x="-1.73" y="25.34" width="26.96" height=".31" transform="translate(-.86 .41) rotate(-1.95)"/><polygon class="cls-3" points="-1.87 26.27 -1.9 25.64 -1.73 25.63 25.37 24.71 25.39 25.34 25.23 25.34 -1.87 26.27"/><rect class="cls-3" x="11.61" y="10.86" width=".31" height="26.96" transform="translate(-13.15 34.84) rotate(-87.05)"/><polygon class="cls-3" points="25.37 25.36 25.21 25.35 -1.88 23.95 -1.84 23.33 -1.68 23.33 25.4 24.73 25.37 25.36"/><rect class="cls-3" x="11.72" y="9.72" width=".31" height="26.96" transform="translate(-12.73 31.8) rotate(-82.18)"/><polygon class="cls-3" points="25.34 25.36 25.18 25.34 -1.69 21.65 -1.6 21.03 25.43 24.74 25.34 25.36"/><rect class="cls-3" x="11.92" y="8.59" width=".31" height="26.96" transform="translate(-12.11 29) rotate(-77.3)"/><polygon class="cls-3" points="25.31 25.38 25.16 25.34 -1.3 19.38 -1.16 18.77 25.45 24.77 25.31 25.38"/><rect class="cls-3" x="12.22" y="7.48" width=".31" height="26.96" transform="translate(-11.35 26.43) rotate(-72.43)"/><polygon class="cls-3" points="25.29 25.38 -.73 17.15 -.54 16.55 -.38 16.59 25.47 24.78 25.29 25.38"/><rect class="cls-3" x="12.41" y="6.53" width=".31" height="26.84" transform="translate(-10.67 23.94) rotate(-67.56)"/><rect class="cls-3" x="12.45" y="6.25" width=".63" height="27.28" transform="translate(-10.49 24.09) rotate(-67.55)"/><rect class="cls-3" x="13.1" y="5.37" width=".31" height="26.96" transform="translate(-9.58 21.97) rotate(-62.68)"/><polygon class="cls-3" points="25.23 25.39 .98 12.87 1.27 12.31 1.42 12.38 25.51 24.83 25.23 25.39"/><rect class="cls-3" x="13.66" y="4.37" width=".31" height="26.96" transform="translate(-8.65 20.03) rotate(-57.81)"/><polygon class="cls-3" points="25.19 25.38 25.06 25.3 2.1 10.85 2.44 10.32 25.53 24.85 25.19 25.38"/><rect class="cls-3" x="14.32" y="3.43" width=".31" height="26.96" transform="translate(-7.75 18.26) rotate(-52.93)"/><rect class="cls-3" x="14.16" y="3.27" width=".63" height="27.28" transform="translate(-7.75 18.26) rotate(-52.93)"/><rect class="cls-3" x="15.04" y="2.54" width=".31" height="26.96" transform="translate(-6.88 16.62) rotate(-48.06)"/><polygon class="cls-3" points="25.14 25.38 25.02 25.27 4.84 7.14 5.26 6.67 25.56 24.91 25.14 25.38"/><rect class="cls-3" x="15.85" y="1.73" width=".31" height="26.96" transform="translate(-6.08 15.07) rotate(-43.18)"/><polygon class="cls-3" points="25.11 25.37 25 25.25 6.43 5.48 6.89 5.05 7 5.16 25.56 24.94 25.11 25.37"/><rect class="cls-3" x="16.72" y=".98" width=".31" height="26.96" transform="translate(-5.33 13.57) rotate(-38.31)"/><rect class="cls-3" x="16.56" y=".82" width=".63" height="27.28" transform="translate(-5.33 13.57) rotate(-38.31)"/><rect class="cls-3" x="17.65" y=".3" width=".31" height="26.96" transform="translate(-4.65 12.09) rotate(-33.44)"/><polygon class="cls-3" points="25.05 25.34 24.97 25.2 10.02 2.57 10.54 2.23 10.63 2.36 25.58 24.99 25.05 25.34"/><rect class="cls-3" x="18.63" y="-.28" width=".31" height="26.96" transform="translate(-4.02 10.58) rotate(-28.56)"/><rect class="cls-3" x="18.46" y="-.45" width=".63" height="27.28" transform="translate(-4.02 10.58) rotate(-28.56)"/><rect class="cls-3" x="19.66" y="-.79" width=".31" height="26.96" transform="translate(-3.43 9.03) rotate(-23.69)"/><polygon class="cls-3" points="25 25.31 14.04 .32 14.62 .07 14.68 .22 25.58 25.05 25 25.31"/><rect class="cls-3" x="20.78" y="-1.05" width=".31" height="27.03" transform="translate(-2.88 7.34) rotate(-18.62)"/><rect class="cls-3" x="20.73" y="-1.21" width=".63" height="27.42" transform="translate(-2.89 7.37) rotate(-18.62)"/><rect class="cls-3" x="21.83" y="-1.53" width=".31" height="26.96" transform="translate(-2.23 5.65) rotate(-13.94)"/><rect class="cls-3" x="21.67" y="-1.69" width=".63" height="27.28" transform="translate(-2.23 5.65) rotate(-13.94)"/><rect class="cls-3" x="22.95" y="-1.75" width=".31" height="26.96" transform="translate(-1.56 3.78) rotate(-9.06)"/><rect class="cls-3" x="22.79" y="-1.92" width=".63" height="27.28" transform="translate(-1.56 3.78) rotate(-9.06)"/><rect class="cls-3" x="24.09" y="-1.89" width=".31" height="26.96" transform="translate(-.78 1.8) rotate(-4.19)"/><rect class="cls-3" x="23.92" y="-2.05" width=".63" height="27.28" transform="translate(-.78 1.8) rotate(-4.19)"/></g></g><path class="cls-3" d="M25.23,49.52C11.73,49.52,.74,38.53,.74,25.04S11.73,.55,25.23,.55s24.48,10.98,24.48,24.48-10.98,24.48-24.48,24.48ZM25.23,1.16C12.07,1.16,1.35,11.87,1.35,25.04s10.71,23.87,23.87,23.87,23.87-10.71,23.87-23.87S38.39,1.16,25.23,1.16Zm0,43.87c-11.05,0-20-8.95-20-20S14.18,5.03,25.23,5.03s20,8.95,20,20-8.95,20-20,20h0Zm0-39.37C14.52,5.67,5.85,14.34,5.85,25.04s8.68,19.38,19.38,19.38,19.38-8.68,19.38-19.38h0c-.01-10.71-8.68-19.37-19.38-19.39h0Z"/></g></svg>