<svg width="51" height="51" viewBox="0 0 51 51" fill="none" xmlns="http://www.w3.org/2000/svg">
<g clip-path="url(#clip0_2351_4716)">
<path d="M25.5 14.875V6.375H4.25V44.625H46.75V14.875H25.5ZM12.75 40.375H8.5V36.125H12.75V40.375ZM12.75 31.875H8.5V27.625H12.75V31.875ZM12.75 23.375H8.5V19.125H12.75V23.375ZM12.75 14.875H8.5V10.625H12.75V14.875ZM21.25 40.375H17V36.125H21.25V40.375ZM21.25 31.875H17V27.625H21.25V31.875ZM21.25 23.375H17V19.125H21.25V23.375ZM21.25 14.875H17V10.625H21.25V14.875ZM42.5 40.375H25.5V36.125H29.75V31.875H25.5V27.625H29.75V23.375H25.5V19.125H42.5V40.375ZM38.25 23.375H34V27.625H38.25V23.375ZM38.25 31.875H34V36.125H38.25V31.875Z" fill="#000"/>
</g>
<defs>
<clipPath id="clip0_2351_4716">
<rect width="51" height="51" fill="white"/>
</clipPath>
</defs>
</svg>
