<?xml version="1.0" encoding="UTF-8"?>
<svg class="iconWidth" id="_圖層_1" data-name="圖層 1" xmlns="http://www.w3.org/2000/svg" viewBox="0 0 361.09 361.11">
  <path class="socialList-fill" d="M0,180.57c0-42.83-.03-85.66,.01-128.49C.05,20.68,20.63,.04,51.98,.03,138.13,0,224.29-.03,310.45,.06c24.83,.03,44.58,15.71,49.48,39.07,.85,4.04,1.1,8.27,1.11,12.41,.06,85.99,.07,171.98,.03,257.97-.02,30.49-21.11,51.59-51.52,51.59-86.32,.02-172.64,.03-258.96-.03-24.51-.02-44.32-15.52-49.37-38.61-.95-4.35-1.16-8.93-1.17-13.4C-.03,266.23,0,223.4,0,180.57Zm315.95-6.54c0-7.45,.1-14.89-.02-22.34-.18-10.9-5.43-15.99-16.48-16.12-5.12-.06-10.25-.01-15.58-.01-.31-3.11-.57-5.67-.84-8.35h-20.44c-.21,2.89-.38,5.33-.6,8.35h-13.2v20.27h12.96v18.46h-19.82v21.5h20.69v45.82h21.16v-46.01c10.19,0,19.83-.08,29.47,.04,3.86,.05,6.52,2.33,6.68,6.12,.32,7.42,.09,14.86,.09,22.87h-20.77c2.59,5.57,4.67,10.45,7.17,15.1,.59,1.1,2.56,1.98,3.94,2.03,5.66,.21,11.33,.25,16.99,.01,9.43-.39,14.31-5.45,14.37-14.92,.08-12.16,0-24.32-.15-36.48-.11-8.86-3.66-13.11-12.44-14.76-4.05-.76-8.19-1-13.18-1.58Zm-118.61-18.16v66.38c-6.07,0-11.86-.07-17.65,.05-1.39,.03-3.55,.23-4.03,1.09-3.36,6.02-6.37,12.24-9.68,18.76h75.36v-19.86h-21.4v-66.68h12.63v-20h-48.08v20.27h12.84ZM43.62,224.68c4.83,6.27,8.74,11.37,12.69,16.45,.39,.5,.94,.98,1.52,1.2,11.6,4.45,20.75-1.59,20.79-13.82,.11-31.94,.14-63.89,.2-95.83,0-1.78,0-3.55,0-5.91-5.43,0-10.24,.31-14.98-.09-4.71-.4-6.23,1.01-6.19,5.95,.24,28.62,.11,57.23,.11,85.85,0,1.93,0,3.86,0,6.21h-14.15Zm124.89-97.69c-6.87,0-12.83-.16-18.77,.14-1.22,.06-2.83,1.63-3.46,2.9-5.66,11.3-11.29,22.62-16.63,34.08-4.01,8.61-1.19,12.86,8.4,13.23,2.88,.11,5.77,.02,9.4,.02-1.34,3.13-2.21,5.26-3.14,7.35-2.64,5.92-5.46,11.77-7.93,17.77-2.69,6.52-.63,10.13,6.25,10.64,6.46,.48,12.97,.46,19.45,.37,1.42-.02,3.45-.93,4.11-2.07,2.71-4.66,5-9.57,7.75-14.98-2.93-.26-5.04-.47-7.16-.62-5.53-.38-6.03-1.06-3.74-5.96,2.6-5.57,5.37-11.07,8.06-16.61,2.74-5.63,5.47-11.26,8.51-17.51-8.84,.48-16.82,.91-25.88,1.4,5.15-10.5,9.74-19.86,14.79-30.14ZM27.05,232.35c13.53-24.38,15.06-49.87,15.59-75.65H21.12c-.26,.68-.48,.98-.47,1.28,.46,16.77-1.49,33.24-5.86,49.45-.35,1.3-.15,3.08,.49,4.26,3.58,6.56,7.37,13,11.77,20.67Zm67.65-75.77c0,7.87-.37,15.19,.08,22.46,.84,13.8,2.22,27.58,7.57,40.53,1.58,3.82,4.04,7.28,6.72,12,1.24-3.2,1.68-4.99,2.56-6.54,7.54-13.17,8.58-26.82,4.96-41.57-2.1-8.56-1.7-17.73-2.44-26.88h-19.45Zm70.28,65.03c-.94-.37-1.48-.76-2.03-.76-9.66-.05-19.31-.08-28.97,0-1.01,0-2.54,.51-2.94,1.26-3.41,6.38-6.62,12.86-10.31,20.14,11.03,0,20.96,.1,30.87-.12,1.34-.03,3.18-1.37,3.88-2.61,3.28-5.77,6.24-11.71,9.48-17.91Zm156.87-65.2c4.26,0,7.89,.18,11.5-.04,6.25-.38,10.95-5.28,11.08-11.27,.12-5.55-4.47-10.96-9.74-11.45-5.63-.53-12.06,4.37-12.75,10.25-.46,3.89-.09,7.87-.09,12.51Z"/>
  <path class="socialList-fill" d="M298.23,173.87h-13.81v-18.06c3.9,0,7.52-.19,11.09,.12,.97,.08,2.55,1.63,2.6,2.57,.26,4.94,.12,9.89,.12,15.36Z"/>
</svg>