<svg xmlns="http://www.w3.org/2000/svg" viewBox="0 0 512 512"><defs><style>.cls-1{fill:#005752;}</style></defs><g id="正面訊息"><path id="路径" class="cls-1" d="M165.53,223.56a90.47,90.47,0,0,1,180.94,0V237a45.24,45.24,0,0,1,38.78,44.78V285c0,22.94-19.79,43.06-43.07,42-9.57,27.4-33.88,45.86-60.14,50.55-6.06,2.22-13.26,1.17-19.58,1.17a19.39,19.39,0,0,1,0-38.77c10.26,0,21.6-1.48,28.52,7.87,16.76-8,29.64-24.82,29.64-46.65V223.56a64.62,64.62,0,0,0-129.24,0v80.79A22.61,22.61,0,0,1,168.76,327a42,42,0,0,1-42-42v-3.23A45.24,45.24,0,0,1,165.53,237Z"/></g></svg>