<?xml version="1.0" encoding="UTF-8"?><svg id="_圖層_1" xmlns="http://www.w3.org/2000/svg" viewBox="0 0 30 30"><defs><style>.cls-1{fill:#005752;}</style></defs><g id="_正面訊息"><path id="_路径" class="cls-1" d="M4.89,11.37c0-5.58,4.53-10.11,10.11-10.11,5.58,0,10.11,4.52,10.11,10.11v1.5c2.49,.36,4.33,2.49,4.33,5v.36c0,2.56-2.21,4.81-4.81,4.69-1.07,3.06-3.79,5.12-6.72,5.65-.68,.25-1.48,.13-2.19,.13-1.2-.03-2.14-1.02-2.12-2.21,.03-1.16,.96-2.09,2.12-2.12,1.15,0,2.41-.17,3.19,.88,1.87-.89,3.31-2.77,3.31-5.21V11.37c0-3.99-3.23-7.22-7.22-7.22-3.99,0-7.22,3.23-7.22,7.22h0v9.03c0,1.4-1.13,2.53-2.52,2.53,0,0,0,0,0,0-2.59,0-4.69-2.1-4.69-4.69v-.36c0-2.51,1.85-4.64,4.33-5v-1.5Z"/></g></svg>