<?xml version="1.0" encoding="UTF-8"?>
<svg id="_圖層_1" data-name="圖層 1" xmlns="http://www.w3.org/2000/svg" viewBox="0 0 194.53 24.61">
  <defs>
    <style>
      .cls-1 {
        fill: #fff;
      }
    </style>
  </defs>
  <path class="cls-1" d="M1.73,12.7c-.02-.08-.03-.14-.04-.19,0-.05,0-.09,0-.13,0-.23,.03-.43,.08-.6,.06-.17,.14-.31,.25-.42,.03-.03,.1-.07,.22-.13,.12-.06,.27-.12,.46-.2,.13-.06,.24-.14,.32-.23,.08-.09,.12-.2,.13-.33,.02-.1,.06-.21,.13-.34,.06-.13,.14-.27,.22-.41,.03-.04,.11-.29,.25-.73,.14-.44,.34-1.1,.59-1.96,.07-.26,.14-.49,.21-.68,.07-.19,.13-.35,.18-.49,.23-.6,.41-1,.55-1.18,.14-.19,.25-.34,.32-.46v-.05l-.33-.52,.41-.48,.53-.1c.11-.01,.2-.11,.29-.3,.09-.18,.24-.38,.46-.6,.05-.01,.13-.06,.24-.13,.11-.08,.25-.18,.42-.31,.15-.12,.27-.21,.38-.26,.11-.06,.19-.08,.24-.08,.19,0,.33,.04,.41,.12,.08,.08,.13,.18,.13,.3,0,.16-.08,.38-.24,.68-.16,.29-.24,.52-.24,.68,0,.07,.02,.13,.05,.17,.03,.05,.07,.08,.11,.09l1.27,.69c.07,.03,.13,.14,.19,.33,.06,.19,.1,.46,.14,.8,.04,.28,.07,.51,.1,.7,.02,.18,.04,.34,.04,.45-.05,.3-.1,.61-.15,.92,.07,.4,.15,.81,.23,1.25-.04,.42-.09,.84-.14,1.27,0,.04,0,.08,.03,.11,.02,.03,.04,.05,.08,.06,.12,0,.21,.04,.27,.09,.06,.06,.09,.13,.09,.23,0,.13-.02,.23-.06,.3-.04,.08-.09,.13-.16,.18-.09,.05-.16,.1-.22,.15-.05,.04-.09,.08-.11,.1l.14,.66-.19,1.5c0,.13-.01,.29-.03,.49-.02,.2-.05,.43-.09,.69-.07,.19-.12,.35-.16,.48-.03,.13-.05,.21-.05,.25,.04,.12,.07,.25,.09,.38-.04,.19-.08,.38-.13,.57-.04,.19-.09,.38-.13,.56-.08,.25-.18,.43-.3,.54-.13,.12-.27,.18-.44,.18-.09,0-.16-.04-.21-.12-.05-.08-.07-.21-.07-.37,0-.07,.01-.17,.04-.31,.02-.13,.04-.24,.04-.31,0-.05,0-.12-.02-.2-.01-.08-.02-.16-.02-.22,0-.2,.02-.51,.06-.95,.04-.44,.06-.76,.06-.98-.03-.12-.07-.24-.1-.37,.02-.14,.04-.27,.04-.41,0-.14,0-.27,0-.39l.16-.29-.14-.99-.08-.03s-.1,.01-.18,.05c-.08,.03-.18,.08-.3,.15-.08,.03-.22,.06-.4,.09-.18,.03-.42,.05-.71,.06-.13,.06-.25,.12-.36,.17-.16,.04-.37,.1-.61,.19-.25,.09-.53,.2-.86,.32-.19,.09-.37,.16-.52,.22-.16,.05-.29,.08-.4,.08-.08,0-.15,.03-.21,.09-.06,.07-.1,.16-.14,.28-.02,.11-.07,.27-.15,.46-.08,.2-.19,.45-.32,.74-.03,.08-.07,.2-.12,.36-.05,.16-.1,.36-.17,.6-.04,.09-.09,.21-.15,.34-.06,.14-.12,.3-.19,.48,0,.08,0,.19-.03,.31-.02,.12-.04,.27-.08,.43-.03,.1-.08,.22-.14,.38-.06,.15-.14,.32-.23,.5-.06,.11-.14,.2-.24,.25-.11,.05-.24,.08-.41,.08-.12,0-.21-.04-.28-.12-.07-.08-.1-.21-.1-.38,0-.18,.02-.39,.06-.63,.04-.23,.11-.49,.2-.78,.1-.37,.18-.68,.25-.91,.07-.24,.11-.4,.12-.52,.02-.05,.05-.14,.1-.27,.04-.12,.09-.28,.15-.46,.06-.18,.12-.38,.18-.6l-.05-.08-.34,.05c-.08,0-.13-.04-.17-.09-.04-.06-.05-.13-.05-.22,0-.05,0-.1,.02-.16,.01-.06,.04-.13,.06-.22Zm3.83-1.95c.16,0,.4-.04,.72-.12,.32-.08,.56-.12,.72-.12,.1,.02,.2,.04,.3,.05,.18-.04,.35-.08,.52-.12,.17-.05,.34-.09,.52-.13,.07-.01,.12-.04,.16-.08,.04-.04,.05-.09,.05-.16-.01-.21-.02-.36-.02-.43,0-.14,0-.28,.03-.45,.02-.17,.04-.33,.08-.51l-.13-.47,.04-.43c-.03-.16-.05-.3-.07-.44-.02-.14-.02-.25,0-.34-.01-.03-.04-.08-.08-.14-.03-.06-.08-.13-.12-.2-.07-.12-.14-.23-.22-.35-.07-.11-.15-.22-.22-.33-.1-.13-.21-.23-.32-.3-.11-.06-.23-.09-.35-.09-.14,0-.29,.12-.43,.34-.15,.23-.29,.57-.41,1.03-.02,.06-.08,.17-.17,.35-.1,.18-.23,.4-.41,.69-.03,.27-.12,.6-.29,1-.16,.4-.39,.86-.68,1.4-.04,.05-.05,.09-.06,.13,0,.04,0,.08,0,.12,0,.05,.01,.09,.04,.11,.03,.02,.06,.04,.11,.04,.07,0,.19,0,.34-.02,.16-.01,.27-.02,.34-.02Z"/>
  <path class="cls-1" d="M16.61,13.67c.03-.05,.07-.1,.11-.17,.05-.06,.1-.13,.17-.22,.17-.25,.32-.46,.43-.64,.11-.18,.2-.32,.25-.42,.1-.18,.18-.37,.24-.57,.06-.2,.11-.4,.14-.62,.14-1,.38-2.08,.74-3.24,.35-1.15,.8-2.4,1.34-3.73,.2-.46,.41-.81,.63-1.05,.22-.24,.46-.35,.69-.35,.18,0,.33,.04,.44,.11,.11,.08,.19,.19,.22,.36,.01,.06,.03,.17,.04,.32,.01,.16,.02,.35,.02,.6,0,.06-.06,.56-.17,1.51-.11,.47-.27,1.06-.47,1.76-.2,.7-.46,1.51-.76,2.44-.07,.12-.15,.29-.24,.48-.09,.2-.2,.43-.34,.71-.02,.05-.04,.11-.07,.2-.02,.08-.06,.17-.1,.27-.05,.05-.1,.13-.16,.24-.06,.11-.13,.25-.21,.42-.13,.39-.25,.89-.36,1.49-.12,.6-.22,1.31-.32,2.12-.1,.77-.17,1.45-.22,2.05-.05,.6-.07,1.13-.07,1.57,0,.17,.02,.35,.04,.53,.02,.22,.04,.38,.07,.5,.02,.12,.06,.17,.1,.17,.1,0,.25-.22,.46-.65,.21-.43,.48-1.08,.81-1.95l-.03-.21c.03-.07,.07-.14,.12-.25,.05-.1,.1-.22,.13-.38,.18-.56,.31-1,.39-1.32,.09-.31,.14-.49,.16-.53,.1-.28,.23-.55,.39-.82,.16-.27,.33-.52,.53-.76,.11,.21,.2,.4,.27,.56,.06,.16,.12,.3,.17,.41-.1,.13-.19,.29-.29,.48-.09,.19-.17,.41-.22,.63-.06,.2-.12,.4-.16,.61-.05,.21-.09,.41-.14,.6-.35,1.34-.7,2.46-1.04,3.35-.34,.89-.66,1.55-.96,1.99-.05,.09-.11,.18-.18,.28-.07,.09-.13,.18-.19,.26-.08,.09-.17,.16-.26,.22-.09,.05-.19,.08-.29,.08-.3,0-.55-.07-.73-.2-.18-.13-.31-.33-.38-.6-.04-.23-.07-.45-.09-.67-.03-.22-.05-.44-.08-.66-.04-.14-.07-.29-.1-.44-.02-.15-.03-.32-.03-.5v-1.6c0-.08,.02-.2,.05-.36,.03-.17,.05-.29,.05-.37-.04-.21-.08-.42-.13-.64,.02-.24,.06-.55,.11-.93,.05-.37,.12-.8,.2-1.27l-.28-.25c-.03-.09-.08-.22-.15-.38-.08-.16-.17-.36-.29-.6Zm4.17-7.1s-.07,.03-.09,.08c-.02,.05-.04,.13-.08,.23,0,.07-.03,.17-.07,.28-.04,.12-.1,.27-.17,.46-.06,.16-.1,.29-.13,.41-.03,.12-.05,.21-.05,.28l.07,.08,.16-.16c0-.11,.04-.22,.08-.35,.05-.13,.12-.27,.2-.43,.07-.15,.12-.28,.16-.38,.04-.11,.05-.19,.05-.26,0-.09,0-.15-.03-.18-.02-.03-.06-.05-.11-.05Z"/>
  <path class="cls-1" d="M21.72,13.67c.11-.15,.23-.3,.34-.46,.52-.42,.94-.83,1.27-1.22,.33-.39,.57-.76,.72-1.09l-.1-.5c.09-.18,.32-.38,.68-.62,.36-.24,.66-.36,.88-.36,.24,0,.44,.07,.61,.21,.17,.14,.33,.29,.48,.44,.08,.05,.13,.09,.17,.12,.28,.21,.49,.5,.63,.87,.14,.38,.21,.83,.21,1.36,0,.28-.11,.68-.33,1.21-.22,.52-.33,.92-.33,1.19,0,.04,.01,.06,.04,.08,.03,.02,.06,.03,.1,.03,.09,0,.2-.04,.33-.12,.12-.08,.26-.19,.41-.33,.37-.37,.59-.57,.67-.61,.08-.04,.17-.1,.28-.2,.06,.14,.13,.29,.21,.45,.08,.16,.16,.33,.23,.52-.06,.06-.13,.13-.22,.2-.08,.08-.18,.16-.29,.26-.24,.17-.55,.39-.94,.64-.38,.25-.85,.54-1.38,.86-.14,.09-.3,.17-.49,.22-.3,0-.52-.04-.66-.13-.15-.09-.22-.23-.22-.43,0-.08,.02-.16,.05-.27,.03-.1,.08-.21,.13-.33,.04-.09,.09-.18,.14-.28,.05-.09,.09-.19,.13-.29,.16-.44,.27-.85,.36-1.23,.08-.38,.12-.72,.12-1.02,0-.37-.06-.65-.17-.85-.12-.2-.29-.31-.52-.34-.16,.08-.33,.2-.51,.36-.18,.15-.37,.35-.56,.58-.21,.25-.39,.46-.55,.62-.16,.16-.3,.27-.4,.33-.06,.1-.17,.22-.31,.36-.14,.13-.33,.28-.56,.43-.01,.03-.04,.07-.06,.12-.03,.06-.07,.12-.14,.19-.06-.16-.12-.32-.2-.48-.07-.16-.15-.32-.24-.49Z"/>
  <path class="cls-1" d="M28.77,13.67l.06-.08,.03-.1c.19-.26,.53-.6,1.01-1.02,.48-.42,.82-.76,1-1.02,.07-.11,.15-.19,.25-.24,.09-.05,.18-.07,.28-.07,.25,0,.46,.06,.63,.18,.17,.12,.28,.31,.34,.55,.05,.22,.09,.44,.14,.66,.04,.22,.08,.45,.11,.67,.05,.14,.11,.36,.18,.64,.07,.29,.12,.45,.16,.49,.04,.07,.09,.12,.16,.15,.07,.03,.16,.05,.26,.05,.13,0,.26-.03,.39-.07,.13-.05,.27-.12,.41-.24,.1-.09,.21-.19,.33-.28,.12-.1,.23-.19,.34-.28l.44,.98c-.11,.11-.26,.24-.45,.38-.19,.14-.41,.31-.67,.5-.29,.21-.54,.36-.75,.46-.21,.1-.36,.15-.47,.15-.64,0-1.06-.08-1.25-.22-.19-.15-.4-.56-.64-1.23-.03-.04-.07-.11-.13-.18-.06-.08-.12-.17-.19-.28-.08-.16-.16-.28-.22-.37-.07-.08-.12-.12-.16-.12-.11,0-.27,.08-.46,.23-.19,.15-.43,.38-.7,.68-.04-.09-.08-.2-.14-.33-.05-.13-.11-.28-.17-.45-.02-.04-.03-.08-.06-.12-.02-.04-.05-.06-.08-.08Zm4.46-8.35c.18,0,.3,.03,.39,.1,.08,.07,.12,.17,.12,.31-.04,.2-.08,.37-.11,.5-.07,.25-.13,.46-.18,.62-.05,.16-.09,.28-.12,.35-.06,.16-.15,.29-.26,.41-.11,.12-.24,.22-.4,.31-.16,.11-.3,.2-.41,.24-.11,.05-.19,.07-.23,.06-.12-.02-.23-.03-.34-.04-.11-.01-.22-.02-.32-.02-.09-.05-.16-.14-.22-.28-.05-.14-.08-.33-.08-.57,0-.21,.13-.48,.39-.8,.26-.32,.48-.49,.68-.51,.12-.15,.26-.32,.42-.51,.07-.05,.16-.09,.27-.12,.11-.03,.24-.05,.39-.05Z"/>
  <path class="cls-1" d="M34.82,13.67c.09-.15,.2-.3,.33-.45,.13-.15,.31-.31,.51-.47,.02-.14,.04-.28,.06-.42,.02-.14,.04-.28,.04-.42,.02-.1,.05-.22,.1-.35,.04-.13,.1-.28,.15-.44,.06-.15,.15-.35,.26-.58,.11-.23,.25-.49,.43-.78,.15-.16,.3-.34,.46-.53,.16-.19,.32-.39,.48-.59,.08-.07,.16-.12,.25-.18,.09-.06,.18-.12,.27-.19,.08-.03,.18-.05,.28-.08,.1-.02,.22-.03,.35-.03,.18,0,.32,.02,.43,.05,.11,.04,.2,.09,.27,.18,.05,.06,.1,.14,.14,.25,.05,.11,.09,.25,.13,.41,.02,.14,.04,.3,.07,.46,0-.04-.01-.02-.04,.06s-.06,.2-.11,.37l-.09,.34c-.1,.34-.32,.73-.67,1.17-.34,.45-.81,.95-1.39,1.53-.05,.05-.09,.11-.13,.19-.03,.07-.05,.15-.05,.23,0,.15,.03,.28,.08,.39,.05,.12,.13,.2,.23,.25,.06,.04,.15,.09,.27,.13,.12,.04,.27,.08,.44,.12,.28-.02,.53-.07,.75-.14,.23-.07,.43-.16,.61-.25,.03-.02,.09-.05,.17-.09,.08-.04,.15-.09,.23-.15,.09,.21,.17,.39,.24,.55,.07,.17,.12,.31,.17,.43-.4,.39-.77,.69-1.09,.89-.33,.2-.63,.3-.9,.3-.11,.07-.24,.12-.38,.15-.15,.03-.32,.05-.51,.05-.26,0-.49-.04-.69-.12-.2-.08-.37-.19-.5-.34-.07-.07-.14-.17-.21-.31-.07-.14-.14-.3-.22-.49-.06-.15-.12-.27-.18-.34-.06-.07-.12-.11-.19-.11-.06,0-.12,.03-.19,.08-.07,.05-.15,.13-.23,.24-.03-.11-.08-.24-.15-.39-.07-.16-.17-.35-.29-.59Zm3.37-3.45c-.15,0-.36,.2-.62,.61-.26,.41-.39,.7-.39,.89,0,.04,0,.08,.03,.09,.02,.01,.05,.03,.11,.03,.08,0,.14-.04,.19-.12,.05-.08,.09-.16,.14-.23,.08-.07,.15-.15,.22-.23,.07-.08,.14-.16,.21-.24,.08-.1,.15-.2,.19-.3,.04-.1,.06-.2,.06-.3,0-.06-.01-.12-.04-.15-.03-.04-.06-.06-.11-.06Z"/>
  <path class="cls-1" d="M40.14,13.67c.03-.05,.07-.1,.11-.17,.05-.06,.1-.13,.17-.22,.07-.05,.16-.14,.28-.24,.11-.1,.24-.23,.38-.37,.13-.14,.28-.31,.47-.52,.18-.21,.41-.46,.67-.76,.11-.12,.26-.27,.43-.46,.17-.19,.37-.41,.61-.67,.2-.23,.41-.41,.64-.52,.23-.11,.47-.17,.72-.17s.44,.08,.56,.24c.12,.16,.18,.39,.18,.69,0,.16-.06,.47-.18,.93-.12,.46-.31,1.06-.56,1.82-.06,.14-.12,.28-.18,.4-.04,.09-.07,.17-.08,.24-.01,.07-.02,.12-.02,.16,0,.04,.03,.1,.08,.16,.03-.02,.07-.05,.1-.08,.03-.04,.07-.08,.11-.13,.06-.1,.14-.21,.26-.33,.12-.11,.26-.24,.42-.38,.06-.12,.15-.24,.25-.35,.1-.12,.22-.22,.34-.32,.03-.03,.06-.07,.11-.14,.05-.06,.1-.13,.16-.2,.09-.09,.2-.18,.33-.28,.13-.1,.28-.2,.45-.31,.19-.1,.36-.17,.51-.23,.15-.06,.28-.08,.4-.08,.22,0,.41,.05,.58,.16,.17,.1,.32,.27,.44,.49,.14,.44,.28,.84,.4,1.22,.08,.22,.16,.38,.26,.49,.1,.1,.2,.16,.32,.16,.09,0,.17-.02,.24-.06,.07-.04,.14-.09,.2-.16l.44,.98c-.12,.1-.25,.2-.37,.31-.13,.1-.25,.21-.37,.31-.16,.14-.31,.25-.46,.31-.14,.06-.28,.09-.42,.09-.16,0-.32-.04-.47-.1-.15-.07-.28-.18-.38-.32-.05-.05-.13-.16-.21-.31-.09-.16-.18-.34-.3-.57-.09-.09-.2-.21-.31-.37-.12-.15-.25-.33-.41-.54l-.09-.03c-.13,.04-.27,.11-.4,.19-.13,.09-.27,.19-.42,.33-.32,.28-.55,.46-.69,.53-.14,.07-.24,.15-.29,.24-.1,.17-.27,.39-.51,.65-.24,.27-.54,.59-.9,.95-.09,.09-.18,.18-.27,.27-.09,.09-.18,.17-.27,.26-.09,.08-.2,.13-.31,.16-.12,.03-.24,.05-.39,.05-.28,0-.44-.1-.46-.29-.03-.19-.05-.39-.07-.58,.11-.29,.22-.66,.36-1.1,.13-.44,.29-.95,.46-1.55,0-.03,.01-.08,.03-.14,.03-.06,.05-.14,.09-.24,.03-.09,.06-.17,.07-.24,.01-.07,.02-.12,.02-.17s-.02-.09-.05-.12c-.04-.03-.09-.04-.17-.04s-.17,.04-.28,.13c-.12,.08-.26,.22-.42,.4-.2,.21-.36,.38-.48,.5-.12,.12-.2,.19-.25,.21-.07,.05-.15,.12-.25,.21-.1,.09-.2,.19-.32,.31-.01,.03-.04,.07-.06,.13-.03,.06-.07,.12-.14,.19-.03-.11-.08-.24-.15-.39-.07-.16-.17-.35-.29-.59Z"/>
  <path class="cls-1" d="M50.25,13.67l.06-.08,.03-.11c.13-.16,.24-.28,.33-.37,.09-.09,.16-.15,.21-.21,.04-.04,.12-.08,.23-.14,.12-.06,.29-.13,.49-.21l.14-.08c.05-.08,.14-.19,.27-.34,.13-.15,.28-.32,.46-.51,.04-.04,.09-.09,.16-.14,.07-.05,.14-.11,.22-.19,.17-.16,.34-.33,.51-.5,.17-.17,.33-.34,.48-.51,.06-.06,.19-.18,.39-.34,.2-.17,.46-.39,.8-.69,.05-.04,.14-.09,.26-.16,.13-.07,.29-.15,.5-.24,.09-.04,.16-.11,.2-.2,.04-.1,.07-.22,.07-.37,.06-.09,.11-.2,.16-.33,.05-.13,.1-.28,.15-.46,.07-.22,.12-.4,.16-.53,.04-.14,.07-.23,.09-.28,.12-.32,.28-.69,.49-1.12,.2-.43,.45-.91,.73-1.47,.14-.29,.31-.61,.5-.96,.12-.18,.25-.31,.4-.4,.15-.09,.3-.14,.47-.14,.13,0,.22,.05,.28,.15,.06,.1,.09,.24,.09,.43,0,.31-.02,.59-.06,.87-.04,.28-.12,.53-.23,.77-.02,.05-.04,.12-.05,.22-.01,.1-.03,.22-.04,.36,0,.1-.03,.2-.08,.29-.04,.09-.1,.18-.17,.25,0,.05,0,.11-.02,.17-.01,.07-.03,.15-.04,.24l-.15,.19s-.02,.09-.02,.15v.19s-.03,.12-.07,.25c-.05,.13-.12,.3-.22,.53-.11,.24-.2,.43-.27,.57-.07,.14-.1,.23-.11,.26-.03,.04-.07,.09-.11,.17-.04,.08-.1,.17-.16,.26l.03,.23-.67,2.43c0,.27,0,.5,0,.69,0,.19,.03,.34,.06,.46,.03,.12,.09,.27,.17,.44,.08,.17,.18,.36,.31,.55,.08,.14,.17,.23,.27,.29,.1,.06,.22,.09,.33,.09,.13,0,.27-.04,.4-.11,.14-.07,.28-.19,.42-.34,.09,.18,.17,.36,.25,.52,.08,.16,.14,.32,.19,.46-.04,.02-.11,.09-.23,.22-.12,.12-.27,.3-.46,.52-.11,.14-.25,.23-.42,.29-.17,.06-.37,.09-.61,.09-.53,0-.96-.14-1.29-.41-.33-.28-.56-.69-.7-1.24-.03-.12-.05-.21-.07-.3-.02-.08-.04-.16-.06-.23-.05-.14-.13-.28-.25-.44-.05,.07-.09,.12-.12,.16-.09,.06-.18,.14-.28,.25-.1,.1-.21,.24-.31,.4-.02,.07-.06,.16-.12,.26-.06,.1-.13,.22-.23,.36-.23,.26-.46,.52-.69,.79-.23,.26-.47,.52-.7,.78-.32,.35-.61,.61-.88,.78-.27,.16-.5,.25-.7,.25-.35,0-.61-.08-.78-.25-.17-.17-.25-.42-.25-.77,0-.16,.06-.39,.18-.68,.12-.29,.18-.5,.18-.65l-.06-.17-.44-.98Zm5.34-3.03s-.01-.09-.04-.16c-.11,.11-.24,.23-.39,.37-.16,.14-.34,.3-.55,.46-.05,.11-.16,.29-.34,.53-.17,.24-.42,.55-.74,.9-.09,.1-.21,.29-.37,.54-.15,.26-.34,.57-.57,.95-.08,.15-.16,.33-.24,.54,0,.04,.03,.09,.08,.14,.21-.06,.47-.25,.78-.55,.31-.31,.67-.73,1.1-1.27,.44-.58,.76-1.07,.97-1.47,.21-.41,.32-.73,.32-.98Z"/>
  <path class="cls-1" d="M64.5,13.67l.04-.08c.04-.06,.1-.13,.17-.21,.07-.08,.15-.18,.24-.3,.5-.47,.99-1.02,1.47-1.67,.48-.65,.95-1.39,1.41-2.23,.06-.08,.12-.18,.19-.31,.07-.13,.15-.29,.23-.48,0-.04-.01-.08-.03-.1-.02-.02-.06-.03-.11-.03-.04,0-.11,.01-.21,.04-.1,.02-.17,.04-.22,.04h-1.32c-.06,0-.15,0-.28,0-.13,0-.22-.01-.28-.01-.07-.04-.14-.06-.2-.09-.06-.03-.12-.05-.17-.08-.08-.03-.15-.06-.2-.11-.05-.05-.07-.1-.07-.16,0-.45,.05-.79,.14-1.04,.1-.24,.24-.36,.44-.36s.38,0,.55,.03c.17,.02,.33,.04,.46,.07,.11-.02,.2-.04,.3-.06,.19,0,.35,0,.49,.02,.13,.02,.24,.03,.31,.05,.09-.02,.18-.04,.27-.06,.09-.01,.19-.03,.29-.06l.35,.1c.25-.03,.51-.37,.79-1.04,.28-.66,.58-.99,.9-.99,.17,0,.3,.06,.39,.16,.09,.1,.14,.26,.14,.46,0,.16-.05,.37-.14,.64-.1,.26-.15,.46-.17,.6,.01,.03,.03,.06,.05,.09,.03,.03,.06,.07,.11,.11,.04,.03,.07,.08,.09,.14,.02,.07,.03,.15,.03,.25,0,.42-.02,.75-.06,.98-.04,.23-.1,.35-.18,.35l-.72,.15c-.01,.07-.03,.16-.05,.26-.02,.1-.05,.22-.09,.36-.12,.35-.26,.8-.41,1.35-.15,.54-.32,1.19-.5,1.93-.11,.59-.2,1.07-.26,1.44-.06,.37-.09,.61-.09,.74,0,.11,.02,.2,.05,.25,.04,.06,.09,.08,.16,.08,.04,0,.2-.1,.46-.31,.27-.2,.64-.51,1.11-.91l.4,.98c-.07,.08-.17,.17-.3,.27-.13,.1-.28,.22-.45,.33-.07,.08-.16,.16-.27,.26-.11,.09-.22,.2-.35,.33-.13,.14-.25,.28-.38,.42-.12,.14-.25,.28-.37,.41-.17,.18-.33,.31-.5,.39-.16,.08-.31,.12-.45,.12-.31,0-.54-.09-.7-.27-.15-.18-.23-.46-.23-.83,0-.4,.01-.76,.04-1.05,.03-.3,.07-.54,.14-.72,.03-.06,.05-.11,.06-.15,0-.07,.01-.17,.03-.29,.02-.12,.04-.26,.07-.42,.04-.27,.09-.55,.14-.83,.08-.17,.16-.35,.24-.54,0-.04-.03-.07-.08-.09l-.11,.06c-.1,.17-.24,.35-.41,.54-.17,.19-.37,.38-.6,.59-.36,.34-.72,.69-1.09,1.04-.02,.03-.06,.09-.12,.16-.05,.07-.12,.16-.19,.26-.04-.08-.08-.19-.14-.32-.05-.13-.11-.29-.17-.46-.02-.04-.03-.08-.06-.12-.02-.04-.05-.06-.08-.08Z"/>
  <path class="cls-1" d="M70.36,13.67c.16-.13,.28-.24,.37-.32,.08-.08,.15-.15,.2-.2,.11-.11,.21-.21,.28-.31,.07-.1,.11-.19,.12-.27,.06-.24,.14-.54,.22-.9,.08-.36,.19-.77,.33-1.24,.06-.14,.13-.32,.21-.54,.07-.21,.15-.46,.24-.72,.08-.35,.19-.67,.32-.96,.13-.29,.27-.55,.42-.78,.05-.06,.1-.14,.15-.24,.05-.09,.1-.2,.15-.33,.05-.12,.12-.25,.21-.4,.09-.15,.19-.33,.3-.53,.29-.42,.54-.79,.76-1.09,.22-.3,.4-.54,.54-.73,.25-.3,.51-.59,.77-.85,.26-.27,.52-.51,.78-.73,.24-.21,.45-.35,.62-.45,.18-.09,.32-.14,.42-.14,.1,.08,.17,.16,.21,.23,.05,0,.1,0,.15-.02,.18,0,.32,.07,.4,.22,.08,.15,.13,.36,.13,.65,0,.06-.01,.14-.03,.25-.02,.1-.05,.23-.09,.37-.05,.05-.08,.11-.11,.19-.02,.08-.04,.15-.05,.23,0,.1-.02,.18-.03,.25-.01,.07-.03,.13-.05,.19-.09,.17-.19,.37-.3,.61-.11,.24-.22,.53-.34,.85-.07,.12-.16,.28-.26,.47-.11,.2-.23,.42-.38,.65-.07,.14-.16,.3-.27,.5-.11,.2-.25,.43-.42,.69-.04,.1-.12,.21-.22,.32-.1,.11-.22,.25-.37,.41-.04,.11-.16,.3-.36,.58-.19,.27-.46,.63-.81,1.06-.17,.22-.39,.49-.65,.81-.27,.33-.58,.71-.93,1.15-.13,.53-.24,1-.3,1.41-.07,.41-.1,.77-.1,1.07,0,.12,0,.21,.03,.27,.02,.06,.05,.09,.1,.09,.04-.05,.09-.11,.15-.17,.07-.06,.13-.14,.21-.22,.13-.12,.29-.34,.47-.67,.18-.32,.39-.74,.62-1.25,.2-.47,.39-.82,.55-1.07,.16-.25,.3-.4,.4-.45l.37-.16c.07-.03,.13-.05,.19-.07,.05-.02,.1-.03,.13-.03,.09,0,.18,.06,.25,.17,.08,.11,.14,.27,.19,.47,.09,.36,.16,.64,.22,.83,.06,.19,.09,.31,.09,.34,.09,.21,.2,.37,.33,.47,.13,.1,.28,.15,.47,.15,.22-.03,.47-.08,.77-.15,.06,.14,.12,.3,.2,.46,.08,.16,.16,.34,.24,.52-.17,.11-.34,.22-.51,.32-.17,.1-.34,.21-.51,.32-.11,.06-.28,.11-.49,.14-.21,.03-.46,.05-.74,.05-.43,0-.76-.2-1-.6-.24-.4-.38-.6-.43-.59h-.06c-.11,.14-.23,.29-.35,.43-.12,.15-.24,.3-.36,.46-.08,.16-.19,.35-.33,.56-.14,.21-.31,.44-.51,.69-.23,.28-.44,.49-.61,.63-.18,.14-.33,.21-.45,.21-.27,0-.48-.03-.63-.09-.15-.06-.24-.15-.27-.27-.08-.39-.15-.73-.19-1.02-.05-.29-.07-.53-.07-.74,0-.07,0-.12,.01-.17,0-.05,.01-.09,.02-.13,.02-.09,.05-.19,.07-.29,0-.03,0-.06-.03-.08-.02-.02-.05-.03-.09-.03-.02,.03-.05,.06-.09,.1-.04,.04-.08,.07-.15,.11-.03-.09-.08-.22-.15-.38-.07-.16-.17-.36-.29-.6Zm6.89-9.77c-.08,0-.23,.14-.46,.42-.23,.28-.53,.69-.89,1.23-.21,.31-.41,.61-.6,.91-.2,.3-.39,.59-.58,.88-.08,.08-.15,.17-.19,.25-.04,.08-.06,.17-.06,.26-.14,.4-.28,.77-.41,1.11-.13,.37-.23,.66-.31,.87-.08,.2-.13,.32-.14,.36l.05,.05c.14-.13,.26-.26,.36-.4,.14-.16,.31-.37,.51-.63,.2-.26,.43-.56,.68-.9,.25-.32,.51-.73,.78-1.23,.27-.5,.55-1.07,.87-1.72,.18-.35,.31-.63,.4-.84,.09-.21,.13-.36,.13-.45,0-.05,0-.09-.03-.12-.02-.03-.05-.05-.11-.05Z"/>
  <path class="cls-1" d="M78.46,13.2l.98-.64s.08-.08,.13-.14c.05-.06,.1-.15,.17-.26,.05-.09,.11-.17,.2-.23,.08-.06,.17-.12,.28-.17,.05-.07,.13-.16,.24-.27,.1-.1,.24-.23,.4-.37,.08-.04,.18-.1,.3-.19,.12-.08,.25-.19,.39-.32,.64-.61,1.2-1.06,1.68-1.36,.48-.3,.89-.46,1.22-.46,.18,0,.32,.04,.4,.12,.09,.08,.13,.19,.13,.33s-.03,.28-.08,.39c-.05,.11-.14,.21-.25,.28-.18,.13-.37,.27-.57,.42-.11,.15-.25,.3-.41,.47-.16,.17-.35,.33-.57,.49-.07,.09-.13,.17-.18,.24-.04,.04-.1,.1-.2,.19-.1,.09-.23,.2-.39,.31-.07,.16-.22,.36-.46,.6-.23,.25-.55,.54-.94,.89-.05,.05-.14,.16-.26,.34-.13,.17-.29,.41-.5,.7l.07,.1c.15-.05,.32-.13,.49-.25,.17-.12,.36-.28,.56-.47,.24-.22,.43-.4,.59-.53,.15-.14,.26-.23,.32-.27,.05-.03,.1-.06,.15-.08,.05-.03,.11-.06,.17-.11,.32-.39,.62-.67,.9-.86,.28-.19,.54-.28,.78-.28,.15,0,.26,.06,.34,.17,.08,.12,.12,.29,.14,.52-.01,.35-.02,.69-.02,1.02,0,.22,.05,.43,.18,.61,.13,.18,.3,.27,.51,.27,.06,0,.12-.02,.18-.05,.06-.04,.12-.08,.18-.14,.05-.06,.1-.12,.14-.18,.04-.06,.09-.11,.14-.17,.03-.02,.07-.04,.12-.08,.05-.03,.1-.08,.15-.12,.1,.21,.18,.4,.25,.56,.07,.16,.12,.3,.15,.42-.16,.15-.32,.3-.48,.45-.16,.16-.32,.3-.5,.44-.21,.16-.41,.28-.61,.36-.2,.08-.39,.12-.59,.12-.46,0-.81-.13-1.05-.39-.25-.26-.39-.66-.43-1.19,0-.06,0-.12-.03-.19-.02-.07-.05-.13-.11-.21-.04,.03-.07,.07-.12,.11-.04,.04-.09,.09-.15,.15-.09,.07-.21,.16-.34,.26-.14,.11-.3,.23-.48,.38-.25,.25-.45,.46-.62,.62-.17,.16-.29,.28-.36,.35-.14,.12-.3,.24-.49,.36-.19,.12-.39,.24-.63,.37-.15,.08-.27,.14-.38,.18s-.18,.07-.23,.07c-.34,0-.59-.08-.75-.25-.16-.16-.24-.42-.24-.76,0-.19,.04-.37,.12-.54,.08-.17,.2-.33,.35-.5,.02-.09,.04-.16,.04-.22,0-.03,0-.07-.03-.11-.02-.04-.04-.08-.07-.13-.04-.1-.09-.21-.15-.34-.06-.12-.12-.26-.19-.4,.03-.03,.07-.08,.12-.17,.05-.08,.12-.18,.19-.31Z"/>
  <path class="cls-1" d="M86.25,13.67l.04-.08c.04-.06,.1-.13,.17-.21,.07-.08,.15-.18,.24-.3,.5-.47,.99-1.02,1.47-1.67,.48-.65,.95-1.39,1.41-2.23,.05-.08,.12-.18,.19-.31,.07-.13,.15-.29,.23-.48,0-.04-.01-.08-.03-.1-.02-.02-.06-.03-.11-.03-.04,0-.11,.01-.21,.04-.1,.02-.17,.04-.22,.04h-1.32c-.06,0-.15,0-.28,0-.13,0-.22-.01-.28-.01-.07-.04-.13-.06-.19-.09-.06-.03-.12-.05-.18-.08-.08-.03-.15-.06-.2-.11-.05-.05-.07-.1-.07-.16,0-.45,.05-.79,.14-1.04,.1-.24,.24-.36,.44-.36s.38,0,.56,.03c.17,.02,.33,.04,.46,.07,.11-.02,.2-.04,.29-.06,.19,0,.35,0,.49,.02,.13,.02,.24,.03,.31,.05,.09-.02,.18-.04,.27-.06,.09-.01,.18-.03,.29-.06l.35,.1c.25-.03,.51-.37,.79-1.04,.28-.66,.58-.99,.9-.99,.17,0,.3,.06,.39,.16,.09,.1,.14,.26,.14,.46,0,.16-.05,.37-.15,.64-.09,.26-.15,.46-.16,.6,.01,.03,.03,.06,.05,.09,.02,.03,.06,.07,.11,.11,.04,.03,.07,.08,.08,.14,.02,.07,.03,.15,.03,.25,0,.42-.02,.75-.06,.98-.04,.23-.1,.35-.18,.35l-.72,.15c-.01,.07-.03,.16-.05,.26-.02,.1-.05,.22-.08,.36-.12,.35-.26,.8-.41,1.35-.15,.54-.32,1.19-.5,1.93-.11,.59-.2,1.07-.26,1.44-.06,.37-.09,.61-.09,.74,0,.11,.02,.2,.05,.25,.04,.06,.09,.08,.16,.08,.04,0,.2-.1,.46-.31,.27-.2,.64-.51,1.11-.91l.4,.98c-.07,.08-.17,.17-.29,.27-.12,.1-.28,.22-.45,.33-.07,.08-.16,.16-.26,.26-.11,.09-.22,.2-.35,.33-.13,.14-.25,.28-.37,.42-.12,.14-.25,.28-.38,.41-.17,.18-.34,.31-.5,.39-.16,.08-.32,.12-.46,.12-.31,0-.54-.09-.69-.27-.15-.18-.23-.46-.23-.83,0-.4,.01-.76,.04-1.05,.03-.3,.07-.54,.14-.72,.03-.06,.05-.11,.06-.15,0-.07,0-.17,.03-.29,.02-.12,.05-.26,.07-.42,.04-.27,.09-.55,.14-.83,.08-.17,.16-.35,.24-.54,0-.04-.03-.07-.08-.09l-.11,.06c-.1,.17-.24,.35-.41,.54-.17,.19-.37,.38-.6,.59-.36,.34-.72,.69-1.09,1.04-.02,.03-.06,.09-.12,.16-.05,.07-.12,.16-.19,.26-.04-.08-.08-.19-.14-.32-.06-.13-.11-.29-.17-.46-.01-.04-.03-.08-.05-.12-.02-.04-.05-.06-.08-.08Z"/>
  <path class="cls-1" d="M97.52,13.67c.17-.17,.42-.38,.75-.62,.34-.24,.59-.44,.76-.6,.11-.12,.24-.28,.41-.46,.17-.18,.37-.4,.6-.65,.14-.13,.28-.23,.41-.3,.13-.07,.27-.1,.4-.1,.17,0,.3,.04,.4,.13,.1,.09,.14,.22,.14,.4,0,.28-.11,.73-.32,1.34-.21,.62-.32,1.09-.32,1.4,0,.08,.01,.12,.05,.15,.03,.03,.07,.04,.11,.04h.05c.14-.09,.29-.2,.47-.33,.18-.13,.38-.29,.61-.48,.19-.17,.41-.39,.68-.67,.27-.28,.59-.59,.96-.95,.14-.12,.3-.26,.48-.44,.18-.18,.38-.39,.61-.64,.09-.13,.22-.23,.39-.3,.17-.07,.37-.11,.61-.11,.16,0,.28,.03,.36,.09,.08,.06,.12,.15,.12,.27,0,.05,0,.1-.02,.14-.01,.05-.02,.09-.03,.13-.05,.21-.12,.47-.22,.78-.1,.31-.22,.67-.36,1.09-.12,.26-.25,.58-.38,.94-.13,.36-.27,.76-.42,1.2l.07,.09c.15-.07,.37-.24,.66-.5,.29-.26,.66-.62,1.1-1.06l.44,.98c-.06,.06-.13,.12-.21,.21-.08,.08-.19,.17-.32,.26-.76,.53-1.4,1.06-1.95,1.59-.54,.52-.97,1.04-1.29,1.56-.47,.77-.87,1.41-1.18,1.89-.31,.49-.54,.83-.68,1.02-.49,.64-.95,1.11-1.39,1.43-.44,.31-.87,.46-1.28,.46-.16,0-.27-.03-.34-.09-.07-.06-.11-.16-.11-.3,0-.07,.02-.16,.05-.26,.03-.11,.1-.22,.19-.34,.13-.19,.26-.39,.37-.59l.32-.27c.03-.09,.04-.15,.04-.19,.03-.04,.07-.08,.12-.13,.05-.05,.12-.1,.19-.17,.05-.13,.18-.34,.4-.63,.21-.29,.52-.67,.9-1.12,.29-.34,.55-.64,.79-.9,.24-.27,.44-.49,.61-.67,.03-.06,.06-.12,.09-.2,.03-.08,.06-.15,.08-.23,.09-.18,.19-.4,.3-.66,.11-.26,.24-.57,.4-.92,.07-.2,.13-.44,.18-.7,.05-.26,.1-.55,.14-.86-.01-.02-.02-.06-.03-.11,0-.05-.02-.11-.05-.2-.13,.07-.27,.16-.41,.29-.15,.13-.32,.27-.49,.44-.23,.31-.47,.56-.71,.76-.24,.2-.48,.36-.71,.46-.16,.3-.36,.53-.6,.68-.24,.15-.52,.22-.84,.22-.24,0-.41-.06-.53-.17-.12-.11-.18-.27-.18-.5,0-.04,0-.1,.01-.16,.01-.06,.03-.14,.05-.22-.03-.07-.06-.17-.1-.3,.03-.12,.05-.25,.07-.4,0-.21-.02-.37-.05-.47-.03-.11-.08-.16-.15-.16l-.04,.02c-.08,.06-.19,.14-.33,.25-.14,.12-.31,.25-.51,.41-.04-.09-.08-.2-.14-.33-.05-.13-.11-.28-.17-.45-.01-.04-.03-.08-.05-.12-.02-.04-.05-.06-.08-.08Z"/>
  <path class="cls-1" d="M106.66,13.67c.05-.05,.1-.11,.15-.2,.05-.08,.12-.17,.19-.28l.82-.56c.1-.12,.25-.27,.46-.46,.21-.19,.46-.42,.77-.69,.03-.08,.09-.17,.18-.27,.08-.1,.18-.2,.29-.3,.1-.09,.2-.17,.3-.26,.1-.08,.19-.16,.27-.24,.11-.1,.21-.21,.3-.32,.1-.1,.19-.21,.29-.31,.11-.1,.23-.18,.35-.23,.12-.06,.25-.08,.39-.08,.16,0,.27,.02,.35,.06,.08,.04,.12,.09,.13,.16-.07,.16-.14,.33-.22,.49l.06,.09c.31-.12,.56-.21,.73-.26,.18-.06,.29-.08,.34-.08,.52,0,.9,.16,1.16,.47,.26,.31,.39,.79,.39,1.42,0,.12-.01,.26-.04,.42-.03,.16-.07,.34-.13,.53-.07,.21-.15,.39-.23,.53-.08,.14-.16,.25-.23,.3,.03,.1,.06,.17,.1,.21,.04,.04,.08,.06,.14,.06s.12-.02,.18-.05c.06-.04,.13-.09,.22-.16,.07,.15,.14,.31,.2,.48,.07,.17,.13,.33,.2,.49-.13,.11-.25,.22-.37,.33-.12,.11-.25,.21-.38,.31-.16,.13-.31,.23-.46,.29-.14,.06-.29,.09-.43,.09-.16,0-.3-.04-.4-.11-.11-.08-.19-.19-.25-.33-.18,.23-.39,.45-.64,.64-.25,.19-.53,.35-.83,.48-.18,.08-.34,.15-.49,.19-.14,.05-.28,.07-.4,.07-.04,0-.1,.01-.21,.04-.1,.03-.18,.04-.25,.04-.41,0-.77-.17-1.09-.51-.32-.33-.49-.71-.49-1.12,0-.17,.04-.39,.12-.67,.08-.28,.12-.44,.12-.49,0-.05-.02-.09-.05-.12-.03-.03-.08-.05-.13-.05-.04,0-.12,.05-.25,.16-.13,.11-.33,.26-.57,.45-.02,.03-.04,.07-.07,.13-.03,.06-.08,.12-.14,.19-.06-.16-.12-.33-.2-.49-.07-.17-.15-.33-.24-.48Zm5.12-1.95s-.09,.05-.15,.11c-.07,.07-.13,.15-.2,.25-.1,.16-.21,.34-.34,.53-.08,.08-.16,.15-.25,.2-.09,.05-.19,.08-.3,.1-.07,0-.14,.08-.22,.21-.08,.13-.16,.32-.24,.57-.08,.22-.13,.4-.17,.56-.04,.16-.05,.29-.05,.39,0,.2,.05,.35,.15,.45,.1,.1,.25,.15,.46,.15,.32,0,.62-.09,.89-.27,.27-.18,.53-.45,.77-.81,.11-.14,.22-.26,.32-.38,.06-.04,.1-.11,.14-.21,.03-.1,.07-.21,.11-.36l.19-.6c-.07-.21-.12-.38-.18-.5-.05-.12-.11-.2-.17-.23-.04-.02-.12-.05-.23-.07-.12-.03-.29-.05-.52-.08Z"/>
  <path class="cls-1" d="M114.3,13.67s.05-.05,.07-.08c.02-.03,.03-.06,.03-.1,.12-.1,.26-.23,.41-.41,.15-.17,.33-.37,.52-.6,.15-.21,.31-.42,.48-.64,.17-.21,.34-.42,.53-.63,.16-.21,.31-.43,.46-.66,.15-.23,.31-.45,.48-.67,.28-.13,.5-.23,.65-.28,.16-.06,.26-.09,.32-.09,.1,0,.18,.03,.24,.1,.06,.07,.08,.17,.08,.29,0,.04,0,.1-.03,.18-.02,.08-.05,.16-.07,.25-.05,.14-.11,.29-.17,.44-.06,.25-.12,.49-.2,.74-.08,.24-.15,.49-.22,.73-.07,.31-.12,.58-.17,.84-.04,.25-.06,.49-.06,.7,0,.39,.02,.68,.06,.87,.04,.19,.09,.28,.17,.26,.07-.04,.16-.1,.26-.15,.11-.06,.23-.13,.37-.21,.13-.13,.27-.3,.43-.5,.16-.2,.35-.43,.58-.7,.13-.2,.26-.39,.39-.58,.05-.06,.11-.12,.17-.2,.07-.08,.13-.16,.19-.23,.13-.34,.28-.59,.45-.76,.17-.17,.35-.25,.55-.25,.18,0,.33,.02,.44,.07,.11,.04,.19,.12,.23,.21,.02,.05,.04,.13,.05,.25,.01,.12,.02,.28,.02,.48,0,.07,.01,.19,.05,.34,.03,.15,.05,.26,.05,.33,0,.26,.04,.46,.13,.59,.09,.13,.23,.2,.42,.2,.05,0,.12,0,.2-.03,.07-.02,.15-.05,.22-.08l.44,.98c-.42,.26-.77,.45-1.04,.58-.27,.13-.47,.19-.61,.19-.35,0-.64-.09-.87-.27-.23-.18-.39-.46-.5-.81-.02-.09-.04-.17-.09-.25-.05-.08-.1-.17-.17-.25-.06,.07-.14,.16-.22,.25-.08,.1-.17,.2-.26,.3-.19,.23-.38,.46-.57,.68-.19,.22-.38,.44-.58,.66-.25,.29-.5,.5-.74,.63-.25,.13-.48,.2-.7,.2-.32,0-.58-.1-.78-.29-.2-.19-.32-.48-.38-.86-.07-.37-.1-.65-.13-.86-.02-.2-.03-.33-.01-.37-.02-.2-.04-.36-.06-.46-.03-.11-.06-.16-.11-.16l-.06,.03-.6,.62c-.02,.05-.06,.11-.11,.19-.05,.08-.12,.16-.2,.27-.03-.11-.08-.24-.16-.39-.07-.16-.17-.35-.29-.59Z"/>
  <path class="cls-1" d="M128.52,13.67l.1-.08c0-.08,.05-.17,.15-.28,.09-.1,.22-.23,.4-.37,.11-.08,.22-.15,.34-.22,.12-.07,.23-.15,.34-.23,.45-.38,.88-.74,1.29-1.09,.24-.21,.48-.39,.72-.55,.24-.15,.47-.27,.68-.36,.15-.19,.43-.38,.83-.58,.41-.2,.74-.3,.99-.3,.1,0,.18,.03,.24,.09,.06,.06,.1,.13,.11,.21v.58c0,.2-.06,.38-.18,.54-.12,.16-.29,.3-.53,.44-.15,.07-.31,.15-.46,.23-.15,.09-.31,.16-.47,.23-.06,.07-.21,.2-.45,.4-.24,.19-.57,.45-.99,.77-.19,.15-.35,.28-.48,.4s-.21,.21-.26,.28c-.07,.13-.12,.28-.16,.44-.04,.16-.06,.35-.06,.56,0,.16,.02,.3,.07,.41,.05,.12,.12,.21,.22,.28,.07,.05,.17,.1,.29,.15,.12,.05,.28,.1,.46,.15,.11-.04,.24-.08,.42-.12,.17-.04,.36-.09,.58-.15,.24-.14,.48-.29,.73-.45,.25-.15,.5-.31,.74-.47,.04-.02,.08-.04,.13-.07,.05-.02,.11-.06,.16-.11,.07-.09,.17-.2,.29-.31,.12-.12,.27-.26,.45-.41,.29,.62,.44,.94,.44,.98-.26,.21-.53,.43-.79,.65-.27,.22-.58,.4-.92,.54-.11,.09-.21,.17-.29,.25-.36,.35-.77,.62-1.23,.79-.47,.18-1.01,.27-1.61,.27-.13,0-.26-.01-.36-.03-.11-.02-.2-.05-.27-.08-.21-.14-.39-.26-.54-.37-.16-.11-.29-.22-.39-.32-.11-.1-.18-.2-.23-.29-.06-.1-.11-.22-.13-.36-.03-.14-.04-.31-.04-.51,0-.05,.02-.15,.05-.27,.04-.13,.05-.21,.05-.27-.05-.16-.12-.32-.19-.48-.08-.16-.16-.33-.25-.5Z"/>
  <path class="cls-1" d="M135.53,13.2l.98-.64s.08-.08,.13-.14c.05-.06,.11-.15,.17-.26,.05-.09,.11-.17,.19-.23,.08-.06,.18-.12,.28-.17,.06-.07,.14-.16,.24-.27,.11-.1,.24-.23,.4-.37,.08-.04,.18-.1,.29-.19,.12-.08,.25-.19,.39-.32,.64-.61,1.2-1.06,1.68-1.36,.48-.3,.89-.46,1.22-.46,.18,0,.32,.04,.4,.12,.09,.08,.13,.19,.13,.33s-.03,.28-.08,.39c-.05,.11-.13,.21-.25,.28-.18,.13-.37,.27-.57,.42-.11,.15-.25,.3-.41,.47-.16,.17-.35,.33-.56,.49-.07,.09-.13,.17-.18,.24-.04,.04-.1,.1-.2,.19-.1,.09-.23,.2-.39,.31-.07,.16-.22,.36-.46,.6-.24,.25-.55,.54-.94,.89-.05,.05-.14,.16-.26,.34-.13,.17-.29,.41-.5,.7l.07,.1c.16-.05,.32-.13,.49-.25,.17-.12,.35-.28,.56-.47,.24-.22,.43-.4,.59-.53,.15-.14,.26-.23,.32-.27,.05-.03,.1-.06,.15-.08,.05-.03,.11-.06,.17-.11,.32-.39,.62-.67,.9-.86,.28-.19,.54-.28,.78-.28,.15,0,.26,.06,.34,.17,.08,.12,.12,.29,.14,.52-.02,.35-.02,.69-.02,1.02,0,.22,.05,.43,.19,.61,.13,.18,.3,.27,.51,.27,.06,0,.12-.02,.18-.05,.06-.04,.12-.08,.19-.14,.05-.06,.1-.12,.14-.18,.04-.06,.09-.11,.14-.17,.03-.02,.07-.04,.12-.08,.05-.03,.1-.08,.15-.12,.1,.21,.18,.4,.25,.56,.07,.16,.12,.3,.15,.42-.16,.15-.32,.3-.48,.45-.16,.16-.32,.3-.5,.44-.21,.16-.41,.28-.61,.36-.2,.08-.39,.12-.59,.12-.46,0-.81-.13-1.05-.39-.25-.26-.39-.66-.44-1.19,0-.06,0-.12-.03-.19-.02-.07-.05-.13-.11-.21-.04,.03-.08,.07-.12,.11-.04,.04-.09,.09-.15,.15-.09,.07-.21,.16-.34,.26-.14,.11-.3,.23-.48,.38-.25,.25-.45,.46-.62,.62-.17,.16-.29,.28-.36,.35-.14,.12-.3,.24-.49,.36-.19,.12-.39,.24-.63,.37-.15,.08-.28,.14-.38,.18-.11,.05-.18,.07-.23,.07-.34,0-.59-.08-.75-.25-.16-.16-.24-.42-.24-.76,0-.19,.04-.37,.12-.54,.08-.17,.2-.33,.36-.5,.02-.09,.04-.16,.04-.22,0-.03-.01-.07-.03-.11-.02-.04-.04-.08-.07-.13-.04-.1-.1-.21-.15-.34-.06-.12-.12-.26-.19-.4,.03-.03,.07-.08,.12-.17,.05-.08,.12-.18,.19-.31Z"/>
  <path class="cls-1" d="M143.32,13.67c.03-.05,.07-.1,.11-.17,.05-.06,.1-.13,.16-.22,.07-.05,.16-.14,.28-.24,.11-.1,.24-.23,.38-.37,.13-.14,.28-.31,.47-.52,.18-.21,.41-.46,.67-.76,.11-.12,.26-.27,.43-.46,.17-.19,.37-.41,.61-.67,.2-.23,.41-.41,.63-.52,.23-.11,.47-.17,.72-.17s.44,.08,.56,.24c.12,.16,.18,.39,.18,.69,0,.16-.06,.47-.18,.93-.12,.46-.31,1.06-.56,1.82-.06,.14-.12,.28-.18,.4-.04,.09-.07,.17-.09,.24-.01,.07-.02,.12-.02,.16,0,.04,.02,.1,.07,.16,.03-.02,.07-.05,.1-.08,.03-.04,.07-.08,.11-.13,.05-.1,.14-.21,.26-.33,.12-.11,.26-.24,.42-.38,.06-.12,.14-.24,.25-.35,.1-.12,.22-.22,.35-.32,.03-.03,.06-.07,.11-.14,.04-.06,.1-.13,.16-.2,.09-.09,.2-.18,.33-.28,.13-.1,.28-.2,.45-.31,.19-.1,.36-.17,.51-.23,.15-.06,.29-.08,.4-.08,.22,0,.41,.05,.58,.16,.17,.1,.31,.27,.43,.49,.14,.44,.28,.84,.4,1.22,.08,.22,.16,.38,.26,.49,.1,.1,.2,.16,.32,.16,.09,0,.17-.02,.24-.06,.07-.04,.14-.09,.2-.16l.44,.98c-.12,.1-.24,.2-.37,.31-.13,.1-.25,.21-.37,.31-.16,.14-.31,.25-.46,.31-.14,.06-.28,.09-.42,.09-.16,0-.32-.04-.47-.1-.15-.07-.28-.18-.38-.32-.06-.05-.13-.16-.21-.31-.08-.16-.18-.34-.3-.57-.09-.09-.2-.21-.31-.37-.12-.15-.25-.33-.41-.54l-.1-.03c-.13,.04-.27,.11-.39,.19-.13,.09-.27,.19-.42,.33-.32,.28-.55,.46-.69,.53-.14,.07-.24,.15-.29,.24-.1,.17-.27,.39-.51,.65-.24,.27-.54,.59-.9,.95-.09,.09-.19,.18-.28,.27-.09,.09-.18,.17-.28,.26-.09,.08-.2,.13-.31,.16-.12,.03-.25,.05-.38,.05-.28,0-.44-.1-.46-.29-.03-.19-.05-.39-.07-.58,.1-.29,.22-.66,.36-1.1,.14-.44,.29-.95,.46-1.55,0-.03,.01-.08,.04-.14,.03-.06,.05-.14,.09-.24,.04-.09,.06-.17,.07-.24,0-.07,.02-.12,.02-.17s-.02-.09-.05-.12c-.04-.03-.09-.04-.17-.04-.07,0-.16,.04-.28,.13-.12,.08-.26,.22-.42,.4-.2,.21-.36,.38-.48,.5-.12,.12-.21,.19-.24,.21-.07,.05-.16,.12-.25,.21-.1,.09-.2,.19-.32,.31-.01,.03-.04,.07-.06,.13-.03,.06-.07,.12-.14,.19-.03-.11-.08-.24-.15-.39-.07-.16-.17-.35-.29-.59Z"/>
  <path class="cls-1" d="M158.84,13.67l.04-.08c.04-.06,.1-.13,.17-.21,.07-.08,.15-.18,.24-.3,.5-.47,.99-1.02,1.47-1.67,.48-.65,.95-1.39,1.41-2.23,.06-.08,.12-.18,.19-.31,.07-.13,.15-.29,.23-.48,0-.04,0-.08-.03-.1-.02-.02-.06-.03-.11-.03-.04,0-.11,.01-.21,.04-.1,.02-.17,.04-.22,.04h-1.32c-.06,0-.15,0-.28,0-.13,0-.22-.01-.28-.01-.07-.04-.13-.06-.2-.09-.06-.03-.12-.05-.17-.08-.08-.03-.15-.06-.2-.11-.05-.05-.07-.1-.07-.16,0-.45,.05-.79,.14-1.04,.1-.24,.24-.36,.44-.36s.38,0,.56,.03c.17,.02,.33,.04,.46,.07,.11-.02,.2-.04,.29-.06,.19,0,.35,0,.49,.02,.13,.02,.23,.03,.31,.05,.09-.02,.18-.04,.27-.06,.09-.01,.18-.03,.29-.06l.35,.1c.25-.03,.51-.37,.79-1.04,.28-.66,.58-.99,.9-.99,.17,0,.3,.06,.39,.16,.09,.1,.13,.26,.13,.46,0,.16-.05,.37-.14,.64-.1,.26-.15,.46-.17,.6,.01,.03,.03,.06,.05,.09,.02,.03,.06,.07,.11,.11,.04,.03,.07,.08,.09,.14,.02,.07,.03,.15,.03,.25,0,.42-.02,.75-.06,.98-.04,.23-.1,.35-.18,.35l-.72,.15c-.02,.07-.03,.16-.05,.26-.02,.1-.05,.22-.09,.36-.12,.35-.26,.8-.41,1.35-.15,.54-.32,1.19-.5,1.93-.11,.59-.2,1.07-.26,1.44-.06,.37-.09,.61-.09,.74,0,.11,.02,.2,.05,.25,.04,.06,.09,.08,.16,.08,.04,0,.2-.1,.46-.31,.27-.2,.64-.51,1.11-.91l.41,.98c-.07,.08-.17,.17-.3,.27-.13,.1-.28,.22-.46,.33-.07,.08-.16,.16-.27,.26-.11,.09-.22,.2-.35,.33-.13,.14-.25,.28-.38,.42-.12,.14-.25,.28-.37,.41-.17,.18-.34,.31-.5,.39-.16,.08-.31,.12-.46,.12-.31,0-.54-.09-.69-.27-.15-.18-.23-.46-.23-.83,0-.4,.01-.76,.04-1.05,.03-.3,.07-.54,.13-.72,.03-.06,.05-.11,.07-.15,0-.07,.01-.17,.03-.29,.02-.12,.05-.26,.08-.42,.04-.27,.09-.55,.14-.83,.08-.17,.16-.35,.24-.54,0-.04-.03-.07-.08-.09l-.1,.06c-.11,.17-.24,.35-.41,.54-.17,.19-.37,.38-.6,.59-.36,.34-.72,.69-1.09,1.04-.02,.03-.06,.09-.12,.16-.05,.07-.12,.16-.19,.26-.04-.08-.08-.19-.14-.32-.05-.13-.11-.29-.17-.46-.01-.04-.03-.08-.05-.12-.02-.04-.05-.06-.08-.08Z"/>
  <path class="cls-1" d="M164.7,13.67c.12-.15,.23-.3,.34-.46,.52-.42,.94-.83,1.27-1.22,.33-.39,.57-.76,.72-1.09l-.11-.5c.09-.18,.32-.38,.68-.62,.37-.24,.66-.36,.88-.36,.24,0,.44,.07,.61,.21,.17,.14,.33,.29,.48,.44,.08,.05,.13,.09,.17,.12,.28,.21,.49,.5,.63,.87,.14,.38,.21,.83,.21,1.36,0,.28-.11,.68-.33,1.21-.22,.52-.33,.92-.33,1.19,0,.04,.01,.06,.04,.08,.02,.02,.06,.03,.1,.03,.09,0,.2-.04,.33-.12,.12-.08,.26-.19,.41-.33,.37-.37,.59-.57,.67-.61,.08-.04,.17-.1,.28-.2,.06,.14,.13,.29,.21,.45,.08,.16,.16,.33,.23,.52-.06,.06-.13,.13-.22,.2-.08,.08-.18,.16-.29,.26-.24,.17-.55,.39-.94,.64-.38,.25-.84,.54-1.38,.86-.14,.09-.3,.17-.49,.22-.29,0-.52-.04-.67-.13-.14-.09-.22-.23-.22-.43,0-.08,.02-.16,.05-.27,.03-.1,.07-.21,.13-.33,.04-.09,.09-.18,.14-.28,.05-.09,.09-.19,.13-.29,.16-.44,.28-.85,.36-1.23,.08-.38,.12-.72,.12-1.02,0-.37-.06-.65-.18-.85-.12-.2-.29-.31-.52-.34-.15,.08-.32,.2-.51,.36-.18,.15-.37,.35-.56,.58-.21,.25-.39,.46-.55,.62-.16,.16-.3,.27-.4,.33-.06,.1-.17,.22-.31,.36-.14,.13-.33,.28-.56,.43-.01,.03-.04,.07-.07,.12-.03,.06-.07,.12-.13,.19-.06-.16-.12-.32-.2-.48-.07-.16-.15-.32-.24-.49Z"/>
  <path class="cls-1" d="M171.75,13.67s.05-.05,.07-.08c.02-.03,.03-.06,.03-.1,.12-.1,.26-.23,.41-.41,.15-.17,.33-.37,.52-.6,.15-.21,.31-.42,.48-.64,.17-.21,.34-.42,.53-.63,.15-.21,.31-.43,.46-.66,.15-.23,.31-.45,.48-.67,.28-.13,.5-.23,.66-.28,.15-.06,.26-.09,.32-.09,.11,0,.19,.03,.24,.1,.05,.07,.08,.17,.08,.29,0,.04,0,.1-.03,.18-.02,.08-.04,.16-.07,.25-.05,.14-.11,.29-.17,.44-.06,.25-.12,.49-.2,.74-.08,.24-.15,.49-.22,.73-.07,.31-.12,.58-.16,.84-.04,.25-.06,.49-.06,.7,0,.39,.02,.68,.06,.87,.04,.19,.09,.28,.16,.26,.07-.04,.16-.1,.26-.15,.11-.06,.23-.13,.37-.21,.13-.13,.27-.3,.43-.5,.16-.2,.35-.43,.57-.7,.13-.2,.26-.39,.39-.58,.05-.06,.11-.12,.17-.2,.07-.08,.13-.16,.19-.23,.13-.34,.28-.59,.45-.76,.17-.17,.35-.25,.56-.25,.18,0,.33,.02,.44,.07,.11,.04,.19,.12,.23,.21,.02,.05,.04,.13,.05,.25,.01,.12,.02,.28,.02,.48,0,.07,.02,.19,.05,.34,.03,.15,.05,.26,.05,.33,0,.26,.04,.46,.14,.59,.09,.13,.23,.2,.42,.2,.05,0,.12,0,.19-.03,.07-.02,.15-.05,.22-.08l.44,.98c-.42,.26-.77,.45-1.04,.58-.27,.13-.47,.19-.61,.19-.35,0-.64-.09-.87-.27-.23-.18-.39-.46-.5-.81-.02-.09-.04-.17-.09-.25-.05-.08-.11-.17-.18-.25-.06,.07-.14,.16-.22,.25-.08,.1-.17,.2-.26,.3-.19,.23-.38,.46-.57,.68-.19,.22-.38,.44-.58,.66-.25,.29-.5,.5-.74,.63-.25,.13-.49,.2-.7,.2-.32,0-.58-.1-.78-.29-.2-.19-.32-.48-.38-.86-.06-.37-.1-.65-.12-.86-.02-.2-.03-.33-.01-.37-.01-.2-.03-.36-.06-.46-.03-.11-.06-.16-.11-.16l-.06,.03-.6,.62c-.02,.05-.06,.11-.11,.19-.05,.08-.12,.16-.2,.27-.03-.11-.08-.24-.15-.39-.07-.16-.17-.35-.29-.59Z"/>
  <path class="cls-1" d="M180.55,13.67l.06-.08c.03-.1,.09-.2,.19-.32,.1-.11,.23-.23,.41-.34,.24-.15,.42-.27,.55-.36,.13-.09,.21-.16,.24-.2,.06-.08,.11-.14,.13-.18,.08-.06,.17-.13,.29-.23,.11-.1,.24-.22,.38-.36,.05-.04,.1-.09,.16-.17,.06-.08,.12-.17,.17-.26,.09-.06,.2-.14,.31-.24,.11-.1,.25-.23,.4-.38,.18-.19,.38-.4,.6-.63,.22-.23,.47-.47,.75-.71,.09-.04,.18-.08,.26-.1,.08-.03,.16-.04,.24-.04,.32,0,.55,.08,.71,.23,.16,.15,.24,.37,.24,.65,0,.07-.01,.19-.04,.35-.03,.16-.05,.37-.08,.61-.1,.71-.17,1.15-.21,1.3-.04,.16-.19,.64-.45,1.46-.06,.13-.11,.3-.17,.5-.06,.2-.13,.43-.22,.72,.01,.03,.05,.06,.11,.08,.05,0,.14-.04,.27-.14,.13-.09,.3-.24,.51-.43,.25-.22,.44-.4,.58-.52,.14-.12,.23-.19,.27-.21,.08,.19,.16,.37,.23,.53,.07,.16,.13,.31,.18,.45-.09,.06-.18,.12-.25,.19-.07,.07-.14,.15-.21,.23-.15,.1-.32,.21-.51,.34-.2,.13-.41,.26-.64,.41-.11,.11-.25,.23-.43,.38-.18,.15-.38,.32-.61,.51l-.2,.04c-.1,.14-.19,.24-.28,.31-.09,.07-.17,.12-.24,.15-.11,.04-.22,.09-.34,.12-.12,.04-.24,.08-.36,.12-.07-.02-.13-.07-.17-.14-.04-.07-.05-.16-.04-.28-.11-.19-.19-.41-.25-.66-.06-.25-.09-.52-.09-.83,0-.06,0-.12,0-.18,0-.06,.01-.12,.02-.17-.05-.18-.08-.29-.08-.33,0-.21,.08-.38,.25-.52,.16-.14,.35-.2,.55-.2,.11,0,.18,.05,.23,.16,.05,.11,.09,.16,.14,.16,.05,0,.1-.1,.15-.29,.05-.19,.1-.48,.15-.85,.05-.33,.08-.61,.09-.85,.01-.24,.02-.42,.02-.55,0-.09-.02-.16-.06-.21-.04-.05-.1-.07-.2-.07s-.39,.21-.89,.64c-.5,.42-1.2,1.06-2.1,1.9-.03,.05-.07,.11-.12,.18-.05,.07-.12,.16-.19,.26-.03-.11-.08-.24-.15-.39-.07-.16-.17-.35-.29-.59Z"/>
  <path class="cls-1" d="M187.17,13.67l.04-.08c.04-.06,.1-.13,.17-.21,.07-.08,.15-.18,.24-.3,.5-.47,.99-1.02,1.47-1.67,.48-.65,.95-1.39,1.41-2.23,.05-.08,.12-.18,.19-.31,.07-.13,.15-.29,.23-.48,0-.04-.01-.08-.03-.1-.02-.02-.06-.03-.11-.03-.04,0-.11,.01-.2,.04-.09,.02-.17,.04-.22,.04h-1.32c-.06,0-.15,0-.28,0-.13,0-.22-.01-.28-.01-.07-.04-.13-.06-.2-.09-.06-.03-.12-.05-.17-.08-.09-.03-.15-.06-.2-.11-.05-.05-.07-.1-.07-.16,0-.45,.05-.79,.14-1.04,.1-.24,.24-.36,.44-.36s.38,0,.55,.03c.17,.02,.33,.04,.46,.07,.11-.02,.21-.04,.3-.06,.19,0,.35,0,.49,.02,.13,.02,.23,.03,.3,.05,.09-.02,.18-.04,.27-.06,.09-.01,.19-.03,.29-.06l.35,.1c.25-.03,.51-.37,.79-1.04,.28-.66,.58-.99,.9-.99,.17,0,.3,.06,.39,.16,.09,.1,.14,.26,.14,.46,0,.16-.05,.37-.15,.64-.1,.26-.15,.46-.17,.6,.02,.03,.03,.06,.05,.09,.03,.03,.06,.07,.11,.11,.04,.03,.07,.08,.09,.14,.02,.07,.03,.15,.03,.25,0,.42-.02,.75-.06,.98-.04,.23-.1,.35-.19,.35l-.71,.15c-.01,.07-.03,.16-.05,.26-.02,.1-.05,.22-.08,.36-.12,.35-.26,.8-.41,1.35-.15,.54-.32,1.19-.5,1.93-.11,.59-.2,1.07-.26,1.44-.06,.37-.09,.61-.09,.74,0,.11,.02,.2,.05,.25,.03,.06,.09,.08,.16,.08,.04,0,.2-.1,.46-.31,.27-.2,.64-.51,1.11-.91l.4,.98c-.07,.08-.17,.17-.29,.27-.13,.1-.28,.22-.46,.33-.07,.08-.16,.16-.26,.26-.11,.09-.22,.2-.35,.33-.13,.14-.25,.28-.38,.42-.12,.14-.25,.28-.38,.41-.17,.18-.33,.31-.5,.39-.16,.08-.31,.12-.45,.12-.31,0-.54-.09-.7-.27-.15-.18-.23-.46-.23-.83,0-.4,.01-.76,.04-1.05,.03-.3,.07-.54,.14-.72,.03-.06,.05-.11,.07-.15,0-.07,0-.17,.03-.29,.02-.12,.05-.26,.07-.42,.04-.27,.09-.55,.14-.83,.08-.17,.16-.35,.24-.54,0-.04-.03-.07-.08-.09l-.11,.06c-.11,.17-.24,.35-.41,.54-.17,.19-.37,.38-.6,.59-.36,.34-.72,.69-1.09,1.04-.02,.03-.06,.09-.11,.16-.06,.07-.12,.16-.19,.26-.04-.08-.08-.19-.14-.32-.06-.13-.11-.29-.17-.46-.02-.04-.03-.08-.05-.12-.02-.04-.05-.06-.08-.08Z"/>
</svg>