<?xml version="1.0" encoding="UTF-8"?><svg id="_圖層_1" xmlns="http://www.w3.org/2000/svg" viewBox="0 0 30 30"><defs><style>.cls-1{fill:#009adc;}</style></defs><g id="_正面訊息"><path class="cls-1" d="M28.93,15.11c.43-1.53-.13-3.13-1.4-4-.34-.22-.6-.56-.71-.96-.59-1.69-1.8-2.7-3.58-3.02-.08,0-.15-.05-.19-.12-.87-1.36-2.22-1.94-3.8-1.63-.1,.03-.2,0-.28-.05-1.3-.86-2.63-.93-3.95-.2-.04,.02-.08,.03-.12,0-1.95-.65-3.66-.29-5.09,1.08-.04,.05-.11,.07-.17,.05-1.46-.2-2.63,.28-3.47,1.43-.02,.03-.06,.05-.09,.04-.29,.01-.58,.07-.85,.17-1.52,.57-2.42,1.65-2.69,3.21-.03,.19-.12,.36-.24,.5-.71,.78-1.16,1.75-1.31,2.79-.41,2.92,1.63,5.62,4.55,6.02,.21,.03,.42,.05,.63,.05h.34c.47,0,.91,0,1.35,.1,.22,.05,.29,.1,.35,.23,.43,.9,1,1.57,1.74,2.06,.8,.52,1.71,.78,2.78,.8,.84,.01,1.55,.22,2.18,.61,1.64,1.04,2.43,2.36,2.41,4.05,0,.13,.04,.25,.12,.35,.09,.09,.22,.13,.35,.12h3.07c.16,0,.34,0,.46-.13s.09-.32,.07-.47c-.11-.75-.21-1.5-.32-2.25,.31,.01,.62,0,.92-.05,2.62-.41,4.41-2.39,4.58-5.03,0-.09,.02-.11,.09-.14,1.86-.83,2.79-2.77,2.26-4.73-.08-.3-.08-.61,.01-.91Zm-1.67,.95c.5,1.14,.13,2.39-.9,3.05-.45-1.4-1.29-2.45-2.49-3.12-.38-.22-.8-.39-1.23-.51-.47-.12-.88,.09-1.01,.53-.06,.19-.05,.41,.05,.59,.11,.2,.3,.35,.53,.41,.74,.22,1.33,.56,1.77,1.04,.93,1,1.24,2.18,.92,3.52-.23,.95-.83,1.77-1.66,2.28-.88,.52-1.92,.67-2.91,.41l-.19-.05-.28-.07c-.1-.02-.3-.07-.44,.06s-.12,.32-.1,.43c.05,.4,.11,.8,.17,1.21l.14,1.01c.02,.13,.03,.25,.05,.4-.28,0-.56,0-.87,0,0,0,0,0,0,0-.38-2.02-1.58-3.57-3.57-4.6-.84-.43-1.73-.56-2.8-.62-1.31-.07-2.26-.71-2.81-1.88-.48-1.02-.14-2.07,.85-2.62,.35-.19,.51-.47,.48-.83-.02-.31-.24-.58-.54-.67-.08-.03-.16-.04-.24-.04-.14,0-.28,.04-.41,.11-1.07,.56-1.7,1.45-1.88,2.68,0,.06-.02,.12-.03,.17l-.17-.06c-.32-.1-.66-.13-.99-.07-1.02,.17-2.13-.18-2.97-.94-.87-.78-1.32-1.92-1.22-3.09,.03-.45,.29-2.7,1.51-3.21,.02,0,.03-.02,.05-.03,.07-1.15,.95-2.08,2.09-2.22h.09c.1-.04,.2-.04,.31-.03,.52,.13,.72-.28,.79-.42,.32-.67,.85-1.03,1.62-1.1,.32-.02,.63,.04,.92,.17,.21,.08,.51,.11,.74-.23,.88-1.28,2.62-1.71,4.04-.99,.37,.19,.68,.15,1.02-.11,.59-.46,1.23-.55,1.9-.28-.63,.62-1,1.45-1.03,2.34-.02,.19,.02,.38,.12,.54,.16,.27,.47,.41,.78,.35,.33-.04,.59-.3,.63-.62,.02-.09,.03-.19,.04-.28,0-.12,.03-.24,.06-.36,.23-.82,.87-1.34,1.77-1.41,.78-.07,1.52,.4,1.84,1.16,.19,.44,.45,.63,.93,.65,1.49,.08,2.62,1.18,2.77,2.68,.04,.38,.2,.59,.56,.72,1.12,.37,1.73,1.57,1.36,2.69-.03,.1-.07,.2-.12,.3-.16,.31-.17,.68-.02,1h0Z"/><path class="cls-1" d="M14.34,13.8c-3.66,0-4.93-2.9-4.94-2.94-.14-.33,.02-.72,.35-.86,.33-.14,.72,.02,.86,.35h0c.06,.13,1.38,3.04,5.67,1.85,.35-.11,.72,.09,.82,.43,.11,.35-.09,.72-.43,.82-.01,0-.03,0-.04,.01-.74,.21-1.51,.33-2.29,.34Z"/><path class="cls-1" d="M14.82,16.91s-.05,0-.08,0c-1.02-.13-1.8-.54-2.31-1.24-.87-1.19-.61-2.75-.59-2.81,.06-.36,.4-.59,.76-.53s.59,.4,.53,.76c0,.03-.17,1.08,.37,1.8,.3,.4,.76,.63,1.41,.71,.36,.06,.6,.4,.54,.75-.05,.31-.31,.54-.62,.55h0Z"/><path class="cls-1" d="M6.4,13.74c-.18,0-.34-.07-.47-.2-.02-.02-.77-.75-1.65-.75h-.03c-.5,0-.96,.25-1.4,.73-.25,.27-.66,.28-.93,.04-.27-.25-.28-.66-.04-.93,.7-.76,1.49-1.14,2.36-1.16h.04c1.46,0,2.55,1.1,2.59,1.15,.25,.26,.25,.67,0,.93-.12,.12-.29,.19-.46,.19h0Z"/><path class="cls-1" d="M20.57,22.32c-.09,0-.18-.02-.26-.05-2.93-1.28-3.12-3.63-2.81-4.69,.1-.35,.46-.55,.81-.45,.35,.1,.55,.46,.45,.81-.06,.21-.47,2.02,2.07,3.12,.33,.14,.49,.53,.34,.86-.1,.24-.34,.4-.6,.4h0Z"/></g></svg>