<svg xmlns="http://www.w3.org/2000/svg" viewBox="0 0 512 512"><defs><style>.cls-1{fill:#009adc;}</style></defs><g id="正面訊息"><path class="cls-1" d="M405.58,238.6c4.63-16.38-1.42-33.66-15.07-43a18.72,18.72,0,0,1-7.67-10.26c-6.37-18.12-19.32-29-38.48-32.41a2.56,2.56,0,0,1-2.06-1.25c-9.3-14.61-23.8-20.82-40.78-17.52a3.59,3.59,0,0,1-3-.52c-14-9.27-28.25-10-42.39-2.17a1.26,1.26,0,0,1-1.29.05c-20.9-7-39.28-3.13-54.66,11.61a1.77,1.77,0,0,1-1.85.59c-15.69-2.15-28.21,3-37.22,15.34a.93.93,0,0,1-1,.47,28.37,28.37,0,0,0-9.1,1.84c-16.28,6.12-26,17.73-28.89,34.5a10.41,10.41,0,0,1-2.63,5.38,56.47,56.47,0,0,0-14.1,30,57.33,57.33,0,0,0,55.62,65.2h3.7c5,0,9.75,0,14.47,1.1,2.36.56,3.11,1.05,3.79,2.47,4.65,9.68,10.78,16.91,18.74,22.1,8.57,5.59,18.34,8.41,29.85,8.61,9,.16,16.66,2.31,23.42,6.57,17.64,11.12,26.09,25.35,25.84,43.51a5.13,5.13,0,0,0,1.3,3.76,5.07,5.07,0,0,0,3.72,1.31c4,0,8.06,0,12.08,0l20.85.06c1.72,0,3.67,0,4.95-1.48s1-3.39.78-5.08q-1.71-12.09-3.45-24.15a51.16,51.16,0,0,0,9.93-.54c28.09-4.44,47.4-25.66,49.17-54.06.06-1,.2-1.13,1-1.49,19.94-8.9,29.94-29.78,24.32-50.76A17.59,17.59,0,0,1,405.58,238.6Zm-17.9,10.24c5.36,12.27,1.37,25.62-9.69,32.72-4.83-15.08-13.84-26.35-26.78-33.49a54.8,54.8,0,0,0-13.16-5.43c-5.1-1.25-9.44,1-10.87,5.65a8.17,8.17,0,0,0,.53,6.3,9.24,9.24,0,0,0,5.66,4.36c8,2.39,14.25,6,19,11.14,10,10.73,13.36,23.45,9.83,37.85a39.17,39.17,0,0,1-17.88,24.44,40.8,40.8,0,0,1-31.27,4.45l-2-.52-3-.78c-1.12-.25-3.2-.74-4.72.65s-1.25,3.49-1.09,4.61c.59,4.32,1.21,8.63,1.82,12.95l1.51,10.81c.18,1.36.36,2.72.58,4.29-3-.06-6.05-.06-9.31,0a.2.2,0,0,0,0-.07c-4.08-21.69-17-38.3-38.38-49.37-9-4.65-18.53-6.05-30.08-6.7-14.06-.8-24.23-7.6-30.22-20.22-5.19-10.91-1.51-22.21,9.15-28.11,3.75-2.08,5.49-5.07,5.16-8.88a8.08,8.08,0,0,0-5.77-7.16,7.74,7.74,0,0,0-2.63-.45,9.45,9.45,0,0,0-4.36,1.15c-11.46,6-18.25,15.54-20.22,28.78-.09.61-.19,1.25-.28,1.79l-1.86-.6a21.92,21.92,0,0,0-10.61-.71c-11,1.86-22.89-1.94-31.86-10.14A40,40,0,0,1,121.78,235c.36-4.8,3.08-29,16.25-34.51a3,3,0,0,0,.54-.35A25.73,25.73,0,0,1,161,176.27l1-.15a9.44,9.44,0,0,1,3.29-.16c5.63,1.4,7.74-3,8.44-4.47,3.47-7.19,9.17-11.05,17.39-11.82a20.65,20.65,0,0,1,9.86,1.82c2.24.91,5.43,1.21,7.95-2.44,9.48-13.78,28.13-18.37,43.39-10.68,4,2,7.27,1.64,11-1.21,6.34-4.94,13.19-5.94,20.39-3a36.82,36.82,0,0,0-11.1,25.08,9,9,0,0,0,1.26,5.75,8.08,8.08,0,0,0,8.39,3.77,7.79,7.79,0,0,0,6.81-6.7c.18-1,.29-2,.4-3a23.94,23.94,0,0,1,.62-3.85c2.46-8.84,9.38-14.36,19-15.18,8.42-.72,16.34,4.31,19.77,12.5,2,4.76,4.81,6.72,10,7,16,.83,28.19,12.68,29.74,28.82.4,4.06,2.19,6.35,6,7.68a22.89,22.89,0,0,1,13.33,32.07A12.14,12.14,0,0,0,387.68,248.84Z"/><path class="cls-1" d="M248.91,224.44c-39.35,0-52.93-31.16-53.09-31.54a7.05,7.05,0,0,1,13-5.48c.61,1.41,14.8,32.61,60.91,19.82a7.06,7.06,0,1,1,3.77,13.6A92.12,92.12,0,0,1,248.91,224.44Z"/><path class="cls-1" d="M254.09,257.9a6.49,6.49,0,0,1-.88,0c-11-1.35-19.3-5.85-24.84-13.36C219,231.71,221.82,215,222,214.32a7.05,7.05,0,0,1,13.89,2.48c-.05.28-1.84,11.61,3.94,19.38,3.19,4.29,8.15,6.8,15.16,7.67a7.05,7.05,0,0,1-.85,14Z"/><path class="cls-1" d="M163.66,223.84a7,7,0,0,1-5-2.12c-.24-.23-8.22-8.09-17.75-8.09h-.31c-5.34.09-10.27,2.67-15.06,7.86a7.05,7.05,0,0,1-10.37-9.56c7.48-8.11,16-12.29,25.33-12.41h.41c15.66,0,27.35,11.84,27.85,12.34a7.05,7.05,0,0,1-5.06,12Z"/><path class="cls-1" d="M315.77,315.94a7,7,0,0,1-2.81-.59c-31.5-13.7-33.5-39-30.16-50.38a7.05,7.05,0,0,1,13.56,3.9c-.61,2.23-5,21.72,22.23,33.55a7.05,7.05,0,0,1-2.82,13.52Z"/></g></svg>