<?xml version="1.0" encoding="UTF-8"?>
<svg class="iconWidth" id="_圖層_1" data-name="圖層 1" xmlns="http://www.w3.org/2000/svg" viewBox="0 0 73.29 73.29">
  <path class="socialList-fill" d="M43.72,.71c-1.4-.28-2.82-.39-4.24-.59-.21-.03-.41-.08-.62-.12h-4.57c-1.32,.18-2.64,.33-3.94,.55C22.03,1.99,15.05,5.88,9.4,12.12,4.36,17.69,1.36,24.24,.32,31.68c-.12,.87-.21,1.74-.32,2.61v4.57c.18,1.32,.31,2.64,.55,3.95,1.65,9.28,6.21,16.84,13.62,22.64,7.06,5.52,15.15,8.05,24.09,7.66,17.14-.75,31.4-13.37,34.35-30.31C76,23.29,63.13,4.54,43.72,.71ZM12.3,45.17c-.58,1.28-1.23,1.69-2.26,1.57-1.52-.18-2.22-1.29-1.65-2.7,.42-1.04,.85-2.07,1.39-3.05,.42-.76,.4-1.4,.04-2.19-1.39-3.05-2.71-6.13-4.05-9.2-.09-.22-.17-.44-.24-.67-.28-1.04,0-1.8,.79-2.21,1.06-.54,2.12-.36,2.76,.49,.21,.28,.37,.61,.5,.94,.81,2,1.61,4.01,2.42,6.02,.11,.28,.24,.56,.44,1.03,1-2.36,1.92-4.55,2.84-6.73,.13-.31,.25-.62,.4-.91,.5-1,1.12-1.32,2.2-1.12,1.53,.27,2.16,1.35,1.53,2.78-2.35,5.33-4.73,10.65-7.12,15.96Zm12.68-4.66c-3.78,.07-6.52-2.53-6.61-6.26-.09-3.52,2.79-6.48,6.36-6.53,3.66-.06,6.62,2.72,6.7,6.27,.08,3.89-2.45,6.45-6.44,6.53Zm18.41-4.08c-.16,1.96-1.45,3.22-3.28,3.84-1.86,.64-3.75,.6-5.61-.02-1.76-.58-2.73-1.96-2.77-3.83-.02-.98,0-1.95,0-2.93,0-1.05-.02-2.1,0-3.14,.03-1.17,.62-1.85,1.65-2,.86-.12,1.57,.34,1.77,1.18,.08,.34,.11,.71,.11,1.06,0,1.79,0,3.57,0,5.36,0,1.33,.72,2.06,2.05,2.15,1.36,.1,2.36-.61,2.57-1.83,.06-.33,.07-.66,.07-.99,.01-1.83-.01-3.67,.04-5.5,.03-1.07,.73-1.7,1.72-1.72,1.03-.02,1.72,.54,1.74,1.65,.04,2.24,.11,4.48-.08,6.71Zm12.21,3.3c-.56,.71-1.91,.85-2.74,.21-.87-.66-1.68-1.4-2.52-2.1-.84-.7-1.67-1.41-2.69-2.27,0,1.09,0,1.99,0,2.88-.01,1.67-1.02,2.41-2.64,1.95-.74-.21-1.1-.76-1.1-1.49-.02-3.02-.04-6.04,.01-9.07,.02-1.2,.71-1.72,1.92-1.7,1.13,.03,1.73,.61,1.77,1.78,.03,.96,0,1.92,0,2.88,.07,.02,.13,.04,.2,.06,.46-.43,.92-.87,1.38-1.3,.97-.92,1.9-1.88,2.92-2.72,.44-.37,1.08-.65,1.65-.68,1.35-.07,2.19,1.35,1.56,2.54-.2,.37-.49,.7-.8,.98-.91,.83-1.85,1.63-2.85,2.51,.82,.7,1.6,1.37,2.39,2.04,.36,.31,.74,.61,1.08,.93,.79,.73,.99,1.88,.45,2.56Zm12.11-3.73c-.06,2.09-1.16,3.55-3.16,4.18-1.79,.56-3.61,.56-5.41,.02-2.08-.62-3.14-2-3.22-4.27-.06-1.92-.04-3.85,0-5.78,.02-1.21,.52-1.83,1.45-1.98,1.21-.2,2.04,.52,2.06,1.84,.03,1.88,0,3.76,.03,5.64,.02,1.71,1.3,2.7,2.98,2.32,1.06-.24,1.7-1.04,1.71-2.16,.01-1.9-.02-3.81,.01-5.71,.02-1.49,1.11-2.29,2.42-1.83,.82,.29,1.07,.95,1.13,1.73,0,.05,0,.1,0,.14,0,1,0,2,0,3h0c0,.95,.02,1.9,0,2.85Z"/>
  <path class="socialList-fill" d="M25.3,30.84c-1.79-.26-3.3,1.25-3.31,3.32-.01,1.82,1.15,3.32,2.66,3.43,1.78,.13,3.25-1.51,3.15-3.52-.08-1.68-1.13-3.03-2.49-3.23Z"/>
</svg>